G04 #@! TF.FileFunction,Soldermask,Top*
%FSLAX46Y46*%
G04 Gerber Fmt 4.6, Leading zero omitted, Abs format (unit mm)*
G04 Created by KiCad (PCBNEW 4.0.6) date 09/01/17 14:50:38*
%MOMM*%
%LPD*%
G01*
G04 APERTURE LIST*
%ADD10C,0.100000*%
%ADD11C,0.010000*%
%ADD12C,2.430000*%
%ADD13O,3.450000X2.430000*%
%ADD14C,4.900000*%
%ADD15O,1.910000X3.410000*%
%ADD16O,2.940000X2.432000*%
%ADD17O,3.410000X1.910000*%
%ADD18R,2.400000X2.400000*%
%ADD19C,2.400000*%
%ADD20C,1.924000*%
%ADD21R,3.900000X3.900000*%
%ADD22C,2.899360*%
%ADD23C,2.740000*%
%ADD24C,6.800000*%
%ADD25C,1.000000*%
%ADD26C,3.400000*%
%ADD27C,2.800000*%
%ADD28O,2.800000X2.800000*%
%ADD29R,2.398980X2.398980*%
G04 APERTURE END LIST*
D10*
D11*
G36*
X96943747Y-74320400D02*
X97489059Y-74320400D01*
X97290279Y-74521787D01*
X96960571Y-74884691D01*
X96746151Y-75158815D01*
X96667703Y-75262400D01*
X96573144Y-75382529D01*
X96473050Y-75506202D01*
X96377998Y-75620419D01*
X96298566Y-75712181D01*
X96273468Y-75739760D01*
X96192036Y-75827212D01*
X96261994Y-75918356D01*
X96397436Y-76107604D01*
X96484978Y-76247050D01*
X96539848Y-76329286D01*
X96601124Y-76408612D01*
X96606273Y-76414607D01*
X96675222Y-76497581D01*
X96755747Y-76600137D01*
X96838942Y-76710288D01*
X96915902Y-76816047D01*
X96977719Y-76905425D01*
X97013376Y-76962547D01*
X97048457Y-77015596D01*
X97106986Y-77094062D01*
X97178820Y-77185252D01*
X97253815Y-77276472D01*
X97321828Y-77355032D01*
X97358200Y-77394020D01*
X97382089Y-77420081D01*
X97424363Y-77467406D01*
X97432477Y-77476570D01*
X97494055Y-77546200D01*
X96367600Y-77546200D01*
X96367600Y-77467923D01*
X96350837Y-77391395D01*
X96303607Y-77286149D01*
X96230493Y-77160239D01*
X96136081Y-77021716D01*
X96048542Y-76907533D01*
X95977268Y-76815313D01*
X95911947Y-76724269D01*
X95864777Y-76651535D01*
X95858671Y-76640833D01*
X95818629Y-76574434D01*
X95783342Y-76526284D01*
X95774699Y-76517500D01*
X95740138Y-76478816D01*
X95699915Y-76422250D01*
X95662226Y-76374093D01*
X95631715Y-76352487D01*
X95630414Y-76352400D01*
X95621538Y-76377091D01*
X95614418Y-76448381D01*
X95609264Y-76562092D01*
X95606283Y-76714044D01*
X95605600Y-76848961D01*
X95606284Y-77028263D01*
X95608695Y-77164270D01*
X95613375Y-77264475D01*
X95620863Y-77336369D01*
X95631698Y-77387443D01*
X95646421Y-77425188D01*
X95647244Y-77426811D01*
X95682717Y-77486491D01*
X95714223Y-77524618D01*
X95717094Y-77526761D01*
X95701597Y-77532323D01*
X95642247Y-77537262D01*
X95545986Y-77541312D01*
X95419759Y-77544207D01*
X95270511Y-77545682D01*
X95218794Y-77545811D01*
X94692289Y-77546200D01*
X94721968Y-77476350D01*
X94750141Y-77417758D01*
X94772224Y-77382370D01*
X94776057Y-77353142D01*
X94779657Y-77277781D01*
X94782959Y-77160951D01*
X94785896Y-77007317D01*
X94788399Y-76821546D01*
X94790404Y-76608302D01*
X94791842Y-76372251D01*
X94792647Y-76118059D01*
X94792799Y-75946290D01*
X94792741Y-75642311D01*
X94792470Y-75384912D01*
X94791846Y-75169874D01*
X94790726Y-74992978D01*
X94788969Y-74850004D01*
X94786433Y-74736733D01*
X94782976Y-74648945D01*
X94778457Y-74582421D01*
X94772733Y-74532941D01*
X94765662Y-74496286D01*
X94757104Y-74468237D01*
X94746916Y-74444574D01*
X94741999Y-74434699D01*
X94711244Y-74372869D01*
X94693190Y-74333660D01*
X94691199Y-74327729D01*
X94715335Y-74325507D01*
X94782688Y-74323556D01*
X94885672Y-74321984D01*
X95016706Y-74320901D01*
X95168205Y-74320415D01*
X95201917Y-74320400D01*
X95375060Y-74320664D01*
X95503629Y-74321831D01*
X95593846Y-74324464D01*
X95651937Y-74329123D01*
X95684124Y-74336372D01*
X95696632Y-74346772D01*
X95695686Y-74360885D01*
X95694164Y-74364850D01*
X95660805Y-74453673D01*
X95636739Y-74542181D01*
X95620580Y-74641141D01*
X95610942Y-74761321D01*
X95606440Y-74913488D01*
X95605600Y-75053088D01*
X95605599Y-75472904D01*
X95681799Y-75399900D01*
X95729413Y-75349557D01*
X95755994Y-75312278D01*
X95758000Y-75305483D01*
X95773137Y-75279550D01*
X95812628Y-75226128D01*
X95867588Y-75156145D01*
X95929132Y-75080529D01*
X95988377Y-75010209D01*
X96036439Y-74956114D01*
X96063239Y-74930000D01*
X96085561Y-74902734D01*
X96123936Y-74846630D01*
X96151802Y-74803000D01*
X96210005Y-74715298D01*
X96272951Y-74628698D01*
X96295299Y-74600362D01*
X96340013Y-74533736D01*
X96365408Y-74472643D01*
X96367600Y-74456390D01*
X96368122Y-74412677D01*
X96373791Y-74379502D01*
X96390762Y-74355412D01*
X96425189Y-74338955D01*
X96483226Y-74328677D01*
X96571028Y-74323127D01*
X96694750Y-74320851D01*
X96860545Y-74320396D01*
X96943747Y-74320400D01*
X96943747Y-74320400D01*
G37*
X96943747Y-74320400D02*
X97489059Y-74320400D01*
X97290279Y-74521787D01*
X96960571Y-74884691D01*
X96746151Y-75158815D01*
X96667703Y-75262400D01*
X96573144Y-75382529D01*
X96473050Y-75506202D01*
X96377998Y-75620419D01*
X96298566Y-75712181D01*
X96273468Y-75739760D01*
X96192036Y-75827212D01*
X96261994Y-75918356D01*
X96397436Y-76107604D01*
X96484978Y-76247050D01*
X96539848Y-76329286D01*
X96601124Y-76408612D01*
X96606273Y-76414607D01*
X96675222Y-76497581D01*
X96755747Y-76600137D01*
X96838942Y-76710288D01*
X96915902Y-76816047D01*
X96977719Y-76905425D01*
X97013376Y-76962547D01*
X97048457Y-77015596D01*
X97106986Y-77094062D01*
X97178820Y-77185252D01*
X97253815Y-77276472D01*
X97321828Y-77355032D01*
X97358200Y-77394020D01*
X97382089Y-77420081D01*
X97424363Y-77467406D01*
X97432477Y-77476570D01*
X97494055Y-77546200D01*
X96367600Y-77546200D01*
X96367600Y-77467923D01*
X96350837Y-77391395D01*
X96303607Y-77286149D01*
X96230493Y-77160239D01*
X96136081Y-77021716D01*
X96048542Y-76907533D01*
X95977268Y-76815313D01*
X95911947Y-76724269D01*
X95864777Y-76651535D01*
X95858671Y-76640833D01*
X95818629Y-76574434D01*
X95783342Y-76526284D01*
X95774699Y-76517500D01*
X95740138Y-76478816D01*
X95699915Y-76422250D01*
X95662226Y-76374093D01*
X95631715Y-76352487D01*
X95630414Y-76352400D01*
X95621538Y-76377091D01*
X95614418Y-76448381D01*
X95609264Y-76562092D01*
X95606283Y-76714044D01*
X95605600Y-76848961D01*
X95606284Y-77028263D01*
X95608695Y-77164270D01*
X95613375Y-77264475D01*
X95620863Y-77336369D01*
X95631698Y-77387443D01*
X95646421Y-77425188D01*
X95647244Y-77426811D01*
X95682717Y-77486491D01*
X95714223Y-77524618D01*
X95717094Y-77526761D01*
X95701597Y-77532323D01*
X95642247Y-77537262D01*
X95545986Y-77541312D01*
X95419759Y-77544207D01*
X95270511Y-77545682D01*
X95218794Y-77545811D01*
X94692289Y-77546200D01*
X94721968Y-77476350D01*
X94750141Y-77417758D01*
X94772224Y-77382370D01*
X94776057Y-77353142D01*
X94779657Y-77277781D01*
X94782959Y-77160951D01*
X94785896Y-77007317D01*
X94788399Y-76821546D01*
X94790404Y-76608302D01*
X94791842Y-76372251D01*
X94792647Y-76118059D01*
X94792799Y-75946290D01*
X94792741Y-75642311D01*
X94792470Y-75384912D01*
X94791846Y-75169874D01*
X94790726Y-74992978D01*
X94788969Y-74850004D01*
X94786433Y-74736733D01*
X94782976Y-74648945D01*
X94778457Y-74582421D01*
X94772733Y-74532941D01*
X94765662Y-74496286D01*
X94757104Y-74468237D01*
X94746916Y-74444574D01*
X94741999Y-74434699D01*
X94711244Y-74372869D01*
X94693190Y-74333660D01*
X94691199Y-74327729D01*
X94715335Y-74325507D01*
X94782688Y-74323556D01*
X94885672Y-74321984D01*
X95016706Y-74320901D01*
X95168205Y-74320415D01*
X95201917Y-74320400D01*
X95375060Y-74320664D01*
X95503629Y-74321831D01*
X95593846Y-74324464D01*
X95651937Y-74329123D01*
X95684124Y-74336372D01*
X95696632Y-74346772D01*
X95695686Y-74360885D01*
X95694164Y-74364850D01*
X95660805Y-74453673D01*
X95636739Y-74542181D01*
X95620580Y-74641141D01*
X95610942Y-74761321D01*
X95606440Y-74913488D01*
X95605600Y-75053088D01*
X95605599Y-75472904D01*
X95681799Y-75399900D01*
X95729413Y-75349557D01*
X95755994Y-75312278D01*
X95758000Y-75305483D01*
X95773137Y-75279550D01*
X95812628Y-75226128D01*
X95867588Y-75156145D01*
X95929132Y-75080529D01*
X95988377Y-75010209D01*
X96036439Y-74956114D01*
X96063239Y-74930000D01*
X96085561Y-74902734D01*
X96123936Y-74846630D01*
X96151802Y-74803000D01*
X96210005Y-74715298D01*
X96272951Y-74628698D01*
X96295299Y-74600362D01*
X96340013Y-74533736D01*
X96365408Y-74472643D01*
X96367600Y-74456390D01*
X96368122Y-74412677D01*
X96373791Y-74379502D01*
X96390762Y-74355412D01*
X96425189Y-74338955D01*
X96483226Y-74328677D01*
X96571028Y-74323127D01*
X96694750Y-74320851D01*
X96860545Y-74320396D01*
X96943747Y-74320400D01*
G36*
X98526600Y-76284045D02*
X98526821Y-76555528D01*
X98527583Y-76780618D01*
X98529026Y-76963721D01*
X98531294Y-77109240D01*
X98534531Y-77221583D01*
X98538878Y-77305155D01*
X98544480Y-77364359D01*
X98551478Y-77403603D01*
X98560016Y-77427292D01*
X98563892Y-77433395D01*
X98590178Y-77470943D01*
X98600891Y-77499085D01*
X98590710Y-77519174D01*
X98554312Y-77532563D01*
X98486376Y-77540605D01*
X98381578Y-77544653D01*
X98234598Y-77546060D01*
X98120200Y-77546200D01*
X97969918Y-77545515D01*
X97838727Y-77543608D01*
X97734427Y-77540702D01*
X97664819Y-77537017D01*
X97637705Y-77532776D01*
X97637600Y-77532488D01*
X97648155Y-77503454D01*
X97674726Y-77446509D01*
X97688400Y-77419200D01*
X97701266Y-77391760D01*
X97711759Y-77361394D01*
X97720120Y-77322920D01*
X97726591Y-77271155D01*
X97731411Y-77200918D01*
X97734822Y-77107027D01*
X97737065Y-76984301D01*
X97738381Y-76827559D01*
X97739010Y-76631617D01*
X97739195Y-76391296D01*
X97739200Y-76326750D01*
X97738947Y-76069269D01*
X97738071Y-75857749D01*
X97736396Y-75687351D01*
X97733748Y-75553238D01*
X97729950Y-75450571D01*
X97724827Y-75374513D01*
X97718203Y-75320226D01*
X97709903Y-75282872D01*
X97700447Y-75258938D01*
X97661695Y-75184000D01*
X98526600Y-75184000D01*
X98526600Y-76284045D01*
X98526600Y-76284045D01*
G37*
X98526600Y-76284045D02*
X98526821Y-76555528D01*
X98527583Y-76780618D01*
X98529026Y-76963721D01*
X98531294Y-77109240D01*
X98534531Y-77221583D01*
X98538878Y-77305155D01*
X98544480Y-77364359D01*
X98551478Y-77403603D01*
X98560016Y-77427292D01*
X98563892Y-77433395D01*
X98590178Y-77470943D01*
X98600891Y-77499085D01*
X98590710Y-77519174D01*
X98554312Y-77532563D01*
X98486376Y-77540605D01*
X98381578Y-77544653D01*
X98234598Y-77546060D01*
X98120200Y-77546200D01*
X97969918Y-77545515D01*
X97838727Y-77543608D01*
X97734427Y-77540702D01*
X97664819Y-77537017D01*
X97637705Y-77532776D01*
X97637600Y-77532488D01*
X97648155Y-77503454D01*
X97674726Y-77446509D01*
X97688400Y-77419200D01*
X97701266Y-77391760D01*
X97711759Y-77361394D01*
X97720120Y-77322920D01*
X97726591Y-77271155D01*
X97731411Y-77200918D01*
X97734822Y-77107027D01*
X97737065Y-76984301D01*
X97738381Y-76827559D01*
X97739010Y-76631617D01*
X97739195Y-76391296D01*
X97739200Y-76326750D01*
X97738947Y-76069269D01*
X97738071Y-75857749D01*
X97736396Y-75687351D01*
X97733748Y-75553238D01*
X97729950Y-75450571D01*
X97724827Y-75374513D01*
X97718203Y-75320226D01*
X97709903Y-75282872D01*
X97700447Y-75258938D01*
X97661695Y-75184000D01*
X98526600Y-75184000D01*
X98526600Y-76284045D01*
G36*
X98285941Y-73417960D02*
X98403545Y-73484395D01*
X98497023Y-73587045D01*
X98540812Y-73673124D01*
X98571422Y-73811614D01*
X98562321Y-73949591D01*
X98514973Y-74071084D01*
X98502588Y-74089850D01*
X98412149Y-74177408D01*
X98293271Y-74237553D01*
X98160333Y-74267418D01*
X98027713Y-74264134D01*
X97909790Y-74224832D01*
X97889006Y-74212244D01*
X97806737Y-74133394D01*
X97738914Y-74024770D01*
X97696747Y-73907295D01*
X97688400Y-73837799D01*
X97707674Y-73728575D01*
X97758190Y-73614110D01*
X97828982Y-73515158D01*
X97884642Y-73466295D01*
X98016861Y-73405876D01*
X98153837Y-73390776D01*
X98285941Y-73417960D01*
X98285941Y-73417960D01*
G37*
X98285941Y-73417960D02*
X98403545Y-73484395D01*
X98497023Y-73587045D01*
X98540812Y-73673124D01*
X98571422Y-73811614D01*
X98562321Y-73949591D01*
X98514973Y-74071084D01*
X98502588Y-74089850D01*
X98412149Y-74177408D01*
X98293271Y-74237553D01*
X98160333Y-74267418D01*
X98027713Y-74264134D01*
X97909790Y-74224832D01*
X97889006Y-74212244D01*
X97806737Y-74133394D01*
X97738914Y-74024770D01*
X97696747Y-73907295D01*
X97688400Y-73837799D01*
X97707674Y-73728575D01*
X97758190Y-73614110D01*
X97828982Y-73515158D01*
X97884642Y-73466295D01*
X98016861Y-73405876D01*
X98153837Y-73390776D01*
X98285941Y-73417960D01*
D12*
X125804199Y-98180030D02*
X124979001Y-98779570D01*
X129232199Y-92863961D02*
X128917001Y-93834039D01*
X128866201Y-86564761D02*
X129181399Y-87534839D01*
X124852001Y-81619230D02*
X125677199Y-82218770D01*
D13*
X119295600Y-80014000D03*
D12*
X113713799Y-81644630D02*
X112888601Y-82244170D01*
X109724999Y-86564761D02*
X109409801Y-87534839D01*
X109333601Y-92711561D02*
X109648799Y-93681639D01*
X112787001Y-98180030D02*
X113612199Y-98779570D01*
D14*
X119300000Y-90250000D03*
D15*
X55118000Y-103124000D03*
X57658000Y-103124000D03*
X60198000Y-103124000D03*
X62738000Y-103124000D03*
X65278000Y-103124000D03*
X67818000Y-103124000D03*
D16*
X132000000Y-56000000D03*
X132000000Y-53460000D03*
X132000000Y-58540000D03*
X132000000Y-124000000D03*
X132000000Y-121460000D03*
X132000000Y-126540000D03*
X105750000Y-55750000D03*
X105750000Y-58290000D03*
X105750000Y-53210000D03*
X105000000Y-124500000D03*
X105000000Y-127040000D03*
X105000000Y-121960000D03*
X85500000Y-124540000D03*
X85500000Y-122000000D03*
X85500000Y-127080000D03*
X87250000Y-55500000D03*
X87250000Y-58040000D03*
X87250000Y-52960000D03*
D17*
X153500000Y-96000000D03*
X153500000Y-93460000D03*
X153500000Y-90920000D03*
X153500000Y-88380000D03*
X153500000Y-85840000D03*
X153500000Y-83300000D03*
D18*
X100750000Y-86750000D03*
D19*
X95750000Y-86750000D03*
D18*
X139250000Y-86500000D03*
D19*
X144250000Y-86500000D03*
D18*
X146000000Y-55750000D03*
D19*
X151000000Y-55750000D03*
D18*
X146000000Y-124000000D03*
D19*
X151000000Y-124000000D03*
D18*
X59250000Y-122250000D03*
D19*
X59250000Y-117250000D03*
D18*
X71750000Y-122250000D03*
D19*
X71750000Y-117250000D03*
D20*
X140290000Y-75460000D03*
X142830000Y-78000000D03*
X137750000Y-78000000D03*
X140290000Y-102210000D03*
X142830000Y-104750000D03*
X137750000Y-104750000D03*
D21*
X70750000Y-128500000D03*
X70750000Y-134500000D03*
X75450000Y-131500000D03*
D12*
X123162599Y-94700230D02*
X122337401Y-95299770D01*
X125057599Y-91584961D02*
X124742401Y-92555039D01*
X124742401Y-87934961D02*
X125057599Y-88905039D01*
X122337401Y-85190230D02*
X123162599Y-85789770D01*
D13*
X119300000Y-84350000D03*
D12*
X116252599Y-85190230D02*
X115427401Y-85789770D01*
X113847599Y-87934961D02*
X113532401Y-88905039D01*
X113532401Y-91544961D02*
X113847599Y-92515039D01*
X115427401Y-94700230D02*
X116252599Y-95299770D01*
D14*
X119300000Y-90250000D03*
D22*
X125300000Y-73900000D03*
X125500000Y-105400000D03*
D23*
X57230000Y-92964000D03*
X57230000Y-87964000D03*
X57230000Y-82964000D03*
X62230000Y-92964000D03*
X62230000Y-87964000D03*
X62230000Y-82964000D03*
D24*
X59000000Y-44000000D03*
D25*
X61400000Y-44000000D03*
X60697056Y-45697056D03*
X59000000Y-46400000D03*
X57302944Y-45697056D03*
X56600000Y-44000000D03*
X57302944Y-42302944D03*
X59000000Y-41600000D03*
X60697056Y-42302944D03*
D24*
X152000000Y-44000000D03*
D25*
X154400000Y-44000000D03*
X153697056Y-45697056D03*
X152000000Y-46400000D03*
X150302944Y-45697056D03*
X149600000Y-44000000D03*
X150302944Y-42302944D03*
X152000000Y-41600000D03*
X153697056Y-42302944D03*
D24*
X152000000Y-137000000D03*
D25*
X154400000Y-137000000D03*
X153697056Y-138697056D03*
X152000000Y-139400000D03*
X150302944Y-138697056D03*
X149600000Y-137000000D03*
X150302944Y-135302944D03*
X152000000Y-134600000D03*
X153697056Y-135302944D03*
D24*
X59000000Y-137000000D03*
D25*
X61400000Y-137000000D03*
X60697056Y-138697056D03*
X59000000Y-139400000D03*
X57302944Y-138697056D03*
X56600000Y-137000000D03*
X57302944Y-135302944D03*
X59000000Y-134600000D03*
X60697056Y-135302944D03*
D26*
X88392000Y-46716000D03*
X88392000Y-64516000D03*
X106934000Y-46970000D03*
X106934000Y-64770000D03*
X130810000Y-65024000D03*
X130810000Y-47224000D03*
X84250000Y-133500000D03*
X84250000Y-115700000D03*
X106172000Y-115550000D03*
X106172000Y-133350000D03*
X130810000Y-132842000D03*
X130810000Y-115042000D03*
D27*
X59690000Y-74930000D03*
D28*
X59690000Y-49530000D03*
D27*
X118872000Y-68580000D03*
D28*
X118872000Y-43180000D03*
D27*
X118750000Y-111250000D03*
D28*
X118750000Y-136650000D03*
D27*
X72136000Y-74930000D03*
D28*
X72136000Y-49530000D03*
D19*
X87200000Y-94500000D03*
X77200000Y-94500000D03*
X87250000Y-86000000D03*
X77250000Y-86000000D03*
D10*
G36*
X152863060Y-68100550D02*
X152863060Y-72399450D01*
X148962940Y-71299630D01*
X148962940Y-69200370D01*
X152863060Y-68100550D01*
X152863060Y-68100550D01*
G37*
G36*
X144136940Y-72399450D02*
X144136940Y-68100550D01*
X148037060Y-69200370D01*
X148037060Y-71299630D01*
X144136940Y-72399450D01*
X144136940Y-72399450D01*
G37*
D29*
X154001640Y-70250000D03*
X142998360Y-70250000D03*
D10*
G36*
X86613060Y-77850550D02*
X86613060Y-82149450D01*
X82712940Y-81049630D01*
X82712940Y-78950370D01*
X86613060Y-77850550D01*
X86613060Y-77850550D01*
G37*
G36*
X77886940Y-82149450D02*
X77886940Y-77850550D01*
X81787060Y-78950370D01*
X81787060Y-81049630D01*
X77886940Y-82149450D01*
X77886940Y-82149450D01*
G37*
D29*
X87751640Y-80000000D03*
X76748360Y-80000000D03*
D10*
G36*
X86363060Y-98600550D02*
X86363060Y-102899450D01*
X82462940Y-101799630D01*
X82462940Y-99700370D01*
X86363060Y-98600550D01*
X86363060Y-98600550D01*
G37*
G36*
X77636940Y-102899450D02*
X77636940Y-98600550D01*
X81537060Y-99700370D01*
X81537060Y-101799630D01*
X77636940Y-102899450D01*
X77636940Y-102899450D01*
G37*
D29*
X87501640Y-100750000D03*
X76498360Y-100750000D03*
D10*
G36*
X102613060Y-95100550D02*
X102613060Y-99399450D01*
X98712940Y-98299630D01*
X98712940Y-96200370D01*
X102613060Y-95100550D01*
X102613060Y-95100550D01*
G37*
G36*
X93886940Y-99399450D02*
X93886940Y-95100550D01*
X97787060Y-96200370D01*
X97787060Y-98299630D01*
X93886940Y-99399450D01*
X93886940Y-99399450D01*
G37*
D29*
X103751640Y-97250000D03*
X92748360Y-97250000D03*
D10*
G36*
X137386940Y-99149450D02*
X137386940Y-94850550D01*
X141287060Y-95950370D01*
X141287060Y-98049630D01*
X137386940Y-99149450D01*
X137386940Y-99149450D01*
G37*
G36*
X146113060Y-94850550D02*
X146113060Y-99149450D01*
X142212940Y-98049630D01*
X142212940Y-95950370D01*
X146113060Y-94850550D01*
X146113060Y-94850550D01*
G37*
D29*
X136248360Y-97000000D03*
X147251640Y-97000000D03*
D10*
G36*
X152863060Y-108350550D02*
X152863060Y-112649450D01*
X148962940Y-111549630D01*
X148962940Y-109450370D01*
X152863060Y-108350550D01*
X152863060Y-108350550D01*
G37*
G36*
X144136940Y-112649450D02*
X144136940Y-108350550D01*
X148037060Y-109450370D01*
X148037060Y-111549630D01*
X144136940Y-112649450D01*
X144136940Y-112649450D01*
G37*
D29*
X154001640Y-110500000D03*
X142998360Y-110500000D03*
M02*
