%FSLAX45Y45*%
G04 Gerber Fmt 4.5, Leading zero omitted, Abs format (unit mm)*
G04 Created by KiCad (PCBNEW 4.0.6) date 09/01/17 14:50:52*
%MOMM*%
%LPD*%
G01*
G04 APERTURE LIST*
%ADD10C,0.127000*%
%ADD11C,0.150000*%
%ADD12C,0.200000*%
%ADD13C,0.300000*%
G04 APERTURE END LIST*
D10*
D11*
X15748000Y-3810000D02*
X5334000Y-3810000D01*
X15748000Y-14224000D02*
X15748000Y-3810000D01*
X5334000Y-14224000D02*
X15748000Y-14224000D01*
X5334000Y-3810000D02*
X5334000Y-14224000D01*
D12*
X5635000Y-4375000D02*
X5685000Y-4425000D01*
X5685000Y-4375000D02*
X5635000Y-4425000D01*
X5635000Y-13675000D02*
X5685000Y-13725000D01*
X5685000Y-13675000D02*
X5635000Y-13725000D01*
X5705294Y-4205294D02*
X5755294Y-4255294D01*
X5755294Y-4205294D02*
X5705294Y-4255294D01*
X5705294Y-4544706D02*
X5755294Y-4594706D01*
X5755294Y-4544706D02*
X5705294Y-4594706D01*
X5705294Y-13505294D02*
X5755294Y-13555294D01*
X5755294Y-13505294D02*
X5705294Y-13555294D01*
X5705294Y-13844706D02*
X5755294Y-13894706D01*
X5755294Y-13844706D02*
X5705294Y-13894706D01*
X5875000Y-4135000D02*
X5925000Y-4185000D01*
X5925000Y-4135000D02*
X5875000Y-4185000D01*
X5875000Y-4615000D02*
X5925000Y-4665000D01*
X5925000Y-4615000D02*
X5875000Y-4665000D01*
X5875000Y-13435000D02*
X5925000Y-13485000D01*
X5925000Y-13435000D02*
X5875000Y-13485000D01*
X5875000Y-13915000D02*
X5925000Y-13965000D01*
X5925000Y-13915000D02*
X5875000Y-13965000D01*
X6044706Y-4205294D02*
X6094706Y-4255294D01*
X6094706Y-4205294D02*
X6044706Y-4255294D01*
X6044706Y-4544706D02*
X6094706Y-4594706D01*
X6094706Y-4544706D02*
X6044706Y-4594706D01*
X6044706Y-13505294D02*
X6094706Y-13555294D01*
X6094706Y-13505294D02*
X6044706Y-13555294D01*
X6044706Y-13844706D02*
X6094706Y-13894706D01*
X6094706Y-13844706D02*
X6044706Y-13894706D01*
X6115000Y-4375000D02*
X6165000Y-4425000D01*
X6165000Y-4375000D02*
X6115000Y-4425000D01*
X6115000Y-13675000D02*
X6165000Y-13725000D01*
X6165000Y-13675000D02*
X6115000Y-13725000D01*
X14935000Y-4375000D02*
X14985000Y-4425000D01*
X14985000Y-4375000D02*
X14935000Y-4425000D01*
X14935000Y-13675000D02*
X14985000Y-13725000D01*
X14985000Y-13675000D02*
X14935000Y-13725000D01*
X15005294Y-4205294D02*
X15055294Y-4255294D01*
X15055294Y-4205294D02*
X15005294Y-4255294D01*
X15005294Y-4544706D02*
X15055294Y-4594706D01*
X15055294Y-4544706D02*
X15005294Y-4594706D01*
X15005294Y-13505294D02*
X15055294Y-13555294D01*
X15055294Y-13505294D02*
X15005294Y-13555294D01*
X15005294Y-13844706D02*
X15055294Y-13894706D01*
X15055294Y-13844706D02*
X15005294Y-13894706D01*
X15175000Y-4135000D02*
X15225000Y-4185000D01*
X15225000Y-4135000D02*
X15175000Y-4185000D01*
X15175000Y-4615000D02*
X15225000Y-4665000D01*
X15225000Y-4615000D02*
X15175000Y-4665000D01*
X15175000Y-13435000D02*
X15225000Y-13485000D01*
X15225000Y-13435000D02*
X15175000Y-13485000D01*
X15175000Y-13915000D02*
X15225000Y-13965000D01*
X15225000Y-13915000D02*
X15175000Y-13965000D01*
X15344706Y-4205294D02*
X15394706Y-4255294D01*
X15394706Y-4205294D02*
X15344706Y-4255294D01*
X15344706Y-4544706D02*
X15394706Y-4594706D01*
X15394706Y-4544706D02*
X15344706Y-4594706D01*
X15344706Y-13505294D02*
X15394706Y-13555294D01*
X15394706Y-13505294D02*
X15344706Y-13555294D01*
X15344706Y-13844706D02*
X15394706Y-13894706D01*
X15394706Y-13844706D02*
X15344706Y-13894706D01*
X15415000Y-4375000D02*
X15465000Y-4425000D01*
X15465000Y-4375000D02*
X15415000Y-4425000D01*
X15415000Y-13675000D02*
X15465000Y-13725000D01*
X15465000Y-13675000D02*
X15415000Y-13725000D01*
X13815640Y-7800000D02*
G75*
G03X13815640Y-7800000I-40640J0D01*
G01*
X13815640Y-10475000D02*
G75*
G03X13815640Y-10475000I-40640J0D01*
G01*
X14069640Y-7546000D02*
G75*
G03X14069640Y-7546000I-40640J0D01*
G01*
X14069640Y-10221000D02*
G75*
G03X14069640Y-10221000I-40640J0D01*
G01*
X14323640Y-7800000D02*
G75*
G03X14323640Y-7800000I-40640J0D01*
G01*
X14323640Y-10475000D02*
G75*
G03X14323640Y-10475000I-40640J0D01*
G01*
X5511800Y-10262400D02*
X5511800Y-10362400D01*
X5461800Y-10312400D02*
X5561800Y-10312400D01*
X5765800Y-10262400D02*
X5765800Y-10362400D01*
X5715800Y-10312400D02*
X5815800Y-10312400D01*
X5925000Y-11675000D02*
X5925000Y-11775000D01*
X5875000Y-11725000D02*
X5975000Y-11725000D01*
X5925000Y-12175000D02*
X5925000Y-12275000D01*
X5875000Y-12225000D02*
X5975000Y-12225000D01*
X6019800Y-10262400D02*
X6019800Y-10362400D01*
X5969800Y-10312400D02*
X6069800Y-10312400D01*
X6273800Y-10262400D02*
X6273800Y-10362400D01*
X6223800Y-10312400D02*
X6323800Y-10312400D01*
X6527800Y-10262400D02*
X6527800Y-10362400D01*
X6477800Y-10312400D02*
X6577800Y-10312400D01*
X6781800Y-10262400D02*
X6781800Y-10362400D01*
X6731800Y-10312400D02*
X6831800Y-10312400D01*
X7075000Y-12800000D02*
X7075000Y-12900000D01*
X7025000Y-12850000D02*
X7125000Y-12850000D01*
X6975000Y-12890000D02*
X7175000Y-12890000D01*
X6975000Y-12810000D02*
X7175000Y-12810000D01*
X7175000Y-12890000D02*
G75*
G03X7175000Y-12810000I0J40000D01*
G01*
X6975000Y-12810000D02*
G75*
G03X6975000Y-12890000I0J-40000D01*
G01*
X7075000Y-13400000D02*
X7075000Y-13500000D01*
X7025000Y-13450000D02*
X7125000Y-13450000D01*
X6975000Y-13490000D02*
X7175000Y-13490000D01*
X6975000Y-13410000D02*
X7175000Y-13410000D01*
X7175000Y-13490000D02*
G75*
G03X7175000Y-13410000I0J40000D01*
G01*
X6975000Y-13410000D02*
G75*
G03X6975000Y-13490000I0J-40000D01*
G01*
X7175000Y-11675000D02*
X7175000Y-11775000D01*
X7125000Y-11725000D02*
X7225000Y-11725000D01*
X7175000Y-12175000D02*
X7175000Y-12275000D01*
X7125000Y-12225000D02*
X7225000Y-12225000D01*
X7545000Y-13100000D02*
X7545000Y-13200000D01*
X7495000Y-13150000D02*
X7595000Y-13150000D01*
X7585000Y-13250000D02*
X7585000Y-13050000D01*
X7505000Y-13250000D02*
X7505000Y-13050000D01*
X7585000Y-13050000D02*
G75*
G03X7505000Y-13050000I-40000J0D01*
G01*
X7505000Y-13250000D02*
G75*
G03X7585000Y-13250000I40000J0D01*
G01*
X7720000Y-9400000D02*
X7720000Y-9500000D01*
X7670000Y-9450000D02*
X7770000Y-9450000D01*
X7725000Y-8550000D02*
X7725000Y-8650000D01*
X7675000Y-8600000D02*
X7775000Y-8600000D01*
X8720000Y-9400000D02*
X8720000Y-9500000D01*
X8670000Y-9450000D02*
X8770000Y-9450000D01*
X8725000Y-8550000D02*
X8725000Y-8650000D01*
X8675000Y-8600000D02*
X8775000Y-8600000D01*
X9575000Y-8625000D02*
X9575000Y-8725000D01*
X9525000Y-8675000D02*
X9625000Y-8675000D01*
X10075000Y-8625000D02*
X10075000Y-8725000D01*
X10025000Y-8675000D02*
X10125000Y-8675000D01*
X13925000Y-8600000D02*
X13925000Y-8700000D01*
X13875000Y-8650000D02*
X13975000Y-8650000D01*
X14425000Y-8600000D02*
X14425000Y-8700000D01*
X14375000Y-8650000D02*
X14475000Y-8650000D01*
X14600000Y-5525000D02*
X14600000Y-5625000D01*
X14550000Y-5575000D02*
X14650000Y-5575000D01*
X14600000Y-12350000D02*
X14600000Y-12450000D01*
X14550000Y-12400000D02*
X14650000Y-12400000D01*
X15100000Y-5525000D02*
X15100000Y-5625000D01*
X15050000Y-5575000D02*
X15150000Y-5575000D01*
X15100000Y-12350000D02*
X15100000Y-12450000D01*
X15050000Y-12400000D02*
X15150000Y-12400000D01*
X15350000Y-8280000D02*
X15350000Y-8380000D01*
X15300000Y-8330000D02*
X15400000Y-8330000D01*
X15350000Y-8534000D02*
X15350000Y-8634000D01*
X15300000Y-8584000D02*
X15400000Y-8584000D01*
X15350000Y-8788000D02*
X15350000Y-8888000D01*
X15300000Y-8838000D02*
X15400000Y-8838000D01*
X15350000Y-9042000D02*
X15350000Y-9142000D01*
X15300000Y-9092000D02*
X15400000Y-9092000D01*
X15350000Y-9296000D02*
X15350000Y-9396000D01*
X15300000Y-9346000D02*
X15400000Y-9346000D01*
X15350000Y-9550000D02*
X15350000Y-9650000D01*
X15300000Y-9600000D02*
X15400000Y-9600000D01*
X7735256Y-10110383D02*
X7735256Y-10039618D01*
X7664491Y-10039618D01*
X7664491Y-10110383D01*
X7735256Y-10110383D01*
X7760256Y-8035382D02*
X7760256Y-7964617D01*
X7689491Y-7964617D01*
X7689491Y-8035382D01*
X7760256Y-8035382D01*
X8735509Y-10110383D02*
X8735509Y-10039618D01*
X8664744Y-10039618D01*
X8664744Y-10110383D01*
X8735509Y-10110383D01*
X8760509Y-8035382D02*
X8760509Y-7964617D01*
X8689744Y-7964617D01*
X8689744Y-8035382D01*
X8760509Y-8035382D01*
X9360257Y-9760383D02*
X9360257Y-9689618D01*
X9289492Y-9689618D01*
X9289492Y-9760383D01*
X9360257Y-9760383D01*
X10360509Y-9760383D02*
X10360509Y-9689618D01*
X10289744Y-9689618D01*
X10289744Y-9760383D01*
X10360509Y-9760383D01*
X12565382Y-7425382D02*
X12565382Y-7354617D01*
X12494617Y-7354617D01*
X12494617Y-7425382D01*
X12565382Y-7425382D01*
X12585382Y-10575383D02*
X12585382Y-10504618D01*
X12514617Y-10504618D01*
X12514617Y-10575383D01*
X12585382Y-10575383D01*
X13710256Y-9735383D02*
X13710256Y-9664618D01*
X13639491Y-9664618D01*
X13639491Y-9735383D01*
X13710256Y-9735383D01*
X14385256Y-7060382D02*
X14385256Y-6989617D01*
X14314491Y-6989617D01*
X14314491Y-7060382D01*
X14385256Y-7060382D01*
X14385256Y-11085383D02*
X14385256Y-11014618D01*
X14314491Y-11014618D01*
X14314491Y-11085383D01*
X14385256Y-11085383D01*
X14710508Y-9735383D02*
X14710508Y-9664618D01*
X14639743Y-9664618D01*
X14639743Y-9735383D01*
X14710508Y-9735383D01*
X15385508Y-7060382D02*
X15385508Y-6989617D01*
X15314743Y-6989617D01*
X15314743Y-7060382D01*
X15385508Y-7060382D01*
X15385508Y-11085383D02*
X15385508Y-11014618D01*
X15314743Y-11014618D01*
X15314743Y-11085383D01*
X15385508Y-11085383D01*
X10949120Y-9370660D02*
X11000120Y-9319660D01*
X10949120Y-9268660D01*
X10898120Y-9319660D01*
X10949120Y-9370660D01*
X10894521Y-9284301D02*
X10925732Y-9380358D01*
X10972508Y-9258962D02*
X11003719Y-9355019D01*
X10925732Y-9380358D02*
G75*
G03X11003719Y-9355019I38993J12670D01*
G01*
X10972508Y-9258962D02*
G75*
G03X10894521Y-9284301I-38993J-12670D01*
G01*
X10956740Y-8755980D02*
X11007740Y-8704980D01*
X10956740Y-8653980D01*
X10905740Y-8704980D01*
X10956740Y-8755980D01*
X10933352Y-8644282D02*
X10902141Y-8740339D01*
X11011339Y-8669621D02*
X10980128Y-8765678D01*
X10902141Y-8740339D02*
G75*
G03X10980128Y-8765678I38993J-12670D01*
G01*
X11011339Y-8669621D02*
G75*
G03X10933352Y-8644282I-38993J12670D01*
G01*
X11319960Y-9898980D02*
X11370960Y-9847980D01*
X11319960Y-9796980D01*
X11268960Y-9847980D01*
X11319960Y-9898980D01*
X11255005Y-9851467D02*
X11336716Y-9910833D01*
X11303204Y-9785127D02*
X11384915Y-9844494D01*
X11336716Y-9910833D02*
G75*
G03X11384915Y-9844494I24099J33170D01*
G01*
X11303204Y-9785127D02*
G75*
G03X11255005Y-9851467I-24099J-33170D01*
G01*
X11330120Y-8245440D02*
X11381120Y-8194440D01*
X11330120Y-8143440D01*
X11279120Y-8194440D01*
X11330120Y-8245440D01*
X11346876Y-8131587D02*
X11265165Y-8190953D01*
X11395075Y-8197926D02*
X11313364Y-8257293D01*
X11265165Y-8190953D02*
G75*
G03X11313364Y-8257293I24099J-33170D01*
G01*
X11395075Y-8197926D02*
G75*
G03X11346876Y-8131587I-24099J33170D01*
G01*
X11369000Y-8893000D02*
X11420000Y-8842000D01*
X11369000Y-8791000D01*
X11318000Y-8842000D01*
X11369000Y-8893000D01*
X11345612Y-8781302D02*
X11314401Y-8877359D01*
X11423599Y-8806641D02*
X11392388Y-8902698D01*
X11314401Y-8877359D02*
G75*
G03X11392388Y-8902698I38993J-12670D01*
G01*
X11423599Y-8806641D02*
G75*
G03X11345612Y-8781302I-38993J12670D01*
G01*
X11369000Y-9254000D02*
X11420000Y-9203000D01*
X11369000Y-9152000D01*
X11318000Y-9203000D01*
X11369000Y-9254000D01*
X11314401Y-9167641D02*
X11345612Y-9263698D01*
X11392388Y-9142302D02*
X11423599Y-9238359D01*
X11345612Y-9263698D02*
G75*
G03X11423599Y-9238359I38993J12670D01*
G01*
X11392388Y-9142302D02*
G75*
G03X11314401Y-9167641I-38993J-12670D01*
G01*
X11584000Y-8600000D02*
X11635000Y-8549000D01*
X11584000Y-8498000D01*
X11533000Y-8549000D01*
X11584000Y-8600000D01*
X11600756Y-8486147D02*
X11519045Y-8545514D01*
X11648955Y-8552487D02*
X11567244Y-8611853D01*
X11519045Y-8545514D02*
G75*
G03X11567244Y-8611853I24099J-33170D01*
G01*
X11648955Y-8552487D02*
G75*
G03X11600756Y-8486147I-24099J33170D01*
G01*
X11584000Y-9551000D02*
X11635000Y-9500000D01*
X11584000Y-9449000D01*
X11533000Y-9500000D01*
X11584000Y-9551000D01*
X11519045Y-9503487D02*
X11600756Y-9562853D01*
X11567244Y-9437147D02*
X11648955Y-9496514D01*
X11600756Y-9562853D02*
G75*
G03X11648955Y-9496514I24099J33170D01*
G01*
X11567244Y-9437147D02*
G75*
G03X11519045Y-9503487I-24099J-33170D01*
G01*
X11929560Y-8052400D02*
X11980560Y-8001400D01*
X11929560Y-7950400D01*
X11878560Y-8001400D01*
X11929560Y-8052400D01*
X11879060Y-8042400D02*
X11980060Y-8042400D01*
X11879060Y-7960400D02*
X11980060Y-7960400D01*
X11980060Y-8042400D02*
G75*
G03X11980060Y-7960400I0J41000D01*
G01*
X11879060Y-7960400D02*
G75*
G03X11879060Y-8042400I0J-41000D01*
G01*
X11930000Y-8486000D02*
X11981000Y-8435000D01*
X11930000Y-8384000D01*
X11879000Y-8435000D01*
X11930000Y-8486000D01*
X11879500Y-8476000D02*
X11980500Y-8476000D01*
X11879500Y-8394000D02*
X11980500Y-8394000D01*
X11980500Y-8476000D02*
G75*
G03X11980500Y-8394000I0J41000D01*
G01*
X11879500Y-8394000D02*
G75*
G03X11879500Y-8476000I0J-41000D01*
G01*
X12275000Y-8600000D02*
X12326000Y-8549000D01*
X12275000Y-8498000D01*
X12224000Y-8549000D01*
X12275000Y-8600000D01*
X12210045Y-8552487D02*
X12291756Y-8611853D01*
X12258244Y-8486147D02*
X12339955Y-8545514D01*
X12291756Y-8611853D02*
G75*
G03X12339955Y-8545514I24099J33170D01*
G01*
X12258244Y-8486147D02*
G75*
G03X12210045Y-8552487I-24099J-33170D01*
G01*
X12275000Y-9551000D02*
X12326000Y-9500000D01*
X12275000Y-9449000D01*
X12224000Y-9500000D01*
X12275000Y-9551000D01*
X12291756Y-9437147D02*
X12210045Y-9496514D01*
X12339955Y-9503487D02*
X12258244Y-9562853D01*
X12210045Y-9496514D02*
G75*
G03X12258244Y-9562853I24099J-33170D01*
G01*
X12339955Y-9503487D02*
G75*
G03X12291756Y-9437147I-24099J33170D01*
G01*
X12490000Y-8893000D02*
X12541000Y-8842000D01*
X12490000Y-8791000D01*
X12439000Y-8842000D01*
X12490000Y-8893000D01*
X12435401Y-8806641D02*
X12466612Y-8902698D01*
X12513388Y-8781302D02*
X12544599Y-8877359D01*
X12466612Y-8902698D02*
G75*
G03X12544599Y-8877359I38993J12670D01*
G01*
X12513388Y-8781302D02*
G75*
G03X12435401Y-8806641I-38993J-12670D01*
G01*
X12490000Y-9258000D02*
X12541000Y-9207000D01*
X12490000Y-9156000D01*
X12439000Y-9207000D01*
X12490000Y-9258000D01*
X12466612Y-9146302D02*
X12435401Y-9242359D01*
X12544599Y-9171641D02*
X12513388Y-9267698D01*
X12435401Y-9242359D02*
G75*
G03X12513388Y-9267698I38993J-12670D01*
G01*
X12544599Y-9171641D02*
G75*
G03X12466612Y-9146302I-38993J12670D01*
G01*
X12526460Y-8242900D02*
X12577460Y-8191900D01*
X12526460Y-8140900D01*
X12475460Y-8191900D01*
X12526460Y-8242900D01*
X12461505Y-8195386D02*
X12543216Y-8254753D01*
X12509704Y-8129047D02*
X12591415Y-8188413D01*
X12543216Y-8254753D02*
G75*
G03X12591415Y-8188413I24099J33170D01*
G01*
X12509704Y-8129047D02*
G75*
G03X12461505Y-8195386I-24099J-33170D01*
G01*
X12539160Y-9898980D02*
X12590160Y-9847980D01*
X12539160Y-9796980D01*
X12488160Y-9847980D01*
X12539160Y-9898980D01*
X12555916Y-9785127D02*
X12474205Y-9844494D01*
X12604115Y-9851467D02*
X12522404Y-9910833D01*
X12474205Y-9844494D02*
G75*
G03X12522404Y-9910833I24099J-33170D01*
G01*
X12604115Y-9851467D02*
G75*
G03X12555916Y-9785127I-24099J33170D01*
G01*
X12902380Y-8755980D02*
X12953380Y-8704980D01*
X12902380Y-8653980D01*
X12851380Y-8704980D01*
X12902380Y-8755980D01*
X12847781Y-8669621D02*
X12878992Y-8765678D01*
X12925768Y-8644282D02*
X12956979Y-8740339D01*
X12878992Y-8765678D02*
G75*
G03X12956979Y-8740339I38993J12670D01*
G01*
X12925768Y-8644282D02*
G75*
G03X12847781Y-8669621I-38993J-12670D01*
G01*
X12907460Y-9385900D02*
X12958460Y-9334900D01*
X12907460Y-9283900D01*
X12856460Y-9334900D01*
X12907460Y-9385900D01*
X12884072Y-9274202D02*
X12852861Y-9370259D01*
X12962059Y-9299541D02*
X12930848Y-9395598D01*
X12852861Y-9370259D02*
G75*
G03X12930848Y-9395598I38993J-12670D01*
G01*
X12962059Y-9299541D02*
G75*
G03X12884072Y-9274202I-38993J12670D01*
G01*
X8492850Y-12142850D02*
X8607150Y-12257150D01*
X8607150Y-12142850D02*
X8492850Y-12257150D01*
X8607150Y-12200000D02*
G75*
G03X8607150Y-12200000I-57150J0D01*
G01*
X8492850Y-12396850D02*
X8607150Y-12511150D01*
X8607150Y-12396850D02*
X8492850Y-12511150D01*
X8607150Y-12454000D02*
G75*
G03X8607150Y-12454000I-57150J0D01*
G01*
X8492850Y-12650850D02*
X8607150Y-12765150D01*
X8607150Y-12650850D02*
X8492850Y-12765150D01*
X8607150Y-12708000D02*
G75*
G03X8607150Y-12708000I-57150J0D01*
G01*
X8667850Y-5238850D02*
X8782150Y-5353150D01*
X8782150Y-5238850D02*
X8667850Y-5353150D01*
X8782150Y-5296000D02*
G75*
G03X8782150Y-5296000I-57150J0D01*
G01*
X8667850Y-5492850D02*
X8782150Y-5607150D01*
X8782150Y-5492850D02*
X8667850Y-5607150D01*
X8782150Y-5550000D02*
G75*
G03X8782150Y-5550000I-57150J0D01*
G01*
X8667850Y-5746850D02*
X8782150Y-5861150D01*
X8782150Y-5746850D02*
X8667850Y-5861150D01*
X8782150Y-5804000D02*
G75*
G03X8782150Y-5804000I-57150J0D01*
G01*
X10442850Y-12138850D02*
X10557150Y-12253150D01*
X10557150Y-12138850D02*
X10442850Y-12253150D01*
X10557150Y-12196000D02*
G75*
G03X10557150Y-12196000I-57150J0D01*
G01*
X10442850Y-12392850D02*
X10557150Y-12507150D01*
X10557150Y-12392850D02*
X10442850Y-12507150D01*
X10557150Y-12450000D02*
G75*
G03X10557150Y-12450000I-57150J0D01*
G01*
X10442850Y-12646850D02*
X10557150Y-12761150D01*
X10557150Y-12646850D02*
X10442850Y-12761150D01*
X10557150Y-12704000D02*
G75*
G03X10557150Y-12704000I-57150J0D01*
G01*
X10517850Y-5263850D02*
X10632150Y-5378150D01*
X10632150Y-5263850D02*
X10517850Y-5378150D01*
X10632150Y-5321000D02*
G75*
G03X10632150Y-5321000I-57150J0D01*
G01*
X10517850Y-5517850D02*
X10632150Y-5632150D01*
X10632150Y-5517850D02*
X10517850Y-5632150D01*
X10632150Y-5575000D02*
G75*
G03X10632150Y-5575000I-57150J0D01*
G01*
X10517850Y-5771850D02*
X10632150Y-5886150D01*
X10632150Y-5771850D02*
X10517850Y-5886150D01*
X10632150Y-5829000D02*
G75*
G03X10632150Y-5829000I-57150J0D01*
G01*
X13142850Y-5288850D02*
X13257150Y-5403150D01*
X13257150Y-5288850D02*
X13142850Y-5403150D01*
X13257150Y-5346000D02*
G75*
G03X13257150Y-5346000I-57150J0D01*
G01*
X13142850Y-5542850D02*
X13257150Y-5657150D01*
X13257150Y-5542850D02*
X13142850Y-5657150D01*
X13257150Y-5600000D02*
G75*
G03X13257150Y-5600000I-57150J0D01*
G01*
X13142850Y-5796850D02*
X13257150Y-5911150D01*
X13257150Y-5796850D02*
X13142850Y-5911150D01*
X13257150Y-5854000D02*
G75*
G03X13257150Y-5854000I-57150J0D01*
G01*
X13142850Y-12088850D02*
X13257150Y-12203150D01*
X13257150Y-12088850D02*
X13142850Y-12203150D01*
X13257150Y-12146000D02*
G75*
G03X13257150Y-12146000I-57150J0D01*
G01*
X13142850Y-12342850D02*
X13257150Y-12457150D01*
X13257150Y-12342850D02*
X13142850Y-12457150D01*
X13257150Y-12400000D02*
G75*
G03X13257150Y-12400000I-57150J0D01*
G01*
X13142850Y-12596850D02*
X13257150Y-12711150D01*
X13257150Y-12596850D02*
X13142850Y-12711150D01*
X13257150Y-12654000D02*
G75*
G03X13257150Y-12654000I-57150J0D01*
G01*
X5909000Y-4893000D02*
X6029000Y-5013000D01*
X6029000Y-4893000D02*
X5909000Y-5013000D01*
X5969000Y-4893000D02*
X5969000Y-5013000D01*
X5909000Y-4953000D02*
X6029000Y-4953000D01*
X5909000Y-7433000D02*
X6029000Y-7553000D01*
X6029000Y-7433000D02*
X5909000Y-7553000D01*
X5969000Y-7433000D02*
X5969000Y-7553000D01*
X5909000Y-7493000D02*
X6029000Y-7493000D01*
X7153600Y-4893000D02*
X7273600Y-5013000D01*
X7273600Y-4893000D02*
X7153600Y-5013000D01*
X7213600Y-4893000D02*
X7213600Y-5013000D01*
X7153600Y-4953000D02*
X7273600Y-4953000D01*
X7153600Y-7433000D02*
X7273600Y-7553000D01*
X7273600Y-7433000D02*
X7153600Y-7553000D01*
X7213600Y-7433000D02*
X7213600Y-7553000D01*
X7153600Y-7493000D02*
X7273600Y-7493000D01*
X11815000Y-11065000D02*
X11935000Y-11185000D01*
X11935000Y-11065000D02*
X11815000Y-11185000D01*
X11875000Y-11065000D02*
X11875000Y-11185000D01*
X11815000Y-11125000D02*
X11935000Y-11125000D01*
X11815000Y-13605000D02*
X11935000Y-13725000D01*
X11935000Y-13605000D02*
X11815000Y-13725000D01*
X11875000Y-13605000D02*
X11875000Y-13725000D01*
X11815000Y-13665000D02*
X11935000Y-13665000D01*
X11827200Y-4258000D02*
X11947200Y-4378000D01*
X11947200Y-4258000D02*
X11827200Y-4378000D01*
X11887200Y-4258000D02*
X11887200Y-4378000D01*
X11827200Y-4318000D02*
X11947200Y-4318000D01*
X11827200Y-6798000D02*
X11947200Y-6918000D01*
X11947200Y-6798000D02*
X11827200Y-6918000D01*
X11887200Y-6798000D02*
X11887200Y-6918000D01*
X11827200Y-6858000D02*
X11947200Y-6858000D01*
X5658000Y-8231400D02*
X5788000Y-8361400D01*
X5788000Y-8231400D02*
X5658000Y-8361400D01*
X5768962Y-8342362D02*
X5768962Y-8250438D01*
X5677038Y-8250438D01*
X5677038Y-8342362D01*
X5768962Y-8342362D01*
X5658000Y-8731400D02*
X5788000Y-8861400D01*
X5788000Y-8731400D02*
X5658000Y-8861400D01*
X5768962Y-8842362D02*
X5768962Y-8750438D01*
X5677038Y-8750438D01*
X5677038Y-8842362D01*
X5768962Y-8842362D01*
X5658000Y-9231400D02*
X5788000Y-9361400D01*
X5788000Y-9231400D02*
X5658000Y-9361400D01*
X5768962Y-9342362D02*
X5768962Y-9250438D01*
X5677038Y-9250438D01*
X5677038Y-9342362D01*
X5768962Y-9342362D01*
X6158000Y-8231400D02*
X6288000Y-8361400D01*
X6288000Y-8231400D02*
X6158000Y-8361400D01*
X6268962Y-8342362D02*
X6268962Y-8250438D01*
X6177038Y-8250438D01*
X6177038Y-8342362D01*
X6268962Y-8342362D01*
X6158000Y-8731400D02*
X6288000Y-8861400D01*
X6288000Y-8731400D02*
X6158000Y-8861400D01*
X6268962Y-8842362D02*
X6268962Y-8750438D01*
X6177038Y-8750438D01*
X6177038Y-8842362D01*
X6268962Y-8842362D01*
X6158000Y-9231400D02*
X6288000Y-9361400D01*
X6288000Y-9231400D02*
X6158000Y-9361400D01*
X6268962Y-9342362D02*
X6268962Y-9250438D01*
X6177038Y-9250438D01*
X6177038Y-9342362D01*
X6268962Y-9342362D01*
X8350000Y-11495000D02*
X8500000Y-11645000D01*
X8500000Y-11495000D02*
X8350000Y-11645000D01*
X8425000Y-11645000D02*
X8500000Y-11570000D01*
X8425000Y-11495000D01*
X8350000Y-11570000D01*
X8425000Y-11645000D01*
X8350000Y-13275000D02*
X8500000Y-13425000D01*
X8500000Y-13275000D02*
X8350000Y-13425000D01*
X8425000Y-13425000D02*
X8500000Y-13350000D01*
X8425000Y-13275000D01*
X8350000Y-13350000D01*
X8425000Y-13425000D01*
X8764200Y-4596600D02*
X8914200Y-4746600D01*
X8914200Y-4596600D02*
X8764200Y-4746600D01*
X8839200Y-4746600D02*
X8914200Y-4671600D01*
X8839200Y-4596600D01*
X8764200Y-4671600D01*
X8839200Y-4746600D01*
X8764200Y-6376600D02*
X8914200Y-6526600D01*
X8914200Y-6376600D02*
X8764200Y-6526600D01*
X8839200Y-6526600D02*
X8914200Y-6451600D01*
X8839200Y-6376600D01*
X8764200Y-6451600D01*
X8839200Y-6526600D01*
X10542200Y-11480000D02*
X10692200Y-11630000D01*
X10692200Y-11480000D02*
X10542200Y-11630000D01*
X10617200Y-11630000D02*
X10692200Y-11555000D01*
X10617200Y-11480000D01*
X10542200Y-11555000D01*
X10617200Y-11630000D01*
X10542200Y-13260000D02*
X10692200Y-13410000D01*
X10692200Y-13260000D02*
X10542200Y-13410000D01*
X10617200Y-13410000D02*
X10692200Y-13335000D01*
X10617200Y-13260000D01*
X10542200Y-13335000D01*
X10617200Y-13410000D01*
X10618400Y-4622000D02*
X10768400Y-4772000D01*
X10768400Y-4622000D02*
X10618400Y-4772000D01*
X10693400Y-4772000D02*
X10768400Y-4697000D01*
X10693400Y-4622000D01*
X10618400Y-4697000D01*
X10693400Y-4772000D01*
X10618400Y-6402000D02*
X10768400Y-6552000D01*
X10768400Y-6402000D02*
X10618400Y-6552000D01*
X10693400Y-6552000D02*
X10768400Y-6477000D01*
X10693400Y-6402000D01*
X10618400Y-6477000D01*
X10693400Y-6552000D01*
X13006000Y-4647400D02*
X13156000Y-4797400D01*
X13156000Y-4647400D02*
X13006000Y-4797400D01*
X13081000Y-4797400D02*
X13156000Y-4722400D01*
X13081000Y-4647400D01*
X13006000Y-4722400D01*
X13081000Y-4797400D01*
X13006000Y-6427400D02*
X13156000Y-6577400D01*
X13156000Y-6427400D02*
X13006000Y-6577400D01*
X13081000Y-6577400D02*
X13156000Y-6502400D01*
X13081000Y-6427400D01*
X13006000Y-6502400D01*
X13081000Y-6577400D01*
X13006000Y-11429200D02*
X13156000Y-11579200D01*
X13156000Y-11429200D02*
X13006000Y-11579200D01*
X13081000Y-11579200D02*
X13156000Y-11504200D01*
X13081000Y-11429200D01*
X13006000Y-11504200D01*
X13081000Y-11579200D01*
X13006000Y-13209200D02*
X13156000Y-13359200D01*
X13156000Y-13209200D02*
X13006000Y-13359200D01*
X13081000Y-13359200D02*
X13156000Y-13284200D01*
X13081000Y-13209200D01*
X13006000Y-13284200D01*
X13081000Y-13359200D01*
X11930000Y-8870000D02*
X11930000Y-9180000D01*
X11775000Y-9025000D02*
X12085000Y-9025000D01*
X12085000Y-9025000D02*
G75*
G03X12085000Y-9025000I-155000J0D01*
G01*
X11930000Y-8870000D02*
X11930000Y-9180000D01*
X11775000Y-9025000D02*
X12085000Y-9025000D01*
X12085000Y-9025000D02*
G75*
G03X12085000Y-9025000I-155000J0D01*
G01*
X6013138Y-4513138D02*
X6013138Y-4286862D01*
X5786862Y-4286862D01*
X5786862Y-4513138D01*
X6013138Y-4513138D01*
X6060000Y-4400000D02*
G75*
G03X6060000Y-4400000I-160000J0D01*
G01*
X6013138Y-13813138D02*
X6013138Y-13586862D01*
X5786862Y-13586862D01*
X5786862Y-13813138D01*
X6013138Y-13813138D01*
X6060000Y-13700000D02*
G75*
G03X6060000Y-13700000I-160000J0D01*
G01*
X15313138Y-4513138D02*
X15313138Y-4286862D01*
X15086862Y-4286862D01*
X15086862Y-4513138D01*
X15313138Y-4513138D01*
X15360000Y-4400000D02*
G75*
G03X15360000Y-4400000I-160000J0D01*
G01*
X15313138Y-13813138D02*
X15313138Y-13586862D01*
X15086862Y-13586862D01*
X15086862Y-13813138D01*
X15313138Y-13813138D01*
X15360000Y-13700000D02*
G75*
G03X15360000Y-13700000I-160000J0D01*
G01*
D13*
X5597928Y-14697214D02*
X5597928Y-14397214D01*
X5669357Y-14397214D01*
X5712214Y-14411500D01*
X5740786Y-14440071D01*
X5755071Y-14468643D01*
X5769357Y-14525786D01*
X5769357Y-14568643D01*
X5755071Y-14625786D01*
X5740786Y-14654357D01*
X5712214Y-14682929D01*
X5669357Y-14697214D01*
X5597928Y-14697214D01*
X5897928Y-14697214D02*
X5897928Y-14497214D01*
X5897928Y-14554357D02*
X5912214Y-14525786D01*
X5926500Y-14511500D01*
X5955071Y-14497214D01*
X5983643Y-14497214D01*
X6083643Y-14697214D02*
X6083643Y-14497214D01*
X6083643Y-14397214D02*
X6069357Y-14411500D01*
X6083643Y-14425786D01*
X6097928Y-14411500D01*
X6083643Y-14397214D01*
X6083643Y-14425786D01*
X6269357Y-14697214D02*
X6240786Y-14682929D01*
X6226500Y-14654357D01*
X6226500Y-14397214D01*
X6426500Y-14697214D02*
X6397928Y-14682929D01*
X6383643Y-14654357D01*
X6383643Y-14397214D01*
X6769357Y-14697214D02*
X6769357Y-14397214D01*
X6869357Y-14611500D01*
X6969357Y-14397214D01*
X6969357Y-14697214D01*
X7240786Y-14697214D02*
X7240786Y-14540071D01*
X7226500Y-14511500D01*
X7197928Y-14497214D01*
X7140786Y-14497214D01*
X7112214Y-14511500D01*
X7240786Y-14682929D02*
X7212214Y-14697214D01*
X7140786Y-14697214D01*
X7112214Y-14682929D01*
X7097928Y-14654357D01*
X7097928Y-14625786D01*
X7112214Y-14597214D01*
X7140786Y-14582929D01*
X7212214Y-14582929D01*
X7240786Y-14568643D01*
X7383643Y-14497214D02*
X7383643Y-14797214D01*
X7383643Y-14511500D02*
X7412214Y-14497214D01*
X7469357Y-14497214D01*
X7497928Y-14511500D01*
X7512214Y-14525786D01*
X7526500Y-14554357D01*
X7526500Y-14640071D01*
X7512214Y-14668643D01*
X7497928Y-14682929D01*
X7469357Y-14697214D01*
X7412214Y-14697214D01*
X7383643Y-14682929D01*
X7655071Y-14668643D02*
X7669357Y-14682929D01*
X7655071Y-14697214D01*
X7640786Y-14682929D01*
X7655071Y-14668643D01*
X7655071Y-14697214D01*
X7655071Y-14511500D02*
X7669357Y-14525786D01*
X7655071Y-14540071D01*
X7640786Y-14525786D01*
X7655071Y-14511500D01*
X7655071Y-14540071D01*
X5276500Y-15166500D02*
X5326500Y-15216500D01*
X5326500Y-15166500D02*
X5276500Y-15216500D01*
X5655071Y-15027214D02*
X5683643Y-15027214D01*
X5712214Y-15041500D01*
X5726500Y-15055786D01*
X5740786Y-15084357D01*
X5755071Y-15141500D01*
X5755071Y-15212929D01*
X5740786Y-15270071D01*
X5726500Y-15298643D01*
X5712214Y-15312929D01*
X5683643Y-15327214D01*
X5655071Y-15327214D01*
X5626500Y-15312929D01*
X5612214Y-15298643D01*
X5597928Y-15270071D01*
X5583643Y-15212929D01*
X5583643Y-15141500D01*
X5597928Y-15084357D01*
X5612214Y-15055786D01*
X5626500Y-15041500D01*
X5655071Y-15027214D01*
X5883643Y-15298643D02*
X5897928Y-15312929D01*
X5883643Y-15327214D01*
X5869357Y-15312929D01*
X5883643Y-15298643D01*
X5883643Y-15327214D01*
X6169357Y-15027214D02*
X6026500Y-15027214D01*
X6012214Y-15170071D01*
X6026500Y-15155786D01*
X6055071Y-15141500D01*
X6126500Y-15141500D01*
X6155071Y-15155786D01*
X6169357Y-15170071D01*
X6183643Y-15198643D01*
X6183643Y-15270071D01*
X6169357Y-15298643D01*
X6155071Y-15312929D01*
X6126500Y-15327214D01*
X6055071Y-15327214D01*
X6026500Y-15312929D01*
X6012214Y-15298643D01*
X6369357Y-15027214D02*
X6397928Y-15027214D01*
X6426500Y-15041500D01*
X6440786Y-15055786D01*
X6455071Y-15084357D01*
X6469357Y-15141500D01*
X6469357Y-15212929D01*
X6455071Y-15270071D01*
X6440786Y-15298643D01*
X6426500Y-15312929D01*
X6397928Y-15327214D01*
X6369357Y-15327214D01*
X6340786Y-15312929D01*
X6326500Y-15298643D01*
X6312214Y-15270071D01*
X6297928Y-15212929D01*
X6297928Y-15141500D01*
X6312214Y-15084357D01*
X6326500Y-15055786D01*
X6340786Y-15041500D01*
X6369357Y-15027214D01*
X6597928Y-15327214D02*
X6597928Y-15127214D01*
X6597928Y-15155786D02*
X6612214Y-15141500D01*
X6640786Y-15127214D01*
X6683643Y-15127214D01*
X6712214Y-15141500D01*
X6726500Y-15170071D01*
X6726500Y-15327214D01*
X6726500Y-15170071D02*
X6740786Y-15141500D01*
X6769357Y-15127214D01*
X6812214Y-15127214D01*
X6840786Y-15141500D01*
X6855071Y-15170071D01*
X6855071Y-15327214D01*
X6997928Y-15327214D02*
X6997928Y-15127214D01*
X6997928Y-15155786D02*
X7012214Y-15141500D01*
X7040786Y-15127214D01*
X7083643Y-15127214D01*
X7112214Y-15141500D01*
X7126500Y-15170071D01*
X7126500Y-15327214D01*
X7126500Y-15170071D02*
X7140786Y-15141500D01*
X7169357Y-15127214D01*
X7212214Y-15127214D01*
X7240786Y-15141500D01*
X7255071Y-15170071D01*
X7255071Y-15327214D01*
X7840786Y-15012929D02*
X7583643Y-15398643D01*
X8226500Y-15027214D02*
X8255071Y-15027214D01*
X8283643Y-15041500D01*
X8297928Y-15055786D01*
X8312214Y-15084357D01*
X8326500Y-15141500D01*
X8326500Y-15212929D01*
X8312214Y-15270071D01*
X8297928Y-15298643D01*
X8283643Y-15312929D01*
X8255071Y-15327214D01*
X8226500Y-15327214D01*
X8197928Y-15312929D01*
X8183643Y-15298643D01*
X8169357Y-15270071D01*
X8155071Y-15212929D01*
X8155071Y-15141500D01*
X8169357Y-15084357D01*
X8183643Y-15055786D01*
X8197928Y-15041500D01*
X8226500Y-15027214D01*
X8455071Y-15298643D02*
X8469357Y-15312929D01*
X8455071Y-15327214D01*
X8440786Y-15312929D01*
X8455071Y-15298643D01*
X8455071Y-15327214D01*
X8655071Y-15027214D02*
X8683643Y-15027214D01*
X8712214Y-15041500D01*
X8726500Y-15055786D01*
X8740786Y-15084357D01*
X8755071Y-15141500D01*
X8755071Y-15212929D01*
X8740786Y-15270071D01*
X8726500Y-15298643D01*
X8712214Y-15312929D01*
X8683643Y-15327214D01*
X8655071Y-15327214D01*
X8626500Y-15312929D01*
X8612214Y-15298643D01*
X8597928Y-15270071D01*
X8583643Y-15212929D01*
X8583643Y-15141500D01*
X8597928Y-15084357D01*
X8612214Y-15055786D01*
X8626500Y-15041500D01*
X8655071Y-15027214D01*
X8869357Y-15055786D02*
X8883643Y-15041500D01*
X8912214Y-15027214D01*
X8983643Y-15027214D01*
X9012214Y-15041500D01*
X9026500Y-15055786D01*
X9040786Y-15084357D01*
X9040786Y-15112929D01*
X9026500Y-15155786D01*
X8855071Y-15327214D01*
X9040786Y-15327214D01*
X9226500Y-15027214D02*
X9255071Y-15027214D01*
X9283643Y-15041500D01*
X9297928Y-15055786D01*
X9312214Y-15084357D01*
X9326500Y-15141500D01*
X9326500Y-15212929D01*
X9312214Y-15270071D01*
X9297928Y-15298643D01*
X9283643Y-15312929D01*
X9255071Y-15327214D01*
X9226500Y-15327214D01*
X9197928Y-15312929D01*
X9183643Y-15298643D01*
X9169357Y-15270071D01*
X9155071Y-15212929D01*
X9155071Y-15141500D01*
X9169357Y-15084357D01*
X9183643Y-15055786D01*
X9197928Y-15041500D01*
X9226500Y-15027214D01*
X9440786Y-15027214D02*
X9440786Y-15084357D01*
X9555071Y-15027214D02*
X9555071Y-15084357D01*
X9997928Y-15441500D02*
X9983643Y-15427214D01*
X9955071Y-15384357D01*
X9940786Y-15355786D01*
X9926500Y-15312929D01*
X9912214Y-15241500D01*
X9912214Y-15184357D01*
X9926500Y-15112929D01*
X9940786Y-15070071D01*
X9955071Y-15041500D01*
X9983643Y-14998643D01*
X9997928Y-14984357D01*
X10083643Y-15027214D02*
X10269357Y-15027214D01*
X10169357Y-15141500D01*
X10212214Y-15141500D01*
X10240786Y-15155786D01*
X10255071Y-15170071D01*
X10269357Y-15198643D01*
X10269357Y-15270071D01*
X10255071Y-15298643D01*
X10240786Y-15312929D01*
X10212214Y-15327214D01*
X10126500Y-15327214D01*
X10097928Y-15312929D01*
X10083643Y-15298643D01*
X10383643Y-15055786D02*
X10397928Y-15041500D01*
X10426500Y-15027214D01*
X10497928Y-15027214D01*
X10526500Y-15041500D01*
X10540786Y-15055786D01*
X10555071Y-15084357D01*
X10555071Y-15112929D01*
X10540786Y-15155786D01*
X10369357Y-15327214D01*
X10555071Y-15327214D01*
X10912214Y-15327214D02*
X10912214Y-15027214D01*
X11040786Y-15327214D02*
X11040786Y-15170071D01*
X11026500Y-15141500D01*
X10997928Y-15127214D01*
X10955071Y-15127214D01*
X10926500Y-15141500D01*
X10912214Y-15155786D01*
X11226500Y-15327214D02*
X11197928Y-15312929D01*
X11183643Y-15298643D01*
X11169357Y-15270071D01*
X11169357Y-15184357D01*
X11183643Y-15155786D01*
X11197928Y-15141500D01*
X11226500Y-15127214D01*
X11269357Y-15127214D01*
X11297928Y-15141500D01*
X11312214Y-15155786D01*
X11326500Y-15184357D01*
X11326500Y-15270071D01*
X11312214Y-15298643D01*
X11297928Y-15312929D01*
X11269357Y-15327214D01*
X11226500Y-15327214D01*
X11497928Y-15327214D02*
X11469357Y-15312929D01*
X11455071Y-15284357D01*
X11455071Y-15027214D01*
X11726500Y-15312929D02*
X11697928Y-15327214D01*
X11640786Y-15327214D01*
X11612214Y-15312929D01*
X11597928Y-15284357D01*
X11597928Y-15170071D01*
X11612214Y-15141500D01*
X11640786Y-15127214D01*
X11697928Y-15127214D01*
X11726500Y-15141500D01*
X11740786Y-15170071D01*
X11740786Y-15198643D01*
X11597928Y-15227214D01*
X11855071Y-15312929D02*
X11883643Y-15327214D01*
X11940786Y-15327214D01*
X11969357Y-15312929D01*
X11983643Y-15284357D01*
X11983643Y-15270071D01*
X11969357Y-15241500D01*
X11940786Y-15227214D01*
X11897928Y-15227214D01*
X11869357Y-15212929D01*
X11855071Y-15184357D01*
X11855071Y-15170071D01*
X11869357Y-15141500D01*
X11897928Y-15127214D01*
X11940786Y-15127214D01*
X11969357Y-15141500D01*
X12083643Y-15441500D02*
X12097928Y-15427214D01*
X12126500Y-15384357D01*
X12140786Y-15355786D01*
X12155071Y-15312929D01*
X12169357Y-15241500D01*
X12169357Y-15184357D01*
X12155071Y-15112929D01*
X12140786Y-15070071D01*
X12126500Y-15041500D01*
X12097928Y-14998643D01*
X12083643Y-14984357D01*
X5326500Y-15587500D02*
G75*
G03X5326500Y-15587500I-40640J0D01*
G01*
X5655071Y-15423214D02*
X5683643Y-15423214D01*
X5712214Y-15437500D01*
X5726500Y-15451786D01*
X5740786Y-15480357D01*
X5755071Y-15537500D01*
X5755071Y-15608929D01*
X5740786Y-15666071D01*
X5726500Y-15694643D01*
X5712214Y-15708929D01*
X5683643Y-15723214D01*
X5655071Y-15723214D01*
X5626500Y-15708929D01*
X5612214Y-15694643D01*
X5597928Y-15666071D01*
X5583643Y-15608929D01*
X5583643Y-15537500D01*
X5597928Y-15480357D01*
X5612214Y-15451786D01*
X5626500Y-15437500D01*
X5655071Y-15423214D01*
X5883643Y-15694643D02*
X5897928Y-15708929D01*
X5883643Y-15723214D01*
X5869357Y-15708929D01*
X5883643Y-15694643D01*
X5883643Y-15723214D01*
X6069357Y-15551786D02*
X6040786Y-15537500D01*
X6026500Y-15523214D01*
X6012214Y-15494643D01*
X6012214Y-15480357D01*
X6026500Y-15451786D01*
X6040786Y-15437500D01*
X6069357Y-15423214D01*
X6126500Y-15423214D01*
X6155071Y-15437500D01*
X6169357Y-15451786D01*
X6183643Y-15480357D01*
X6183643Y-15494643D01*
X6169357Y-15523214D01*
X6155071Y-15537500D01*
X6126500Y-15551786D01*
X6069357Y-15551786D01*
X6040786Y-15566071D01*
X6026500Y-15580357D01*
X6012214Y-15608929D01*
X6012214Y-15666071D01*
X6026500Y-15694643D01*
X6040786Y-15708929D01*
X6069357Y-15723214D01*
X6126500Y-15723214D01*
X6155071Y-15708929D01*
X6169357Y-15694643D01*
X6183643Y-15666071D01*
X6183643Y-15608929D01*
X6169357Y-15580357D01*
X6155071Y-15566071D01*
X6126500Y-15551786D01*
X6469357Y-15723214D02*
X6297928Y-15723214D01*
X6383643Y-15723214D02*
X6383643Y-15423214D01*
X6355071Y-15466071D01*
X6326500Y-15494643D01*
X6297928Y-15508929D01*
X6597928Y-15723214D02*
X6597928Y-15523214D01*
X6597928Y-15551786D02*
X6612214Y-15537500D01*
X6640786Y-15523214D01*
X6683643Y-15523214D01*
X6712214Y-15537500D01*
X6726500Y-15566071D01*
X6726500Y-15723214D01*
X6726500Y-15566071D02*
X6740786Y-15537500D01*
X6769357Y-15523214D01*
X6812214Y-15523214D01*
X6840786Y-15537500D01*
X6855071Y-15566071D01*
X6855071Y-15723214D01*
X6997928Y-15723214D02*
X6997928Y-15523214D01*
X6997928Y-15551786D02*
X7012214Y-15537500D01*
X7040786Y-15523214D01*
X7083643Y-15523214D01*
X7112214Y-15537500D01*
X7126500Y-15566071D01*
X7126500Y-15723214D01*
X7126500Y-15566071D02*
X7140786Y-15537500D01*
X7169357Y-15523214D01*
X7212214Y-15523214D01*
X7240786Y-15537500D01*
X7255071Y-15566071D01*
X7255071Y-15723214D01*
X7840786Y-15408929D02*
X7583643Y-15794643D01*
X8226500Y-15423214D02*
X8255071Y-15423214D01*
X8283643Y-15437500D01*
X8297928Y-15451786D01*
X8312214Y-15480357D01*
X8326500Y-15537500D01*
X8326500Y-15608929D01*
X8312214Y-15666071D01*
X8297928Y-15694643D01*
X8283643Y-15708929D01*
X8255071Y-15723214D01*
X8226500Y-15723214D01*
X8197928Y-15708929D01*
X8183643Y-15694643D01*
X8169357Y-15666071D01*
X8155071Y-15608929D01*
X8155071Y-15537500D01*
X8169357Y-15480357D01*
X8183643Y-15451786D01*
X8197928Y-15437500D01*
X8226500Y-15423214D01*
X8455071Y-15694643D02*
X8469357Y-15708929D01*
X8455071Y-15723214D01*
X8440786Y-15708929D01*
X8455071Y-15694643D01*
X8455071Y-15723214D01*
X8655071Y-15423214D02*
X8683643Y-15423214D01*
X8712214Y-15437500D01*
X8726500Y-15451786D01*
X8740786Y-15480357D01*
X8755071Y-15537500D01*
X8755071Y-15608929D01*
X8740786Y-15666071D01*
X8726500Y-15694643D01*
X8712214Y-15708929D01*
X8683643Y-15723214D01*
X8655071Y-15723214D01*
X8626500Y-15708929D01*
X8612214Y-15694643D01*
X8597928Y-15666071D01*
X8583643Y-15608929D01*
X8583643Y-15537500D01*
X8597928Y-15480357D01*
X8612214Y-15451786D01*
X8626500Y-15437500D01*
X8655071Y-15423214D01*
X8855071Y-15423214D02*
X9040786Y-15423214D01*
X8940786Y-15537500D01*
X8983643Y-15537500D01*
X9012214Y-15551786D01*
X9026500Y-15566071D01*
X9040786Y-15594643D01*
X9040786Y-15666071D01*
X9026500Y-15694643D01*
X9012214Y-15708929D01*
X8983643Y-15723214D01*
X8897928Y-15723214D01*
X8869357Y-15708929D01*
X8855071Y-15694643D01*
X9155071Y-15451786D02*
X9169357Y-15437500D01*
X9197928Y-15423214D01*
X9269357Y-15423214D01*
X9297928Y-15437500D01*
X9312214Y-15451786D01*
X9326500Y-15480357D01*
X9326500Y-15508929D01*
X9312214Y-15551786D01*
X9140786Y-15723214D01*
X9326500Y-15723214D01*
X9440786Y-15423214D02*
X9440786Y-15480357D01*
X9555071Y-15423214D02*
X9555071Y-15480357D01*
X9997928Y-15837500D02*
X9983643Y-15823214D01*
X9955071Y-15780357D01*
X9940786Y-15751786D01*
X9926500Y-15708929D01*
X9912214Y-15637500D01*
X9912214Y-15580357D01*
X9926500Y-15508929D01*
X9940786Y-15466071D01*
X9955071Y-15437500D01*
X9983643Y-15394643D01*
X9997928Y-15380357D01*
X10240786Y-15423214D02*
X10183643Y-15423214D01*
X10155071Y-15437500D01*
X10140786Y-15451786D01*
X10112214Y-15494643D01*
X10097928Y-15551786D01*
X10097928Y-15666071D01*
X10112214Y-15694643D01*
X10126500Y-15708929D01*
X10155071Y-15723214D01*
X10212214Y-15723214D01*
X10240786Y-15708929D01*
X10255071Y-15694643D01*
X10269357Y-15666071D01*
X10269357Y-15594643D01*
X10255071Y-15566071D01*
X10240786Y-15551786D01*
X10212214Y-15537500D01*
X10155071Y-15537500D01*
X10126500Y-15551786D01*
X10112214Y-15566071D01*
X10097928Y-15594643D01*
X10626500Y-15723214D02*
X10626500Y-15423214D01*
X10755071Y-15723214D02*
X10755071Y-15566071D01*
X10740786Y-15537500D01*
X10712214Y-15523214D01*
X10669357Y-15523214D01*
X10640786Y-15537500D01*
X10626500Y-15551786D01*
X10940786Y-15723214D02*
X10912214Y-15708929D01*
X10897928Y-15694643D01*
X10883643Y-15666071D01*
X10883643Y-15580357D01*
X10897928Y-15551786D01*
X10912214Y-15537500D01*
X10940786Y-15523214D01*
X10983643Y-15523214D01*
X11012214Y-15537500D01*
X11026500Y-15551786D01*
X11040786Y-15580357D01*
X11040786Y-15666071D01*
X11026500Y-15694643D01*
X11012214Y-15708929D01*
X10983643Y-15723214D01*
X10940786Y-15723214D01*
X11212214Y-15723214D02*
X11183643Y-15708929D01*
X11169357Y-15680357D01*
X11169357Y-15423214D01*
X11440786Y-15708929D02*
X11412214Y-15723214D01*
X11355071Y-15723214D01*
X11326500Y-15708929D01*
X11312214Y-15680357D01*
X11312214Y-15566071D01*
X11326500Y-15537500D01*
X11355071Y-15523214D01*
X11412214Y-15523214D01*
X11440786Y-15537500D01*
X11455071Y-15566071D01*
X11455071Y-15594643D01*
X11312214Y-15623214D01*
X11569357Y-15708929D02*
X11597928Y-15723214D01*
X11655071Y-15723214D01*
X11683643Y-15708929D01*
X11697928Y-15680357D01*
X11697928Y-15666071D01*
X11683643Y-15637500D01*
X11655071Y-15623214D01*
X11612214Y-15623214D01*
X11583643Y-15608929D01*
X11569357Y-15580357D01*
X11569357Y-15566071D01*
X11583643Y-15537500D01*
X11612214Y-15523214D01*
X11655071Y-15523214D01*
X11683643Y-15537500D01*
X11797928Y-15837500D02*
X11812214Y-15823214D01*
X11840786Y-15780357D01*
X11855071Y-15751786D01*
X11869357Y-15708929D01*
X11883643Y-15637500D01*
X11883643Y-15580357D01*
X11869357Y-15508929D01*
X11855071Y-15466071D01*
X11840786Y-15437500D01*
X11812214Y-15394643D01*
X11797928Y-15380357D01*
X5276500Y-15933500D02*
X5276500Y-16033500D01*
X5226500Y-15983500D02*
X5326500Y-15983500D01*
X5755071Y-16119214D02*
X5583643Y-16119214D01*
X5669357Y-16119214D02*
X5669357Y-15819214D01*
X5640786Y-15862071D01*
X5612214Y-15890643D01*
X5583643Y-15904929D01*
X5883643Y-16090643D02*
X5897928Y-16104929D01*
X5883643Y-16119214D01*
X5869357Y-16104929D01*
X5883643Y-16090643D01*
X5883643Y-16119214D01*
X6083643Y-15819214D02*
X6112214Y-15819214D01*
X6140786Y-15833500D01*
X6155071Y-15847786D01*
X6169357Y-15876357D01*
X6183643Y-15933500D01*
X6183643Y-16004929D01*
X6169357Y-16062071D01*
X6155071Y-16090643D01*
X6140786Y-16104929D01*
X6112214Y-16119214D01*
X6083643Y-16119214D01*
X6055071Y-16104929D01*
X6040786Y-16090643D01*
X6026500Y-16062071D01*
X6012214Y-16004929D01*
X6012214Y-15933500D01*
X6026500Y-15876357D01*
X6040786Y-15847786D01*
X6055071Y-15833500D01*
X6083643Y-15819214D01*
X6369357Y-15819214D02*
X6397928Y-15819214D01*
X6426500Y-15833500D01*
X6440786Y-15847786D01*
X6455071Y-15876357D01*
X6469357Y-15933500D01*
X6469357Y-16004929D01*
X6455071Y-16062071D01*
X6440786Y-16090643D01*
X6426500Y-16104929D01*
X6397928Y-16119214D01*
X6369357Y-16119214D01*
X6340786Y-16104929D01*
X6326500Y-16090643D01*
X6312214Y-16062071D01*
X6297928Y-16004929D01*
X6297928Y-15933500D01*
X6312214Y-15876357D01*
X6326500Y-15847786D01*
X6340786Y-15833500D01*
X6369357Y-15819214D01*
X6597928Y-16119214D02*
X6597928Y-15919214D01*
X6597928Y-15947786D02*
X6612214Y-15933500D01*
X6640786Y-15919214D01*
X6683643Y-15919214D01*
X6712214Y-15933500D01*
X6726500Y-15962071D01*
X6726500Y-16119214D01*
X6726500Y-15962071D02*
X6740786Y-15933500D01*
X6769357Y-15919214D01*
X6812214Y-15919214D01*
X6840786Y-15933500D01*
X6855071Y-15962071D01*
X6855071Y-16119214D01*
X6997928Y-16119214D02*
X6997928Y-15919214D01*
X6997928Y-15947786D02*
X7012214Y-15933500D01*
X7040786Y-15919214D01*
X7083643Y-15919214D01*
X7112214Y-15933500D01*
X7126500Y-15962071D01*
X7126500Y-16119214D01*
X7126500Y-15962071D02*
X7140786Y-15933500D01*
X7169357Y-15919214D01*
X7212214Y-15919214D01*
X7240786Y-15933500D01*
X7255071Y-15962071D01*
X7255071Y-16119214D01*
X7840786Y-15804929D02*
X7583643Y-16190643D01*
X8226500Y-15819214D02*
X8255071Y-15819214D01*
X8283643Y-15833500D01*
X8297928Y-15847786D01*
X8312214Y-15876357D01*
X8326500Y-15933500D01*
X8326500Y-16004929D01*
X8312214Y-16062071D01*
X8297928Y-16090643D01*
X8283643Y-16104929D01*
X8255071Y-16119214D01*
X8226500Y-16119214D01*
X8197928Y-16104929D01*
X8183643Y-16090643D01*
X8169357Y-16062071D01*
X8155071Y-16004929D01*
X8155071Y-15933500D01*
X8169357Y-15876357D01*
X8183643Y-15847786D01*
X8197928Y-15833500D01*
X8226500Y-15819214D01*
X8455071Y-16090643D02*
X8469357Y-16104929D01*
X8455071Y-16119214D01*
X8440786Y-16104929D01*
X8455071Y-16090643D01*
X8455071Y-16119214D01*
X8655071Y-15819214D02*
X8683643Y-15819214D01*
X8712214Y-15833500D01*
X8726500Y-15847786D01*
X8740786Y-15876357D01*
X8755071Y-15933500D01*
X8755071Y-16004929D01*
X8740786Y-16062071D01*
X8726500Y-16090643D01*
X8712214Y-16104929D01*
X8683643Y-16119214D01*
X8655071Y-16119214D01*
X8626500Y-16104929D01*
X8612214Y-16090643D01*
X8597928Y-16062071D01*
X8583643Y-16004929D01*
X8583643Y-15933500D01*
X8597928Y-15876357D01*
X8612214Y-15847786D01*
X8626500Y-15833500D01*
X8655071Y-15819214D01*
X8855071Y-15819214D02*
X9040786Y-15819214D01*
X8940786Y-15933500D01*
X8983643Y-15933500D01*
X9012214Y-15947786D01*
X9026500Y-15962071D01*
X9040786Y-15990643D01*
X9040786Y-16062071D01*
X9026500Y-16090643D01*
X9012214Y-16104929D01*
X8983643Y-16119214D01*
X8897928Y-16119214D01*
X8869357Y-16104929D01*
X8855071Y-16090643D01*
X9183643Y-16119214D02*
X9240786Y-16119214D01*
X9269357Y-16104929D01*
X9283643Y-16090643D01*
X9312214Y-16047786D01*
X9326500Y-15990643D01*
X9326500Y-15876357D01*
X9312214Y-15847786D01*
X9297928Y-15833500D01*
X9269357Y-15819214D01*
X9212214Y-15819214D01*
X9183643Y-15833500D01*
X9169357Y-15847786D01*
X9155071Y-15876357D01*
X9155071Y-15947786D01*
X9169357Y-15976357D01*
X9183643Y-15990643D01*
X9212214Y-16004929D01*
X9269357Y-16004929D01*
X9297928Y-15990643D01*
X9312214Y-15976357D01*
X9326500Y-15947786D01*
X9440786Y-15819214D02*
X9440786Y-15876357D01*
X9555071Y-15819214D02*
X9555071Y-15876357D01*
X9997928Y-16233500D02*
X9983643Y-16219214D01*
X9955071Y-16176357D01*
X9940786Y-16147786D01*
X9926500Y-16104929D01*
X9912214Y-16033500D01*
X9912214Y-15976357D01*
X9926500Y-15904929D01*
X9940786Y-15862071D01*
X9955071Y-15833500D01*
X9983643Y-15790643D01*
X9997928Y-15776357D01*
X10097928Y-15847786D02*
X10112214Y-15833500D01*
X10140786Y-15819214D01*
X10212214Y-15819214D01*
X10240786Y-15833500D01*
X10255071Y-15847786D01*
X10269357Y-15876357D01*
X10269357Y-15904929D01*
X10255071Y-15947786D01*
X10083643Y-16119214D01*
X10269357Y-16119214D01*
X10440786Y-15947786D02*
X10412214Y-15933500D01*
X10397928Y-15919214D01*
X10383643Y-15890643D01*
X10383643Y-15876357D01*
X10397928Y-15847786D01*
X10412214Y-15833500D01*
X10440786Y-15819214D01*
X10497928Y-15819214D01*
X10526500Y-15833500D01*
X10540786Y-15847786D01*
X10555071Y-15876357D01*
X10555071Y-15890643D01*
X10540786Y-15919214D01*
X10526500Y-15933500D01*
X10497928Y-15947786D01*
X10440786Y-15947786D01*
X10412214Y-15962071D01*
X10397928Y-15976357D01*
X10383643Y-16004929D01*
X10383643Y-16062071D01*
X10397928Y-16090643D01*
X10412214Y-16104929D01*
X10440786Y-16119214D01*
X10497928Y-16119214D01*
X10526500Y-16104929D01*
X10540786Y-16090643D01*
X10555071Y-16062071D01*
X10555071Y-16004929D01*
X10540786Y-15976357D01*
X10526500Y-15962071D01*
X10497928Y-15947786D01*
X10912214Y-16119214D02*
X10912214Y-15819214D01*
X11040786Y-16119214D02*
X11040786Y-15962071D01*
X11026500Y-15933500D01*
X10997928Y-15919214D01*
X10955071Y-15919214D01*
X10926500Y-15933500D01*
X10912214Y-15947786D01*
X11226500Y-16119214D02*
X11197928Y-16104929D01*
X11183643Y-16090643D01*
X11169357Y-16062071D01*
X11169357Y-15976357D01*
X11183643Y-15947786D01*
X11197928Y-15933500D01*
X11226500Y-15919214D01*
X11269357Y-15919214D01*
X11297928Y-15933500D01*
X11312214Y-15947786D01*
X11326500Y-15976357D01*
X11326500Y-16062071D01*
X11312214Y-16090643D01*
X11297928Y-16104929D01*
X11269357Y-16119214D01*
X11226500Y-16119214D01*
X11497928Y-16119214D02*
X11469357Y-16104929D01*
X11455071Y-16076357D01*
X11455071Y-15819214D01*
X11726500Y-16104929D02*
X11697928Y-16119214D01*
X11640786Y-16119214D01*
X11612214Y-16104929D01*
X11597928Y-16076357D01*
X11597928Y-15962071D01*
X11612214Y-15933500D01*
X11640786Y-15919214D01*
X11697928Y-15919214D01*
X11726500Y-15933500D01*
X11740786Y-15962071D01*
X11740786Y-15990643D01*
X11597928Y-16019214D01*
X11855071Y-16104929D02*
X11883643Y-16119214D01*
X11940786Y-16119214D01*
X11969357Y-16104929D01*
X11983643Y-16076357D01*
X11983643Y-16062071D01*
X11969357Y-16033500D01*
X11940786Y-16019214D01*
X11897928Y-16019214D01*
X11869357Y-16004929D01*
X11855071Y-15976357D01*
X11855071Y-15962071D01*
X11869357Y-15933500D01*
X11897928Y-15919214D01*
X11940786Y-15919214D01*
X11969357Y-15933500D01*
X12340786Y-16004929D02*
X12569357Y-16004929D01*
X12455071Y-16119214D02*
X12455071Y-15890643D01*
X12912214Y-15819214D02*
X13097928Y-15819214D01*
X12997928Y-15933500D01*
X13040786Y-15933500D01*
X13069357Y-15947786D01*
X13083643Y-15962071D01*
X13097928Y-15990643D01*
X13097928Y-16062071D01*
X13083643Y-16090643D01*
X13069357Y-16104929D01*
X13040786Y-16119214D01*
X12955071Y-16119214D01*
X12926500Y-16104929D01*
X12912214Y-16090643D01*
X13440786Y-16104929D02*
X13469357Y-16119214D01*
X13526500Y-16119214D01*
X13555071Y-16104929D01*
X13569357Y-16076357D01*
X13569357Y-16062071D01*
X13555071Y-16033500D01*
X13526500Y-16019214D01*
X13483643Y-16019214D01*
X13455071Y-16004929D01*
X13440786Y-15976357D01*
X13440786Y-15962071D01*
X13455071Y-15933500D01*
X13483643Y-15919214D01*
X13526500Y-15919214D01*
X13555071Y-15933500D01*
X13740785Y-16119214D02*
X13712214Y-16104929D01*
X13697928Y-16076357D01*
X13697928Y-15819214D01*
X13897928Y-16119214D02*
X13869357Y-16104929D01*
X13855071Y-16090643D01*
X13840786Y-16062071D01*
X13840786Y-15976357D01*
X13855071Y-15947786D01*
X13869357Y-15933500D01*
X13897928Y-15919214D01*
X13940786Y-15919214D01*
X13969357Y-15933500D01*
X13983643Y-15947786D01*
X13997928Y-15976357D01*
X13997928Y-16062071D01*
X13983643Y-16090643D01*
X13969357Y-16104929D01*
X13940786Y-16119214D01*
X13897928Y-16119214D01*
X14083643Y-15919214D02*
X14197928Y-15919214D01*
X14126500Y-15819214D02*
X14126500Y-16076357D01*
X14140786Y-16104929D01*
X14169357Y-16119214D01*
X14197928Y-16119214D01*
X14283643Y-16104929D02*
X14312214Y-16119214D01*
X14369357Y-16119214D01*
X14397928Y-16104929D01*
X14412214Y-16076357D01*
X14412214Y-16062071D01*
X14397928Y-16033500D01*
X14369357Y-16019214D01*
X14326500Y-16019214D01*
X14297928Y-16004929D01*
X14283643Y-15976357D01*
X14283643Y-15962071D01*
X14297928Y-15933500D01*
X14326500Y-15919214D01*
X14369357Y-15919214D01*
X14397928Y-15933500D01*
X14512214Y-16233500D02*
X14526500Y-16219214D01*
X14555071Y-16176357D01*
X14569357Y-16147786D01*
X14583643Y-16104929D01*
X14597928Y-16033500D01*
X14597928Y-15976357D01*
X14583643Y-15904929D01*
X14569357Y-15862071D01*
X14555071Y-15833500D01*
X14526500Y-15790643D01*
X14512214Y-15776357D01*
X5311844Y-16414883D02*
X5311844Y-16344118D01*
X5241079Y-16344118D01*
X5241079Y-16414883D01*
X5311844Y-16414883D01*
X5755071Y-16515214D02*
X5583643Y-16515214D01*
X5669357Y-16515214D02*
X5669357Y-16215214D01*
X5640786Y-16258071D01*
X5612214Y-16286643D01*
X5583643Y-16300929D01*
X5883643Y-16486643D02*
X5897928Y-16500929D01*
X5883643Y-16515214D01*
X5869357Y-16500929D01*
X5883643Y-16486643D01*
X5883643Y-16515214D01*
X6083643Y-16215214D02*
X6112214Y-16215214D01*
X6140786Y-16229500D01*
X6155071Y-16243786D01*
X6169357Y-16272357D01*
X6183643Y-16329500D01*
X6183643Y-16400929D01*
X6169357Y-16458071D01*
X6155071Y-16486643D01*
X6140786Y-16500929D01*
X6112214Y-16515214D01*
X6083643Y-16515214D01*
X6055071Y-16500929D01*
X6040786Y-16486643D01*
X6026500Y-16458071D01*
X6012214Y-16400929D01*
X6012214Y-16329500D01*
X6026500Y-16272357D01*
X6040786Y-16243786D01*
X6055071Y-16229500D01*
X6083643Y-16215214D01*
X6369357Y-16215214D02*
X6397928Y-16215214D01*
X6426500Y-16229500D01*
X6440786Y-16243786D01*
X6455071Y-16272357D01*
X6469357Y-16329500D01*
X6469357Y-16400929D01*
X6455071Y-16458071D01*
X6440786Y-16486643D01*
X6426500Y-16500929D01*
X6397928Y-16515214D01*
X6369357Y-16515214D01*
X6340786Y-16500929D01*
X6326500Y-16486643D01*
X6312214Y-16458071D01*
X6297928Y-16400929D01*
X6297928Y-16329500D01*
X6312214Y-16272357D01*
X6326500Y-16243786D01*
X6340786Y-16229500D01*
X6369357Y-16215214D01*
X6597928Y-16515214D02*
X6597928Y-16315214D01*
X6597928Y-16343786D02*
X6612214Y-16329500D01*
X6640786Y-16315214D01*
X6683643Y-16315214D01*
X6712214Y-16329500D01*
X6726500Y-16358071D01*
X6726500Y-16515214D01*
X6726500Y-16358071D02*
X6740786Y-16329500D01*
X6769357Y-16315214D01*
X6812214Y-16315214D01*
X6840786Y-16329500D01*
X6855071Y-16358071D01*
X6855071Y-16515214D01*
X6997928Y-16515214D02*
X6997928Y-16315214D01*
X6997928Y-16343786D02*
X7012214Y-16329500D01*
X7040786Y-16315214D01*
X7083643Y-16315214D01*
X7112214Y-16329500D01*
X7126500Y-16358071D01*
X7126500Y-16515214D01*
X7126500Y-16358071D02*
X7140786Y-16329500D01*
X7169357Y-16315214D01*
X7212214Y-16315214D01*
X7240786Y-16329500D01*
X7255071Y-16358071D01*
X7255071Y-16515214D01*
X7840786Y-16200929D02*
X7583643Y-16586643D01*
X8226500Y-16215214D02*
X8255071Y-16215214D01*
X8283643Y-16229500D01*
X8297928Y-16243786D01*
X8312214Y-16272357D01*
X8326500Y-16329500D01*
X8326500Y-16400929D01*
X8312214Y-16458071D01*
X8297928Y-16486643D01*
X8283643Y-16500929D01*
X8255071Y-16515214D01*
X8226500Y-16515214D01*
X8197928Y-16500929D01*
X8183643Y-16486643D01*
X8169357Y-16458071D01*
X8155071Y-16400929D01*
X8155071Y-16329500D01*
X8169357Y-16272357D01*
X8183643Y-16243786D01*
X8197928Y-16229500D01*
X8226500Y-16215214D01*
X8455071Y-16486643D02*
X8469357Y-16500929D01*
X8455071Y-16515214D01*
X8440786Y-16500929D01*
X8455071Y-16486643D01*
X8455071Y-16515214D01*
X8655071Y-16215214D02*
X8683643Y-16215214D01*
X8712214Y-16229500D01*
X8726500Y-16243786D01*
X8740786Y-16272357D01*
X8755071Y-16329500D01*
X8755071Y-16400929D01*
X8740786Y-16458071D01*
X8726500Y-16486643D01*
X8712214Y-16500929D01*
X8683643Y-16515214D01*
X8655071Y-16515214D01*
X8626500Y-16500929D01*
X8612214Y-16486643D01*
X8597928Y-16458071D01*
X8583643Y-16400929D01*
X8583643Y-16329500D01*
X8597928Y-16272357D01*
X8612214Y-16243786D01*
X8626500Y-16229500D01*
X8655071Y-16215214D01*
X8855071Y-16215214D02*
X9040786Y-16215214D01*
X8940786Y-16329500D01*
X8983643Y-16329500D01*
X9012214Y-16343786D01*
X9026500Y-16358071D01*
X9040786Y-16386643D01*
X9040786Y-16458071D01*
X9026500Y-16486643D01*
X9012214Y-16500929D01*
X8983643Y-16515214D01*
X8897928Y-16515214D01*
X8869357Y-16500929D01*
X8855071Y-16486643D01*
X9183643Y-16515214D02*
X9240786Y-16515214D01*
X9269357Y-16500929D01*
X9283643Y-16486643D01*
X9312214Y-16443786D01*
X9326500Y-16386643D01*
X9326500Y-16272357D01*
X9312214Y-16243786D01*
X9297928Y-16229500D01*
X9269357Y-16215214D01*
X9212214Y-16215214D01*
X9183643Y-16229500D01*
X9169357Y-16243786D01*
X9155071Y-16272357D01*
X9155071Y-16343786D01*
X9169357Y-16372357D01*
X9183643Y-16386643D01*
X9212214Y-16400929D01*
X9269357Y-16400929D01*
X9297928Y-16386643D01*
X9312214Y-16372357D01*
X9326500Y-16343786D01*
X9440786Y-16215214D02*
X9440786Y-16272357D01*
X9555071Y-16215214D02*
X9555071Y-16272357D01*
X9997928Y-16629500D02*
X9983643Y-16615214D01*
X9955071Y-16572357D01*
X9940786Y-16543786D01*
X9926500Y-16500929D01*
X9912214Y-16429500D01*
X9912214Y-16372357D01*
X9926500Y-16300929D01*
X9940786Y-16258071D01*
X9955071Y-16229500D01*
X9983643Y-16186643D01*
X9997928Y-16172357D01*
X10269357Y-16515214D02*
X10097928Y-16515214D01*
X10183643Y-16515214D02*
X10183643Y-16215214D01*
X10155071Y-16258071D01*
X10126500Y-16286643D01*
X10097928Y-16300929D01*
X10526500Y-16315214D02*
X10526500Y-16515214D01*
X10455071Y-16200929D02*
X10383643Y-16415214D01*
X10569357Y-16415214D01*
X10912214Y-16515214D02*
X10912214Y-16215214D01*
X11040786Y-16515214D02*
X11040786Y-16358071D01*
X11026500Y-16329500D01*
X10997928Y-16315214D01*
X10955071Y-16315214D01*
X10926500Y-16329500D01*
X10912214Y-16343786D01*
X11226500Y-16515214D02*
X11197928Y-16500929D01*
X11183643Y-16486643D01*
X11169357Y-16458071D01*
X11169357Y-16372357D01*
X11183643Y-16343786D01*
X11197928Y-16329500D01*
X11226500Y-16315214D01*
X11269357Y-16315214D01*
X11297928Y-16329500D01*
X11312214Y-16343786D01*
X11326500Y-16372357D01*
X11326500Y-16458071D01*
X11312214Y-16486643D01*
X11297928Y-16500929D01*
X11269357Y-16515214D01*
X11226500Y-16515214D01*
X11497928Y-16515214D02*
X11469357Y-16500929D01*
X11455071Y-16472357D01*
X11455071Y-16215214D01*
X11726500Y-16500929D02*
X11697928Y-16515214D01*
X11640786Y-16515214D01*
X11612214Y-16500929D01*
X11597928Y-16472357D01*
X11597928Y-16358071D01*
X11612214Y-16329500D01*
X11640786Y-16315214D01*
X11697928Y-16315214D01*
X11726500Y-16329500D01*
X11740786Y-16358071D01*
X11740786Y-16386643D01*
X11597928Y-16415214D01*
X11855071Y-16500929D02*
X11883643Y-16515214D01*
X11940786Y-16515214D01*
X11969357Y-16500929D01*
X11983643Y-16472357D01*
X11983643Y-16458071D01*
X11969357Y-16429500D01*
X11940786Y-16415214D01*
X11897928Y-16415214D01*
X11869357Y-16400929D01*
X11855071Y-16372357D01*
X11855071Y-16358071D01*
X11869357Y-16329500D01*
X11897928Y-16315214D01*
X11940786Y-16315214D01*
X11969357Y-16329500D01*
X12083643Y-16629500D02*
X12097928Y-16615214D01*
X12126500Y-16572357D01*
X12140786Y-16543786D01*
X12155071Y-16500929D01*
X12169357Y-16429500D01*
X12169357Y-16372357D01*
X12155071Y-16300929D01*
X12140786Y-16258071D01*
X12126500Y-16229500D01*
X12097928Y-16186643D01*
X12083643Y-16172357D01*
X5275500Y-16826500D02*
X5326500Y-16775500D01*
X5275500Y-16724500D01*
X5224500Y-16775500D01*
X5275500Y-16826500D01*
X5755071Y-16911214D02*
X5583643Y-16911214D01*
X5669357Y-16911214D02*
X5669357Y-16611214D01*
X5640786Y-16654071D01*
X5612214Y-16682643D01*
X5583643Y-16696929D01*
X5883643Y-16882643D02*
X5897928Y-16896929D01*
X5883643Y-16911214D01*
X5869357Y-16896929D01*
X5883643Y-16882643D01*
X5883643Y-16911214D01*
X6083643Y-16611214D02*
X6112214Y-16611214D01*
X6140786Y-16625500D01*
X6155071Y-16639786D01*
X6169357Y-16668357D01*
X6183643Y-16725500D01*
X6183643Y-16796929D01*
X6169357Y-16854072D01*
X6155071Y-16882643D01*
X6140786Y-16896929D01*
X6112214Y-16911214D01*
X6083643Y-16911214D01*
X6055071Y-16896929D01*
X6040786Y-16882643D01*
X6026500Y-16854072D01*
X6012214Y-16796929D01*
X6012214Y-16725500D01*
X6026500Y-16668357D01*
X6040786Y-16639786D01*
X6055071Y-16625500D01*
X6083643Y-16611214D01*
X6297928Y-16639786D02*
X6312214Y-16625500D01*
X6340786Y-16611214D01*
X6412214Y-16611214D01*
X6440786Y-16625500D01*
X6455071Y-16639786D01*
X6469357Y-16668357D01*
X6469357Y-16696929D01*
X6455071Y-16739786D01*
X6283643Y-16911214D01*
X6469357Y-16911214D01*
X6597928Y-16911214D02*
X6597928Y-16711214D01*
X6597928Y-16739786D02*
X6612214Y-16725500D01*
X6640786Y-16711214D01*
X6683643Y-16711214D01*
X6712214Y-16725500D01*
X6726500Y-16754071D01*
X6726500Y-16911214D01*
X6726500Y-16754071D02*
X6740786Y-16725500D01*
X6769357Y-16711214D01*
X6812214Y-16711214D01*
X6840786Y-16725500D01*
X6855071Y-16754071D01*
X6855071Y-16911214D01*
X6997928Y-16911214D02*
X6997928Y-16711214D01*
X6997928Y-16739786D02*
X7012214Y-16725500D01*
X7040786Y-16711214D01*
X7083643Y-16711214D01*
X7112214Y-16725500D01*
X7126500Y-16754071D01*
X7126500Y-16911214D01*
X7126500Y-16754071D02*
X7140786Y-16725500D01*
X7169357Y-16711214D01*
X7212214Y-16711214D01*
X7240786Y-16725500D01*
X7255071Y-16754071D01*
X7255071Y-16911214D01*
X7840786Y-16596929D02*
X7583643Y-16982643D01*
X8226500Y-16611214D02*
X8255071Y-16611214D01*
X8283643Y-16625500D01*
X8297928Y-16639786D01*
X8312214Y-16668357D01*
X8326500Y-16725500D01*
X8326500Y-16796929D01*
X8312214Y-16854072D01*
X8297928Y-16882643D01*
X8283643Y-16896929D01*
X8255071Y-16911214D01*
X8226500Y-16911214D01*
X8197928Y-16896929D01*
X8183643Y-16882643D01*
X8169357Y-16854072D01*
X8155071Y-16796929D01*
X8155071Y-16725500D01*
X8169357Y-16668357D01*
X8183643Y-16639786D01*
X8197928Y-16625500D01*
X8226500Y-16611214D01*
X8455071Y-16882643D02*
X8469357Y-16896929D01*
X8455071Y-16911214D01*
X8440786Y-16896929D01*
X8455071Y-16882643D01*
X8455071Y-16911214D01*
X8655071Y-16611214D02*
X8683643Y-16611214D01*
X8712214Y-16625500D01*
X8726500Y-16639786D01*
X8740786Y-16668357D01*
X8755071Y-16725500D01*
X8755071Y-16796929D01*
X8740786Y-16854072D01*
X8726500Y-16882643D01*
X8712214Y-16896929D01*
X8683643Y-16911214D01*
X8655071Y-16911214D01*
X8626500Y-16896929D01*
X8612214Y-16882643D01*
X8597928Y-16854072D01*
X8583643Y-16796929D01*
X8583643Y-16725500D01*
X8597928Y-16668357D01*
X8612214Y-16639786D01*
X8626500Y-16625500D01*
X8655071Y-16611214D01*
X9012214Y-16711214D02*
X9012214Y-16911214D01*
X8940786Y-16596929D02*
X8869357Y-16811214D01*
X9055071Y-16811214D01*
X9226500Y-16611214D02*
X9255071Y-16611214D01*
X9283643Y-16625500D01*
X9297928Y-16639786D01*
X9312214Y-16668357D01*
X9326500Y-16725500D01*
X9326500Y-16796929D01*
X9312214Y-16854072D01*
X9297928Y-16882643D01*
X9283643Y-16896929D01*
X9255071Y-16911214D01*
X9226500Y-16911214D01*
X9197928Y-16896929D01*
X9183643Y-16882643D01*
X9169357Y-16854072D01*
X9155071Y-16796929D01*
X9155071Y-16725500D01*
X9169357Y-16668357D01*
X9183643Y-16639786D01*
X9197928Y-16625500D01*
X9226500Y-16611214D01*
X9440786Y-16611214D02*
X9440786Y-16668357D01*
X9555071Y-16611214D02*
X9555071Y-16668357D01*
X9997928Y-17025500D02*
X9983643Y-17011214D01*
X9955071Y-16968357D01*
X9940786Y-16939786D01*
X9926500Y-16896929D01*
X9912214Y-16825500D01*
X9912214Y-16768357D01*
X9926500Y-16696929D01*
X9940786Y-16654071D01*
X9955071Y-16625500D01*
X9983643Y-16582643D01*
X9997928Y-16568357D01*
X10169357Y-16611214D02*
X10197928Y-16611214D01*
X10226500Y-16625500D01*
X10240786Y-16639786D01*
X10255071Y-16668357D01*
X10269357Y-16725500D01*
X10269357Y-16796929D01*
X10255071Y-16854072D01*
X10240786Y-16882643D01*
X10226500Y-16896929D01*
X10197928Y-16911214D01*
X10169357Y-16911214D01*
X10140786Y-16896929D01*
X10126500Y-16882643D01*
X10112214Y-16854072D01*
X10097928Y-16796929D01*
X10097928Y-16725500D01*
X10112214Y-16668357D01*
X10126500Y-16639786D01*
X10140786Y-16625500D01*
X10169357Y-16611214D01*
X10626500Y-16911214D02*
X10626500Y-16611214D01*
X10755071Y-16911214D02*
X10755071Y-16754071D01*
X10740786Y-16725500D01*
X10712214Y-16711214D01*
X10669357Y-16711214D01*
X10640786Y-16725500D01*
X10626500Y-16739786D01*
X10940786Y-16911214D02*
X10912214Y-16896929D01*
X10897928Y-16882643D01*
X10883643Y-16854072D01*
X10883643Y-16768357D01*
X10897928Y-16739786D01*
X10912214Y-16725500D01*
X10940786Y-16711214D01*
X10983643Y-16711214D01*
X11012214Y-16725500D01*
X11026500Y-16739786D01*
X11040786Y-16768357D01*
X11040786Y-16854072D01*
X11026500Y-16882643D01*
X11012214Y-16896929D01*
X10983643Y-16911214D01*
X10940786Y-16911214D01*
X11212214Y-16911214D02*
X11183643Y-16896929D01*
X11169357Y-16868357D01*
X11169357Y-16611214D01*
X11440786Y-16896929D02*
X11412214Y-16911214D01*
X11355071Y-16911214D01*
X11326500Y-16896929D01*
X11312214Y-16868357D01*
X11312214Y-16754071D01*
X11326500Y-16725500D01*
X11355071Y-16711214D01*
X11412214Y-16711214D01*
X11440786Y-16725500D01*
X11455071Y-16754071D01*
X11455071Y-16782643D01*
X11312214Y-16811214D01*
X11569357Y-16896929D02*
X11597928Y-16911214D01*
X11655071Y-16911214D01*
X11683643Y-16896929D01*
X11697928Y-16868357D01*
X11697928Y-16854072D01*
X11683643Y-16825500D01*
X11655071Y-16811214D01*
X11612214Y-16811214D01*
X11583643Y-16796929D01*
X11569357Y-16768357D01*
X11569357Y-16754071D01*
X11583643Y-16725500D01*
X11612214Y-16711214D01*
X11655071Y-16711214D01*
X11683643Y-16725500D01*
X12055071Y-16796929D02*
X12283643Y-16796929D01*
X12169357Y-16911214D02*
X12169357Y-16682643D01*
X12812214Y-16911214D02*
X12640786Y-16911214D01*
X12726500Y-16911214D02*
X12726500Y-16611214D01*
X12697928Y-16654071D01*
X12669357Y-16682643D01*
X12640786Y-16696929D01*
X12983643Y-16739786D02*
X12955071Y-16725500D01*
X12940786Y-16711214D01*
X12926500Y-16682643D01*
X12926500Y-16668357D01*
X12940786Y-16639786D01*
X12955071Y-16625500D01*
X12983643Y-16611214D01*
X13040786Y-16611214D01*
X13069357Y-16625500D01*
X13083643Y-16639786D01*
X13097928Y-16668357D01*
X13097928Y-16682643D01*
X13083643Y-16711214D01*
X13069357Y-16725500D01*
X13040786Y-16739786D01*
X12983643Y-16739786D01*
X12955071Y-16754071D01*
X12940786Y-16768357D01*
X12926500Y-16796929D01*
X12926500Y-16854072D01*
X12940786Y-16882643D01*
X12955071Y-16896929D01*
X12983643Y-16911214D01*
X13040786Y-16911214D01*
X13069357Y-16896929D01*
X13083643Y-16882643D01*
X13097928Y-16854072D01*
X13097928Y-16796929D01*
X13083643Y-16768357D01*
X13069357Y-16754071D01*
X13040786Y-16739786D01*
X13440786Y-16896929D02*
X13469357Y-16911214D01*
X13526500Y-16911214D01*
X13555071Y-16896929D01*
X13569357Y-16868357D01*
X13569357Y-16854072D01*
X13555071Y-16825500D01*
X13526500Y-16811214D01*
X13483643Y-16811214D01*
X13455071Y-16796929D01*
X13440786Y-16768357D01*
X13440786Y-16754071D01*
X13455071Y-16725500D01*
X13483643Y-16711214D01*
X13526500Y-16711214D01*
X13555071Y-16725500D01*
X13740785Y-16911214D02*
X13712214Y-16896929D01*
X13697928Y-16868357D01*
X13697928Y-16611214D01*
X13897928Y-16911214D02*
X13869357Y-16896929D01*
X13855071Y-16882643D01*
X13840786Y-16854072D01*
X13840786Y-16768357D01*
X13855071Y-16739786D01*
X13869357Y-16725500D01*
X13897928Y-16711214D01*
X13940786Y-16711214D01*
X13969357Y-16725500D01*
X13983643Y-16739786D01*
X13997928Y-16768357D01*
X13997928Y-16854072D01*
X13983643Y-16882643D01*
X13969357Y-16896929D01*
X13940786Y-16911214D01*
X13897928Y-16911214D01*
X14083643Y-16711214D02*
X14197928Y-16711214D01*
X14126500Y-16611214D02*
X14126500Y-16868357D01*
X14140786Y-16896929D01*
X14169357Y-16911214D01*
X14197928Y-16911214D01*
X14283643Y-16896929D02*
X14312214Y-16911214D01*
X14369357Y-16911214D01*
X14397928Y-16896929D01*
X14412214Y-16868357D01*
X14412214Y-16854072D01*
X14397928Y-16825500D01*
X14369357Y-16811214D01*
X14326500Y-16811214D01*
X14297928Y-16796929D01*
X14283643Y-16768357D01*
X14283643Y-16754071D01*
X14297928Y-16725500D01*
X14326500Y-16711214D01*
X14369357Y-16711214D01*
X14397928Y-16725500D01*
X14512214Y-17025500D02*
X14526500Y-17011214D01*
X14555071Y-16968357D01*
X14569357Y-16939786D01*
X14583643Y-16896929D01*
X14597928Y-16825500D01*
X14597928Y-16768357D01*
X14583643Y-16696929D01*
X14569357Y-16654071D01*
X14555071Y-16625500D01*
X14526500Y-16582643D01*
X14512214Y-16568357D01*
X5212200Y-17114350D02*
X5326500Y-17228650D01*
X5326500Y-17114350D02*
X5212200Y-17228650D01*
X5326500Y-17171500D02*
G75*
G03X5326500Y-17171500I-57150J0D01*
G01*
X5755071Y-17307214D02*
X5583643Y-17307214D01*
X5669357Y-17307214D02*
X5669357Y-17007214D01*
X5640786Y-17050072D01*
X5612214Y-17078643D01*
X5583643Y-17092929D01*
X5883643Y-17278643D02*
X5897928Y-17292929D01*
X5883643Y-17307214D01*
X5869357Y-17292929D01*
X5883643Y-17278643D01*
X5883643Y-17307214D01*
X6183643Y-17307214D02*
X6012214Y-17307214D01*
X6097928Y-17307214D02*
X6097928Y-17007214D01*
X6069357Y-17050072D01*
X6040786Y-17078643D01*
X6012214Y-17092929D01*
X6440786Y-17107214D02*
X6440786Y-17307214D01*
X6369357Y-16992929D02*
X6297928Y-17207214D01*
X6483643Y-17207214D01*
X6597928Y-17307214D02*
X6597928Y-17107214D01*
X6597928Y-17135786D02*
X6612214Y-17121500D01*
X6640786Y-17107214D01*
X6683643Y-17107214D01*
X6712214Y-17121500D01*
X6726500Y-17150072D01*
X6726500Y-17307214D01*
X6726500Y-17150072D02*
X6740786Y-17121500D01*
X6769357Y-17107214D01*
X6812214Y-17107214D01*
X6840786Y-17121500D01*
X6855071Y-17150072D01*
X6855071Y-17307214D01*
X6997928Y-17307214D02*
X6997928Y-17107214D01*
X6997928Y-17135786D02*
X7012214Y-17121500D01*
X7040786Y-17107214D01*
X7083643Y-17107214D01*
X7112214Y-17121500D01*
X7126500Y-17150072D01*
X7126500Y-17307214D01*
X7126500Y-17150072D02*
X7140786Y-17121500D01*
X7169357Y-17107214D01*
X7212214Y-17107214D01*
X7240786Y-17121500D01*
X7255071Y-17150072D01*
X7255071Y-17307214D01*
X7840786Y-16992929D02*
X7583643Y-17378643D01*
X8226500Y-17007214D02*
X8255071Y-17007214D01*
X8283643Y-17021500D01*
X8297928Y-17035786D01*
X8312214Y-17064357D01*
X8326500Y-17121500D01*
X8326500Y-17192929D01*
X8312214Y-17250072D01*
X8297928Y-17278643D01*
X8283643Y-17292929D01*
X8255071Y-17307214D01*
X8226500Y-17307214D01*
X8197928Y-17292929D01*
X8183643Y-17278643D01*
X8169357Y-17250072D01*
X8155071Y-17192929D01*
X8155071Y-17121500D01*
X8169357Y-17064357D01*
X8183643Y-17035786D01*
X8197928Y-17021500D01*
X8226500Y-17007214D01*
X8455071Y-17278643D02*
X8469357Y-17292929D01*
X8455071Y-17307214D01*
X8440786Y-17292929D01*
X8455071Y-17278643D01*
X8455071Y-17307214D01*
X8655071Y-17007214D02*
X8683643Y-17007214D01*
X8712214Y-17021500D01*
X8726500Y-17035786D01*
X8740786Y-17064357D01*
X8755071Y-17121500D01*
X8755071Y-17192929D01*
X8740786Y-17250072D01*
X8726500Y-17278643D01*
X8712214Y-17292929D01*
X8683643Y-17307214D01*
X8655071Y-17307214D01*
X8626500Y-17292929D01*
X8612214Y-17278643D01*
X8597928Y-17250072D01*
X8583643Y-17192929D01*
X8583643Y-17121500D01*
X8597928Y-17064357D01*
X8612214Y-17035786D01*
X8626500Y-17021500D01*
X8655071Y-17007214D01*
X9012214Y-17107214D02*
X9012214Y-17307214D01*
X8940786Y-16992929D02*
X8869357Y-17207214D01*
X9055071Y-17207214D01*
X9312214Y-17007214D02*
X9169357Y-17007214D01*
X9155071Y-17150072D01*
X9169357Y-17135786D01*
X9197928Y-17121500D01*
X9269357Y-17121500D01*
X9297928Y-17135786D01*
X9312214Y-17150072D01*
X9326500Y-17178643D01*
X9326500Y-17250072D01*
X9312214Y-17278643D01*
X9297928Y-17292929D01*
X9269357Y-17307214D01*
X9197928Y-17307214D01*
X9169357Y-17292929D01*
X9155071Y-17278643D01*
X9440786Y-17007214D02*
X9440786Y-17064357D01*
X9555071Y-17007214D02*
X9555071Y-17064357D01*
X9997928Y-17421500D02*
X9983643Y-17407214D01*
X9955071Y-17364357D01*
X9940786Y-17335786D01*
X9926500Y-17292929D01*
X9912214Y-17221500D01*
X9912214Y-17164357D01*
X9926500Y-17092929D01*
X9940786Y-17050072D01*
X9955071Y-17021500D01*
X9983643Y-16978643D01*
X9997928Y-16964357D01*
X10269357Y-17307214D02*
X10097928Y-17307214D01*
X10183643Y-17307214D02*
X10183643Y-17007214D01*
X10155071Y-17050072D01*
X10126500Y-17078643D01*
X10097928Y-17092929D01*
X10440786Y-17135786D02*
X10412214Y-17121500D01*
X10397928Y-17107214D01*
X10383643Y-17078643D01*
X10383643Y-17064357D01*
X10397928Y-17035786D01*
X10412214Y-17021500D01*
X10440786Y-17007214D01*
X10497928Y-17007214D01*
X10526500Y-17021500D01*
X10540786Y-17035786D01*
X10555071Y-17064357D01*
X10555071Y-17078643D01*
X10540786Y-17107214D01*
X10526500Y-17121500D01*
X10497928Y-17135786D01*
X10440786Y-17135786D01*
X10412214Y-17150072D01*
X10397928Y-17164357D01*
X10383643Y-17192929D01*
X10383643Y-17250072D01*
X10397928Y-17278643D01*
X10412214Y-17292929D01*
X10440786Y-17307214D01*
X10497928Y-17307214D01*
X10526500Y-17292929D01*
X10540786Y-17278643D01*
X10555071Y-17250072D01*
X10555071Y-17192929D01*
X10540786Y-17164357D01*
X10526500Y-17150072D01*
X10497928Y-17135786D01*
X10912214Y-17307214D02*
X10912214Y-17007214D01*
X11040786Y-17307214D02*
X11040786Y-17150072D01*
X11026500Y-17121500D01*
X10997928Y-17107214D01*
X10955071Y-17107214D01*
X10926500Y-17121500D01*
X10912214Y-17135786D01*
X11226500Y-17307214D02*
X11197928Y-17292929D01*
X11183643Y-17278643D01*
X11169357Y-17250072D01*
X11169357Y-17164357D01*
X11183643Y-17135786D01*
X11197928Y-17121500D01*
X11226500Y-17107214D01*
X11269357Y-17107214D01*
X11297928Y-17121500D01*
X11312214Y-17135786D01*
X11326500Y-17164357D01*
X11326500Y-17250072D01*
X11312214Y-17278643D01*
X11297928Y-17292929D01*
X11269357Y-17307214D01*
X11226500Y-17307214D01*
X11497928Y-17307214D02*
X11469357Y-17292929D01*
X11455071Y-17264357D01*
X11455071Y-17007214D01*
X11726500Y-17292929D02*
X11697928Y-17307214D01*
X11640786Y-17307214D01*
X11612214Y-17292929D01*
X11597928Y-17264357D01*
X11597928Y-17150072D01*
X11612214Y-17121500D01*
X11640786Y-17107214D01*
X11697928Y-17107214D01*
X11726500Y-17121500D01*
X11740786Y-17150072D01*
X11740786Y-17178643D01*
X11597928Y-17207214D01*
X11855071Y-17292929D02*
X11883643Y-17307214D01*
X11940786Y-17307214D01*
X11969357Y-17292929D01*
X11983643Y-17264357D01*
X11983643Y-17250072D01*
X11969357Y-17221500D01*
X11940786Y-17207214D01*
X11897928Y-17207214D01*
X11869357Y-17192929D01*
X11855071Y-17164357D01*
X11855071Y-17150072D01*
X11869357Y-17121500D01*
X11897928Y-17107214D01*
X11940786Y-17107214D01*
X11969357Y-17121500D01*
X12083643Y-17421500D02*
X12097928Y-17407214D01*
X12126500Y-17364357D01*
X12140786Y-17335786D01*
X12155071Y-17292929D01*
X12169357Y-17221500D01*
X12169357Y-17164357D01*
X12155071Y-17092929D01*
X12140786Y-17050072D01*
X12126500Y-17021500D01*
X12097928Y-16978643D01*
X12083643Y-16964357D01*
X5206500Y-17507500D02*
X5326500Y-17627500D01*
X5326500Y-17507500D02*
X5206500Y-17627500D01*
X5266500Y-17507500D02*
X5266500Y-17627500D01*
X5206500Y-17567500D02*
X5326500Y-17567500D01*
X5755071Y-17703214D02*
X5583643Y-17703214D01*
X5669357Y-17703214D02*
X5669357Y-17403214D01*
X5640786Y-17446072D01*
X5612214Y-17474643D01*
X5583643Y-17488929D01*
X5883643Y-17674643D02*
X5897928Y-17688929D01*
X5883643Y-17703214D01*
X5869357Y-17688929D01*
X5883643Y-17674643D01*
X5883643Y-17703214D01*
X6012214Y-17431786D02*
X6026500Y-17417500D01*
X6055071Y-17403214D01*
X6126500Y-17403214D01*
X6155071Y-17417500D01*
X6169357Y-17431786D01*
X6183643Y-17460357D01*
X6183643Y-17488929D01*
X6169357Y-17531786D01*
X5997928Y-17703214D01*
X6183643Y-17703214D01*
X6369357Y-17403214D02*
X6397928Y-17403214D01*
X6426500Y-17417500D01*
X6440786Y-17431786D01*
X6455071Y-17460357D01*
X6469357Y-17517500D01*
X6469357Y-17588929D01*
X6455071Y-17646072D01*
X6440786Y-17674643D01*
X6426500Y-17688929D01*
X6397928Y-17703214D01*
X6369357Y-17703214D01*
X6340786Y-17688929D01*
X6326500Y-17674643D01*
X6312214Y-17646072D01*
X6297928Y-17588929D01*
X6297928Y-17517500D01*
X6312214Y-17460357D01*
X6326500Y-17431786D01*
X6340786Y-17417500D01*
X6369357Y-17403214D01*
X6597928Y-17703214D02*
X6597928Y-17503214D01*
X6597928Y-17531786D02*
X6612214Y-17517500D01*
X6640786Y-17503214D01*
X6683643Y-17503214D01*
X6712214Y-17517500D01*
X6726500Y-17546072D01*
X6726500Y-17703214D01*
X6726500Y-17546072D02*
X6740786Y-17517500D01*
X6769357Y-17503214D01*
X6812214Y-17503214D01*
X6840786Y-17517500D01*
X6855071Y-17546072D01*
X6855071Y-17703214D01*
X6997928Y-17703214D02*
X6997928Y-17503214D01*
X6997928Y-17531786D02*
X7012214Y-17517500D01*
X7040786Y-17503214D01*
X7083643Y-17503214D01*
X7112214Y-17517500D01*
X7126500Y-17546072D01*
X7126500Y-17703214D01*
X7126500Y-17546072D02*
X7140786Y-17517500D01*
X7169357Y-17503214D01*
X7212214Y-17503214D01*
X7240786Y-17517500D01*
X7255071Y-17546072D01*
X7255071Y-17703214D01*
X7840786Y-17388929D02*
X7583643Y-17774643D01*
X8226500Y-17403214D02*
X8255071Y-17403214D01*
X8283643Y-17417500D01*
X8297928Y-17431786D01*
X8312214Y-17460357D01*
X8326500Y-17517500D01*
X8326500Y-17588929D01*
X8312214Y-17646072D01*
X8297928Y-17674643D01*
X8283643Y-17688929D01*
X8255071Y-17703214D01*
X8226500Y-17703214D01*
X8197928Y-17688929D01*
X8183643Y-17674643D01*
X8169357Y-17646072D01*
X8155071Y-17588929D01*
X8155071Y-17517500D01*
X8169357Y-17460357D01*
X8183643Y-17431786D01*
X8197928Y-17417500D01*
X8226500Y-17403214D01*
X8455071Y-17674643D02*
X8469357Y-17688929D01*
X8455071Y-17703214D01*
X8440786Y-17688929D01*
X8455071Y-17674643D01*
X8455071Y-17703214D01*
X8655071Y-17403214D02*
X8683643Y-17403214D01*
X8712214Y-17417500D01*
X8726500Y-17431786D01*
X8740786Y-17460357D01*
X8755071Y-17517500D01*
X8755071Y-17588929D01*
X8740786Y-17646072D01*
X8726500Y-17674643D01*
X8712214Y-17688929D01*
X8683643Y-17703214D01*
X8655071Y-17703214D01*
X8626500Y-17688929D01*
X8612214Y-17674643D01*
X8597928Y-17646072D01*
X8583643Y-17588929D01*
X8583643Y-17517500D01*
X8597928Y-17460357D01*
X8612214Y-17431786D01*
X8626500Y-17417500D01*
X8655071Y-17403214D01*
X9012214Y-17503214D02*
X9012214Y-17703214D01*
X8940786Y-17388929D02*
X8869357Y-17603214D01*
X9055071Y-17603214D01*
X9140786Y-17403214D02*
X9340786Y-17403214D01*
X9212214Y-17703214D01*
X9440786Y-17403214D02*
X9440786Y-17460357D01*
X9555071Y-17403214D02*
X9555071Y-17460357D01*
X9997928Y-17817500D02*
X9983643Y-17803214D01*
X9955071Y-17760357D01*
X9940786Y-17731786D01*
X9926500Y-17688929D01*
X9912214Y-17617500D01*
X9912214Y-17560357D01*
X9926500Y-17488929D01*
X9940786Y-17446072D01*
X9955071Y-17417500D01*
X9983643Y-17374643D01*
X9997928Y-17360357D01*
X10155071Y-17531786D02*
X10126500Y-17517500D01*
X10112214Y-17503214D01*
X10097928Y-17474643D01*
X10097928Y-17460357D01*
X10112214Y-17431786D01*
X10126500Y-17417500D01*
X10155071Y-17403214D01*
X10212214Y-17403214D01*
X10240786Y-17417500D01*
X10255071Y-17431786D01*
X10269357Y-17460357D01*
X10269357Y-17474643D01*
X10255071Y-17503214D01*
X10240786Y-17517500D01*
X10212214Y-17531786D01*
X10155071Y-17531786D01*
X10126500Y-17546072D01*
X10112214Y-17560357D01*
X10097928Y-17588929D01*
X10097928Y-17646072D01*
X10112214Y-17674643D01*
X10126500Y-17688929D01*
X10155071Y-17703214D01*
X10212214Y-17703214D01*
X10240786Y-17688929D01*
X10255071Y-17674643D01*
X10269357Y-17646072D01*
X10269357Y-17588929D01*
X10255071Y-17560357D01*
X10240786Y-17546072D01*
X10212214Y-17531786D01*
X10626500Y-17703214D02*
X10626500Y-17403214D01*
X10755071Y-17703214D02*
X10755071Y-17546072D01*
X10740786Y-17517500D01*
X10712214Y-17503214D01*
X10669357Y-17503214D01*
X10640786Y-17517500D01*
X10626500Y-17531786D01*
X10940786Y-17703214D02*
X10912214Y-17688929D01*
X10897928Y-17674643D01*
X10883643Y-17646072D01*
X10883643Y-17560357D01*
X10897928Y-17531786D01*
X10912214Y-17517500D01*
X10940786Y-17503214D01*
X10983643Y-17503214D01*
X11012214Y-17517500D01*
X11026500Y-17531786D01*
X11040786Y-17560357D01*
X11040786Y-17646072D01*
X11026500Y-17674643D01*
X11012214Y-17688929D01*
X10983643Y-17703214D01*
X10940786Y-17703214D01*
X11212214Y-17703214D02*
X11183643Y-17688929D01*
X11169357Y-17660357D01*
X11169357Y-17403214D01*
X11440786Y-17688929D02*
X11412214Y-17703214D01*
X11355071Y-17703214D01*
X11326500Y-17688929D01*
X11312214Y-17660357D01*
X11312214Y-17546072D01*
X11326500Y-17517500D01*
X11355071Y-17503214D01*
X11412214Y-17503214D01*
X11440786Y-17517500D01*
X11455071Y-17546072D01*
X11455071Y-17574643D01*
X11312214Y-17603214D01*
X11569357Y-17688929D02*
X11597928Y-17703214D01*
X11655071Y-17703214D01*
X11683643Y-17688929D01*
X11697928Y-17660357D01*
X11697928Y-17646072D01*
X11683643Y-17617500D01*
X11655071Y-17603214D01*
X11612214Y-17603214D01*
X11583643Y-17588929D01*
X11569357Y-17560357D01*
X11569357Y-17546072D01*
X11583643Y-17517500D01*
X11612214Y-17503214D01*
X11655071Y-17503214D01*
X11683643Y-17517500D01*
X11797928Y-17817500D02*
X11812214Y-17803214D01*
X11840786Y-17760357D01*
X11855071Y-17731786D01*
X11869357Y-17688929D01*
X11883643Y-17617500D01*
X11883643Y-17560357D01*
X11869357Y-17488929D01*
X11855071Y-17446072D01*
X11840786Y-17417500D01*
X11812214Y-17374643D01*
X11797928Y-17360357D01*
X5196500Y-17898500D02*
X5326500Y-18028500D01*
X5326500Y-17898500D02*
X5196500Y-18028500D01*
X5307462Y-18009463D02*
X5307462Y-17917538D01*
X5215538Y-17917538D01*
X5215538Y-18009463D01*
X5307462Y-18009463D01*
X5755071Y-18099214D02*
X5583643Y-18099214D01*
X5669357Y-18099214D02*
X5669357Y-17799214D01*
X5640786Y-17842072D01*
X5612214Y-17870643D01*
X5583643Y-17884929D01*
X5883643Y-18070643D02*
X5897928Y-18084929D01*
X5883643Y-18099214D01*
X5869357Y-18084929D01*
X5883643Y-18070643D01*
X5883643Y-18099214D01*
X5997928Y-17799214D02*
X6183643Y-17799214D01*
X6083643Y-17913500D01*
X6126500Y-17913500D01*
X6155071Y-17927786D01*
X6169357Y-17942072D01*
X6183643Y-17970643D01*
X6183643Y-18042072D01*
X6169357Y-18070643D01*
X6155071Y-18084929D01*
X6126500Y-18099214D01*
X6040786Y-18099214D01*
X6012214Y-18084929D01*
X5997928Y-18070643D01*
X6369357Y-17799214D02*
X6397928Y-17799214D01*
X6426500Y-17813500D01*
X6440786Y-17827786D01*
X6455071Y-17856357D01*
X6469357Y-17913500D01*
X6469357Y-17984929D01*
X6455071Y-18042072D01*
X6440786Y-18070643D01*
X6426500Y-18084929D01*
X6397928Y-18099214D01*
X6369357Y-18099214D01*
X6340786Y-18084929D01*
X6326500Y-18070643D01*
X6312214Y-18042072D01*
X6297928Y-17984929D01*
X6297928Y-17913500D01*
X6312214Y-17856357D01*
X6326500Y-17827786D01*
X6340786Y-17813500D01*
X6369357Y-17799214D01*
X6597928Y-18099214D02*
X6597928Y-17899214D01*
X6597928Y-17927786D02*
X6612214Y-17913500D01*
X6640786Y-17899214D01*
X6683643Y-17899214D01*
X6712214Y-17913500D01*
X6726500Y-17942072D01*
X6726500Y-18099214D01*
X6726500Y-17942072D02*
X6740786Y-17913500D01*
X6769357Y-17899214D01*
X6812214Y-17899214D01*
X6840786Y-17913500D01*
X6855071Y-17942072D01*
X6855071Y-18099214D01*
X6997928Y-18099214D02*
X6997928Y-17899214D01*
X6997928Y-17927786D02*
X7012214Y-17913500D01*
X7040786Y-17899214D01*
X7083643Y-17899214D01*
X7112214Y-17913500D01*
X7126500Y-17942072D01*
X7126500Y-18099214D01*
X7126500Y-17942072D02*
X7140786Y-17913500D01*
X7169357Y-17899214D01*
X7212214Y-17899214D01*
X7240786Y-17913500D01*
X7255071Y-17942072D01*
X7255071Y-18099214D01*
X7840786Y-17784929D02*
X7583643Y-18170643D01*
X8226500Y-17799214D02*
X8255071Y-17799214D01*
X8283643Y-17813500D01*
X8297928Y-17827786D01*
X8312214Y-17856357D01*
X8326500Y-17913500D01*
X8326500Y-17984929D01*
X8312214Y-18042072D01*
X8297928Y-18070643D01*
X8283643Y-18084929D01*
X8255071Y-18099214D01*
X8226500Y-18099214D01*
X8197928Y-18084929D01*
X8183643Y-18070643D01*
X8169357Y-18042072D01*
X8155071Y-17984929D01*
X8155071Y-17913500D01*
X8169357Y-17856357D01*
X8183643Y-17827786D01*
X8197928Y-17813500D01*
X8226500Y-17799214D01*
X8455071Y-18070643D02*
X8469357Y-18084929D01*
X8455071Y-18099214D01*
X8440786Y-18084929D01*
X8455071Y-18070643D01*
X8455071Y-18099214D01*
X8655071Y-17799214D02*
X8683643Y-17799214D01*
X8712214Y-17813500D01*
X8726500Y-17827786D01*
X8740786Y-17856357D01*
X8755071Y-17913500D01*
X8755071Y-17984929D01*
X8740786Y-18042072D01*
X8726500Y-18070643D01*
X8712214Y-18084929D01*
X8683643Y-18099214D01*
X8655071Y-18099214D01*
X8626500Y-18084929D01*
X8612214Y-18070643D01*
X8597928Y-18042072D01*
X8583643Y-17984929D01*
X8583643Y-17913500D01*
X8597928Y-17856357D01*
X8612214Y-17827786D01*
X8626500Y-17813500D01*
X8655071Y-17799214D01*
X9026500Y-17799214D02*
X8883643Y-17799214D01*
X8869357Y-17942072D01*
X8883643Y-17927786D01*
X8912214Y-17913500D01*
X8983643Y-17913500D01*
X9012214Y-17927786D01*
X9026500Y-17942072D01*
X9040786Y-17970643D01*
X9040786Y-18042072D01*
X9026500Y-18070643D01*
X9012214Y-18084929D01*
X8983643Y-18099214D01*
X8912214Y-18099214D01*
X8883643Y-18084929D01*
X8869357Y-18070643D01*
X9326500Y-18099214D02*
X9155071Y-18099214D01*
X9240786Y-18099214D02*
X9240786Y-17799214D01*
X9212214Y-17842072D01*
X9183643Y-17870643D01*
X9155071Y-17884929D01*
X9440786Y-17799214D02*
X9440786Y-17856357D01*
X9555071Y-17799214D02*
X9555071Y-17856357D01*
X9997928Y-18213500D02*
X9983643Y-18199214D01*
X9955071Y-18156357D01*
X9940786Y-18127786D01*
X9926500Y-18084929D01*
X9912214Y-18013500D01*
X9912214Y-17956357D01*
X9926500Y-17884929D01*
X9940786Y-17842072D01*
X9955071Y-17813500D01*
X9983643Y-17770643D01*
X9997928Y-17756357D01*
X10240786Y-17799214D02*
X10183643Y-17799214D01*
X10155071Y-17813500D01*
X10140786Y-17827786D01*
X10112214Y-17870643D01*
X10097928Y-17927786D01*
X10097928Y-18042072D01*
X10112214Y-18070643D01*
X10126500Y-18084929D01*
X10155071Y-18099214D01*
X10212214Y-18099214D01*
X10240786Y-18084929D01*
X10255071Y-18070643D01*
X10269357Y-18042072D01*
X10269357Y-17970643D01*
X10255071Y-17942072D01*
X10240786Y-17927786D01*
X10212214Y-17913500D01*
X10155071Y-17913500D01*
X10126500Y-17927786D01*
X10112214Y-17942072D01*
X10097928Y-17970643D01*
X10626500Y-18099214D02*
X10626500Y-17799214D01*
X10755071Y-18099214D02*
X10755071Y-17942072D01*
X10740786Y-17913500D01*
X10712214Y-17899214D01*
X10669357Y-17899214D01*
X10640786Y-17913500D01*
X10626500Y-17927786D01*
X10940786Y-18099214D02*
X10912214Y-18084929D01*
X10897928Y-18070643D01*
X10883643Y-18042072D01*
X10883643Y-17956357D01*
X10897928Y-17927786D01*
X10912214Y-17913500D01*
X10940786Y-17899214D01*
X10983643Y-17899214D01*
X11012214Y-17913500D01*
X11026500Y-17927786D01*
X11040786Y-17956357D01*
X11040786Y-18042072D01*
X11026500Y-18070643D01*
X11012214Y-18084929D01*
X10983643Y-18099214D01*
X10940786Y-18099214D01*
X11212214Y-18099214D02*
X11183643Y-18084929D01*
X11169357Y-18056357D01*
X11169357Y-17799214D01*
X11440786Y-18084929D02*
X11412214Y-18099214D01*
X11355071Y-18099214D01*
X11326500Y-18084929D01*
X11312214Y-18056357D01*
X11312214Y-17942072D01*
X11326500Y-17913500D01*
X11355071Y-17899214D01*
X11412214Y-17899214D01*
X11440786Y-17913500D01*
X11455071Y-17942072D01*
X11455071Y-17970643D01*
X11312214Y-17999214D01*
X11569357Y-18084929D02*
X11597928Y-18099214D01*
X11655071Y-18099214D01*
X11683643Y-18084929D01*
X11697928Y-18056357D01*
X11697928Y-18042072D01*
X11683643Y-18013500D01*
X11655071Y-17999214D01*
X11612214Y-17999214D01*
X11583643Y-17984929D01*
X11569357Y-17956357D01*
X11569357Y-17942072D01*
X11583643Y-17913500D01*
X11612214Y-17899214D01*
X11655071Y-17899214D01*
X11683643Y-17913500D01*
X11797928Y-18213500D02*
X11812214Y-18199214D01*
X11840786Y-18156357D01*
X11855071Y-18127786D01*
X11869357Y-18084929D01*
X11883643Y-18013500D01*
X11883643Y-17956357D01*
X11869357Y-17884929D01*
X11855071Y-17842072D01*
X11840786Y-17813500D01*
X11812214Y-17770643D01*
X11797928Y-17756357D01*
X5176500Y-18284500D02*
X5326500Y-18434500D01*
X5326500Y-18284500D02*
X5176500Y-18434500D01*
X5251500Y-18434500D02*
X5326500Y-18359500D01*
X5251500Y-18284500D01*
X5176500Y-18359500D01*
X5251500Y-18434500D01*
X5755071Y-18495214D02*
X5583643Y-18495214D01*
X5669357Y-18495214D02*
X5669357Y-18195214D01*
X5640786Y-18238072D01*
X5612214Y-18266643D01*
X5583643Y-18280929D01*
X5883643Y-18466643D02*
X5897928Y-18480929D01*
X5883643Y-18495214D01*
X5869357Y-18480929D01*
X5883643Y-18466643D01*
X5883643Y-18495214D01*
X6169357Y-18195214D02*
X6026500Y-18195214D01*
X6012214Y-18338072D01*
X6026500Y-18323786D01*
X6055071Y-18309500D01*
X6126500Y-18309500D01*
X6155071Y-18323786D01*
X6169357Y-18338072D01*
X6183643Y-18366643D01*
X6183643Y-18438072D01*
X6169357Y-18466643D01*
X6155071Y-18480929D01*
X6126500Y-18495214D01*
X6055071Y-18495214D01*
X6026500Y-18480929D01*
X6012214Y-18466643D01*
X6369357Y-18195214D02*
X6397928Y-18195214D01*
X6426500Y-18209500D01*
X6440786Y-18223786D01*
X6455071Y-18252357D01*
X6469357Y-18309500D01*
X6469357Y-18380929D01*
X6455071Y-18438072D01*
X6440786Y-18466643D01*
X6426500Y-18480929D01*
X6397928Y-18495214D01*
X6369357Y-18495214D01*
X6340786Y-18480929D01*
X6326500Y-18466643D01*
X6312214Y-18438072D01*
X6297928Y-18380929D01*
X6297928Y-18309500D01*
X6312214Y-18252357D01*
X6326500Y-18223786D01*
X6340786Y-18209500D01*
X6369357Y-18195214D01*
X6597928Y-18495214D02*
X6597928Y-18295214D01*
X6597928Y-18323786D02*
X6612214Y-18309500D01*
X6640786Y-18295214D01*
X6683643Y-18295214D01*
X6712214Y-18309500D01*
X6726500Y-18338072D01*
X6726500Y-18495214D01*
X6726500Y-18338072D02*
X6740786Y-18309500D01*
X6769357Y-18295214D01*
X6812214Y-18295214D01*
X6840786Y-18309500D01*
X6855071Y-18338072D01*
X6855071Y-18495214D01*
X6997928Y-18495214D02*
X6997928Y-18295214D01*
X6997928Y-18323786D02*
X7012214Y-18309500D01*
X7040786Y-18295214D01*
X7083643Y-18295214D01*
X7112214Y-18309500D01*
X7126500Y-18338072D01*
X7126500Y-18495214D01*
X7126500Y-18338072D02*
X7140786Y-18309500D01*
X7169357Y-18295214D01*
X7212214Y-18295214D01*
X7240786Y-18309500D01*
X7255071Y-18338072D01*
X7255071Y-18495214D01*
X7840786Y-18180929D02*
X7583643Y-18566643D01*
X8226500Y-18195214D02*
X8255071Y-18195214D01*
X8283643Y-18209500D01*
X8297928Y-18223786D01*
X8312214Y-18252357D01*
X8326500Y-18309500D01*
X8326500Y-18380929D01*
X8312214Y-18438072D01*
X8297928Y-18466643D01*
X8283643Y-18480929D01*
X8255071Y-18495214D01*
X8226500Y-18495214D01*
X8197928Y-18480929D01*
X8183643Y-18466643D01*
X8169357Y-18438072D01*
X8155071Y-18380929D01*
X8155071Y-18309500D01*
X8169357Y-18252357D01*
X8183643Y-18223786D01*
X8197928Y-18209500D01*
X8226500Y-18195214D01*
X8455071Y-18466643D02*
X8469357Y-18480929D01*
X8455071Y-18495214D01*
X8440786Y-18480929D01*
X8455071Y-18466643D01*
X8455071Y-18495214D01*
X8655071Y-18195214D02*
X8683643Y-18195214D01*
X8712214Y-18209500D01*
X8726500Y-18223786D01*
X8740786Y-18252357D01*
X8755071Y-18309500D01*
X8755071Y-18380929D01*
X8740786Y-18438072D01*
X8726500Y-18466643D01*
X8712214Y-18480929D01*
X8683643Y-18495214D01*
X8655071Y-18495214D01*
X8626500Y-18480929D01*
X8612214Y-18466643D01*
X8597928Y-18438072D01*
X8583643Y-18380929D01*
X8583643Y-18309500D01*
X8597928Y-18252357D01*
X8612214Y-18223786D01*
X8626500Y-18209500D01*
X8655071Y-18195214D01*
X9026500Y-18195214D02*
X8883643Y-18195214D01*
X8869357Y-18338072D01*
X8883643Y-18323786D01*
X8912214Y-18309500D01*
X8983643Y-18309500D01*
X9012214Y-18323786D01*
X9026500Y-18338072D01*
X9040786Y-18366643D01*
X9040786Y-18438072D01*
X9026500Y-18466643D01*
X9012214Y-18480929D01*
X8983643Y-18495214D01*
X8912214Y-18495214D01*
X8883643Y-18480929D01*
X8869357Y-18466643D01*
X9183643Y-18495214D02*
X9240786Y-18495214D01*
X9269357Y-18480929D01*
X9283643Y-18466643D01*
X9312214Y-18423786D01*
X9326500Y-18366643D01*
X9326500Y-18252357D01*
X9312214Y-18223786D01*
X9297928Y-18209500D01*
X9269357Y-18195214D01*
X9212214Y-18195214D01*
X9183643Y-18209500D01*
X9169357Y-18223786D01*
X9155071Y-18252357D01*
X9155071Y-18323786D01*
X9169357Y-18352357D01*
X9183643Y-18366643D01*
X9212214Y-18380929D01*
X9269357Y-18380929D01*
X9297928Y-18366643D01*
X9312214Y-18352357D01*
X9326500Y-18323786D01*
X9440786Y-18195214D02*
X9440786Y-18252357D01*
X9555071Y-18195214D02*
X9555071Y-18252357D01*
X9997928Y-18609500D02*
X9983643Y-18595214D01*
X9955071Y-18552357D01*
X9940786Y-18523786D01*
X9926500Y-18480929D01*
X9912214Y-18409500D01*
X9912214Y-18352357D01*
X9926500Y-18280929D01*
X9940786Y-18238072D01*
X9955071Y-18209500D01*
X9983643Y-18166643D01*
X9997928Y-18152357D01*
X10269357Y-18495214D02*
X10097928Y-18495214D01*
X10183643Y-18495214D02*
X10183643Y-18195214D01*
X10155071Y-18238072D01*
X10126500Y-18266643D01*
X10097928Y-18280929D01*
X10383643Y-18223786D02*
X10397928Y-18209500D01*
X10426500Y-18195214D01*
X10497928Y-18195214D01*
X10526500Y-18209500D01*
X10540786Y-18223786D01*
X10555071Y-18252357D01*
X10555071Y-18280929D01*
X10540786Y-18323786D01*
X10369357Y-18495214D01*
X10555071Y-18495214D01*
X10912214Y-18495214D02*
X10912214Y-18195214D01*
X11040786Y-18495214D02*
X11040786Y-18338072D01*
X11026500Y-18309500D01*
X10997928Y-18295214D01*
X10955071Y-18295214D01*
X10926500Y-18309500D01*
X10912214Y-18323786D01*
X11226500Y-18495214D02*
X11197928Y-18480929D01*
X11183643Y-18466643D01*
X11169357Y-18438072D01*
X11169357Y-18352357D01*
X11183643Y-18323786D01*
X11197928Y-18309500D01*
X11226500Y-18295214D01*
X11269357Y-18295214D01*
X11297928Y-18309500D01*
X11312214Y-18323786D01*
X11326500Y-18352357D01*
X11326500Y-18438072D01*
X11312214Y-18466643D01*
X11297928Y-18480929D01*
X11269357Y-18495214D01*
X11226500Y-18495214D01*
X11497928Y-18495214D02*
X11469357Y-18480929D01*
X11455071Y-18452357D01*
X11455071Y-18195214D01*
X11726500Y-18480929D02*
X11697928Y-18495214D01*
X11640786Y-18495214D01*
X11612214Y-18480929D01*
X11597928Y-18452357D01*
X11597928Y-18338072D01*
X11612214Y-18309500D01*
X11640786Y-18295214D01*
X11697928Y-18295214D01*
X11726500Y-18309500D01*
X11740786Y-18338072D01*
X11740786Y-18366643D01*
X11597928Y-18395214D01*
X11855071Y-18480929D02*
X11883643Y-18495214D01*
X11940786Y-18495214D01*
X11969357Y-18480929D01*
X11983643Y-18452357D01*
X11983643Y-18438072D01*
X11969357Y-18409500D01*
X11940786Y-18395214D01*
X11897928Y-18395214D01*
X11869357Y-18380929D01*
X11855071Y-18352357D01*
X11855071Y-18338072D01*
X11869357Y-18309500D01*
X11897928Y-18295214D01*
X11940786Y-18295214D01*
X11969357Y-18309500D01*
X12083643Y-18609500D02*
X12097928Y-18595214D01*
X12126500Y-18552357D01*
X12140786Y-18523786D01*
X12155071Y-18480929D01*
X12169357Y-18409500D01*
X12169357Y-18352357D01*
X12155071Y-18280929D01*
X12140786Y-18238072D01*
X12126500Y-18209500D01*
X12097928Y-18166643D01*
X12083643Y-18152357D01*
X5171500Y-18600500D02*
X5171500Y-18910500D01*
X5016500Y-18755500D02*
X5326500Y-18755500D01*
X5326500Y-18755500D02*
G75*
G03X5326500Y-18755500I-155000J0D01*
G01*
X5569357Y-18591214D02*
X5755071Y-18591214D01*
X5655071Y-18705500D01*
X5697928Y-18705500D01*
X5726500Y-18719786D01*
X5740786Y-18734072D01*
X5755071Y-18762643D01*
X5755071Y-18834072D01*
X5740786Y-18862643D01*
X5726500Y-18876929D01*
X5697928Y-18891214D01*
X5612214Y-18891214D01*
X5583643Y-18876929D01*
X5569357Y-18862643D01*
X5883643Y-18862643D02*
X5897928Y-18876929D01*
X5883643Y-18891214D01*
X5869357Y-18876929D01*
X5883643Y-18862643D01*
X5883643Y-18891214D01*
X6183643Y-18891214D02*
X6012214Y-18891214D01*
X6097928Y-18891214D02*
X6097928Y-18591214D01*
X6069357Y-18634072D01*
X6040786Y-18662643D01*
X6012214Y-18676929D01*
X6369357Y-18591214D02*
X6397928Y-18591214D01*
X6426500Y-18605500D01*
X6440786Y-18619786D01*
X6455071Y-18648357D01*
X6469357Y-18705500D01*
X6469357Y-18776929D01*
X6455071Y-18834072D01*
X6440786Y-18862643D01*
X6426500Y-18876929D01*
X6397928Y-18891214D01*
X6369357Y-18891214D01*
X6340786Y-18876929D01*
X6326500Y-18862643D01*
X6312214Y-18834072D01*
X6297928Y-18776929D01*
X6297928Y-18705500D01*
X6312214Y-18648357D01*
X6326500Y-18619786D01*
X6340786Y-18605500D01*
X6369357Y-18591214D01*
X6597928Y-18891214D02*
X6597928Y-18691214D01*
X6597928Y-18719786D02*
X6612214Y-18705500D01*
X6640786Y-18691214D01*
X6683643Y-18691214D01*
X6712214Y-18705500D01*
X6726500Y-18734072D01*
X6726500Y-18891214D01*
X6726500Y-18734072D02*
X6740786Y-18705500D01*
X6769357Y-18691214D01*
X6812214Y-18691214D01*
X6840786Y-18705500D01*
X6855071Y-18734072D01*
X6855071Y-18891214D01*
X6997928Y-18891214D02*
X6997928Y-18691214D01*
X6997928Y-18719786D02*
X7012214Y-18705500D01*
X7040786Y-18691214D01*
X7083643Y-18691214D01*
X7112214Y-18705500D01*
X7126500Y-18734072D01*
X7126500Y-18891214D01*
X7126500Y-18734072D02*
X7140786Y-18705500D01*
X7169357Y-18691214D01*
X7212214Y-18691214D01*
X7240786Y-18705500D01*
X7255071Y-18734072D01*
X7255071Y-18891214D01*
X7840786Y-18576929D02*
X7583643Y-18962643D01*
X8226500Y-18591214D02*
X8255071Y-18591214D01*
X8283643Y-18605500D01*
X8297928Y-18619786D01*
X8312214Y-18648357D01*
X8326500Y-18705500D01*
X8326500Y-18776929D01*
X8312214Y-18834072D01*
X8297928Y-18862643D01*
X8283643Y-18876929D01*
X8255071Y-18891214D01*
X8226500Y-18891214D01*
X8197928Y-18876929D01*
X8183643Y-18862643D01*
X8169357Y-18834072D01*
X8155071Y-18776929D01*
X8155071Y-18705500D01*
X8169357Y-18648357D01*
X8183643Y-18619786D01*
X8197928Y-18605500D01*
X8226500Y-18591214D01*
X8455071Y-18862643D02*
X8469357Y-18876929D01*
X8455071Y-18891214D01*
X8440786Y-18876929D01*
X8455071Y-18862643D01*
X8455071Y-18891214D01*
X8755071Y-18891214D02*
X8583643Y-18891214D01*
X8669357Y-18891214D02*
X8669357Y-18591214D01*
X8640786Y-18634072D01*
X8612214Y-18662643D01*
X8583643Y-18676929D01*
X8869357Y-18619786D02*
X8883643Y-18605500D01*
X8912214Y-18591214D01*
X8983643Y-18591214D01*
X9012214Y-18605500D01*
X9026500Y-18619786D01*
X9040786Y-18648357D01*
X9040786Y-18676929D01*
X9026500Y-18719786D01*
X8855071Y-18891214D01*
X9040786Y-18891214D01*
X9155071Y-18619786D02*
X9169357Y-18605500D01*
X9197928Y-18591214D01*
X9269357Y-18591214D01*
X9297928Y-18605500D01*
X9312214Y-18619786D01*
X9326500Y-18648357D01*
X9326500Y-18676929D01*
X9312214Y-18719786D01*
X9140786Y-18891214D01*
X9326500Y-18891214D01*
X9440786Y-18591214D02*
X9440786Y-18648357D01*
X9555071Y-18591214D02*
X9555071Y-18648357D01*
X9997928Y-19005500D02*
X9983643Y-18991214D01*
X9955071Y-18948357D01*
X9940786Y-18919786D01*
X9926500Y-18876929D01*
X9912214Y-18805500D01*
X9912214Y-18748357D01*
X9926500Y-18676929D01*
X9940786Y-18634072D01*
X9955071Y-18605500D01*
X9983643Y-18562643D01*
X9997928Y-18548357D01*
X10097928Y-18619786D02*
X10112214Y-18605500D01*
X10140786Y-18591214D01*
X10212214Y-18591214D01*
X10240786Y-18605500D01*
X10255071Y-18619786D01*
X10269357Y-18648357D01*
X10269357Y-18676929D01*
X10255071Y-18719786D01*
X10083643Y-18891214D01*
X10269357Y-18891214D01*
X10626500Y-18891214D02*
X10626500Y-18591214D01*
X10755071Y-18891214D02*
X10755071Y-18734072D01*
X10740786Y-18705500D01*
X10712214Y-18691214D01*
X10669357Y-18691214D01*
X10640786Y-18705500D01*
X10626500Y-18719786D01*
X10940786Y-18891214D02*
X10912214Y-18876929D01*
X10897928Y-18862643D01*
X10883643Y-18834072D01*
X10883643Y-18748357D01*
X10897928Y-18719786D01*
X10912214Y-18705500D01*
X10940786Y-18691214D01*
X10983643Y-18691214D01*
X11012214Y-18705500D01*
X11026500Y-18719786D01*
X11040786Y-18748357D01*
X11040786Y-18834072D01*
X11026500Y-18862643D01*
X11012214Y-18876929D01*
X10983643Y-18891214D01*
X10940786Y-18891214D01*
X11212214Y-18891214D02*
X11183643Y-18876929D01*
X11169357Y-18848357D01*
X11169357Y-18591214D01*
X11440786Y-18876929D02*
X11412214Y-18891214D01*
X11355071Y-18891214D01*
X11326500Y-18876929D01*
X11312214Y-18848357D01*
X11312214Y-18734072D01*
X11326500Y-18705500D01*
X11355071Y-18691214D01*
X11412214Y-18691214D01*
X11440786Y-18705500D01*
X11455071Y-18734072D01*
X11455071Y-18762643D01*
X11312214Y-18791214D01*
X11569357Y-18876929D02*
X11597928Y-18891214D01*
X11655071Y-18891214D01*
X11683643Y-18876929D01*
X11697928Y-18848357D01*
X11697928Y-18834072D01*
X11683643Y-18805500D01*
X11655071Y-18791214D01*
X11612214Y-18791214D01*
X11583643Y-18776929D01*
X11569357Y-18748357D01*
X11569357Y-18734072D01*
X11583643Y-18705500D01*
X11612214Y-18691214D01*
X11655071Y-18691214D01*
X11683643Y-18705500D01*
X11797928Y-19005500D02*
X11812214Y-18991214D01*
X11840786Y-18948357D01*
X11855071Y-18919786D01*
X11869357Y-18876929D01*
X11883643Y-18805500D01*
X11883643Y-18748357D01*
X11869357Y-18676929D01*
X11855071Y-18634072D01*
X11840786Y-18605500D01*
X11812214Y-18562643D01*
X11797928Y-18548357D01*
X5279638Y-19308638D02*
X5279638Y-19082362D01*
X5053362Y-19082362D01*
X5053362Y-19308638D01*
X5279638Y-19308638D01*
X5326500Y-19195500D02*
G75*
G03X5326500Y-19195500I-160000J0D01*
G01*
X5569357Y-19031214D02*
X5755071Y-19031214D01*
X5655071Y-19145500D01*
X5697928Y-19145500D01*
X5726500Y-19159786D01*
X5740786Y-19174072D01*
X5755071Y-19202643D01*
X5755071Y-19274072D01*
X5740786Y-19302643D01*
X5726500Y-19316929D01*
X5697928Y-19331214D01*
X5612214Y-19331214D01*
X5583643Y-19316929D01*
X5569357Y-19302643D01*
X5883643Y-19302643D02*
X5897928Y-19316929D01*
X5883643Y-19331214D01*
X5869357Y-19316929D01*
X5883643Y-19302643D01*
X5883643Y-19331214D01*
X6012214Y-19059786D02*
X6026500Y-19045500D01*
X6055071Y-19031214D01*
X6126500Y-19031214D01*
X6155071Y-19045500D01*
X6169357Y-19059786D01*
X6183643Y-19088357D01*
X6183643Y-19116929D01*
X6169357Y-19159786D01*
X5997928Y-19331214D01*
X6183643Y-19331214D01*
X6369357Y-19031214D02*
X6397928Y-19031214D01*
X6426500Y-19045500D01*
X6440786Y-19059786D01*
X6455071Y-19088357D01*
X6469357Y-19145500D01*
X6469357Y-19216929D01*
X6455071Y-19274072D01*
X6440786Y-19302643D01*
X6426500Y-19316929D01*
X6397928Y-19331214D01*
X6369357Y-19331214D01*
X6340786Y-19316929D01*
X6326500Y-19302643D01*
X6312214Y-19274072D01*
X6297928Y-19216929D01*
X6297928Y-19145500D01*
X6312214Y-19088357D01*
X6326500Y-19059786D01*
X6340786Y-19045500D01*
X6369357Y-19031214D01*
X6597928Y-19331214D02*
X6597928Y-19131214D01*
X6597928Y-19159786D02*
X6612214Y-19145500D01*
X6640786Y-19131214D01*
X6683643Y-19131214D01*
X6712214Y-19145500D01*
X6726500Y-19174072D01*
X6726500Y-19331214D01*
X6726500Y-19174072D02*
X6740786Y-19145500D01*
X6769357Y-19131214D01*
X6812214Y-19131214D01*
X6840786Y-19145500D01*
X6855071Y-19174072D01*
X6855071Y-19331214D01*
X6997928Y-19331214D02*
X6997928Y-19131214D01*
X6997928Y-19159786D02*
X7012214Y-19145500D01*
X7040786Y-19131214D01*
X7083643Y-19131214D01*
X7112214Y-19145500D01*
X7126500Y-19174072D01*
X7126500Y-19331214D01*
X7126500Y-19174072D02*
X7140786Y-19145500D01*
X7169357Y-19131214D01*
X7212214Y-19131214D01*
X7240786Y-19145500D01*
X7255071Y-19174072D01*
X7255071Y-19331214D01*
X7840786Y-19016929D02*
X7583643Y-19402643D01*
X8226500Y-19031214D02*
X8255071Y-19031214D01*
X8283643Y-19045500D01*
X8297928Y-19059786D01*
X8312214Y-19088357D01*
X8326500Y-19145500D01*
X8326500Y-19216929D01*
X8312214Y-19274072D01*
X8297928Y-19302643D01*
X8283643Y-19316929D01*
X8255071Y-19331214D01*
X8226500Y-19331214D01*
X8197928Y-19316929D01*
X8183643Y-19302643D01*
X8169357Y-19274072D01*
X8155071Y-19216929D01*
X8155071Y-19145500D01*
X8169357Y-19088357D01*
X8183643Y-19059786D01*
X8197928Y-19045500D01*
X8226500Y-19031214D01*
X8455071Y-19302643D02*
X8469357Y-19316929D01*
X8455071Y-19331214D01*
X8440786Y-19316929D01*
X8455071Y-19302643D01*
X8455071Y-19331214D01*
X8755071Y-19331214D02*
X8583643Y-19331214D01*
X8669357Y-19331214D02*
X8669357Y-19031214D01*
X8640786Y-19074072D01*
X8612214Y-19102643D01*
X8583643Y-19116929D01*
X8869357Y-19059786D02*
X8883643Y-19045500D01*
X8912214Y-19031214D01*
X8983643Y-19031214D01*
X9012214Y-19045500D01*
X9026500Y-19059786D01*
X9040786Y-19088357D01*
X9040786Y-19116929D01*
X9026500Y-19159786D01*
X8855071Y-19331214D01*
X9040786Y-19331214D01*
X9297928Y-19031214D02*
X9240786Y-19031214D01*
X9212214Y-19045500D01*
X9197928Y-19059786D01*
X9169357Y-19102643D01*
X9155071Y-19159786D01*
X9155071Y-19274072D01*
X9169357Y-19302643D01*
X9183643Y-19316929D01*
X9212214Y-19331214D01*
X9269357Y-19331214D01*
X9297928Y-19316929D01*
X9312214Y-19302643D01*
X9326500Y-19274072D01*
X9326500Y-19202643D01*
X9312214Y-19174072D01*
X9297928Y-19159786D01*
X9269357Y-19145500D01*
X9212214Y-19145500D01*
X9183643Y-19159786D01*
X9169357Y-19174072D01*
X9155071Y-19202643D01*
X9440786Y-19031214D02*
X9440786Y-19088357D01*
X9555071Y-19031214D02*
X9555071Y-19088357D01*
X9997928Y-19445500D02*
X9983643Y-19431214D01*
X9955071Y-19388357D01*
X9940786Y-19359786D01*
X9926500Y-19316929D01*
X9912214Y-19245500D01*
X9912214Y-19188357D01*
X9926500Y-19116929D01*
X9940786Y-19074072D01*
X9955071Y-19045500D01*
X9983643Y-19002643D01*
X9997928Y-18988357D01*
X10240786Y-19131214D02*
X10240786Y-19331214D01*
X10169357Y-19016929D02*
X10097928Y-19231214D01*
X10283643Y-19231214D01*
X10626500Y-19331214D02*
X10626500Y-19031214D01*
X10755071Y-19331214D02*
X10755071Y-19174072D01*
X10740786Y-19145500D01*
X10712214Y-19131214D01*
X10669357Y-19131214D01*
X10640786Y-19145500D01*
X10626500Y-19159786D01*
X10940786Y-19331214D02*
X10912214Y-19316929D01*
X10897928Y-19302643D01*
X10883643Y-19274072D01*
X10883643Y-19188357D01*
X10897928Y-19159786D01*
X10912214Y-19145500D01*
X10940786Y-19131214D01*
X10983643Y-19131214D01*
X11012214Y-19145500D01*
X11026500Y-19159786D01*
X11040786Y-19188357D01*
X11040786Y-19274072D01*
X11026500Y-19302643D01*
X11012214Y-19316929D01*
X10983643Y-19331214D01*
X10940786Y-19331214D01*
X11212214Y-19331214D02*
X11183643Y-19316929D01*
X11169357Y-19288357D01*
X11169357Y-19031214D01*
X11440786Y-19316929D02*
X11412214Y-19331214D01*
X11355071Y-19331214D01*
X11326500Y-19316929D01*
X11312214Y-19288357D01*
X11312214Y-19174072D01*
X11326500Y-19145500D01*
X11355071Y-19131214D01*
X11412214Y-19131214D01*
X11440786Y-19145500D01*
X11455071Y-19174072D01*
X11455071Y-19202643D01*
X11312214Y-19231214D01*
X11569357Y-19316929D02*
X11597928Y-19331214D01*
X11655071Y-19331214D01*
X11683643Y-19316929D01*
X11697928Y-19288357D01*
X11697928Y-19274072D01*
X11683643Y-19245500D01*
X11655071Y-19231214D01*
X11612214Y-19231214D01*
X11583643Y-19216929D01*
X11569357Y-19188357D01*
X11569357Y-19174072D01*
X11583643Y-19145500D01*
X11612214Y-19131214D01*
X11655071Y-19131214D01*
X11683643Y-19145500D01*
X11797928Y-19445500D02*
X11812214Y-19431214D01*
X11840786Y-19388357D01*
X11855071Y-19359786D01*
X11869357Y-19316929D01*
X11883643Y-19245500D01*
X11883643Y-19188357D01*
X11869357Y-19116929D01*
X11855071Y-19074072D01*
X11840786Y-19045500D01*
X11812214Y-19002643D01*
X11797928Y-18988357D01*
M02*
