G04 #@! TF.FileFunction,Legend,Top*
%FSLAX46Y46*%
G04 Gerber Fmt 4.6, Leading zero omitted, Abs format (unit mm)*
G04 Created by KiCad (PCBNEW 4.0.6) date 09/01/17 14:50:38*
%MOMM*%
%LPD*%
G01*
G04 APERTURE LIST*
%ADD10C,0.100000*%
%ADD11C,0.200000*%
%ADD12C,0.300000*%
%ADD13C,0.120000*%
%ADD14C,0.150000*%
%ADD15C,0.500000*%
%ADD16C,0.010000*%
G04 APERTURE END LIST*
D10*
D11*
X153500000Y-77100000D02*
X156400000Y-77100000D01*
X155300000Y-77100000D02*
G75*
G03X155300000Y-77100000I-2000000J0D01*
G01*
X156400000Y-77100000D02*
X155800000Y-76400000D01*
X156400000Y-77100000D02*
X155800000Y-77800000D01*
X70100000Y-97300000D02*
X69500000Y-98000000D01*
X70100000Y-97300000D02*
X69500000Y-96600000D01*
X67200000Y-97300000D02*
X70100000Y-97300000D01*
X72000000Y-97300000D02*
G75*
G03X72000000Y-97300000I-2000000J0D01*
G01*
D12*
X154378571Y-98071428D02*
X154378571Y-98928571D01*
X154378571Y-98499999D02*
X152878571Y-98499999D01*
X153092857Y-98642856D01*
X153235714Y-98785714D01*
X153307143Y-98928571D01*
X55628572Y-99378571D02*
X54771429Y-99378571D01*
X55200001Y-99378571D02*
X55200001Y-97878571D01*
X55057144Y-98092857D01*
X54914286Y-98235714D01*
X54771429Y-98307143D01*
X56500001Y-131428571D02*
X55642858Y-131428571D01*
X56071430Y-131428571D02*
X56071430Y-129928571D01*
X55928573Y-130142857D01*
X55785715Y-130285714D01*
X55642858Y-130357143D01*
X57857144Y-129928571D02*
X57142858Y-129928571D01*
X57071429Y-130642857D01*
X57142858Y-130571429D01*
X57285715Y-130500000D01*
X57642858Y-130500000D01*
X57785715Y-130571429D01*
X57857144Y-130642857D01*
X57928572Y-130785714D01*
X57928572Y-131142857D01*
X57857144Y-131285714D01*
X57785715Y-131357143D01*
X57642858Y-131428571D01*
X57285715Y-131428571D01*
X57142858Y-131357143D01*
X57071429Y-131285714D01*
X58357143Y-129928571D02*
X58857143Y-131428571D01*
X59357143Y-129928571D01*
X61000000Y-131428571D02*
X61000000Y-129928571D01*
X61357143Y-129928571D01*
X61571428Y-130000000D01*
X61714286Y-130142857D01*
X61785714Y-130285714D01*
X61857143Y-130571429D01*
X61857143Y-130785714D01*
X61785714Y-131071429D01*
X61714286Y-131214286D01*
X61571428Y-131357143D01*
X61357143Y-131428571D01*
X61000000Y-131428571D01*
X63357143Y-131285714D02*
X63285714Y-131357143D01*
X63071428Y-131428571D01*
X62928571Y-131428571D01*
X62714286Y-131357143D01*
X62571428Y-131214286D01*
X62500000Y-131071429D01*
X62428571Y-130785714D01*
X62428571Y-130571429D01*
X62500000Y-130285714D01*
X62571428Y-130142857D01*
X62714286Y-130000000D01*
X62928571Y-129928571D01*
X63071428Y-129928571D01*
X63285714Y-130000000D01*
X63357143Y-130071429D01*
D11*
X135500000Y-76500000D02*
X134250000Y-77000000D01*
X135500000Y-76500000D02*
X134250000Y-76000000D01*
X127650000Y-75000000D02*
X128900000Y-75000000D01*
X127800000Y-76100000D02*
X127600000Y-75100000D01*
X129250000Y-76500000D02*
X127600000Y-75000000D01*
X135500000Y-76500000D02*
X129250000Y-76500000D01*
X135100000Y-104400000D02*
X133750000Y-103800000D01*
X135100000Y-104400000D02*
X133700000Y-104900000D01*
X127500000Y-105700000D02*
X128100000Y-104600000D01*
X127400000Y-105700000D02*
X128700000Y-106000000D01*
X129500000Y-104400000D02*
X134900000Y-104400000D01*
X127400000Y-105700000D02*
X129700000Y-104400000D01*
D12*
X71136608Y-106928571D02*
X71324108Y-105428571D01*
X71234822Y-106142857D02*
X72091965Y-106142857D01*
X71993751Y-106928571D02*
X72181251Y-105428571D01*
X72690179Y-106500000D02*
X73404465Y-106500000D01*
X72493751Y-106928571D02*
X73181251Y-105428571D01*
X73493751Y-106928571D01*
X74065179Y-106357143D02*
X75208036Y-106357143D01*
X76324108Y-105428571D02*
X76466965Y-105428571D01*
X76600893Y-105500000D01*
X76663393Y-105571429D01*
X76716965Y-105714286D01*
X76752679Y-106000000D01*
X76708036Y-106357143D01*
X76600894Y-106642857D01*
X76511608Y-106785714D01*
X76431250Y-106857143D01*
X76279465Y-106928571D01*
X76136608Y-106928571D01*
X76002679Y-106857143D01*
X75940179Y-106785714D01*
X75886608Y-106642857D01*
X75850893Y-106357143D01*
X75895536Y-106000000D01*
X76002679Y-105714286D01*
X76091964Y-105571429D01*
X76172322Y-105500000D01*
X76324108Y-105428571D01*
X78065179Y-106928571D02*
X77208036Y-106928571D01*
X77636608Y-106928571D02*
X77824108Y-105428571D01*
X77654465Y-105642857D01*
X77493750Y-105785714D01*
X77341964Y-105857143D01*
X79306250Y-106142857D02*
X79511607Y-106214286D01*
X79574107Y-106285714D01*
X79627679Y-106428571D01*
X79600893Y-106642857D01*
X79511607Y-106785714D01*
X79431250Y-106857143D01*
X79279464Y-106928571D01*
X78708036Y-106928571D01*
X78895536Y-105428571D01*
X79395536Y-105428571D01*
X79529464Y-105500000D01*
X79591964Y-105571429D01*
X79645535Y-105714286D01*
X79627678Y-105857143D01*
X79538393Y-106000000D01*
X79458035Y-106071429D01*
X79306250Y-106142857D01*
X78806250Y-106142857D01*
D11*
X121750000Y-99000000D02*
X121750000Y-99250000D01*
X121250000Y-99000000D02*
X121250000Y-99250000D01*
X121750000Y-98250000D02*
X121750000Y-98500000D01*
X121250000Y-98250000D02*
X121250000Y-98500000D01*
X121250000Y-97750000D02*
X121000000Y-98000000D01*
X121750000Y-98000000D02*
X121250000Y-97750000D01*
X122000000Y-98000000D02*
X121750000Y-98000000D01*
X122000000Y-98250000D02*
X122000000Y-98000000D01*
X122250000Y-98500000D02*
X122000000Y-98250000D01*
X122500000Y-98250000D02*
X122250000Y-98500000D01*
X122500000Y-98750000D02*
X122500000Y-98250000D01*
X122250000Y-98750000D02*
X122500000Y-98750000D01*
X122000000Y-99000000D02*
X122250000Y-98750000D01*
X122250000Y-99500000D02*
X122000000Y-99000000D01*
X121250000Y-99750000D02*
X122250000Y-99500000D01*
X121000000Y-99500000D02*
X121250000Y-99750000D01*
X120750000Y-99500000D02*
X121000000Y-99500000D01*
X121000000Y-99000000D02*
X120750000Y-99500000D01*
X121000000Y-98500000D02*
X121000000Y-99000000D01*
X121000000Y-98000000D02*
X121000000Y-98500000D01*
X121250000Y-97000000D02*
X121000000Y-97000000D01*
X121250000Y-97250000D02*
X121250000Y-97000000D01*
X121500000Y-97250000D02*
X121250000Y-97250000D01*
X122000000Y-97250000D02*
X121500000Y-97250000D01*
X122000000Y-97000000D02*
X122000000Y-97250000D01*
X122250000Y-97250000D02*
X122000000Y-97000000D01*
X122250000Y-97500000D02*
X122250000Y-97250000D01*
X122250000Y-97750000D02*
X122250000Y-97500000D01*
X122000000Y-97500000D02*
X122250000Y-97750000D01*
X121750000Y-97500000D02*
X122000000Y-97500000D01*
X121250000Y-97500000D02*
X121750000Y-97500000D01*
X121000000Y-97750000D02*
X121250000Y-97500000D01*
X120500000Y-97750000D02*
X121000000Y-97750000D01*
X120750000Y-97500000D02*
X120500000Y-97750000D01*
X121000000Y-97000000D02*
X120750000Y-97500000D01*
X119750000Y-99250000D02*
X119750000Y-99500000D01*
X120000000Y-99250000D02*
X119750000Y-99250000D01*
X120500000Y-99000000D02*
X120000000Y-99250000D01*
X120250000Y-99500000D02*
X120500000Y-99000000D01*
X120000000Y-99750000D02*
X120250000Y-99500000D01*
X119750000Y-99500000D02*
X120000000Y-99750000D01*
X119750000Y-98000000D02*
X119750000Y-98250000D01*
X120000000Y-98000000D02*
X119750000Y-98000000D01*
X120250000Y-98250000D02*
X120000000Y-98000000D01*
X120500000Y-98750000D02*
X120250000Y-98250000D01*
X120250000Y-98750000D02*
X120500000Y-98750000D01*
X120000000Y-98500000D02*
X120250000Y-98750000D01*
X119750000Y-98250000D02*
X120000000Y-98500000D01*
X120000000Y-97000000D02*
X119750000Y-97250000D01*
X120250000Y-97250000D02*
X120000000Y-97000000D01*
X120250000Y-97500000D02*
X120250000Y-97250000D01*
X120000000Y-97500000D02*
X120250000Y-97500000D01*
X119750000Y-97250000D02*
X120000000Y-97500000D01*
X116250000Y-97750000D02*
X116250000Y-98000000D01*
X116750000Y-97750000D02*
X116250000Y-97750000D01*
X117000000Y-97750000D02*
X116750000Y-97750000D01*
X117250000Y-97500000D02*
X117000000Y-97750000D01*
X117000000Y-97250000D02*
X117250000Y-97500000D01*
X117000000Y-97000000D02*
X117000000Y-97250000D01*
X117500000Y-97000000D02*
X117000000Y-97000000D01*
X117750000Y-97500000D02*
X117500000Y-97000000D01*
X118000000Y-97500000D02*
X117750000Y-97500000D01*
X118250000Y-97250000D02*
X118000000Y-97500000D01*
X118500000Y-97250000D02*
X118250000Y-97250000D01*
X119000000Y-97500000D02*
X118500000Y-97250000D01*
X118750000Y-97750000D02*
X119000000Y-97500000D01*
X118500000Y-97750000D02*
X118750000Y-97750000D01*
X118000000Y-98000000D02*
X118500000Y-97750000D01*
X118250000Y-98500000D02*
X118000000Y-98000000D01*
X118250000Y-98750000D02*
X118250000Y-98500000D01*
X118750000Y-99000000D02*
X118250000Y-98750000D01*
X119000000Y-99500000D02*
X118750000Y-99000000D01*
X118500000Y-99500000D02*
X119000000Y-99500000D01*
X118250000Y-99250000D02*
X118500000Y-99500000D01*
X118000000Y-98750000D02*
X118250000Y-99250000D01*
X117750000Y-98250000D02*
X118000000Y-98750000D01*
X117250000Y-98750000D02*
X117750000Y-98250000D01*
X117000000Y-99250000D02*
X117250000Y-98750000D01*
X116250000Y-99500000D02*
X117000000Y-99250000D01*
X116500000Y-99250000D02*
X116250000Y-99500000D01*
X117000000Y-98500000D02*
X116500000Y-99250000D01*
X117250000Y-98000000D02*
X117000000Y-98500000D01*
X116500000Y-98250000D02*
X117250000Y-98000000D01*
X116250000Y-98000000D02*
X116500000Y-98250000D01*
X142000000Y-106750000D02*
X142000000Y-141500000D01*
X149500000Y-106750000D02*
X142000000Y-106750000D01*
X149500000Y-72750000D02*
X149500000Y-106750000D01*
X141500000Y-72750000D02*
X149500000Y-72750000D01*
X141500000Y-38750000D02*
X141500000Y-72750000D01*
D12*
X130350893Y-106378571D02*
X130538393Y-104878571D01*
X130466964Y-105450000D02*
X130618750Y-105378571D01*
X130904464Y-105378571D01*
X131038392Y-105450000D01*
X131100892Y-105521429D01*
X131154464Y-105664286D01*
X131100893Y-106092857D01*
X131011607Y-106235714D01*
X130931249Y-106307143D01*
X130779464Y-106378571D01*
X130493750Y-106378571D01*
X130359821Y-106307143D01*
X131708036Y-106378571D02*
X131833036Y-105378571D01*
X131895536Y-104878571D02*
X131815178Y-104950000D01*
X131877678Y-105021429D01*
X131958035Y-104950000D01*
X131895536Y-104878571D01*
X131877678Y-105021429D01*
X133065179Y-106378571D02*
X133163393Y-105592857D01*
X133109821Y-105450000D01*
X132975893Y-105378571D01*
X132690179Y-105378571D01*
X132538393Y-105450000D01*
X133074107Y-106307143D02*
X132922322Y-106378571D01*
X132565179Y-106378571D01*
X132431250Y-106307143D01*
X132377678Y-106164286D01*
X132395535Y-106021429D01*
X132484822Y-105878571D01*
X132636607Y-105807143D01*
X132993750Y-105807143D01*
X133145536Y-105735714D01*
X133716964Y-106307143D02*
X133850893Y-106378571D01*
X134136608Y-106378571D01*
X134288393Y-106307143D01*
X134377678Y-106164286D01*
X134386607Y-106092857D01*
X134333036Y-105950000D01*
X134199108Y-105878571D01*
X133984822Y-105878571D01*
X133850893Y-105807143D01*
X133797321Y-105664286D01*
X133806250Y-105592857D01*
X133895536Y-105450000D01*
X134047322Y-105378571D01*
X134261608Y-105378571D01*
X134395536Y-105450000D01*
X130950893Y-75678571D02*
X131138393Y-74178571D01*
X131066964Y-74750000D02*
X131218750Y-74678571D01*
X131504464Y-74678571D01*
X131638392Y-74750000D01*
X131700892Y-74821429D01*
X131754464Y-74964286D01*
X131700893Y-75392857D01*
X131611607Y-75535714D01*
X131531249Y-75607143D01*
X131379464Y-75678571D01*
X131093750Y-75678571D01*
X130959821Y-75607143D01*
X132308036Y-75678571D02*
X132433036Y-74678571D01*
X132495536Y-74178571D02*
X132415178Y-74250000D01*
X132477678Y-74321429D01*
X132558035Y-74250000D01*
X132495536Y-74178571D01*
X132477678Y-74321429D01*
X133665179Y-75678571D02*
X133763393Y-74892857D01*
X133709821Y-74750000D01*
X133575893Y-74678571D01*
X133290179Y-74678571D01*
X133138393Y-74750000D01*
X133674107Y-75607143D02*
X133522322Y-75678571D01*
X133165179Y-75678571D01*
X133031250Y-75607143D01*
X132977678Y-75464286D01*
X132995535Y-75321429D01*
X133084822Y-75178571D01*
X133236607Y-75107143D01*
X133593750Y-75107143D01*
X133745536Y-75035714D01*
X134316964Y-75607143D02*
X134450893Y-75678571D01*
X134736608Y-75678571D01*
X134888393Y-75607143D01*
X134977678Y-75464286D01*
X134986607Y-75392857D01*
X134933036Y-75250000D01*
X134799108Y-75178571D01*
X134584822Y-75178571D01*
X134450893Y-75107143D01*
X134397321Y-74964286D01*
X134406250Y-74892857D01*
X134495536Y-74750000D01*
X134647322Y-74678571D01*
X134861608Y-74678571D01*
X134995536Y-74750000D01*
X102183036Y-79678571D02*
X102754465Y-79678571D01*
X102272322Y-80678571D02*
X102433036Y-79392857D01*
X102522321Y-79250000D01*
X102674108Y-79178571D01*
X102816965Y-79178571D01*
X103709821Y-80607143D02*
X103558036Y-80678571D01*
X103272322Y-80678571D01*
X103138393Y-80607143D01*
X103084821Y-80464286D01*
X103156250Y-79892857D01*
X103245536Y-79750000D01*
X103397322Y-79678571D01*
X103683036Y-79678571D01*
X103816964Y-79750000D01*
X103870536Y-79892857D01*
X103852679Y-80035714D01*
X103120536Y-80178571D01*
X104995535Y-80607143D02*
X104843750Y-80678571D01*
X104558036Y-80678571D01*
X104424107Y-80607143D01*
X104370535Y-80464286D01*
X104441964Y-79892857D01*
X104531250Y-79750000D01*
X104683036Y-79678571D01*
X104968750Y-79678571D01*
X105102678Y-79750000D01*
X105156250Y-79892857D01*
X105138393Y-80035714D01*
X104406250Y-80178571D01*
X106343750Y-80678571D02*
X106531250Y-79178571D01*
X106352678Y-80607143D02*
X106200893Y-80678571D01*
X105915179Y-80678571D01*
X105781249Y-80607143D01*
X105718750Y-80535714D01*
X105665178Y-80392857D01*
X105718749Y-79964286D01*
X105808035Y-79821429D01*
X105888392Y-79750000D01*
X106040179Y-79678571D01*
X106325893Y-79678571D01*
X106459821Y-79750000D01*
X107058036Y-80678571D02*
X107245536Y-79178571D01*
X107174107Y-79750000D02*
X107325893Y-79678571D01*
X107611607Y-79678571D01*
X107745535Y-79750000D01*
X107808035Y-79821429D01*
X107861607Y-79964286D01*
X107808036Y-80392857D01*
X107718750Y-80535714D01*
X107638392Y-80607143D01*
X107486607Y-80678571D01*
X107200893Y-80678571D01*
X107066964Y-80607143D01*
X109058036Y-80678571D02*
X109156250Y-79892857D01*
X109102678Y-79750000D01*
X108968750Y-79678571D01*
X108683036Y-79678571D01*
X108531250Y-79750000D01*
X109066964Y-80607143D02*
X108915179Y-80678571D01*
X108558036Y-80678571D01*
X108424107Y-80607143D01*
X108370535Y-80464286D01*
X108388392Y-80321429D01*
X108477679Y-80178571D01*
X108629464Y-80107143D01*
X108986607Y-80107143D01*
X109138393Y-80035714D01*
X110424107Y-80607143D02*
X110272322Y-80678571D01*
X109986608Y-80678571D01*
X109852678Y-80607143D01*
X109790179Y-80535714D01*
X109736607Y-80392857D01*
X109790178Y-79964286D01*
X109879464Y-79821429D01*
X109959821Y-79750000D01*
X110111608Y-79678571D01*
X110397322Y-79678571D01*
X110531250Y-79750000D01*
X111058036Y-80678571D02*
X111245536Y-79178571D01*
X111272321Y-80107143D02*
X111629464Y-80678571D01*
X111754464Y-79678571D02*
X111111607Y-80250000D01*
X67250893Y-90678571D02*
X67375893Y-89678571D01*
X67438393Y-89178571D02*
X67358035Y-89250000D01*
X67420535Y-89321429D01*
X67500892Y-89250000D01*
X67438393Y-89178571D01*
X67420535Y-89321429D01*
X68090179Y-89678571D02*
X67965179Y-90678571D01*
X68072321Y-89821429D02*
X68152678Y-89750000D01*
X68304465Y-89678571D01*
X68518750Y-89678571D01*
X68652678Y-89750000D01*
X68706250Y-89892857D01*
X68608036Y-90678571D01*
X69447322Y-89678571D02*
X69259822Y-91178571D01*
X69438393Y-89750000D02*
X69590179Y-89678571D01*
X69875893Y-89678571D01*
X70009821Y-89750000D01*
X70072321Y-89821429D01*
X70125893Y-89964286D01*
X70072322Y-90392857D01*
X69983036Y-90535714D01*
X69902678Y-90607143D01*
X69750893Y-90678571D01*
X69465179Y-90678571D01*
X69331250Y-90607143D01*
X71447322Y-89678571D02*
X71322322Y-90678571D01*
X70804465Y-89678571D02*
X70706250Y-90464286D01*
X70759821Y-90607143D01*
X70893751Y-90678571D01*
X71108036Y-90678571D01*
X71259821Y-90607143D01*
X71340179Y-90535714D01*
X71947322Y-89678571D02*
X72518751Y-89678571D01*
X72224108Y-89178571D02*
X72063393Y-90464286D01*
X72116964Y-90607143D01*
X72250894Y-90678571D01*
X72393751Y-90678571D01*
X115986608Y-140428571D02*
X116174108Y-138928571D01*
X115995536Y-140357143D02*
X115843751Y-140428571D01*
X115558037Y-140428571D01*
X115424107Y-140357143D01*
X115361608Y-140285714D01*
X115308036Y-140142857D01*
X115361607Y-139714286D01*
X115450893Y-139571429D01*
X115531250Y-139500000D01*
X115683037Y-139428571D01*
X115968751Y-139428571D01*
X116102679Y-139500000D01*
X116700894Y-140428571D02*
X116825894Y-139428571D01*
X116790179Y-139714286D02*
X116879464Y-139571429D01*
X116959822Y-139500000D01*
X117111608Y-139428571D01*
X117254465Y-139428571D01*
X117629465Y-140428571D02*
X117754465Y-139428571D01*
X117816965Y-138928571D02*
X117736607Y-139000000D01*
X117799107Y-139071429D01*
X117879464Y-139000000D01*
X117816965Y-138928571D01*
X117799107Y-139071429D01*
X118325894Y-139428571D02*
X118558037Y-140428571D01*
X119040179Y-139428571D01*
X120066964Y-140357143D02*
X119915179Y-140428571D01*
X119629465Y-140428571D01*
X119495536Y-140357143D01*
X119441964Y-140214286D01*
X119513393Y-139642857D01*
X119602679Y-139500000D01*
X119754465Y-139428571D01*
X120040179Y-139428571D01*
X120174107Y-139500000D01*
X120227679Y-139642857D01*
X120209822Y-139785714D01*
X119477679Y-139928571D01*
X120772322Y-140428571D02*
X120897322Y-139428571D01*
X120861607Y-139714286D02*
X120950892Y-139571429D01*
X121031250Y-139500000D01*
X121183036Y-139428571D01*
X121325893Y-139428571D01*
X67647322Y-109428571D02*
X67459822Y-110928571D01*
X67638393Y-109500000D02*
X67790179Y-109428571D01*
X68075893Y-109428571D01*
X68209821Y-109500000D01*
X68272321Y-109571429D01*
X68325893Y-109714286D01*
X68272322Y-110142857D01*
X68183036Y-110285714D01*
X68102678Y-110357143D01*
X67950893Y-110428571D01*
X67665179Y-110428571D01*
X67531250Y-110357143D01*
X69093751Y-110428571D02*
X68959821Y-110357143D01*
X68897322Y-110285714D01*
X68843750Y-110142857D01*
X68897321Y-109714286D01*
X68986607Y-109571429D01*
X69066964Y-109500000D01*
X69218751Y-109428571D01*
X69433036Y-109428571D01*
X69566964Y-109500000D01*
X69629464Y-109571429D01*
X69683036Y-109714286D01*
X69629465Y-110142857D01*
X69540179Y-110285714D01*
X69459821Y-110357143D01*
X69308036Y-110428571D01*
X69093751Y-110428571D01*
X70218751Y-109428571D02*
X70379465Y-110428571D01*
X70754464Y-109714286D01*
X70950894Y-110428571D01*
X71361608Y-109428571D01*
X72388393Y-110357143D02*
X72236608Y-110428571D01*
X71950894Y-110428571D01*
X71816965Y-110357143D01*
X71763393Y-110214286D01*
X71834822Y-109642857D01*
X71924108Y-109500000D01*
X72075894Y-109428571D01*
X72361608Y-109428571D01*
X72495536Y-109500000D01*
X72549108Y-109642857D01*
X72531251Y-109785714D01*
X71799108Y-109928571D01*
X73093751Y-110428571D02*
X73218751Y-109428571D01*
X73183036Y-109714286D02*
X73272321Y-109571429D01*
X73352679Y-109500000D01*
X73504465Y-109428571D01*
X73647322Y-109428571D01*
X142415179Y-40928571D02*
X142281249Y-40857143D01*
X142218750Y-40785714D01*
X142165178Y-40642857D01*
X142218749Y-40214286D01*
X142308035Y-40071429D01*
X142388392Y-40000000D01*
X142540179Y-39928571D01*
X142754464Y-39928571D01*
X142888392Y-40000000D01*
X142950892Y-40071429D01*
X143004464Y-40214286D01*
X142950893Y-40642857D01*
X142861607Y-40785714D01*
X142781249Y-40857143D01*
X142629464Y-40928571D01*
X142415179Y-40928571D01*
X144325893Y-39928571D02*
X144200893Y-40928571D01*
X143683036Y-39928571D02*
X143584821Y-40714286D01*
X143638392Y-40857143D01*
X143772322Y-40928571D01*
X143986607Y-40928571D01*
X144138392Y-40857143D01*
X144218750Y-40785714D01*
X144825893Y-39928571D02*
X145397322Y-39928571D01*
X145102679Y-39428571D02*
X144941964Y-40714286D01*
X144995535Y-40857143D01*
X145129465Y-40928571D01*
X145272322Y-40928571D01*
X145897322Y-39928571D02*
X145709822Y-41428571D01*
X145888393Y-40000000D02*
X146040179Y-39928571D01*
X146325893Y-39928571D01*
X146459821Y-40000000D01*
X146522321Y-40071429D01*
X146575893Y-40214286D01*
X146522322Y-40642857D01*
X146433036Y-40785714D01*
X146352678Y-40857143D01*
X146200893Y-40928571D01*
X145915179Y-40928571D01*
X145781250Y-40857143D01*
X147897322Y-39928571D02*
X147772322Y-40928571D01*
X147254465Y-39928571D02*
X147156250Y-40714286D01*
X147209821Y-40857143D01*
X147343751Y-40928571D01*
X147558036Y-40928571D01*
X147709821Y-40857143D01*
X147790179Y-40785714D01*
X148397322Y-39928571D02*
X148968751Y-39928571D01*
X148674108Y-39428571D02*
X148513393Y-40714286D01*
X148566964Y-40857143D01*
X148700894Y-40928571D01*
X148843751Y-40928571D01*
X116236608Y-40928571D02*
X116424108Y-39428571D01*
X116245536Y-40857143D02*
X116093751Y-40928571D01*
X115808037Y-40928571D01*
X115674107Y-40857143D01*
X115611608Y-40785714D01*
X115558036Y-40642857D01*
X115611607Y-40214286D01*
X115700893Y-40071429D01*
X115781250Y-40000000D01*
X115933037Y-39928571D01*
X116218751Y-39928571D01*
X116352679Y-40000000D01*
X116950894Y-40928571D02*
X117075894Y-39928571D01*
X117040179Y-40214286D02*
X117129464Y-40071429D01*
X117209822Y-40000000D01*
X117361608Y-39928571D01*
X117504465Y-39928571D01*
X117879465Y-40928571D02*
X118004465Y-39928571D01*
X118066965Y-39428571D02*
X117986607Y-39500000D01*
X118049107Y-39571429D01*
X118129464Y-39500000D01*
X118066965Y-39428571D01*
X118049107Y-39571429D01*
X118575894Y-39928571D02*
X118808037Y-40928571D01*
X119290179Y-39928571D01*
X120316964Y-40857143D02*
X120165179Y-40928571D01*
X119879465Y-40928571D01*
X119745536Y-40857143D01*
X119691964Y-40714286D01*
X119763393Y-40142857D01*
X119852679Y-40000000D01*
X120004465Y-39928571D01*
X120290179Y-39928571D01*
X120424107Y-40000000D01*
X120477679Y-40142857D01*
X120459822Y-40285714D01*
X119727679Y-40428571D01*
X121022322Y-40928571D02*
X121147322Y-39928571D01*
X121111607Y-40214286D02*
X121200892Y-40071429D01*
X121281250Y-40000000D01*
X121433036Y-39928571D01*
X121575893Y-39928571D01*
X66986608Y-42178571D02*
X67174108Y-40678571D01*
X67629465Y-42178571D02*
X67727679Y-41392857D01*
X67674107Y-41250000D01*
X67540179Y-41178571D01*
X67325894Y-41178571D01*
X67174107Y-41250000D01*
X67093750Y-41321429D01*
X68924107Y-42107143D02*
X68772322Y-42178571D01*
X68486608Y-42178571D01*
X68352679Y-42107143D01*
X68299107Y-41964286D01*
X68370536Y-41392857D01*
X68459822Y-41250000D01*
X68611608Y-41178571D01*
X68897322Y-41178571D01*
X69031250Y-41250000D01*
X69084822Y-41392857D01*
X69066965Y-41535714D01*
X68334822Y-41678571D01*
X70272322Y-42178571D02*
X70370536Y-41392857D01*
X70316964Y-41250000D01*
X70183036Y-41178571D01*
X69897322Y-41178571D01*
X69745536Y-41250000D01*
X70281250Y-42107143D02*
X70129465Y-42178571D01*
X69772322Y-42178571D01*
X69638393Y-42107143D01*
X69584821Y-41964286D01*
X69602678Y-41821429D01*
X69691965Y-41678571D01*
X69843750Y-41607143D01*
X70200893Y-41607143D01*
X70352679Y-41535714D01*
X70897322Y-41178571D02*
X71468751Y-41178571D01*
X71174108Y-40678571D02*
X71013393Y-41964286D01*
X71066964Y-42107143D01*
X71200894Y-42178571D01*
X71343751Y-42178571D01*
X72424107Y-42107143D02*
X72272322Y-42178571D01*
X71986608Y-42178571D01*
X71852679Y-42107143D01*
X71799107Y-41964286D01*
X71870536Y-41392857D01*
X71959822Y-41250000D01*
X72111608Y-41178571D01*
X72397322Y-41178571D01*
X72531250Y-41250000D01*
X72584822Y-41392857D01*
X72566965Y-41535714D01*
X71834822Y-41678571D01*
X73129465Y-42178571D02*
X73254465Y-41178571D01*
X73218750Y-41464286D02*
X73308035Y-41321429D01*
X73388393Y-41250000D01*
X73540179Y-41178571D01*
X73683036Y-41178571D01*
D11*
X141250000Y-106000000D02*
X141250000Y-141500000D01*
X148750000Y-106000000D02*
X141250000Y-106000000D01*
X148750000Y-99750000D02*
X148750000Y-106000000D01*
X96000000Y-107500000D02*
X96000000Y-141750000D01*
X113500000Y-107500000D02*
X96000000Y-107500000D01*
X118000000Y-103000000D02*
X113500000Y-107500000D01*
X134750000Y-103000000D02*
X118000000Y-103000000D01*
X134750000Y-99750000D02*
X134750000Y-103000000D01*
X148750000Y-99750000D02*
X134750000Y-99750000D01*
X148750000Y-99250000D02*
X148750000Y-80250000D01*
X130750000Y-101750000D02*
X134000000Y-101750000D01*
X134000000Y-99250000D02*
X134000000Y-101750000D01*
X148750000Y-99250000D02*
X134000000Y-99250000D01*
X148500000Y-80250000D02*
X148750000Y-80250000D01*
X148500000Y-80250000D02*
X134250000Y-80250000D01*
X130750000Y-101750000D02*
X130500000Y-101500000D01*
X130250000Y-100000000D02*
X130500000Y-101500000D01*
X129750000Y-99000000D02*
X130250000Y-100000000D01*
X128250000Y-98500000D02*
X129750000Y-99000000D01*
X127250000Y-97500000D02*
X128250000Y-98500000D01*
X128250000Y-96750000D02*
X127250000Y-97500000D01*
X129250000Y-95000000D02*
X128250000Y-96750000D01*
X130000000Y-93500000D02*
X129250000Y-95000000D01*
X130250000Y-91000000D02*
X130000000Y-93500000D01*
X130250000Y-89000000D02*
X130250000Y-91000000D01*
X130250000Y-88000000D02*
X130250000Y-89000000D01*
X129500000Y-86000000D02*
X130250000Y-88000000D01*
X128750000Y-84500000D02*
X129500000Y-86000000D01*
X127500000Y-83000000D02*
X128750000Y-84500000D01*
X126500000Y-82000000D02*
X127500000Y-83000000D01*
X125500000Y-81000000D02*
X126500000Y-82000000D01*
X123750000Y-80000000D02*
X125500000Y-81000000D01*
X121500000Y-79500000D02*
X123750000Y-80000000D01*
X121500000Y-78000000D02*
X121500000Y-79500000D01*
X134250000Y-78000000D02*
X121500000Y-78000000D01*
X134250000Y-80250000D02*
X134250000Y-78000000D01*
X54250000Y-78000000D02*
X53750000Y-78000000D01*
X54000000Y-108000000D02*
X53750000Y-108000000D01*
X141000000Y-73500000D02*
X141000000Y-38750000D01*
X148750000Y-73500000D02*
X141000000Y-73500000D01*
X148750000Y-79750000D02*
X148750000Y-73500000D01*
X135000000Y-79750000D02*
X148750000Y-79750000D01*
X135000000Y-77250000D02*
X135000000Y-79750000D01*
X108250000Y-77250000D02*
X135000000Y-77250000D01*
X108250000Y-72500000D02*
X108250000Y-77250000D01*
X96000000Y-72500000D02*
X108250000Y-72500000D01*
X96000000Y-38500000D02*
X96000000Y-72500000D01*
X110250000Y-83000000D02*
X111500000Y-81750000D01*
X109250000Y-84500000D02*
X110250000Y-83000000D01*
X108250000Y-86750000D02*
X109250000Y-84500000D01*
X107750000Y-89250000D02*
X108250000Y-86750000D01*
X114000000Y-78500000D02*
X106250000Y-78500000D01*
X114000000Y-80250000D02*
X114000000Y-78500000D01*
X111500000Y-81750000D02*
X114000000Y-80250000D01*
X107750000Y-92500000D02*
X107750000Y-89250000D01*
X108500000Y-94750000D02*
X107750000Y-92500000D01*
X109750000Y-96750000D02*
X108500000Y-94750000D01*
X104500000Y-104500000D02*
X109750000Y-96750000D01*
X103000000Y-104500000D02*
X104500000Y-104500000D01*
X103000000Y-100750000D02*
X103000000Y-104500000D01*
X101250000Y-99500000D02*
X103000000Y-100750000D01*
X96750000Y-99500000D02*
X101250000Y-99500000D01*
X94500000Y-101500000D02*
X96750000Y-99500000D01*
X94500000Y-104500000D02*
X94500000Y-101500000D01*
X92250000Y-104500000D02*
X94500000Y-104500000D01*
X92250000Y-81250000D02*
X92250000Y-104500000D01*
X94500000Y-81250000D02*
X92250000Y-81250000D01*
X94500000Y-78500000D02*
X94500000Y-81250000D01*
X106250000Y-78500000D02*
X94500000Y-78500000D01*
X94750000Y-106250000D02*
X94750000Y-141750000D01*
X81100000Y-106200000D02*
X94800000Y-106200000D01*
X81100000Y-108000000D02*
X81100000Y-106250000D01*
X54000000Y-108000000D02*
X81100000Y-108000000D01*
X70250000Y-107250000D02*
X53750000Y-107250000D01*
X70250000Y-104500000D02*
X70250000Y-107250000D01*
X91500000Y-104500000D02*
X70250000Y-104500000D01*
X91500000Y-80750000D02*
X91500000Y-104500000D01*
X93500000Y-80750000D02*
X91500000Y-80750000D01*
X93500000Y-78750000D02*
X93500000Y-80750000D01*
X93500000Y-78000000D02*
X93500000Y-78750000D01*
X54250000Y-78000000D02*
X93500000Y-78000000D01*
X95250000Y-72500000D02*
X95250000Y-38500000D01*
X93500000Y-72500000D02*
X95250000Y-72500000D01*
X93500000Y-77250000D02*
X93500000Y-72500000D01*
X53750000Y-77250000D02*
X93500000Y-77250000D01*
X55842000Y-128244000D02*
X57112000Y-128244000D01*
X62446000Y-127482000D02*
X62446000Y-129006000D01*
X61684000Y-128244000D02*
X63208000Y-128244000D01*
D13*
X129539067Y-90250000D02*
G75*
G03X129539067Y-90250000I-10239067J0D01*
G01*
X61468000Y-106294000D02*
X69088000Y-106294000D01*
X61468000Y-101854000D02*
X69088000Y-101854000D01*
X61468000Y-99954000D02*
X69088000Y-99954000D01*
X53848000Y-99954000D02*
X53848000Y-106294000D01*
X69088000Y-99954000D02*
X69088000Y-106294000D01*
X61468000Y-101854000D02*
X53848000Y-101854000D01*
X53848000Y-99954000D02*
X61468000Y-99954000D01*
X61468000Y-106294000D02*
X53848000Y-106294000D01*
D14*
X130349000Y-51174000D02*
X133778000Y-51174000D01*
X130349000Y-60826000D02*
X133778000Y-60826000D01*
X129206000Y-50666000D02*
X129206000Y-61334000D01*
X130222000Y-54222000D02*
X128952000Y-54222000D01*
X130222000Y-57778000D02*
X128952000Y-57778000D01*
X130349000Y-61334000D02*
X130349000Y-50666000D01*
X133778000Y-50666000D02*
X133778000Y-61334000D01*
X128952000Y-61334000D02*
X133778000Y-61334000D01*
X128952000Y-50666000D02*
X133778000Y-50666000D01*
X128952000Y-50666000D02*
X128952000Y-61334000D01*
X130349000Y-119174000D02*
X133778000Y-119174000D01*
X130349000Y-128826000D02*
X133778000Y-128826000D01*
X129206000Y-118666000D02*
X129206000Y-129334000D01*
X130222000Y-122222000D02*
X128952000Y-122222000D01*
X130222000Y-125778000D02*
X128952000Y-125778000D01*
X130349000Y-129334000D02*
X130349000Y-118666000D01*
X133778000Y-118666000D02*
X133778000Y-129334000D01*
X128952000Y-129334000D02*
X133778000Y-129334000D01*
X128952000Y-118666000D02*
X133778000Y-118666000D01*
X128952000Y-118666000D02*
X128952000Y-129334000D01*
X107401000Y-60576000D02*
X103972000Y-60576000D01*
X107401000Y-50924000D02*
X103972000Y-50924000D01*
X108544000Y-61084000D02*
X108544000Y-50416000D01*
X107528000Y-57528000D02*
X108798000Y-57528000D01*
X107528000Y-53972000D02*
X108798000Y-53972000D01*
X107401000Y-50416000D02*
X107401000Y-61084000D01*
X103972000Y-61084000D02*
X103972000Y-50416000D01*
X108798000Y-50416000D02*
X103972000Y-50416000D01*
X108798000Y-61084000D02*
X103972000Y-61084000D01*
X108798000Y-61084000D02*
X108798000Y-50416000D01*
X106651000Y-129326000D02*
X103222000Y-129326000D01*
X106651000Y-119674000D02*
X103222000Y-119674000D01*
X107794000Y-129834000D02*
X107794000Y-119166000D01*
X106778000Y-126278000D02*
X108048000Y-126278000D01*
X106778000Y-122722000D02*
X108048000Y-122722000D01*
X106651000Y-119166000D02*
X106651000Y-129834000D01*
X103222000Y-129834000D02*
X103222000Y-119166000D01*
X108048000Y-119166000D02*
X103222000Y-119166000D01*
X108048000Y-129834000D02*
X103222000Y-129834000D01*
X108048000Y-129834000D02*
X108048000Y-119166000D01*
X83849000Y-119714000D02*
X87278000Y-119714000D01*
X83849000Y-129366000D02*
X87278000Y-129366000D01*
X82706000Y-119206000D02*
X82706000Y-129874000D01*
X83722000Y-122762000D02*
X82452000Y-122762000D01*
X83722000Y-126318000D02*
X82452000Y-126318000D01*
X83849000Y-129874000D02*
X83849000Y-119206000D01*
X87278000Y-119206000D02*
X87278000Y-129874000D01*
X82452000Y-129874000D02*
X87278000Y-129874000D01*
X82452000Y-119206000D02*
X87278000Y-119206000D01*
X82452000Y-119206000D02*
X82452000Y-129874000D01*
X88901000Y-60326000D02*
X85472000Y-60326000D01*
X88901000Y-50674000D02*
X85472000Y-50674000D01*
X90044000Y-60834000D02*
X90044000Y-50166000D01*
X89028000Y-57278000D02*
X90298000Y-57278000D01*
X89028000Y-53722000D02*
X90298000Y-53722000D01*
X88901000Y-50166000D02*
X88901000Y-60834000D01*
X85472000Y-60834000D02*
X85472000Y-50166000D01*
X90298000Y-50166000D02*
X85472000Y-50166000D01*
X90298000Y-60834000D02*
X85472000Y-60834000D01*
X90298000Y-60834000D02*
X90298000Y-50166000D01*
D13*
X156670000Y-89650000D02*
X156670000Y-82030000D01*
X152230000Y-89650000D02*
X152230000Y-82030000D01*
X150330000Y-89650000D02*
X150330000Y-82030000D01*
X150330000Y-97270000D02*
X156670000Y-97270000D01*
X150330000Y-82030000D02*
X156670000Y-82030000D01*
X152230000Y-89650000D02*
X152230000Y-97270000D01*
X150330000Y-97270000D02*
X150330000Y-89650000D01*
X156670000Y-89650000D02*
X156670000Y-97270000D01*
X93298475Y-87929194D02*
G75*
G03X103201333Y-87930000I4951525J1179194D01*
G01*
X93298475Y-85570806D02*
G75*
G02X103201333Y-85570000I4951525J-1179194D01*
G01*
X93298475Y-85570806D02*
G75*
G03X93298667Y-87930000I4951525J-1179194D01*
G01*
X98250000Y-91800000D02*
X98250000Y-81700000D01*
X98210000Y-91800000D02*
X98210000Y-81700000D01*
X98170000Y-91800000D02*
X98170000Y-81700000D01*
X98130000Y-91799000D02*
X98130000Y-81701000D01*
X98090000Y-91798000D02*
X98090000Y-81702000D01*
X98050000Y-91797000D02*
X98050000Y-81703000D01*
X98010000Y-91795000D02*
X98010000Y-81705000D01*
X97970000Y-91793000D02*
X97970000Y-81707000D01*
X97930000Y-91790000D02*
X97930000Y-81710000D01*
X97890000Y-91788000D02*
X97890000Y-81712000D01*
X97850000Y-91785000D02*
X97850000Y-81715000D01*
X97810000Y-91781000D02*
X97810000Y-81719000D01*
X97770000Y-91778000D02*
X97770000Y-81722000D01*
X97730000Y-91774000D02*
X97730000Y-81726000D01*
X97690000Y-91770000D02*
X97690000Y-81730000D01*
X97650000Y-91765000D02*
X97650000Y-81735000D01*
X97610000Y-91760000D02*
X97610000Y-81740000D01*
X97570000Y-91755000D02*
X97570000Y-81745000D01*
X97529000Y-91749000D02*
X97529000Y-81751000D01*
X97489000Y-91743000D02*
X97489000Y-81757000D01*
X97449000Y-91737000D02*
X97449000Y-81763000D01*
X97409000Y-91731000D02*
X97409000Y-81769000D01*
X97369000Y-91724000D02*
X97369000Y-81776000D01*
X97329000Y-91717000D02*
X97329000Y-81783000D01*
X97289000Y-91709000D02*
X97289000Y-81791000D01*
X97249000Y-91701000D02*
X97249000Y-81799000D01*
X97209000Y-91693000D02*
X97209000Y-81807000D01*
X97169000Y-91685000D02*
X97169000Y-81815000D01*
X97129000Y-91676000D02*
X97129000Y-81824000D01*
X97089000Y-91667000D02*
X97089000Y-81833000D01*
X97049000Y-91657000D02*
X97049000Y-81843000D01*
X97009000Y-91647000D02*
X97009000Y-81853000D01*
X96969000Y-91637000D02*
X96969000Y-81863000D01*
X96929000Y-91626000D02*
X96929000Y-87931000D01*
X96929000Y-85569000D02*
X96929000Y-81874000D01*
X96889000Y-91615000D02*
X96889000Y-87931000D01*
X96889000Y-85569000D02*
X96889000Y-81885000D01*
X96849000Y-91604000D02*
X96849000Y-87931000D01*
X96849000Y-85569000D02*
X96849000Y-81896000D01*
X96809000Y-91593000D02*
X96809000Y-87931000D01*
X96809000Y-85569000D02*
X96809000Y-81907000D01*
X96769000Y-91581000D02*
X96769000Y-87931000D01*
X96769000Y-85569000D02*
X96769000Y-81919000D01*
X96729000Y-91568000D02*
X96729000Y-87931000D01*
X96729000Y-85569000D02*
X96729000Y-81932000D01*
X96689000Y-91556000D02*
X96689000Y-87931000D01*
X96689000Y-85569000D02*
X96689000Y-81944000D01*
X96649000Y-91542000D02*
X96649000Y-87931000D01*
X96649000Y-85569000D02*
X96649000Y-81958000D01*
X96609000Y-91529000D02*
X96609000Y-87931000D01*
X96609000Y-85569000D02*
X96609000Y-81971000D01*
X96569000Y-91515000D02*
X96569000Y-87931000D01*
X96569000Y-85569000D02*
X96569000Y-81985000D01*
X96529000Y-91501000D02*
X96529000Y-87931000D01*
X96529000Y-85569000D02*
X96529000Y-81999000D01*
X96489000Y-91487000D02*
X96489000Y-87931000D01*
X96489000Y-85569000D02*
X96489000Y-82013000D01*
X96449000Y-91472000D02*
X96449000Y-87931000D01*
X96449000Y-85569000D02*
X96449000Y-82028000D01*
X96409000Y-91456000D02*
X96409000Y-87931000D01*
X96409000Y-85569000D02*
X96409000Y-82044000D01*
X96369000Y-91441000D02*
X96369000Y-87931000D01*
X96369000Y-85569000D02*
X96369000Y-82059000D01*
X96329000Y-91424000D02*
X96329000Y-87931000D01*
X96329000Y-85569000D02*
X96329000Y-82076000D01*
X96289000Y-91408000D02*
X96289000Y-87931000D01*
X96289000Y-85569000D02*
X96289000Y-82092000D01*
X96249000Y-91391000D02*
X96249000Y-87931000D01*
X96249000Y-85569000D02*
X96249000Y-82109000D01*
X96209000Y-91374000D02*
X96209000Y-87931000D01*
X96209000Y-85569000D02*
X96209000Y-82126000D01*
X96169000Y-91356000D02*
X96169000Y-87931000D01*
X96169000Y-85569000D02*
X96169000Y-82144000D01*
X96129000Y-91338000D02*
X96129000Y-87931000D01*
X96129000Y-85569000D02*
X96129000Y-82162000D01*
X96089000Y-91319000D02*
X96089000Y-87931000D01*
X96089000Y-85569000D02*
X96089000Y-82181000D01*
X96049000Y-91300000D02*
X96049000Y-87931000D01*
X96049000Y-85569000D02*
X96049000Y-82200000D01*
X96009000Y-91281000D02*
X96009000Y-87931000D01*
X96009000Y-85569000D02*
X96009000Y-82219000D01*
X95969000Y-91261000D02*
X95969000Y-87931000D01*
X95969000Y-85569000D02*
X95969000Y-82239000D01*
X95929000Y-91241000D02*
X95929000Y-87931000D01*
X95929000Y-85569000D02*
X95929000Y-82259000D01*
X95889000Y-91220000D02*
X95889000Y-87931000D01*
X95889000Y-85569000D02*
X95889000Y-82280000D01*
X95849000Y-91199000D02*
X95849000Y-87931000D01*
X95849000Y-85569000D02*
X95849000Y-82301000D01*
X95809000Y-91178000D02*
X95809000Y-87931000D01*
X95809000Y-85569000D02*
X95809000Y-82322000D01*
X95769000Y-91155000D02*
X95769000Y-87931000D01*
X95769000Y-85569000D02*
X95769000Y-82345000D01*
X95729000Y-91133000D02*
X95729000Y-87931000D01*
X95729000Y-85569000D02*
X95729000Y-82367000D01*
X95689000Y-91110000D02*
X95689000Y-87931000D01*
X95689000Y-85569000D02*
X95689000Y-82390000D01*
X95649000Y-91086000D02*
X95649000Y-87931000D01*
X95649000Y-85569000D02*
X95649000Y-82414000D01*
X95609000Y-91062000D02*
X95609000Y-87931000D01*
X95609000Y-85569000D02*
X95609000Y-82438000D01*
X95569000Y-91038000D02*
X95569000Y-87931000D01*
X95569000Y-85569000D02*
X95569000Y-82462000D01*
X95529000Y-91013000D02*
X95529000Y-87931000D01*
X95529000Y-85569000D02*
X95529000Y-82487000D01*
X95489000Y-90987000D02*
X95489000Y-87931000D01*
X95489000Y-85569000D02*
X95489000Y-82513000D01*
X95449000Y-90961000D02*
X95449000Y-87931000D01*
X95449000Y-85569000D02*
X95449000Y-82539000D01*
X95409000Y-90935000D02*
X95409000Y-87931000D01*
X95409000Y-85569000D02*
X95409000Y-82565000D01*
X95369000Y-90907000D02*
X95369000Y-87931000D01*
X95369000Y-85569000D02*
X95369000Y-82593000D01*
X95329000Y-90880000D02*
X95329000Y-87931000D01*
X95329000Y-85569000D02*
X95329000Y-82620000D01*
X95289000Y-90851000D02*
X95289000Y-87931000D01*
X95289000Y-85569000D02*
X95289000Y-82649000D01*
X95249000Y-90822000D02*
X95249000Y-87931000D01*
X95249000Y-85569000D02*
X95249000Y-82678000D01*
X95209000Y-90793000D02*
X95209000Y-87931000D01*
X95209000Y-85569000D02*
X95209000Y-82707000D01*
X95169000Y-90763000D02*
X95169000Y-87931000D01*
X95169000Y-85569000D02*
X95169000Y-82737000D01*
X95129000Y-90732000D02*
X95129000Y-87931000D01*
X95129000Y-85569000D02*
X95129000Y-82768000D01*
X95089000Y-90701000D02*
X95089000Y-87931000D01*
X95089000Y-85569000D02*
X95089000Y-82799000D01*
X95049000Y-90669000D02*
X95049000Y-87931000D01*
X95049000Y-85569000D02*
X95049000Y-82831000D01*
X95009000Y-90636000D02*
X95009000Y-87931000D01*
X95009000Y-85569000D02*
X95009000Y-82864000D01*
X94969000Y-90603000D02*
X94969000Y-87931000D01*
X94969000Y-85569000D02*
X94969000Y-82897000D01*
X94929000Y-90569000D02*
X94929000Y-87931000D01*
X94929000Y-85569000D02*
X94929000Y-82931000D01*
X94889000Y-90534000D02*
X94889000Y-87931000D01*
X94889000Y-85569000D02*
X94889000Y-82966000D01*
X94849000Y-90498000D02*
X94849000Y-87931000D01*
X94849000Y-85569000D02*
X94849000Y-83002000D01*
X94809000Y-90462000D02*
X94809000Y-87931000D01*
X94809000Y-85569000D02*
X94809000Y-83038000D01*
X94769000Y-90425000D02*
X94769000Y-87931000D01*
X94769000Y-85569000D02*
X94769000Y-83075000D01*
X94729000Y-90387000D02*
X94729000Y-87931000D01*
X94729000Y-85569000D02*
X94729000Y-83113000D01*
X94689000Y-90348000D02*
X94689000Y-87931000D01*
X94689000Y-85569000D02*
X94689000Y-83152000D01*
X94649000Y-90309000D02*
X94649000Y-87931000D01*
X94649000Y-85569000D02*
X94649000Y-83191000D01*
X94609000Y-90268000D02*
X94609000Y-87931000D01*
X94609000Y-85569000D02*
X94609000Y-83232000D01*
X94569000Y-90227000D02*
X94569000Y-83273000D01*
X94529000Y-90185000D02*
X94529000Y-83315000D01*
X94489000Y-90141000D02*
X94489000Y-83359000D01*
X94449000Y-90097000D02*
X94449000Y-83403000D01*
X94409000Y-90052000D02*
X94409000Y-83448000D01*
X94369000Y-90005000D02*
X94369000Y-83495000D01*
X94329000Y-89957000D02*
X94329000Y-83543000D01*
X94289000Y-89908000D02*
X94289000Y-83592000D01*
X94249000Y-89858000D02*
X94249000Y-83642000D01*
X94209000Y-89807000D02*
X94209000Y-83693000D01*
X94169000Y-89754000D02*
X94169000Y-83746000D01*
X94129000Y-89699000D02*
X94129000Y-83801000D01*
X94089000Y-89644000D02*
X94089000Y-83856000D01*
X94049000Y-89586000D02*
X94049000Y-83914000D01*
X94009000Y-89527000D02*
X94009000Y-83973000D01*
X93969000Y-89465000D02*
X93969000Y-84035000D01*
X93929000Y-89402000D02*
X93929000Y-84098000D01*
X93889000Y-89337000D02*
X93889000Y-84163000D01*
X93849000Y-89269000D02*
X93849000Y-84231000D01*
X93809000Y-89199000D02*
X93809000Y-84301000D01*
X93769000Y-89127000D02*
X93769000Y-84373000D01*
X93729000Y-89051000D02*
X93729000Y-84449000D01*
X93689000Y-88972000D02*
X93689000Y-84528000D01*
X93649000Y-88890000D02*
X93649000Y-84610000D01*
X93609000Y-88803000D02*
X93609000Y-84697000D01*
X93569000Y-88712000D02*
X93569000Y-84788000D01*
X93529000Y-88616000D02*
X93529000Y-84884000D01*
X93489000Y-88513000D02*
X93489000Y-84987000D01*
X93449000Y-88404000D02*
X93449000Y-85096000D01*
X93409000Y-88286000D02*
X93409000Y-85214000D01*
X93369000Y-88157000D02*
X93369000Y-85343000D01*
X93329000Y-88015000D02*
X93329000Y-85485000D01*
X93289000Y-87854000D02*
X93289000Y-85646000D01*
X93249000Y-87663000D02*
X93249000Y-85837000D01*
X93209000Y-87422000D02*
X93209000Y-86078000D01*
X93169000Y-87029000D02*
X93169000Y-86471000D01*
X103450000Y-86750000D02*
X101950000Y-86750000D01*
X102700000Y-87500000D02*
X102700000Y-86000000D01*
X146701525Y-85320806D02*
G75*
G03X136798667Y-85320000I-4951525J-1179194D01*
G01*
X146701525Y-87679194D02*
G75*
G02X136798667Y-87680000I-4951525J1179194D01*
G01*
X146701525Y-87679194D02*
G75*
G03X146701333Y-85320000I-4951525J1179194D01*
G01*
X141750000Y-81450000D02*
X141750000Y-91550000D01*
X141790000Y-81450000D02*
X141790000Y-91550000D01*
X141830000Y-81450000D02*
X141830000Y-91550000D01*
X141870000Y-81451000D02*
X141870000Y-91549000D01*
X141910000Y-81452000D02*
X141910000Y-91548000D01*
X141950000Y-81453000D02*
X141950000Y-91547000D01*
X141990000Y-81455000D02*
X141990000Y-91545000D01*
X142030000Y-81457000D02*
X142030000Y-91543000D01*
X142070000Y-81460000D02*
X142070000Y-91540000D01*
X142110000Y-81462000D02*
X142110000Y-91538000D01*
X142150000Y-81465000D02*
X142150000Y-91535000D01*
X142190000Y-81469000D02*
X142190000Y-91531000D01*
X142230000Y-81472000D02*
X142230000Y-91528000D01*
X142270000Y-81476000D02*
X142270000Y-91524000D01*
X142310000Y-81480000D02*
X142310000Y-91520000D01*
X142350000Y-81485000D02*
X142350000Y-91515000D01*
X142390000Y-81490000D02*
X142390000Y-91510000D01*
X142430000Y-81495000D02*
X142430000Y-91505000D01*
X142471000Y-81501000D02*
X142471000Y-91499000D01*
X142511000Y-81507000D02*
X142511000Y-91493000D01*
X142551000Y-81513000D02*
X142551000Y-91487000D01*
X142591000Y-81519000D02*
X142591000Y-91481000D01*
X142631000Y-81526000D02*
X142631000Y-91474000D01*
X142671000Y-81533000D02*
X142671000Y-91467000D01*
X142711000Y-81541000D02*
X142711000Y-91459000D01*
X142751000Y-81549000D02*
X142751000Y-91451000D01*
X142791000Y-81557000D02*
X142791000Y-91443000D01*
X142831000Y-81565000D02*
X142831000Y-91435000D01*
X142871000Y-81574000D02*
X142871000Y-91426000D01*
X142911000Y-81583000D02*
X142911000Y-91417000D01*
X142951000Y-81593000D02*
X142951000Y-91407000D01*
X142991000Y-81603000D02*
X142991000Y-91397000D01*
X143031000Y-81613000D02*
X143031000Y-91387000D01*
X143071000Y-81624000D02*
X143071000Y-85319000D01*
X143071000Y-87681000D02*
X143071000Y-91376000D01*
X143111000Y-81635000D02*
X143111000Y-85319000D01*
X143111000Y-87681000D02*
X143111000Y-91365000D01*
X143151000Y-81646000D02*
X143151000Y-85319000D01*
X143151000Y-87681000D02*
X143151000Y-91354000D01*
X143191000Y-81657000D02*
X143191000Y-85319000D01*
X143191000Y-87681000D02*
X143191000Y-91343000D01*
X143231000Y-81669000D02*
X143231000Y-85319000D01*
X143231000Y-87681000D02*
X143231000Y-91331000D01*
X143271000Y-81682000D02*
X143271000Y-85319000D01*
X143271000Y-87681000D02*
X143271000Y-91318000D01*
X143311000Y-81694000D02*
X143311000Y-85319000D01*
X143311000Y-87681000D02*
X143311000Y-91306000D01*
X143351000Y-81708000D02*
X143351000Y-85319000D01*
X143351000Y-87681000D02*
X143351000Y-91292000D01*
X143391000Y-81721000D02*
X143391000Y-85319000D01*
X143391000Y-87681000D02*
X143391000Y-91279000D01*
X143431000Y-81735000D02*
X143431000Y-85319000D01*
X143431000Y-87681000D02*
X143431000Y-91265000D01*
X143471000Y-81749000D02*
X143471000Y-85319000D01*
X143471000Y-87681000D02*
X143471000Y-91251000D01*
X143511000Y-81763000D02*
X143511000Y-85319000D01*
X143511000Y-87681000D02*
X143511000Y-91237000D01*
X143551000Y-81778000D02*
X143551000Y-85319000D01*
X143551000Y-87681000D02*
X143551000Y-91222000D01*
X143591000Y-81794000D02*
X143591000Y-85319000D01*
X143591000Y-87681000D02*
X143591000Y-91206000D01*
X143631000Y-81809000D02*
X143631000Y-85319000D01*
X143631000Y-87681000D02*
X143631000Y-91191000D01*
X143671000Y-81826000D02*
X143671000Y-85319000D01*
X143671000Y-87681000D02*
X143671000Y-91174000D01*
X143711000Y-81842000D02*
X143711000Y-85319000D01*
X143711000Y-87681000D02*
X143711000Y-91158000D01*
X143751000Y-81859000D02*
X143751000Y-85319000D01*
X143751000Y-87681000D02*
X143751000Y-91141000D01*
X143791000Y-81876000D02*
X143791000Y-85319000D01*
X143791000Y-87681000D02*
X143791000Y-91124000D01*
X143831000Y-81894000D02*
X143831000Y-85319000D01*
X143831000Y-87681000D02*
X143831000Y-91106000D01*
X143871000Y-81912000D02*
X143871000Y-85319000D01*
X143871000Y-87681000D02*
X143871000Y-91088000D01*
X143911000Y-81931000D02*
X143911000Y-85319000D01*
X143911000Y-87681000D02*
X143911000Y-91069000D01*
X143951000Y-81950000D02*
X143951000Y-85319000D01*
X143951000Y-87681000D02*
X143951000Y-91050000D01*
X143991000Y-81969000D02*
X143991000Y-85319000D01*
X143991000Y-87681000D02*
X143991000Y-91031000D01*
X144031000Y-81989000D02*
X144031000Y-85319000D01*
X144031000Y-87681000D02*
X144031000Y-91011000D01*
X144071000Y-82009000D02*
X144071000Y-85319000D01*
X144071000Y-87681000D02*
X144071000Y-90991000D01*
X144111000Y-82030000D02*
X144111000Y-85319000D01*
X144111000Y-87681000D02*
X144111000Y-90970000D01*
X144151000Y-82051000D02*
X144151000Y-85319000D01*
X144151000Y-87681000D02*
X144151000Y-90949000D01*
X144191000Y-82072000D02*
X144191000Y-85319000D01*
X144191000Y-87681000D02*
X144191000Y-90928000D01*
X144231000Y-82095000D02*
X144231000Y-85319000D01*
X144231000Y-87681000D02*
X144231000Y-90905000D01*
X144271000Y-82117000D02*
X144271000Y-85319000D01*
X144271000Y-87681000D02*
X144271000Y-90883000D01*
X144311000Y-82140000D02*
X144311000Y-85319000D01*
X144311000Y-87681000D02*
X144311000Y-90860000D01*
X144351000Y-82164000D02*
X144351000Y-85319000D01*
X144351000Y-87681000D02*
X144351000Y-90836000D01*
X144391000Y-82188000D02*
X144391000Y-85319000D01*
X144391000Y-87681000D02*
X144391000Y-90812000D01*
X144431000Y-82212000D02*
X144431000Y-85319000D01*
X144431000Y-87681000D02*
X144431000Y-90788000D01*
X144471000Y-82237000D02*
X144471000Y-85319000D01*
X144471000Y-87681000D02*
X144471000Y-90763000D01*
X144511000Y-82263000D02*
X144511000Y-85319000D01*
X144511000Y-87681000D02*
X144511000Y-90737000D01*
X144551000Y-82289000D02*
X144551000Y-85319000D01*
X144551000Y-87681000D02*
X144551000Y-90711000D01*
X144591000Y-82315000D02*
X144591000Y-85319000D01*
X144591000Y-87681000D02*
X144591000Y-90685000D01*
X144631000Y-82343000D02*
X144631000Y-85319000D01*
X144631000Y-87681000D02*
X144631000Y-90657000D01*
X144671000Y-82370000D02*
X144671000Y-85319000D01*
X144671000Y-87681000D02*
X144671000Y-90630000D01*
X144711000Y-82399000D02*
X144711000Y-85319000D01*
X144711000Y-87681000D02*
X144711000Y-90601000D01*
X144751000Y-82428000D02*
X144751000Y-85319000D01*
X144751000Y-87681000D02*
X144751000Y-90572000D01*
X144791000Y-82457000D02*
X144791000Y-85319000D01*
X144791000Y-87681000D02*
X144791000Y-90543000D01*
X144831000Y-82487000D02*
X144831000Y-85319000D01*
X144831000Y-87681000D02*
X144831000Y-90513000D01*
X144871000Y-82518000D02*
X144871000Y-85319000D01*
X144871000Y-87681000D02*
X144871000Y-90482000D01*
X144911000Y-82549000D02*
X144911000Y-85319000D01*
X144911000Y-87681000D02*
X144911000Y-90451000D01*
X144951000Y-82581000D02*
X144951000Y-85319000D01*
X144951000Y-87681000D02*
X144951000Y-90419000D01*
X144991000Y-82614000D02*
X144991000Y-85319000D01*
X144991000Y-87681000D02*
X144991000Y-90386000D01*
X145031000Y-82647000D02*
X145031000Y-85319000D01*
X145031000Y-87681000D02*
X145031000Y-90353000D01*
X145071000Y-82681000D02*
X145071000Y-85319000D01*
X145071000Y-87681000D02*
X145071000Y-90319000D01*
X145111000Y-82716000D02*
X145111000Y-85319000D01*
X145111000Y-87681000D02*
X145111000Y-90284000D01*
X145151000Y-82752000D02*
X145151000Y-85319000D01*
X145151000Y-87681000D02*
X145151000Y-90248000D01*
X145191000Y-82788000D02*
X145191000Y-85319000D01*
X145191000Y-87681000D02*
X145191000Y-90212000D01*
X145231000Y-82825000D02*
X145231000Y-85319000D01*
X145231000Y-87681000D02*
X145231000Y-90175000D01*
X145271000Y-82863000D02*
X145271000Y-85319000D01*
X145271000Y-87681000D02*
X145271000Y-90137000D01*
X145311000Y-82902000D02*
X145311000Y-85319000D01*
X145311000Y-87681000D02*
X145311000Y-90098000D01*
X145351000Y-82941000D02*
X145351000Y-85319000D01*
X145351000Y-87681000D02*
X145351000Y-90059000D01*
X145391000Y-82982000D02*
X145391000Y-85319000D01*
X145391000Y-87681000D02*
X145391000Y-90018000D01*
X145431000Y-83023000D02*
X145431000Y-89977000D01*
X145471000Y-83065000D02*
X145471000Y-89935000D01*
X145511000Y-83109000D02*
X145511000Y-89891000D01*
X145551000Y-83153000D02*
X145551000Y-89847000D01*
X145591000Y-83198000D02*
X145591000Y-89802000D01*
X145631000Y-83245000D02*
X145631000Y-89755000D01*
X145671000Y-83293000D02*
X145671000Y-89707000D01*
X145711000Y-83342000D02*
X145711000Y-89658000D01*
X145751000Y-83392000D02*
X145751000Y-89608000D01*
X145791000Y-83443000D02*
X145791000Y-89557000D01*
X145831000Y-83496000D02*
X145831000Y-89504000D01*
X145871000Y-83551000D02*
X145871000Y-89449000D01*
X145911000Y-83606000D02*
X145911000Y-89394000D01*
X145951000Y-83664000D02*
X145951000Y-89336000D01*
X145991000Y-83723000D02*
X145991000Y-89277000D01*
X146031000Y-83785000D02*
X146031000Y-89215000D01*
X146071000Y-83848000D02*
X146071000Y-89152000D01*
X146111000Y-83913000D02*
X146111000Y-89087000D01*
X146151000Y-83981000D02*
X146151000Y-89019000D01*
X146191000Y-84051000D02*
X146191000Y-88949000D01*
X146231000Y-84123000D02*
X146231000Y-88877000D01*
X146271000Y-84199000D02*
X146271000Y-88801000D01*
X146311000Y-84278000D02*
X146311000Y-88722000D01*
X146351000Y-84360000D02*
X146351000Y-88640000D01*
X146391000Y-84447000D02*
X146391000Y-88553000D01*
X146431000Y-84538000D02*
X146431000Y-88462000D01*
X146471000Y-84634000D02*
X146471000Y-88366000D01*
X146511000Y-84737000D02*
X146511000Y-88263000D01*
X146551000Y-84846000D02*
X146551000Y-88154000D01*
X146591000Y-84964000D02*
X146591000Y-88036000D01*
X146631000Y-85093000D02*
X146631000Y-87907000D01*
X146671000Y-85235000D02*
X146671000Y-87765000D01*
X146711000Y-85396000D02*
X146711000Y-87604000D01*
X146751000Y-85587000D02*
X146751000Y-87413000D01*
X146791000Y-85828000D02*
X146791000Y-87172000D01*
X146831000Y-86221000D02*
X146831000Y-86779000D01*
X136550000Y-86500000D02*
X138050000Y-86500000D01*
X137300000Y-85750000D02*
X137300000Y-87250000D01*
X153451525Y-54570806D02*
G75*
G03X143548667Y-54570000I-4951525J-1179194D01*
G01*
X153451525Y-56929194D02*
G75*
G02X143548667Y-56930000I-4951525J1179194D01*
G01*
X153451525Y-56929194D02*
G75*
G03X153451333Y-54570000I-4951525J1179194D01*
G01*
X148500000Y-50700000D02*
X148500000Y-60800000D01*
X148540000Y-50700000D02*
X148540000Y-60800000D01*
X148580000Y-50700000D02*
X148580000Y-60800000D01*
X148620000Y-50701000D02*
X148620000Y-60799000D01*
X148660000Y-50702000D02*
X148660000Y-60798000D01*
X148700000Y-50703000D02*
X148700000Y-60797000D01*
X148740000Y-50705000D02*
X148740000Y-60795000D01*
X148780000Y-50707000D02*
X148780000Y-60793000D01*
X148820000Y-50710000D02*
X148820000Y-60790000D01*
X148860000Y-50712000D02*
X148860000Y-60788000D01*
X148900000Y-50715000D02*
X148900000Y-60785000D01*
X148940000Y-50719000D02*
X148940000Y-60781000D01*
X148980000Y-50722000D02*
X148980000Y-60778000D01*
X149020000Y-50726000D02*
X149020000Y-60774000D01*
X149060000Y-50730000D02*
X149060000Y-60770000D01*
X149100000Y-50735000D02*
X149100000Y-60765000D01*
X149140000Y-50740000D02*
X149140000Y-60760000D01*
X149180000Y-50745000D02*
X149180000Y-60755000D01*
X149221000Y-50751000D02*
X149221000Y-60749000D01*
X149261000Y-50757000D02*
X149261000Y-60743000D01*
X149301000Y-50763000D02*
X149301000Y-60737000D01*
X149341000Y-50769000D02*
X149341000Y-60731000D01*
X149381000Y-50776000D02*
X149381000Y-60724000D01*
X149421000Y-50783000D02*
X149421000Y-60717000D01*
X149461000Y-50791000D02*
X149461000Y-60709000D01*
X149501000Y-50799000D02*
X149501000Y-60701000D01*
X149541000Y-50807000D02*
X149541000Y-60693000D01*
X149581000Y-50815000D02*
X149581000Y-60685000D01*
X149621000Y-50824000D02*
X149621000Y-60676000D01*
X149661000Y-50833000D02*
X149661000Y-60667000D01*
X149701000Y-50843000D02*
X149701000Y-60657000D01*
X149741000Y-50853000D02*
X149741000Y-60647000D01*
X149781000Y-50863000D02*
X149781000Y-60637000D01*
X149821000Y-50874000D02*
X149821000Y-54569000D01*
X149821000Y-56931000D02*
X149821000Y-60626000D01*
X149861000Y-50885000D02*
X149861000Y-54569000D01*
X149861000Y-56931000D02*
X149861000Y-60615000D01*
X149901000Y-50896000D02*
X149901000Y-54569000D01*
X149901000Y-56931000D02*
X149901000Y-60604000D01*
X149941000Y-50907000D02*
X149941000Y-54569000D01*
X149941000Y-56931000D02*
X149941000Y-60593000D01*
X149981000Y-50919000D02*
X149981000Y-54569000D01*
X149981000Y-56931000D02*
X149981000Y-60581000D01*
X150021000Y-50932000D02*
X150021000Y-54569000D01*
X150021000Y-56931000D02*
X150021000Y-60568000D01*
X150061000Y-50944000D02*
X150061000Y-54569000D01*
X150061000Y-56931000D02*
X150061000Y-60556000D01*
X150101000Y-50958000D02*
X150101000Y-54569000D01*
X150101000Y-56931000D02*
X150101000Y-60542000D01*
X150141000Y-50971000D02*
X150141000Y-54569000D01*
X150141000Y-56931000D02*
X150141000Y-60529000D01*
X150181000Y-50985000D02*
X150181000Y-54569000D01*
X150181000Y-56931000D02*
X150181000Y-60515000D01*
X150221000Y-50999000D02*
X150221000Y-54569000D01*
X150221000Y-56931000D02*
X150221000Y-60501000D01*
X150261000Y-51013000D02*
X150261000Y-54569000D01*
X150261000Y-56931000D02*
X150261000Y-60487000D01*
X150301000Y-51028000D02*
X150301000Y-54569000D01*
X150301000Y-56931000D02*
X150301000Y-60472000D01*
X150341000Y-51044000D02*
X150341000Y-54569000D01*
X150341000Y-56931000D02*
X150341000Y-60456000D01*
X150381000Y-51059000D02*
X150381000Y-54569000D01*
X150381000Y-56931000D02*
X150381000Y-60441000D01*
X150421000Y-51076000D02*
X150421000Y-54569000D01*
X150421000Y-56931000D02*
X150421000Y-60424000D01*
X150461000Y-51092000D02*
X150461000Y-54569000D01*
X150461000Y-56931000D02*
X150461000Y-60408000D01*
X150501000Y-51109000D02*
X150501000Y-54569000D01*
X150501000Y-56931000D02*
X150501000Y-60391000D01*
X150541000Y-51126000D02*
X150541000Y-54569000D01*
X150541000Y-56931000D02*
X150541000Y-60374000D01*
X150581000Y-51144000D02*
X150581000Y-54569000D01*
X150581000Y-56931000D02*
X150581000Y-60356000D01*
X150621000Y-51162000D02*
X150621000Y-54569000D01*
X150621000Y-56931000D02*
X150621000Y-60338000D01*
X150661000Y-51181000D02*
X150661000Y-54569000D01*
X150661000Y-56931000D02*
X150661000Y-60319000D01*
X150701000Y-51200000D02*
X150701000Y-54569000D01*
X150701000Y-56931000D02*
X150701000Y-60300000D01*
X150741000Y-51219000D02*
X150741000Y-54569000D01*
X150741000Y-56931000D02*
X150741000Y-60281000D01*
X150781000Y-51239000D02*
X150781000Y-54569000D01*
X150781000Y-56931000D02*
X150781000Y-60261000D01*
X150821000Y-51259000D02*
X150821000Y-54569000D01*
X150821000Y-56931000D02*
X150821000Y-60241000D01*
X150861000Y-51280000D02*
X150861000Y-54569000D01*
X150861000Y-56931000D02*
X150861000Y-60220000D01*
X150901000Y-51301000D02*
X150901000Y-54569000D01*
X150901000Y-56931000D02*
X150901000Y-60199000D01*
X150941000Y-51322000D02*
X150941000Y-54569000D01*
X150941000Y-56931000D02*
X150941000Y-60178000D01*
X150981000Y-51345000D02*
X150981000Y-54569000D01*
X150981000Y-56931000D02*
X150981000Y-60155000D01*
X151021000Y-51367000D02*
X151021000Y-54569000D01*
X151021000Y-56931000D02*
X151021000Y-60133000D01*
X151061000Y-51390000D02*
X151061000Y-54569000D01*
X151061000Y-56931000D02*
X151061000Y-60110000D01*
X151101000Y-51414000D02*
X151101000Y-54569000D01*
X151101000Y-56931000D02*
X151101000Y-60086000D01*
X151141000Y-51438000D02*
X151141000Y-54569000D01*
X151141000Y-56931000D02*
X151141000Y-60062000D01*
X151181000Y-51462000D02*
X151181000Y-54569000D01*
X151181000Y-56931000D02*
X151181000Y-60038000D01*
X151221000Y-51487000D02*
X151221000Y-54569000D01*
X151221000Y-56931000D02*
X151221000Y-60013000D01*
X151261000Y-51513000D02*
X151261000Y-54569000D01*
X151261000Y-56931000D02*
X151261000Y-59987000D01*
X151301000Y-51539000D02*
X151301000Y-54569000D01*
X151301000Y-56931000D02*
X151301000Y-59961000D01*
X151341000Y-51565000D02*
X151341000Y-54569000D01*
X151341000Y-56931000D02*
X151341000Y-59935000D01*
X151381000Y-51593000D02*
X151381000Y-54569000D01*
X151381000Y-56931000D02*
X151381000Y-59907000D01*
X151421000Y-51620000D02*
X151421000Y-54569000D01*
X151421000Y-56931000D02*
X151421000Y-59880000D01*
X151461000Y-51649000D02*
X151461000Y-54569000D01*
X151461000Y-56931000D02*
X151461000Y-59851000D01*
X151501000Y-51678000D02*
X151501000Y-54569000D01*
X151501000Y-56931000D02*
X151501000Y-59822000D01*
X151541000Y-51707000D02*
X151541000Y-54569000D01*
X151541000Y-56931000D02*
X151541000Y-59793000D01*
X151581000Y-51737000D02*
X151581000Y-54569000D01*
X151581000Y-56931000D02*
X151581000Y-59763000D01*
X151621000Y-51768000D02*
X151621000Y-54569000D01*
X151621000Y-56931000D02*
X151621000Y-59732000D01*
X151661000Y-51799000D02*
X151661000Y-54569000D01*
X151661000Y-56931000D02*
X151661000Y-59701000D01*
X151701000Y-51831000D02*
X151701000Y-54569000D01*
X151701000Y-56931000D02*
X151701000Y-59669000D01*
X151741000Y-51864000D02*
X151741000Y-54569000D01*
X151741000Y-56931000D02*
X151741000Y-59636000D01*
X151781000Y-51897000D02*
X151781000Y-54569000D01*
X151781000Y-56931000D02*
X151781000Y-59603000D01*
X151821000Y-51931000D02*
X151821000Y-54569000D01*
X151821000Y-56931000D02*
X151821000Y-59569000D01*
X151861000Y-51966000D02*
X151861000Y-54569000D01*
X151861000Y-56931000D02*
X151861000Y-59534000D01*
X151901000Y-52002000D02*
X151901000Y-54569000D01*
X151901000Y-56931000D02*
X151901000Y-59498000D01*
X151941000Y-52038000D02*
X151941000Y-54569000D01*
X151941000Y-56931000D02*
X151941000Y-59462000D01*
X151981000Y-52075000D02*
X151981000Y-54569000D01*
X151981000Y-56931000D02*
X151981000Y-59425000D01*
X152021000Y-52113000D02*
X152021000Y-54569000D01*
X152021000Y-56931000D02*
X152021000Y-59387000D01*
X152061000Y-52152000D02*
X152061000Y-54569000D01*
X152061000Y-56931000D02*
X152061000Y-59348000D01*
X152101000Y-52191000D02*
X152101000Y-54569000D01*
X152101000Y-56931000D02*
X152101000Y-59309000D01*
X152141000Y-52232000D02*
X152141000Y-54569000D01*
X152141000Y-56931000D02*
X152141000Y-59268000D01*
X152181000Y-52273000D02*
X152181000Y-59227000D01*
X152221000Y-52315000D02*
X152221000Y-59185000D01*
X152261000Y-52359000D02*
X152261000Y-59141000D01*
X152301000Y-52403000D02*
X152301000Y-59097000D01*
X152341000Y-52448000D02*
X152341000Y-59052000D01*
X152381000Y-52495000D02*
X152381000Y-59005000D01*
X152421000Y-52543000D02*
X152421000Y-58957000D01*
X152461000Y-52592000D02*
X152461000Y-58908000D01*
X152501000Y-52642000D02*
X152501000Y-58858000D01*
X152541000Y-52693000D02*
X152541000Y-58807000D01*
X152581000Y-52746000D02*
X152581000Y-58754000D01*
X152621000Y-52801000D02*
X152621000Y-58699000D01*
X152661000Y-52856000D02*
X152661000Y-58644000D01*
X152701000Y-52914000D02*
X152701000Y-58586000D01*
X152741000Y-52973000D02*
X152741000Y-58527000D01*
X152781000Y-53035000D02*
X152781000Y-58465000D01*
X152821000Y-53098000D02*
X152821000Y-58402000D01*
X152861000Y-53163000D02*
X152861000Y-58337000D01*
X152901000Y-53231000D02*
X152901000Y-58269000D01*
X152941000Y-53301000D02*
X152941000Y-58199000D01*
X152981000Y-53373000D02*
X152981000Y-58127000D01*
X153021000Y-53449000D02*
X153021000Y-58051000D01*
X153061000Y-53528000D02*
X153061000Y-57972000D01*
X153101000Y-53610000D02*
X153101000Y-57890000D01*
X153141000Y-53697000D02*
X153141000Y-57803000D01*
X153181000Y-53788000D02*
X153181000Y-57712000D01*
X153221000Y-53884000D02*
X153221000Y-57616000D01*
X153261000Y-53987000D02*
X153261000Y-57513000D01*
X153301000Y-54096000D02*
X153301000Y-57404000D01*
X153341000Y-54214000D02*
X153341000Y-57286000D01*
X153381000Y-54343000D02*
X153381000Y-57157000D01*
X153421000Y-54485000D02*
X153421000Y-57015000D01*
X153461000Y-54646000D02*
X153461000Y-56854000D01*
X153501000Y-54837000D02*
X153501000Y-56663000D01*
X153541000Y-55078000D02*
X153541000Y-56422000D01*
X153581000Y-55471000D02*
X153581000Y-56029000D01*
X143300000Y-55750000D02*
X144800000Y-55750000D01*
X144050000Y-55000000D02*
X144050000Y-56500000D01*
X153451525Y-122820806D02*
G75*
G03X143548667Y-122820000I-4951525J-1179194D01*
G01*
X153451525Y-125179194D02*
G75*
G02X143548667Y-125180000I-4951525J1179194D01*
G01*
X153451525Y-125179194D02*
G75*
G03X153451333Y-122820000I-4951525J1179194D01*
G01*
X148500000Y-118950000D02*
X148500000Y-129050000D01*
X148540000Y-118950000D02*
X148540000Y-129050000D01*
X148580000Y-118950000D02*
X148580000Y-129050000D01*
X148620000Y-118951000D02*
X148620000Y-129049000D01*
X148660000Y-118952000D02*
X148660000Y-129048000D01*
X148700000Y-118953000D02*
X148700000Y-129047000D01*
X148740000Y-118955000D02*
X148740000Y-129045000D01*
X148780000Y-118957000D02*
X148780000Y-129043000D01*
X148820000Y-118960000D02*
X148820000Y-129040000D01*
X148860000Y-118962000D02*
X148860000Y-129038000D01*
X148900000Y-118965000D02*
X148900000Y-129035000D01*
X148940000Y-118969000D02*
X148940000Y-129031000D01*
X148980000Y-118972000D02*
X148980000Y-129028000D01*
X149020000Y-118976000D02*
X149020000Y-129024000D01*
X149060000Y-118980000D02*
X149060000Y-129020000D01*
X149100000Y-118985000D02*
X149100000Y-129015000D01*
X149140000Y-118990000D02*
X149140000Y-129010000D01*
X149180000Y-118995000D02*
X149180000Y-129005000D01*
X149221000Y-119001000D02*
X149221000Y-128999000D01*
X149261000Y-119007000D02*
X149261000Y-128993000D01*
X149301000Y-119013000D02*
X149301000Y-128987000D01*
X149341000Y-119019000D02*
X149341000Y-128981000D01*
X149381000Y-119026000D02*
X149381000Y-128974000D01*
X149421000Y-119033000D02*
X149421000Y-128967000D01*
X149461000Y-119041000D02*
X149461000Y-128959000D01*
X149501000Y-119049000D02*
X149501000Y-128951000D01*
X149541000Y-119057000D02*
X149541000Y-128943000D01*
X149581000Y-119065000D02*
X149581000Y-128935000D01*
X149621000Y-119074000D02*
X149621000Y-128926000D01*
X149661000Y-119083000D02*
X149661000Y-128917000D01*
X149701000Y-119093000D02*
X149701000Y-128907000D01*
X149741000Y-119103000D02*
X149741000Y-128897000D01*
X149781000Y-119113000D02*
X149781000Y-128887000D01*
X149821000Y-119124000D02*
X149821000Y-122819000D01*
X149821000Y-125181000D02*
X149821000Y-128876000D01*
X149861000Y-119135000D02*
X149861000Y-122819000D01*
X149861000Y-125181000D02*
X149861000Y-128865000D01*
X149901000Y-119146000D02*
X149901000Y-122819000D01*
X149901000Y-125181000D02*
X149901000Y-128854000D01*
X149941000Y-119157000D02*
X149941000Y-122819000D01*
X149941000Y-125181000D02*
X149941000Y-128843000D01*
X149981000Y-119169000D02*
X149981000Y-122819000D01*
X149981000Y-125181000D02*
X149981000Y-128831000D01*
X150021000Y-119182000D02*
X150021000Y-122819000D01*
X150021000Y-125181000D02*
X150021000Y-128818000D01*
X150061000Y-119194000D02*
X150061000Y-122819000D01*
X150061000Y-125181000D02*
X150061000Y-128806000D01*
X150101000Y-119208000D02*
X150101000Y-122819000D01*
X150101000Y-125181000D02*
X150101000Y-128792000D01*
X150141000Y-119221000D02*
X150141000Y-122819000D01*
X150141000Y-125181000D02*
X150141000Y-128779000D01*
X150181000Y-119235000D02*
X150181000Y-122819000D01*
X150181000Y-125181000D02*
X150181000Y-128765000D01*
X150221000Y-119249000D02*
X150221000Y-122819000D01*
X150221000Y-125181000D02*
X150221000Y-128751000D01*
X150261000Y-119263000D02*
X150261000Y-122819000D01*
X150261000Y-125181000D02*
X150261000Y-128737000D01*
X150301000Y-119278000D02*
X150301000Y-122819000D01*
X150301000Y-125181000D02*
X150301000Y-128722000D01*
X150341000Y-119294000D02*
X150341000Y-122819000D01*
X150341000Y-125181000D02*
X150341000Y-128706000D01*
X150381000Y-119309000D02*
X150381000Y-122819000D01*
X150381000Y-125181000D02*
X150381000Y-128691000D01*
X150421000Y-119326000D02*
X150421000Y-122819000D01*
X150421000Y-125181000D02*
X150421000Y-128674000D01*
X150461000Y-119342000D02*
X150461000Y-122819000D01*
X150461000Y-125181000D02*
X150461000Y-128658000D01*
X150501000Y-119359000D02*
X150501000Y-122819000D01*
X150501000Y-125181000D02*
X150501000Y-128641000D01*
X150541000Y-119376000D02*
X150541000Y-122819000D01*
X150541000Y-125181000D02*
X150541000Y-128624000D01*
X150581000Y-119394000D02*
X150581000Y-122819000D01*
X150581000Y-125181000D02*
X150581000Y-128606000D01*
X150621000Y-119412000D02*
X150621000Y-122819000D01*
X150621000Y-125181000D02*
X150621000Y-128588000D01*
X150661000Y-119431000D02*
X150661000Y-122819000D01*
X150661000Y-125181000D02*
X150661000Y-128569000D01*
X150701000Y-119450000D02*
X150701000Y-122819000D01*
X150701000Y-125181000D02*
X150701000Y-128550000D01*
X150741000Y-119469000D02*
X150741000Y-122819000D01*
X150741000Y-125181000D02*
X150741000Y-128531000D01*
X150781000Y-119489000D02*
X150781000Y-122819000D01*
X150781000Y-125181000D02*
X150781000Y-128511000D01*
X150821000Y-119509000D02*
X150821000Y-122819000D01*
X150821000Y-125181000D02*
X150821000Y-128491000D01*
X150861000Y-119530000D02*
X150861000Y-122819000D01*
X150861000Y-125181000D02*
X150861000Y-128470000D01*
X150901000Y-119551000D02*
X150901000Y-122819000D01*
X150901000Y-125181000D02*
X150901000Y-128449000D01*
X150941000Y-119572000D02*
X150941000Y-122819000D01*
X150941000Y-125181000D02*
X150941000Y-128428000D01*
X150981000Y-119595000D02*
X150981000Y-122819000D01*
X150981000Y-125181000D02*
X150981000Y-128405000D01*
X151021000Y-119617000D02*
X151021000Y-122819000D01*
X151021000Y-125181000D02*
X151021000Y-128383000D01*
X151061000Y-119640000D02*
X151061000Y-122819000D01*
X151061000Y-125181000D02*
X151061000Y-128360000D01*
X151101000Y-119664000D02*
X151101000Y-122819000D01*
X151101000Y-125181000D02*
X151101000Y-128336000D01*
X151141000Y-119688000D02*
X151141000Y-122819000D01*
X151141000Y-125181000D02*
X151141000Y-128312000D01*
X151181000Y-119712000D02*
X151181000Y-122819000D01*
X151181000Y-125181000D02*
X151181000Y-128288000D01*
X151221000Y-119737000D02*
X151221000Y-122819000D01*
X151221000Y-125181000D02*
X151221000Y-128263000D01*
X151261000Y-119763000D02*
X151261000Y-122819000D01*
X151261000Y-125181000D02*
X151261000Y-128237000D01*
X151301000Y-119789000D02*
X151301000Y-122819000D01*
X151301000Y-125181000D02*
X151301000Y-128211000D01*
X151341000Y-119815000D02*
X151341000Y-122819000D01*
X151341000Y-125181000D02*
X151341000Y-128185000D01*
X151381000Y-119843000D02*
X151381000Y-122819000D01*
X151381000Y-125181000D02*
X151381000Y-128157000D01*
X151421000Y-119870000D02*
X151421000Y-122819000D01*
X151421000Y-125181000D02*
X151421000Y-128130000D01*
X151461000Y-119899000D02*
X151461000Y-122819000D01*
X151461000Y-125181000D02*
X151461000Y-128101000D01*
X151501000Y-119928000D02*
X151501000Y-122819000D01*
X151501000Y-125181000D02*
X151501000Y-128072000D01*
X151541000Y-119957000D02*
X151541000Y-122819000D01*
X151541000Y-125181000D02*
X151541000Y-128043000D01*
X151581000Y-119987000D02*
X151581000Y-122819000D01*
X151581000Y-125181000D02*
X151581000Y-128013000D01*
X151621000Y-120018000D02*
X151621000Y-122819000D01*
X151621000Y-125181000D02*
X151621000Y-127982000D01*
X151661000Y-120049000D02*
X151661000Y-122819000D01*
X151661000Y-125181000D02*
X151661000Y-127951000D01*
X151701000Y-120081000D02*
X151701000Y-122819000D01*
X151701000Y-125181000D02*
X151701000Y-127919000D01*
X151741000Y-120114000D02*
X151741000Y-122819000D01*
X151741000Y-125181000D02*
X151741000Y-127886000D01*
X151781000Y-120147000D02*
X151781000Y-122819000D01*
X151781000Y-125181000D02*
X151781000Y-127853000D01*
X151821000Y-120181000D02*
X151821000Y-122819000D01*
X151821000Y-125181000D02*
X151821000Y-127819000D01*
X151861000Y-120216000D02*
X151861000Y-122819000D01*
X151861000Y-125181000D02*
X151861000Y-127784000D01*
X151901000Y-120252000D02*
X151901000Y-122819000D01*
X151901000Y-125181000D02*
X151901000Y-127748000D01*
X151941000Y-120288000D02*
X151941000Y-122819000D01*
X151941000Y-125181000D02*
X151941000Y-127712000D01*
X151981000Y-120325000D02*
X151981000Y-122819000D01*
X151981000Y-125181000D02*
X151981000Y-127675000D01*
X152021000Y-120363000D02*
X152021000Y-122819000D01*
X152021000Y-125181000D02*
X152021000Y-127637000D01*
X152061000Y-120402000D02*
X152061000Y-122819000D01*
X152061000Y-125181000D02*
X152061000Y-127598000D01*
X152101000Y-120441000D02*
X152101000Y-122819000D01*
X152101000Y-125181000D02*
X152101000Y-127559000D01*
X152141000Y-120482000D02*
X152141000Y-122819000D01*
X152141000Y-125181000D02*
X152141000Y-127518000D01*
X152181000Y-120523000D02*
X152181000Y-127477000D01*
X152221000Y-120565000D02*
X152221000Y-127435000D01*
X152261000Y-120609000D02*
X152261000Y-127391000D01*
X152301000Y-120653000D02*
X152301000Y-127347000D01*
X152341000Y-120698000D02*
X152341000Y-127302000D01*
X152381000Y-120745000D02*
X152381000Y-127255000D01*
X152421000Y-120793000D02*
X152421000Y-127207000D01*
X152461000Y-120842000D02*
X152461000Y-127158000D01*
X152501000Y-120892000D02*
X152501000Y-127108000D01*
X152541000Y-120943000D02*
X152541000Y-127057000D01*
X152581000Y-120996000D02*
X152581000Y-127004000D01*
X152621000Y-121051000D02*
X152621000Y-126949000D01*
X152661000Y-121106000D02*
X152661000Y-126894000D01*
X152701000Y-121164000D02*
X152701000Y-126836000D01*
X152741000Y-121223000D02*
X152741000Y-126777000D01*
X152781000Y-121285000D02*
X152781000Y-126715000D01*
X152821000Y-121348000D02*
X152821000Y-126652000D01*
X152861000Y-121413000D02*
X152861000Y-126587000D01*
X152901000Y-121481000D02*
X152901000Y-126519000D01*
X152941000Y-121551000D02*
X152941000Y-126449000D01*
X152981000Y-121623000D02*
X152981000Y-126377000D01*
X153021000Y-121699000D02*
X153021000Y-126301000D01*
X153061000Y-121778000D02*
X153061000Y-126222000D01*
X153101000Y-121860000D02*
X153101000Y-126140000D01*
X153141000Y-121947000D02*
X153141000Y-126053000D01*
X153181000Y-122038000D02*
X153181000Y-125962000D01*
X153221000Y-122134000D02*
X153221000Y-125866000D01*
X153261000Y-122237000D02*
X153261000Y-125763000D01*
X153301000Y-122346000D02*
X153301000Y-125654000D01*
X153341000Y-122464000D02*
X153341000Y-125536000D01*
X153381000Y-122593000D02*
X153381000Y-125407000D01*
X153421000Y-122735000D02*
X153421000Y-125265000D01*
X153461000Y-122896000D02*
X153461000Y-125104000D01*
X153501000Y-123087000D02*
X153501000Y-124913000D01*
X153541000Y-123328000D02*
X153541000Y-124672000D01*
X153581000Y-123721000D02*
X153581000Y-124279000D01*
X143300000Y-124000000D02*
X144800000Y-124000000D01*
X144050000Y-123250000D02*
X144050000Y-124750000D01*
X58070806Y-114798475D02*
G75*
G03X58070000Y-124701333I1179194J-4951525D01*
G01*
X60429194Y-114798475D02*
G75*
G02X60430000Y-124701333I-1179194J-4951525D01*
G01*
X60429194Y-114798475D02*
G75*
G03X58070000Y-114798667I-1179194J-4951525D01*
G01*
X54200000Y-119750000D02*
X64300000Y-119750000D01*
X54200000Y-119710000D02*
X64300000Y-119710000D01*
X54200000Y-119670000D02*
X64300000Y-119670000D01*
X54201000Y-119630000D02*
X64299000Y-119630000D01*
X54202000Y-119590000D02*
X64298000Y-119590000D01*
X54203000Y-119550000D02*
X64297000Y-119550000D01*
X54205000Y-119510000D02*
X64295000Y-119510000D01*
X54207000Y-119470000D02*
X64293000Y-119470000D01*
X54210000Y-119430000D02*
X64290000Y-119430000D01*
X54212000Y-119390000D02*
X64288000Y-119390000D01*
X54215000Y-119350000D02*
X64285000Y-119350000D01*
X54219000Y-119310000D02*
X64281000Y-119310000D01*
X54222000Y-119270000D02*
X64278000Y-119270000D01*
X54226000Y-119230000D02*
X64274000Y-119230000D01*
X54230000Y-119190000D02*
X64270000Y-119190000D01*
X54235000Y-119150000D02*
X64265000Y-119150000D01*
X54240000Y-119110000D02*
X64260000Y-119110000D01*
X54245000Y-119070000D02*
X64255000Y-119070000D01*
X54251000Y-119029000D02*
X64249000Y-119029000D01*
X54257000Y-118989000D02*
X64243000Y-118989000D01*
X54263000Y-118949000D02*
X64237000Y-118949000D01*
X54269000Y-118909000D02*
X64231000Y-118909000D01*
X54276000Y-118869000D02*
X64224000Y-118869000D01*
X54283000Y-118829000D02*
X64217000Y-118829000D01*
X54291000Y-118789000D02*
X64209000Y-118789000D01*
X54299000Y-118749000D02*
X64201000Y-118749000D01*
X54307000Y-118709000D02*
X64193000Y-118709000D01*
X54315000Y-118669000D02*
X64185000Y-118669000D01*
X54324000Y-118629000D02*
X64176000Y-118629000D01*
X54333000Y-118589000D02*
X64167000Y-118589000D01*
X54343000Y-118549000D02*
X64157000Y-118549000D01*
X54353000Y-118509000D02*
X64147000Y-118509000D01*
X54363000Y-118469000D02*
X64137000Y-118469000D01*
X54374000Y-118429000D02*
X58069000Y-118429000D01*
X60431000Y-118429000D02*
X64126000Y-118429000D01*
X54385000Y-118389000D02*
X58069000Y-118389000D01*
X60431000Y-118389000D02*
X64115000Y-118389000D01*
X54396000Y-118349000D02*
X58069000Y-118349000D01*
X60431000Y-118349000D02*
X64104000Y-118349000D01*
X54407000Y-118309000D02*
X58069000Y-118309000D01*
X60431000Y-118309000D02*
X64093000Y-118309000D01*
X54419000Y-118269000D02*
X58069000Y-118269000D01*
X60431000Y-118269000D02*
X64081000Y-118269000D01*
X54432000Y-118229000D02*
X58069000Y-118229000D01*
X60431000Y-118229000D02*
X64068000Y-118229000D01*
X54444000Y-118189000D02*
X58069000Y-118189000D01*
X60431000Y-118189000D02*
X64056000Y-118189000D01*
X54458000Y-118149000D02*
X58069000Y-118149000D01*
X60431000Y-118149000D02*
X64042000Y-118149000D01*
X54471000Y-118109000D02*
X58069000Y-118109000D01*
X60431000Y-118109000D02*
X64029000Y-118109000D01*
X54485000Y-118069000D02*
X58069000Y-118069000D01*
X60431000Y-118069000D02*
X64015000Y-118069000D01*
X54499000Y-118029000D02*
X58069000Y-118029000D01*
X60431000Y-118029000D02*
X64001000Y-118029000D01*
X54513000Y-117989000D02*
X58069000Y-117989000D01*
X60431000Y-117989000D02*
X63987000Y-117989000D01*
X54528000Y-117949000D02*
X58069000Y-117949000D01*
X60431000Y-117949000D02*
X63972000Y-117949000D01*
X54544000Y-117909000D02*
X58069000Y-117909000D01*
X60431000Y-117909000D02*
X63956000Y-117909000D01*
X54559000Y-117869000D02*
X58069000Y-117869000D01*
X60431000Y-117869000D02*
X63941000Y-117869000D01*
X54576000Y-117829000D02*
X58069000Y-117829000D01*
X60431000Y-117829000D02*
X63924000Y-117829000D01*
X54592000Y-117789000D02*
X58069000Y-117789000D01*
X60431000Y-117789000D02*
X63908000Y-117789000D01*
X54609000Y-117749000D02*
X58069000Y-117749000D01*
X60431000Y-117749000D02*
X63891000Y-117749000D01*
X54626000Y-117709000D02*
X58069000Y-117709000D01*
X60431000Y-117709000D02*
X63874000Y-117709000D01*
X54644000Y-117669000D02*
X58069000Y-117669000D01*
X60431000Y-117669000D02*
X63856000Y-117669000D01*
X54662000Y-117629000D02*
X58069000Y-117629000D01*
X60431000Y-117629000D02*
X63838000Y-117629000D01*
X54681000Y-117589000D02*
X58069000Y-117589000D01*
X60431000Y-117589000D02*
X63819000Y-117589000D01*
X54700000Y-117549000D02*
X58069000Y-117549000D01*
X60431000Y-117549000D02*
X63800000Y-117549000D01*
X54719000Y-117509000D02*
X58069000Y-117509000D01*
X60431000Y-117509000D02*
X63781000Y-117509000D01*
X54739000Y-117469000D02*
X58069000Y-117469000D01*
X60431000Y-117469000D02*
X63761000Y-117469000D01*
X54759000Y-117429000D02*
X58069000Y-117429000D01*
X60431000Y-117429000D02*
X63741000Y-117429000D01*
X54780000Y-117389000D02*
X58069000Y-117389000D01*
X60431000Y-117389000D02*
X63720000Y-117389000D01*
X54801000Y-117349000D02*
X58069000Y-117349000D01*
X60431000Y-117349000D02*
X63699000Y-117349000D01*
X54822000Y-117309000D02*
X58069000Y-117309000D01*
X60431000Y-117309000D02*
X63678000Y-117309000D01*
X54845000Y-117269000D02*
X58069000Y-117269000D01*
X60431000Y-117269000D02*
X63655000Y-117269000D01*
X54867000Y-117229000D02*
X58069000Y-117229000D01*
X60431000Y-117229000D02*
X63633000Y-117229000D01*
X54890000Y-117189000D02*
X58069000Y-117189000D01*
X60431000Y-117189000D02*
X63610000Y-117189000D01*
X54914000Y-117149000D02*
X58069000Y-117149000D01*
X60431000Y-117149000D02*
X63586000Y-117149000D01*
X54938000Y-117109000D02*
X58069000Y-117109000D01*
X60431000Y-117109000D02*
X63562000Y-117109000D01*
X54962000Y-117069000D02*
X58069000Y-117069000D01*
X60431000Y-117069000D02*
X63538000Y-117069000D01*
X54987000Y-117029000D02*
X58069000Y-117029000D01*
X60431000Y-117029000D02*
X63513000Y-117029000D01*
X55013000Y-116989000D02*
X58069000Y-116989000D01*
X60431000Y-116989000D02*
X63487000Y-116989000D01*
X55039000Y-116949000D02*
X58069000Y-116949000D01*
X60431000Y-116949000D02*
X63461000Y-116949000D01*
X55065000Y-116909000D02*
X58069000Y-116909000D01*
X60431000Y-116909000D02*
X63435000Y-116909000D01*
X55093000Y-116869000D02*
X58069000Y-116869000D01*
X60431000Y-116869000D02*
X63407000Y-116869000D01*
X55120000Y-116829000D02*
X58069000Y-116829000D01*
X60431000Y-116829000D02*
X63380000Y-116829000D01*
X55149000Y-116789000D02*
X58069000Y-116789000D01*
X60431000Y-116789000D02*
X63351000Y-116789000D01*
X55178000Y-116749000D02*
X58069000Y-116749000D01*
X60431000Y-116749000D02*
X63322000Y-116749000D01*
X55207000Y-116709000D02*
X58069000Y-116709000D01*
X60431000Y-116709000D02*
X63293000Y-116709000D01*
X55237000Y-116669000D02*
X58069000Y-116669000D01*
X60431000Y-116669000D02*
X63263000Y-116669000D01*
X55268000Y-116629000D02*
X58069000Y-116629000D01*
X60431000Y-116629000D02*
X63232000Y-116629000D01*
X55299000Y-116589000D02*
X58069000Y-116589000D01*
X60431000Y-116589000D02*
X63201000Y-116589000D01*
X55331000Y-116549000D02*
X58069000Y-116549000D01*
X60431000Y-116549000D02*
X63169000Y-116549000D01*
X55364000Y-116509000D02*
X58069000Y-116509000D01*
X60431000Y-116509000D02*
X63136000Y-116509000D01*
X55397000Y-116469000D02*
X58069000Y-116469000D01*
X60431000Y-116469000D02*
X63103000Y-116469000D01*
X55431000Y-116429000D02*
X58069000Y-116429000D01*
X60431000Y-116429000D02*
X63069000Y-116429000D01*
X55466000Y-116389000D02*
X58069000Y-116389000D01*
X60431000Y-116389000D02*
X63034000Y-116389000D01*
X55502000Y-116349000D02*
X58069000Y-116349000D01*
X60431000Y-116349000D02*
X62998000Y-116349000D01*
X55538000Y-116309000D02*
X58069000Y-116309000D01*
X60431000Y-116309000D02*
X62962000Y-116309000D01*
X55575000Y-116269000D02*
X58069000Y-116269000D01*
X60431000Y-116269000D02*
X62925000Y-116269000D01*
X55613000Y-116229000D02*
X58069000Y-116229000D01*
X60431000Y-116229000D02*
X62887000Y-116229000D01*
X55652000Y-116189000D02*
X58069000Y-116189000D01*
X60431000Y-116189000D02*
X62848000Y-116189000D01*
X55691000Y-116149000D02*
X58069000Y-116149000D01*
X60431000Y-116149000D02*
X62809000Y-116149000D01*
X55732000Y-116109000D02*
X58069000Y-116109000D01*
X60431000Y-116109000D02*
X62768000Y-116109000D01*
X55773000Y-116069000D02*
X62727000Y-116069000D01*
X55815000Y-116029000D02*
X62685000Y-116029000D01*
X55859000Y-115989000D02*
X62641000Y-115989000D01*
X55903000Y-115949000D02*
X62597000Y-115949000D01*
X55948000Y-115909000D02*
X62552000Y-115909000D01*
X55995000Y-115869000D02*
X62505000Y-115869000D01*
X56043000Y-115829000D02*
X62457000Y-115829000D01*
X56092000Y-115789000D02*
X62408000Y-115789000D01*
X56142000Y-115749000D02*
X62358000Y-115749000D01*
X56193000Y-115709000D02*
X62307000Y-115709000D01*
X56246000Y-115669000D02*
X62254000Y-115669000D01*
X56301000Y-115629000D02*
X62199000Y-115629000D01*
X56356000Y-115589000D02*
X62144000Y-115589000D01*
X56414000Y-115549000D02*
X62086000Y-115549000D01*
X56473000Y-115509000D02*
X62027000Y-115509000D01*
X56535000Y-115469000D02*
X61965000Y-115469000D01*
X56598000Y-115429000D02*
X61902000Y-115429000D01*
X56663000Y-115389000D02*
X61837000Y-115389000D01*
X56731000Y-115349000D02*
X61769000Y-115349000D01*
X56801000Y-115309000D02*
X61699000Y-115309000D01*
X56873000Y-115269000D02*
X61627000Y-115269000D01*
X56949000Y-115229000D02*
X61551000Y-115229000D01*
X57028000Y-115189000D02*
X61472000Y-115189000D01*
X57110000Y-115149000D02*
X61390000Y-115149000D01*
X57197000Y-115109000D02*
X61303000Y-115109000D01*
X57288000Y-115069000D02*
X61212000Y-115069000D01*
X57384000Y-115029000D02*
X61116000Y-115029000D01*
X57487000Y-114989000D02*
X61013000Y-114989000D01*
X57596000Y-114949000D02*
X60904000Y-114949000D01*
X57714000Y-114909000D02*
X60786000Y-114909000D01*
X57843000Y-114869000D02*
X60657000Y-114869000D01*
X57985000Y-114829000D02*
X60515000Y-114829000D01*
X58146000Y-114789000D02*
X60354000Y-114789000D01*
X58337000Y-114749000D02*
X60163000Y-114749000D01*
X58578000Y-114709000D02*
X59922000Y-114709000D01*
X58971000Y-114669000D02*
X59529000Y-114669000D01*
X59250000Y-124950000D02*
X59250000Y-123450000D01*
X58500000Y-124200000D02*
X60000000Y-124200000D01*
X70570806Y-114798475D02*
G75*
G03X70570000Y-124701333I1179194J-4951525D01*
G01*
X72929194Y-114798475D02*
G75*
G02X72930000Y-124701333I-1179194J-4951525D01*
G01*
X72929194Y-114798475D02*
G75*
G03X70570000Y-114798667I-1179194J-4951525D01*
G01*
X66700000Y-119750000D02*
X76800000Y-119750000D01*
X66700000Y-119710000D02*
X76800000Y-119710000D01*
X66700000Y-119670000D02*
X76800000Y-119670000D01*
X66701000Y-119630000D02*
X76799000Y-119630000D01*
X66702000Y-119590000D02*
X76798000Y-119590000D01*
X66703000Y-119550000D02*
X76797000Y-119550000D01*
X66705000Y-119510000D02*
X76795000Y-119510000D01*
X66707000Y-119470000D02*
X76793000Y-119470000D01*
X66710000Y-119430000D02*
X76790000Y-119430000D01*
X66712000Y-119390000D02*
X76788000Y-119390000D01*
X66715000Y-119350000D02*
X76785000Y-119350000D01*
X66719000Y-119310000D02*
X76781000Y-119310000D01*
X66722000Y-119270000D02*
X76778000Y-119270000D01*
X66726000Y-119230000D02*
X76774000Y-119230000D01*
X66730000Y-119190000D02*
X76770000Y-119190000D01*
X66735000Y-119150000D02*
X76765000Y-119150000D01*
X66740000Y-119110000D02*
X76760000Y-119110000D01*
X66745000Y-119070000D02*
X76755000Y-119070000D01*
X66751000Y-119029000D02*
X76749000Y-119029000D01*
X66757000Y-118989000D02*
X76743000Y-118989000D01*
X66763000Y-118949000D02*
X76737000Y-118949000D01*
X66769000Y-118909000D02*
X76731000Y-118909000D01*
X66776000Y-118869000D02*
X76724000Y-118869000D01*
X66783000Y-118829000D02*
X76717000Y-118829000D01*
X66791000Y-118789000D02*
X76709000Y-118789000D01*
X66799000Y-118749000D02*
X76701000Y-118749000D01*
X66807000Y-118709000D02*
X76693000Y-118709000D01*
X66815000Y-118669000D02*
X76685000Y-118669000D01*
X66824000Y-118629000D02*
X76676000Y-118629000D01*
X66833000Y-118589000D02*
X76667000Y-118589000D01*
X66843000Y-118549000D02*
X76657000Y-118549000D01*
X66853000Y-118509000D02*
X76647000Y-118509000D01*
X66863000Y-118469000D02*
X76637000Y-118469000D01*
X66874000Y-118429000D02*
X70569000Y-118429000D01*
X72931000Y-118429000D02*
X76626000Y-118429000D01*
X66885000Y-118389000D02*
X70569000Y-118389000D01*
X72931000Y-118389000D02*
X76615000Y-118389000D01*
X66896000Y-118349000D02*
X70569000Y-118349000D01*
X72931000Y-118349000D02*
X76604000Y-118349000D01*
X66907000Y-118309000D02*
X70569000Y-118309000D01*
X72931000Y-118309000D02*
X76593000Y-118309000D01*
X66919000Y-118269000D02*
X70569000Y-118269000D01*
X72931000Y-118269000D02*
X76581000Y-118269000D01*
X66932000Y-118229000D02*
X70569000Y-118229000D01*
X72931000Y-118229000D02*
X76568000Y-118229000D01*
X66944000Y-118189000D02*
X70569000Y-118189000D01*
X72931000Y-118189000D02*
X76556000Y-118189000D01*
X66958000Y-118149000D02*
X70569000Y-118149000D01*
X72931000Y-118149000D02*
X76542000Y-118149000D01*
X66971000Y-118109000D02*
X70569000Y-118109000D01*
X72931000Y-118109000D02*
X76529000Y-118109000D01*
X66985000Y-118069000D02*
X70569000Y-118069000D01*
X72931000Y-118069000D02*
X76515000Y-118069000D01*
X66999000Y-118029000D02*
X70569000Y-118029000D01*
X72931000Y-118029000D02*
X76501000Y-118029000D01*
X67013000Y-117989000D02*
X70569000Y-117989000D01*
X72931000Y-117989000D02*
X76487000Y-117989000D01*
X67028000Y-117949000D02*
X70569000Y-117949000D01*
X72931000Y-117949000D02*
X76472000Y-117949000D01*
X67044000Y-117909000D02*
X70569000Y-117909000D01*
X72931000Y-117909000D02*
X76456000Y-117909000D01*
X67059000Y-117869000D02*
X70569000Y-117869000D01*
X72931000Y-117869000D02*
X76441000Y-117869000D01*
X67076000Y-117829000D02*
X70569000Y-117829000D01*
X72931000Y-117829000D02*
X76424000Y-117829000D01*
X67092000Y-117789000D02*
X70569000Y-117789000D01*
X72931000Y-117789000D02*
X76408000Y-117789000D01*
X67109000Y-117749000D02*
X70569000Y-117749000D01*
X72931000Y-117749000D02*
X76391000Y-117749000D01*
X67126000Y-117709000D02*
X70569000Y-117709000D01*
X72931000Y-117709000D02*
X76374000Y-117709000D01*
X67144000Y-117669000D02*
X70569000Y-117669000D01*
X72931000Y-117669000D02*
X76356000Y-117669000D01*
X67162000Y-117629000D02*
X70569000Y-117629000D01*
X72931000Y-117629000D02*
X76338000Y-117629000D01*
X67181000Y-117589000D02*
X70569000Y-117589000D01*
X72931000Y-117589000D02*
X76319000Y-117589000D01*
X67200000Y-117549000D02*
X70569000Y-117549000D01*
X72931000Y-117549000D02*
X76300000Y-117549000D01*
X67219000Y-117509000D02*
X70569000Y-117509000D01*
X72931000Y-117509000D02*
X76281000Y-117509000D01*
X67239000Y-117469000D02*
X70569000Y-117469000D01*
X72931000Y-117469000D02*
X76261000Y-117469000D01*
X67259000Y-117429000D02*
X70569000Y-117429000D01*
X72931000Y-117429000D02*
X76241000Y-117429000D01*
X67280000Y-117389000D02*
X70569000Y-117389000D01*
X72931000Y-117389000D02*
X76220000Y-117389000D01*
X67301000Y-117349000D02*
X70569000Y-117349000D01*
X72931000Y-117349000D02*
X76199000Y-117349000D01*
X67322000Y-117309000D02*
X70569000Y-117309000D01*
X72931000Y-117309000D02*
X76178000Y-117309000D01*
X67345000Y-117269000D02*
X70569000Y-117269000D01*
X72931000Y-117269000D02*
X76155000Y-117269000D01*
X67367000Y-117229000D02*
X70569000Y-117229000D01*
X72931000Y-117229000D02*
X76133000Y-117229000D01*
X67390000Y-117189000D02*
X70569000Y-117189000D01*
X72931000Y-117189000D02*
X76110000Y-117189000D01*
X67414000Y-117149000D02*
X70569000Y-117149000D01*
X72931000Y-117149000D02*
X76086000Y-117149000D01*
X67438000Y-117109000D02*
X70569000Y-117109000D01*
X72931000Y-117109000D02*
X76062000Y-117109000D01*
X67462000Y-117069000D02*
X70569000Y-117069000D01*
X72931000Y-117069000D02*
X76038000Y-117069000D01*
X67487000Y-117029000D02*
X70569000Y-117029000D01*
X72931000Y-117029000D02*
X76013000Y-117029000D01*
X67513000Y-116989000D02*
X70569000Y-116989000D01*
X72931000Y-116989000D02*
X75987000Y-116989000D01*
X67539000Y-116949000D02*
X70569000Y-116949000D01*
X72931000Y-116949000D02*
X75961000Y-116949000D01*
X67565000Y-116909000D02*
X70569000Y-116909000D01*
X72931000Y-116909000D02*
X75935000Y-116909000D01*
X67593000Y-116869000D02*
X70569000Y-116869000D01*
X72931000Y-116869000D02*
X75907000Y-116869000D01*
X67620000Y-116829000D02*
X70569000Y-116829000D01*
X72931000Y-116829000D02*
X75880000Y-116829000D01*
X67649000Y-116789000D02*
X70569000Y-116789000D01*
X72931000Y-116789000D02*
X75851000Y-116789000D01*
X67678000Y-116749000D02*
X70569000Y-116749000D01*
X72931000Y-116749000D02*
X75822000Y-116749000D01*
X67707000Y-116709000D02*
X70569000Y-116709000D01*
X72931000Y-116709000D02*
X75793000Y-116709000D01*
X67737000Y-116669000D02*
X70569000Y-116669000D01*
X72931000Y-116669000D02*
X75763000Y-116669000D01*
X67768000Y-116629000D02*
X70569000Y-116629000D01*
X72931000Y-116629000D02*
X75732000Y-116629000D01*
X67799000Y-116589000D02*
X70569000Y-116589000D01*
X72931000Y-116589000D02*
X75701000Y-116589000D01*
X67831000Y-116549000D02*
X70569000Y-116549000D01*
X72931000Y-116549000D02*
X75669000Y-116549000D01*
X67864000Y-116509000D02*
X70569000Y-116509000D01*
X72931000Y-116509000D02*
X75636000Y-116509000D01*
X67897000Y-116469000D02*
X70569000Y-116469000D01*
X72931000Y-116469000D02*
X75603000Y-116469000D01*
X67931000Y-116429000D02*
X70569000Y-116429000D01*
X72931000Y-116429000D02*
X75569000Y-116429000D01*
X67966000Y-116389000D02*
X70569000Y-116389000D01*
X72931000Y-116389000D02*
X75534000Y-116389000D01*
X68002000Y-116349000D02*
X70569000Y-116349000D01*
X72931000Y-116349000D02*
X75498000Y-116349000D01*
X68038000Y-116309000D02*
X70569000Y-116309000D01*
X72931000Y-116309000D02*
X75462000Y-116309000D01*
X68075000Y-116269000D02*
X70569000Y-116269000D01*
X72931000Y-116269000D02*
X75425000Y-116269000D01*
X68113000Y-116229000D02*
X70569000Y-116229000D01*
X72931000Y-116229000D02*
X75387000Y-116229000D01*
X68152000Y-116189000D02*
X70569000Y-116189000D01*
X72931000Y-116189000D02*
X75348000Y-116189000D01*
X68191000Y-116149000D02*
X70569000Y-116149000D01*
X72931000Y-116149000D02*
X75309000Y-116149000D01*
X68232000Y-116109000D02*
X70569000Y-116109000D01*
X72931000Y-116109000D02*
X75268000Y-116109000D01*
X68273000Y-116069000D02*
X75227000Y-116069000D01*
X68315000Y-116029000D02*
X75185000Y-116029000D01*
X68359000Y-115989000D02*
X75141000Y-115989000D01*
X68403000Y-115949000D02*
X75097000Y-115949000D01*
X68448000Y-115909000D02*
X75052000Y-115909000D01*
X68495000Y-115869000D02*
X75005000Y-115869000D01*
X68543000Y-115829000D02*
X74957000Y-115829000D01*
X68592000Y-115789000D02*
X74908000Y-115789000D01*
X68642000Y-115749000D02*
X74858000Y-115749000D01*
X68693000Y-115709000D02*
X74807000Y-115709000D01*
X68746000Y-115669000D02*
X74754000Y-115669000D01*
X68801000Y-115629000D02*
X74699000Y-115629000D01*
X68856000Y-115589000D02*
X74644000Y-115589000D01*
X68914000Y-115549000D02*
X74586000Y-115549000D01*
X68973000Y-115509000D02*
X74527000Y-115509000D01*
X69035000Y-115469000D02*
X74465000Y-115469000D01*
X69098000Y-115429000D02*
X74402000Y-115429000D01*
X69163000Y-115389000D02*
X74337000Y-115389000D01*
X69231000Y-115349000D02*
X74269000Y-115349000D01*
X69301000Y-115309000D02*
X74199000Y-115309000D01*
X69373000Y-115269000D02*
X74127000Y-115269000D01*
X69449000Y-115229000D02*
X74051000Y-115229000D01*
X69528000Y-115189000D02*
X73972000Y-115189000D01*
X69610000Y-115149000D02*
X73890000Y-115149000D01*
X69697000Y-115109000D02*
X73803000Y-115109000D01*
X69788000Y-115069000D02*
X73712000Y-115069000D01*
X69884000Y-115029000D02*
X73616000Y-115029000D01*
X69987000Y-114989000D02*
X73513000Y-114989000D01*
X70096000Y-114949000D02*
X73404000Y-114949000D01*
X70214000Y-114909000D02*
X73286000Y-114909000D01*
X70343000Y-114869000D02*
X73157000Y-114869000D01*
X70485000Y-114829000D02*
X73015000Y-114829000D01*
X70646000Y-114789000D02*
X72854000Y-114789000D01*
X70837000Y-114749000D02*
X72663000Y-114749000D01*
X71078000Y-114709000D02*
X72422000Y-114709000D01*
X71471000Y-114669000D02*
X72029000Y-114669000D01*
X71750000Y-124950000D02*
X71750000Y-123450000D01*
X71000000Y-124200000D02*
X72500000Y-124200000D01*
D14*
X136480000Y-78635000D02*
X135464000Y-78635000D01*
X141560000Y-78635000D02*
X139020000Y-78635000D01*
X145116000Y-78635000D02*
X144100000Y-78635000D01*
X136734000Y-74698000D02*
X136734000Y-75968000D01*
X137521400Y-75447300D02*
X137483300Y-75193300D01*
X137483300Y-75193300D02*
X137305500Y-74913900D01*
X137305500Y-74913900D02*
X136988000Y-74698000D01*
X136988000Y-74698000D02*
X136543500Y-74685300D01*
X136543500Y-74685300D02*
X136187900Y-74888500D01*
X136187900Y-74888500D02*
X136010100Y-75180600D01*
X136010100Y-75180600D02*
X135959300Y-75498100D01*
X135959300Y-75498100D02*
X136060900Y-75904500D01*
X136060900Y-75904500D02*
X136403800Y-76158500D01*
X136403800Y-76158500D02*
X136581600Y-76247400D01*
X135464000Y-75460000D02*
X135464000Y-74190000D01*
X135464000Y-74190000D02*
X145116000Y-74190000D01*
X145116000Y-74190000D02*
X145116000Y-79270000D01*
X135464000Y-79270000D02*
X135464000Y-76730000D01*
X135464000Y-76730000D02*
X135464000Y-75460000D01*
X136480000Y-105385000D02*
X135464000Y-105385000D01*
X141560000Y-105385000D02*
X139020000Y-105385000D01*
X145116000Y-105385000D02*
X144100000Y-105385000D01*
X136734000Y-101448000D02*
X136734000Y-102718000D01*
X137521400Y-102197300D02*
X137483300Y-101943300D01*
X137483300Y-101943300D02*
X137305500Y-101663900D01*
X137305500Y-101663900D02*
X136988000Y-101448000D01*
X136988000Y-101448000D02*
X136543500Y-101435300D01*
X136543500Y-101435300D02*
X136187900Y-101638500D01*
X136187900Y-101638500D02*
X136010100Y-101930600D01*
X136010100Y-101930600D02*
X135959300Y-102248100D01*
X135959300Y-102248100D02*
X136060900Y-102654500D01*
X136060900Y-102654500D02*
X136403800Y-102908500D01*
X136403800Y-102908500D02*
X136581600Y-102997400D01*
X135464000Y-102210000D02*
X135464000Y-100940000D01*
X135464000Y-100940000D02*
X145116000Y-100940000D01*
X145116000Y-100940000D02*
X145116000Y-106020000D01*
X135464000Y-106020000D02*
X135464000Y-103480000D01*
X135464000Y-103480000D02*
X135464000Y-102210000D01*
D13*
X75350000Y-133500000D02*
X75350000Y-142300000D01*
X75350000Y-142300000D02*
X66150000Y-142300000D01*
X72650000Y-127600000D02*
X75350000Y-127600000D01*
X75350000Y-127600000D02*
X75350000Y-129500000D01*
X66150000Y-142300000D02*
X66150000Y-127600000D01*
X66150000Y-127600000D02*
X68750000Y-127600000D01*
X129539067Y-90250000D02*
G75*
G03X129539067Y-90250000I-10239067J0D01*
G01*
X65591000Y-96974000D02*
X53370000Y-96974000D01*
X65591000Y-78953000D02*
X53370000Y-78953000D01*
X65591000Y-96974000D02*
X65591000Y-78953000D01*
X53370000Y-96974000D02*
X53370000Y-78953000D01*
X53370000Y-91524000D02*
X46370000Y-91524000D01*
X53370000Y-84404000D02*
X46370000Y-84404000D01*
X53370000Y-91524000D02*
X53370000Y-84404000D01*
X46370000Y-91524000D02*
X46370000Y-84404000D01*
X46370000Y-91024000D02*
X36370000Y-91024000D01*
X46370000Y-84904000D02*
X36370000Y-84904000D01*
X46370000Y-91024000D02*
X46370000Y-84904000D01*
X36370000Y-91024000D02*
X36370000Y-84904000D01*
D14*
X93142000Y-57366000D02*
X93392000Y-57366000D01*
X93142000Y-53866000D02*
X93392000Y-53866000D01*
X90642000Y-53866000D02*
X90392000Y-53866000D01*
X90642000Y-57366000D02*
X90392000Y-57366000D01*
X91642000Y-57366000D02*
X91142000Y-57366000D01*
X92642000Y-57366000D02*
X92142000Y-57366000D01*
X91642000Y-53866000D02*
X91142000Y-53866000D01*
X92642000Y-53866000D02*
X92142000Y-53866000D01*
X81392000Y-71616000D02*
X79392000Y-71616000D01*
X85392000Y-71616000D02*
X83392000Y-71616000D01*
X89392000Y-71616000D02*
X87392000Y-71616000D01*
X91642000Y-66116000D02*
X89392000Y-66116000D01*
X87392000Y-66116000D02*
X85392000Y-66116000D01*
X83392000Y-66116000D02*
X81392000Y-66116000D01*
X81392000Y-39616000D02*
X79392000Y-39616000D01*
X83392000Y-45116000D02*
X81392000Y-45116000D01*
X85392000Y-39616000D02*
X83392000Y-39616000D01*
X89392000Y-39616000D02*
X87392000Y-39616000D01*
X87392000Y-45116000D02*
X85392000Y-45116000D01*
X91642000Y-45116000D02*
X89392000Y-45116000D01*
X91642000Y-39616000D02*
X93392000Y-39616000D01*
X93392000Y-71616000D02*
X91642000Y-71616000D01*
X91642000Y-45116000D02*
X91642000Y-39616000D01*
X85392000Y-45116000D02*
X85392000Y-39616000D01*
X83392000Y-39616000D02*
X83392000Y-45116000D01*
X81392000Y-45116000D02*
X81392000Y-39616000D01*
X83392000Y-66116000D02*
X83392000Y-71616000D01*
X85392000Y-66116000D02*
X85392000Y-71616000D01*
X81392000Y-66116000D02*
X81392000Y-71616000D01*
X91642000Y-66116000D02*
X91642000Y-71616000D01*
X87392000Y-66116000D02*
X87392000Y-71616000D01*
X89392000Y-66116000D02*
X89392000Y-71616000D01*
X87392000Y-39616000D02*
X87392000Y-45116000D01*
X89392000Y-45116000D02*
X89392000Y-39616000D01*
X87392000Y-63116000D02*
X79392000Y-63116000D01*
X87392000Y-48116000D02*
X79392000Y-48116000D01*
X90392000Y-48116000D02*
X89392000Y-48116000D01*
X90392000Y-63116000D02*
X89392000Y-63116000D01*
X79392000Y-63116000D02*
X79392000Y-71616000D01*
X79392000Y-48116000D02*
X79392000Y-39616000D01*
X90392000Y-48116000D02*
X90392000Y-63116000D01*
X93392000Y-39616000D02*
X93392000Y-71616000D01*
X111684000Y-57620000D02*
X111934000Y-57620000D01*
X111684000Y-54120000D02*
X111934000Y-54120000D01*
X109184000Y-54120000D02*
X108934000Y-54120000D01*
X109184000Y-57620000D02*
X108934000Y-57620000D01*
X110184000Y-57620000D02*
X109684000Y-57620000D01*
X111184000Y-57620000D02*
X110684000Y-57620000D01*
X110184000Y-54120000D02*
X109684000Y-54120000D01*
X111184000Y-54120000D02*
X110684000Y-54120000D01*
X99934000Y-71870000D02*
X97934000Y-71870000D01*
X103934000Y-71870000D02*
X101934000Y-71870000D01*
X107934000Y-71870000D02*
X105934000Y-71870000D01*
X110184000Y-66370000D02*
X107934000Y-66370000D01*
X105934000Y-66370000D02*
X103934000Y-66370000D01*
X101934000Y-66370000D02*
X99934000Y-66370000D01*
X99934000Y-39870000D02*
X97934000Y-39870000D01*
X101934000Y-45370000D02*
X99934000Y-45370000D01*
X103934000Y-39870000D02*
X101934000Y-39870000D01*
X107934000Y-39870000D02*
X105934000Y-39870000D01*
X105934000Y-45370000D02*
X103934000Y-45370000D01*
X110184000Y-45370000D02*
X107934000Y-45370000D01*
X110184000Y-39870000D02*
X111934000Y-39870000D01*
X111934000Y-71870000D02*
X110184000Y-71870000D01*
X110184000Y-45370000D02*
X110184000Y-39870000D01*
X103934000Y-45370000D02*
X103934000Y-39870000D01*
X101934000Y-39870000D02*
X101934000Y-45370000D01*
X99934000Y-45370000D02*
X99934000Y-39870000D01*
X101934000Y-66370000D02*
X101934000Y-71870000D01*
X103934000Y-66370000D02*
X103934000Y-71870000D01*
X99934000Y-66370000D02*
X99934000Y-71870000D01*
X110184000Y-66370000D02*
X110184000Y-71870000D01*
X105934000Y-66370000D02*
X105934000Y-71870000D01*
X107934000Y-66370000D02*
X107934000Y-71870000D01*
X105934000Y-39870000D02*
X105934000Y-45370000D01*
X107934000Y-45370000D02*
X107934000Y-39870000D01*
X105934000Y-63370000D02*
X97934000Y-63370000D01*
X105934000Y-48370000D02*
X97934000Y-48370000D01*
X108934000Y-48370000D02*
X107934000Y-48370000D01*
X108934000Y-63370000D02*
X107934000Y-63370000D01*
X97934000Y-63370000D02*
X97934000Y-71870000D01*
X97934000Y-48370000D02*
X97934000Y-39870000D01*
X108934000Y-48370000D02*
X108934000Y-63370000D01*
X111934000Y-39870000D02*
X111934000Y-71870000D01*
X126060000Y-54374000D02*
X125810000Y-54374000D01*
X126060000Y-57874000D02*
X125810000Y-57874000D01*
X128560000Y-57874000D02*
X128810000Y-57874000D01*
X128560000Y-54374000D02*
X128810000Y-54374000D01*
X127560000Y-54374000D02*
X128060000Y-54374000D01*
X126560000Y-54374000D02*
X127060000Y-54374000D01*
X127560000Y-57874000D02*
X128060000Y-57874000D01*
X126560000Y-57874000D02*
X127060000Y-57874000D01*
X137810000Y-40124000D02*
X139810000Y-40124000D01*
X133810000Y-40124000D02*
X135810000Y-40124000D01*
X129810000Y-40124000D02*
X131810000Y-40124000D01*
X127560000Y-45624000D02*
X129810000Y-45624000D01*
X131810000Y-45624000D02*
X133810000Y-45624000D01*
X135810000Y-45624000D02*
X137810000Y-45624000D01*
X137810000Y-72124000D02*
X139810000Y-72124000D01*
X135810000Y-66624000D02*
X137810000Y-66624000D01*
X133810000Y-72124000D02*
X135810000Y-72124000D01*
X129810000Y-72124000D02*
X131810000Y-72124000D01*
X131810000Y-66624000D02*
X133810000Y-66624000D01*
X127560000Y-66624000D02*
X129810000Y-66624000D01*
X127560000Y-72124000D02*
X125810000Y-72124000D01*
X125810000Y-40124000D02*
X127560000Y-40124000D01*
X127560000Y-66624000D02*
X127560000Y-72124000D01*
X133810000Y-66624000D02*
X133810000Y-72124000D01*
X135810000Y-72124000D02*
X135810000Y-66624000D01*
X137810000Y-66624000D02*
X137810000Y-72124000D01*
X135810000Y-45624000D02*
X135810000Y-40124000D01*
X133810000Y-45624000D02*
X133810000Y-40124000D01*
X137810000Y-45624000D02*
X137810000Y-40124000D01*
X127560000Y-45624000D02*
X127560000Y-40124000D01*
X131810000Y-45624000D02*
X131810000Y-40124000D01*
X129810000Y-45624000D02*
X129810000Y-40124000D01*
X131810000Y-72124000D02*
X131810000Y-66624000D01*
X129810000Y-66624000D02*
X129810000Y-72124000D01*
X131810000Y-48624000D02*
X139810000Y-48624000D01*
X131810000Y-63624000D02*
X139810000Y-63624000D01*
X128810000Y-63624000D02*
X129810000Y-63624000D01*
X128810000Y-48624000D02*
X129810000Y-48624000D01*
X139810000Y-48624000D02*
X139810000Y-40124000D01*
X139810000Y-63624000D02*
X139810000Y-72124000D01*
X128810000Y-63624000D02*
X128810000Y-48624000D01*
X125810000Y-72124000D02*
X125810000Y-40124000D01*
X79500000Y-122850000D02*
X79250000Y-122850000D01*
X79500000Y-126350000D02*
X79250000Y-126350000D01*
X82000000Y-126350000D02*
X82250000Y-126350000D01*
X82000000Y-122850000D02*
X82250000Y-122850000D01*
X81000000Y-122850000D02*
X81500000Y-122850000D01*
X80000000Y-122850000D02*
X80500000Y-122850000D01*
X81000000Y-126350000D02*
X81500000Y-126350000D01*
X80000000Y-126350000D02*
X80500000Y-126350000D01*
X91250000Y-108600000D02*
X93250000Y-108600000D01*
X87250000Y-108600000D02*
X89250000Y-108600000D01*
X83250000Y-108600000D02*
X85250000Y-108600000D01*
X81000000Y-114100000D02*
X83250000Y-114100000D01*
X85250000Y-114100000D02*
X87250000Y-114100000D01*
X89250000Y-114100000D02*
X91250000Y-114100000D01*
X91250000Y-140600000D02*
X93250000Y-140600000D01*
X89250000Y-135100000D02*
X91250000Y-135100000D01*
X87250000Y-140600000D02*
X89250000Y-140600000D01*
X83250000Y-140600000D02*
X85250000Y-140600000D01*
X85250000Y-135100000D02*
X87250000Y-135100000D01*
X81000000Y-135100000D02*
X83250000Y-135100000D01*
X81000000Y-140600000D02*
X79250000Y-140600000D01*
X79250000Y-108600000D02*
X81000000Y-108600000D01*
X81000000Y-135100000D02*
X81000000Y-140600000D01*
X87250000Y-135100000D02*
X87250000Y-140600000D01*
X89250000Y-140600000D02*
X89250000Y-135100000D01*
X91250000Y-135100000D02*
X91250000Y-140600000D01*
X89250000Y-114100000D02*
X89250000Y-108600000D01*
X87250000Y-114100000D02*
X87250000Y-108600000D01*
X91250000Y-114100000D02*
X91250000Y-108600000D01*
X81000000Y-114100000D02*
X81000000Y-108600000D01*
X85250000Y-114100000D02*
X85250000Y-108600000D01*
X83250000Y-114100000D02*
X83250000Y-108600000D01*
X85250000Y-140600000D02*
X85250000Y-135100000D01*
X83250000Y-135100000D02*
X83250000Y-140600000D01*
X85250000Y-117100000D02*
X93250000Y-117100000D01*
X85250000Y-132100000D02*
X93250000Y-132100000D01*
X82250000Y-132100000D02*
X83250000Y-132100000D01*
X82250000Y-117100000D02*
X83250000Y-117100000D01*
X93250000Y-117100000D02*
X93250000Y-108600000D01*
X93250000Y-132100000D02*
X93250000Y-140600000D01*
X82250000Y-132100000D02*
X82250000Y-117100000D01*
X79250000Y-140600000D02*
X79250000Y-108600000D01*
X110922000Y-126200000D02*
X111172000Y-126200000D01*
X110922000Y-122700000D02*
X111172000Y-122700000D01*
X108422000Y-122700000D02*
X108172000Y-122700000D01*
X108422000Y-126200000D02*
X108172000Y-126200000D01*
X109422000Y-126200000D02*
X108922000Y-126200000D01*
X110422000Y-126200000D02*
X109922000Y-126200000D01*
X109422000Y-122700000D02*
X108922000Y-122700000D01*
X110422000Y-122700000D02*
X109922000Y-122700000D01*
X99172000Y-140450000D02*
X97172000Y-140450000D01*
X103172000Y-140450000D02*
X101172000Y-140450000D01*
X107172000Y-140450000D02*
X105172000Y-140450000D01*
X109422000Y-134950000D02*
X107172000Y-134950000D01*
X105172000Y-134950000D02*
X103172000Y-134950000D01*
X101172000Y-134950000D02*
X99172000Y-134950000D01*
X99172000Y-108450000D02*
X97172000Y-108450000D01*
X101172000Y-113950000D02*
X99172000Y-113950000D01*
X103172000Y-108450000D02*
X101172000Y-108450000D01*
X107172000Y-108450000D02*
X105172000Y-108450000D01*
X105172000Y-113950000D02*
X103172000Y-113950000D01*
X109422000Y-113950000D02*
X107172000Y-113950000D01*
X109422000Y-108450000D02*
X111172000Y-108450000D01*
X111172000Y-140450000D02*
X109422000Y-140450000D01*
X109422000Y-113950000D02*
X109422000Y-108450000D01*
X103172000Y-113950000D02*
X103172000Y-108450000D01*
X101172000Y-108450000D02*
X101172000Y-113950000D01*
X99172000Y-113950000D02*
X99172000Y-108450000D01*
X101172000Y-134950000D02*
X101172000Y-140450000D01*
X103172000Y-134950000D02*
X103172000Y-140450000D01*
X99172000Y-134950000D02*
X99172000Y-140450000D01*
X109422000Y-134950000D02*
X109422000Y-140450000D01*
X105172000Y-134950000D02*
X105172000Y-140450000D01*
X107172000Y-134950000D02*
X107172000Y-140450000D01*
X105172000Y-108450000D02*
X105172000Y-113950000D01*
X107172000Y-113950000D02*
X107172000Y-108450000D01*
X105172000Y-131950000D02*
X97172000Y-131950000D01*
X105172000Y-116950000D02*
X97172000Y-116950000D01*
X108172000Y-116950000D02*
X107172000Y-116950000D01*
X108172000Y-131950000D02*
X107172000Y-131950000D01*
X97172000Y-131950000D02*
X97172000Y-140450000D01*
X97172000Y-116950000D02*
X97172000Y-108450000D01*
X108172000Y-116950000D02*
X108172000Y-131950000D01*
X111172000Y-108450000D02*
X111172000Y-140450000D01*
X126060000Y-122192000D02*
X125810000Y-122192000D01*
X126060000Y-125692000D02*
X125810000Y-125692000D01*
X128560000Y-125692000D02*
X128810000Y-125692000D01*
X128560000Y-122192000D02*
X128810000Y-122192000D01*
X127560000Y-122192000D02*
X128060000Y-122192000D01*
X126560000Y-122192000D02*
X127060000Y-122192000D01*
X127560000Y-125692000D02*
X128060000Y-125692000D01*
X126560000Y-125692000D02*
X127060000Y-125692000D01*
X137810000Y-107942000D02*
X139810000Y-107942000D01*
X133810000Y-107942000D02*
X135810000Y-107942000D01*
X129810000Y-107942000D02*
X131810000Y-107942000D01*
X127560000Y-113442000D02*
X129810000Y-113442000D01*
X131810000Y-113442000D02*
X133810000Y-113442000D01*
X135810000Y-113442000D02*
X137810000Y-113442000D01*
X137810000Y-139942000D02*
X139810000Y-139942000D01*
X135810000Y-134442000D02*
X137810000Y-134442000D01*
X133810000Y-139942000D02*
X135810000Y-139942000D01*
X129810000Y-139942000D02*
X131810000Y-139942000D01*
X131810000Y-134442000D02*
X133810000Y-134442000D01*
X127560000Y-134442000D02*
X129810000Y-134442000D01*
X127560000Y-139942000D02*
X125810000Y-139942000D01*
X125810000Y-107942000D02*
X127560000Y-107942000D01*
X127560000Y-134442000D02*
X127560000Y-139942000D01*
X133810000Y-134442000D02*
X133810000Y-139942000D01*
X135810000Y-139942000D02*
X135810000Y-134442000D01*
X137810000Y-134442000D02*
X137810000Y-139942000D01*
X135810000Y-113442000D02*
X135810000Y-107942000D01*
X133810000Y-113442000D02*
X133810000Y-107942000D01*
X137810000Y-113442000D02*
X137810000Y-107942000D01*
X127560000Y-113442000D02*
X127560000Y-107942000D01*
X131810000Y-113442000D02*
X131810000Y-107942000D01*
X129810000Y-113442000D02*
X129810000Y-107942000D01*
X131810000Y-139942000D02*
X131810000Y-134442000D01*
X129810000Y-134442000D02*
X129810000Y-139942000D01*
X131810000Y-116442000D02*
X139810000Y-116442000D01*
X131810000Y-131442000D02*
X139810000Y-131442000D01*
X128810000Y-131442000D02*
X129810000Y-131442000D01*
X128810000Y-116442000D02*
X129810000Y-116442000D01*
X139810000Y-116442000D02*
X139810000Y-107942000D01*
X139810000Y-131442000D02*
X139810000Y-139942000D01*
X128810000Y-131442000D02*
X128810000Y-116442000D01*
X125810000Y-139942000D02*
X125810000Y-107942000D01*
X59398000Y-128319000D02*
X61398000Y-128319000D01*
X57398000Y-128319000D02*
X58298000Y-128319000D01*
X57323000Y-128319000D02*
G75*
G03X57323000Y-128319000I-925000J0D01*
G01*
X63323000Y-128319000D02*
G75*
G03X63323000Y-128319000I-925000J0D01*
G01*
D15*
X59573000Y-128319000D02*
G75*
G03X59573000Y-128319000I-175000J0D01*
G01*
D14*
X60073000Y-127569000D02*
G75*
G03X60148000Y-128994000I-675000J-750000D01*
G01*
D16*
G36*
X99615814Y-100846931D02*
X99699635Y-101291555D01*
X100008920Y-101419053D01*
X100318206Y-101546551D01*
X100689246Y-101294246D01*
X100793157Y-101223996D01*
X100887087Y-101161272D01*
X100966652Y-101108938D01*
X101027470Y-101069857D01*
X101065157Y-101046893D01*
X101075421Y-101041942D01*
X101093910Y-101054676D01*
X101133420Y-101089882D01*
X101189522Y-101143062D01*
X101257787Y-101209718D01*
X101333786Y-101285354D01*
X101413092Y-101365472D01*
X101491275Y-101445574D01*
X101563907Y-101521164D01*
X101626559Y-101587745D01*
X101674803Y-101640818D01*
X101704210Y-101675887D01*
X101711241Y-101687623D01*
X101701123Y-101709260D01*
X101672759Y-101756662D01*
X101629129Y-101825193D01*
X101573218Y-101910215D01*
X101508006Y-102007093D01*
X101470219Y-102062350D01*
X101401343Y-102163248D01*
X101340140Y-102254299D01*
X101289578Y-102330970D01*
X101252628Y-102388728D01*
X101232258Y-102423043D01*
X101229197Y-102430254D01*
X101236136Y-102450748D01*
X101255051Y-102498513D01*
X101283087Y-102566832D01*
X101317391Y-102648989D01*
X101355109Y-102738270D01*
X101393387Y-102827958D01*
X101429370Y-102911338D01*
X101460206Y-102981694D01*
X101483039Y-103032310D01*
X101495017Y-103056471D01*
X101495724Y-103057422D01*
X101514531Y-103062036D01*
X101564618Y-103072328D01*
X101640793Y-103087287D01*
X101737865Y-103105901D01*
X101850643Y-103127159D01*
X101916442Y-103139418D01*
X102036950Y-103162362D01*
X102145797Y-103184195D01*
X102237476Y-103203722D01*
X102306481Y-103219748D01*
X102347304Y-103231079D01*
X102355511Y-103234674D01*
X102363548Y-103259006D01*
X102370033Y-103313959D01*
X102374970Y-103393108D01*
X102378364Y-103490026D01*
X102380218Y-103598287D01*
X102380538Y-103711465D01*
X102379327Y-103823135D01*
X102376590Y-103926868D01*
X102372331Y-104016241D01*
X102366555Y-104084826D01*
X102359267Y-104126197D01*
X102354895Y-104134810D01*
X102328764Y-104145133D01*
X102273393Y-104159892D01*
X102196107Y-104177352D01*
X102104230Y-104195780D01*
X102072158Y-104201741D01*
X101917524Y-104230066D01*
X101795375Y-104252876D01*
X101701673Y-104271080D01*
X101632384Y-104285583D01*
X101583471Y-104297292D01*
X101550897Y-104307115D01*
X101530628Y-104315956D01*
X101518626Y-104324724D01*
X101516947Y-104326457D01*
X101500184Y-104354371D01*
X101474614Y-104408695D01*
X101442788Y-104482777D01*
X101407260Y-104569965D01*
X101370583Y-104663608D01*
X101335311Y-104757052D01*
X101303996Y-104843647D01*
X101279193Y-104916740D01*
X101263454Y-104969678D01*
X101259332Y-104995811D01*
X101259676Y-104996726D01*
X101273641Y-105018086D01*
X101305322Y-105065084D01*
X101351391Y-105132827D01*
X101408518Y-105216423D01*
X101473373Y-105310982D01*
X101491843Y-105337854D01*
X101557699Y-105435275D01*
X101615650Y-105524163D01*
X101662538Y-105599412D01*
X101695207Y-105655920D01*
X101710500Y-105688581D01*
X101711241Y-105692593D01*
X101698392Y-105713684D01*
X101662888Y-105755464D01*
X101609293Y-105813445D01*
X101542171Y-105883135D01*
X101466087Y-105960045D01*
X101385604Y-106039683D01*
X101305287Y-106117561D01*
X101229699Y-106189186D01*
X101163405Y-106250070D01*
X101110969Y-106295721D01*
X101076955Y-106321650D01*
X101067545Y-106325883D01*
X101045643Y-106315912D01*
X101000800Y-106289020D01*
X100940321Y-106249736D01*
X100893789Y-106218117D01*
X100809475Y-106160098D01*
X100709626Y-106091784D01*
X100609473Y-106023579D01*
X100555627Y-105987075D01*
X100373371Y-105863800D01*
X100220381Y-105946520D01*
X100150682Y-105982759D01*
X100091414Y-106010926D01*
X100051311Y-106026991D01*
X100041103Y-106029226D01*
X100028829Y-106012722D01*
X100004613Y-105966082D01*
X99970263Y-105893609D01*
X99927588Y-105799606D01*
X99878394Y-105688374D01*
X99824490Y-105564215D01*
X99767684Y-105431432D01*
X99709782Y-105294327D01*
X99652593Y-105157202D01*
X99597924Y-105024358D01*
X99547584Y-104900098D01*
X99503380Y-104788725D01*
X99467119Y-104694539D01*
X99440609Y-104621844D01*
X99425658Y-104574941D01*
X99423254Y-104558833D01*
X99442311Y-104538286D01*
X99484036Y-104504933D01*
X99539706Y-104465702D01*
X99544378Y-104462599D01*
X99688264Y-104347423D01*
X99804283Y-104213053D01*
X99891430Y-104063784D01*
X99948699Y-103903913D01*
X99975086Y-103737737D01*
X99969585Y-103569552D01*
X99931190Y-103403655D01*
X99858895Y-103244342D01*
X99837626Y-103209487D01*
X99726996Y-103068737D01*
X99596302Y-102955714D01*
X99450064Y-102871003D01*
X99292808Y-102815194D01*
X99129057Y-102788874D01*
X98963333Y-102792630D01*
X98800162Y-102827050D01*
X98644065Y-102892723D01*
X98499567Y-102990235D01*
X98454869Y-103029813D01*
X98341112Y-103153703D01*
X98258218Y-103284124D01*
X98201356Y-103430315D01*
X98169687Y-103575088D01*
X98161869Y-103737860D01*
X98187938Y-103901440D01*
X98245245Y-104060298D01*
X98331144Y-104208906D01*
X98442986Y-104341735D01*
X98578123Y-104453256D01*
X98595883Y-104465011D01*
X98652150Y-104503508D01*
X98694923Y-104536863D01*
X98715372Y-104558160D01*
X98715669Y-104558833D01*
X98711279Y-104581871D01*
X98693876Y-104634157D01*
X98665268Y-104711390D01*
X98627265Y-104809268D01*
X98581674Y-104923491D01*
X98530303Y-105049758D01*
X98474962Y-105183767D01*
X98417458Y-105321218D01*
X98359601Y-105457808D01*
X98303198Y-105589237D01*
X98250058Y-105711205D01*
X98201990Y-105819409D01*
X98160801Y-105909549D01*
X98128301Y-105977323D01*
X98106297Y-106018430D01*
X98097436Y-106029226D01*
X98070360Y-106020819D01*
X98019697Y-105998272D01*
X97954183Y-105965613D01*
X97918159Y-105946520D01*
X97765168Y-105863800D01*
X97582912Y-105987075D01*
X97489875Y-106050228D01*
X97388015Y-106119727D01*
X97292562Y-106185165D01*
X97244750Y-106218117D01*
X97177505Y-106263273D01*
X97120564Y-106299057D01*
X97081354Y-106320938D01*
X97068619Y-106325563D01*
X97050083Y-106313085D01*
X97009059Y-106278252D01*
X96949525Y-106224678D01*
X96875458Y-106155983D01*
X96790835Y-106075781D01*
X96737315Y-106024286D01*
X96643681Y-105932286D01*
X96562759Y-105849999D01*
X96497823Y-105780945D01*
X96452142Y-105728644D01*
X96428989Y-105696616D01*
X96426768Y-105690116D01*
X96437076Y-105665394D01*
X96465561Y-105615405D01*
X96509063Y-105545212D01*
X96564423Y-105459875D01*
X96628480Y-105364456D01*
X96646697Y-105337854D01*
X96713073Y-105241167D01*
X96772622Y-105154117D01*
X96822016Y-105081595D01*
X96857925Y-105028493D01*
X96877019Y-104999703D01*
X96878864Y-104996726D01*
X96876105Y-104973782D01*
X96861462Y-104923336D01*
X96837487Y-104852041D01*
X96806734Y-104766547D01*
X96771756Y-104673507D01*
X96735107Y-104579574D01*
X96699339Y-104491399D01*
X96667006Y-104415634D01*
X96640662Y-104358931D01*
X96622858Y-104327943D01*
X96621593Y-104326457D01*
X96610706Y-104317601D01*
X96592318Y-104308843D01*
X96562394Y-104299277D01*
X96516897Y-104287996D01*
X96451791Y-104274093D01*
X96363039Y-104256663D01*
X96246607Y-104234798D01*
X96098458Y-104207591D01*
X96066382Y-104201741D01*
X95971314Y-104183374D01*
X95888435Y-104165405D01*
X95825070Y-104149569D01*
X95788542Y-104137600D01*
X95783644Y-104134810D01*
X95775573Y-104110072D01*
X95769013Y-104054790D01*
X95763967Y-103975389D01*
X95760441Y-103878296D01*
X95758439Y-103769938D01*
X95757964Y-103656740D01*
X95759023Y-103545128D01*
X95761618Y-103441529D01*
X95765754Y-103352368D01*
X95771437Y-103284072D01*
X95778669Y-103243066D01*
X95783029Y-103234674D01*
X95807302Y-103226208D01*
X95862574Y-103212435D01*
X95943338Y-103194550D01*
X96044088Y-103173748D01*
X96159317Y-103151223D01*
X96222098Y-103139418D01*
X96341213Y-103117151D01*
X96447435Y-103096979D01*
X96535573Y-103079915D01*
X96600434Y-103066969D01*
X96636826Y-103059155D01*
X96642816Y-103057422D01*
X96652939Y-103037890D01*
X96674338Y-102990843D01*
X96704161Y-102923003D01*
X96739555Y-102841091D01*
X96777668Y-102751828D01*
X96815647Y-102661935D01*
X96850640Y-102578135D01*
X96879794Y-102507147D01*
X96900257Y-102455694D01*
X96909177Y-102430497D01*
X96909343Y-102429396D01*
X96899231Y-102409519D01*
X96870883Y-102363777D01*
X96827277Y-102296717D01*
X96771394Y-102212884D01*
X96706213Y-102116826D01*
X96668321Y-102061650D01*
X96599275Y-101960481D01*
X96537950Y-101868630D01*
X96487337Y-101790744D01*
X96450429Y-101731469D01*
X96430218Y-101695451D01*
X96427299Y-101687377D01*
X96439847Y-101668584D01*
X96474537Y-101628457D01*
X96526937Y-101571493D01*
X96592616Y-101502185D01*
X96667144Y-101425031D01*
X96746087Y-101344525D01*
X96825017Y-101265163D01*
X96899500Y-101191440D01*
X96965106Y-101127852D01*
X97017404Y-101078894D01*
X97051961Y-101049061D01*
X97063522Y-101041942D01*
X97082346Y-101051953D01*
X97127369Y-101080078D01*
X97194213Y-101123454D01*
X97278501Y-101179218D01*
X97375856Y-101244506D01*
X97449293Y-101294246D01*
X97820333Y-101546551D01*
X98438905Y-101291555D01*
X98522725Y-100846931D01*
X98606546Y-100402307D01*
X99531994Y-100402307D01*
X99615814Y-100846931D01*
X99615814Y-100846931D01*
G37*
X99615814Y-100846931D02*
X99699635Y-101291555D01*
X100008920Y-101419053D01*
X100318206Y-101546551D01*
X100689246Y-101294246D01*
X100793157Y-101223996D01*
X100887087Y-101161272D01*
X100966652Y-101108938D01*
X101027470Y-101069857D01*
X101065157Y-101046893D01*
X101075421Y-101041942D01*
X101093910Y-101054676D01*
X101133420Y-101089882D01*
X101189522Y-101143062D01*
X101257787Y-101209718D01*
X101333786Y-101285354D01*
X101413092Y-101365472D01*
X101491275Y-101445574D01*
X101563907Y-101521164D01*
X101626559Y-101587745D01*
X101674803Y-101640818D01*
X101704210Y-101675887D01*
X101711241Y-101687623D01*
X101701123Y-101709260D01*
X101672759Y-101756662D01*
X101629129Y-101825193D01*
X101573218Y-101910215D01*
X101508006Y-102007093D01*
X101470219Y-102062350D01*
X101401343Y-102163248D01*
X101340140Y-102254299D01*
X101289578Y-102330970D01*
X101252628Y-102388728D01*
X101232258Y-102423043D01*
X101229197Y-102430254D01*
X101236136Y-102450748D01*
X101255051Y-102498513D01*
X101283087Y-102566832D01*
X101317391Y-102648989D01*
X101355109Y-102738270D01*
X101393387Y-102827958D01*
X101429370Y-102911338D01*
X101460206Y-102981694D01*
X101483039Y-103032310D01*
X101495017Y-103056471D01*
X101495724Y-103057422D01*
X101514531Y-103062036D01*
X101564618Y-103072328D01*
X101640793Y-103087287D01*
X101737865Y-103105901D01*
X101850643Y-103127159D01*
X101916442Y-103139418D01*
X102036950Y-103162362D01*
X102145797Y-103184195D01*
X102237476Y-103203722D01*
X102306481Y-103219748D01*
X102347304Y-103231079D01*
X102355511Y-103234674D01*
X102363548Y-103259006D01*
X102370033Y-103313959D01*
X102374970Y-103393108D01*
X102378364Y-103490026D01*
X102380218Y-103598287D01*
X102380538Y-103711465D01*
X102379327Y-103823135D01*
X102376590Y-103926868D01*
X102372331Y-104016241D01*
X102366555Y-104084826D01*
X102359267Y-104126197D01*
X102354895Y-104134810D01*
X102328764Y-104145133D01*
X102273393Y-104159892D01*
X102196107Y-104177352D01*
X102104230Y-104195780D01*
X102072158Y-104201741D01*
X101917524Y-104230066D01*
X101795375Y-104252876D01*
X101701673Y-104271080D01*
X101632384Y-104285583D01*
X101583471Y-104297292D01*
X101550897Y-104307115D01*
X101530628Y-104315956D01*
X101518626Y-104324724D01*
X101516947Y-104326457D01*
X101500184Y-104354371D01*
X101474614Y-104408695D01*
X101442788Y-104482777D01*
X101407260Y-104569965D01*
X101370583Y-104663608D01*
X101335311Y-104757052D01*
X101303996Y-104843647D01*
X101279193Y-104916740D01*
X101263454Y-104969678D01*
X101259332Y-104995811D01*
X101259676Y-104996726D01*
X101273641Y-105018086D01*
X101305322Y-105065084D01*
X101351391Y-105132827D01*
X101408518Y-105216423D01*
X101473373Y-105310982D01*
X101491843Y-105337854D01*
X101557699Y-105435275D01*
X101615650Y-105524163D01*
X101662538Y-105599412D01*
X101695207Y-105655920D01*
X101710500Y-105688581D01*
X101711241Y-105692593D01*
X101698392Y-105713684D01*
X101662888Y-105755464D01*
X101609293Y-105813445D01*
X101542171Y-105883135D01*
X101466087Y-105960045D01*
X101385604Y-106039683D01*
X101305287Y-106117561D01*
X101229699Y-106189186D01*
X101163405Y-106250070D01*
X101110969Y-106295721D01*
X101076955Y-106321650D01*
X101067545Y-106325883D01*
X101045643Y-106315912D01*
X101000800Y-106289020D01*
X100940321Y-106249736D01*
X100893789Y-106218117D01*
X100809475Y-106160098D01*
X100709626Y-106091784D01*
X100609473Y-106023579D01*
X100555627Y-105987075D01*
X100373371Y-105863800D01*
X100220381Y-105946520D01*
X100150682Y-105982759D01*
X100091414Y-106010926D01*
X100051311Y-106026991D01*
X100041103Y-106029226D01*
X100028829Y-106012722D01*
X100004613Y-105966082D01*
X99970263Y-105893609D01*
X99927588Y-105799606D01*
X99878394Y-105688374D01*
X99824490Y-105564215D01*
X99767684Y-105431432D01*
X99709782Y-105294327D01*
X99652593Y-105157202D01*
X99597924Y-105024358D01*
X99547584Y-104900098D01*
X99503380Y-104788725D01*
X99467119Y-104694539D01*
X99440609Y-104621844D01*
X99425658Y-104574941D01*
X99423254Y-104558833D01*
X99442311Y-104538286D01*
X99484036Y-104504933D01*
X99539706Y-104465702D01*
X99544378Y-104462599D01*
X99688264Y-104347423D01*
X99804283Y-104213053D01*
X99891430Y-104063784D01*
X99948699Y-103903913D01*
X99975086Y-103737737D01*
X99969585Y-103569552D01*
X99931190Y-103403655D01*
X99858895Y-103244342D01*
X99837626Y-103209487D01*
X99726996Y-103068737D01*
X99596302Y-102955714D01*
X99450064Y-102871003D01*
X99292808Y-102815194D01*
X99129057Y-102788874D01*
X98963333Y-102792630D01*
X98800162Y-102827050D01*
X98644065Y-102892723D01*
X98499567Y-102990235D01*
X98454869Y-103029813D01*
X98341112Y-103153703D01*
X98258218Y-103284124D01*
X98201356Y-103430315D01*
X98169687Y-103575088D01*
X98161869Y-103737860D01*
X98187938Y-103901440D01*
X98245245Y-104060298D01*
X98331144Y-104208906D01*
X98442986Y-104341735D01*
X98578123Y-104453256D01*
X98595883Y-104465011D01*
X98652150Y-104503508D01*
X98694923Y-104536863D01*
X98715372Y-104558160D01*
X98715669Y-104558833D01*
X98711279Y-104581871D01*
X98693876Y-104634157D01*
X98665268Y-104711390D01*
X98627265Y-104809268D01*
X98581674Y-104923491D01*
X98530303Y-105049758D01*
X98474962Y-105183767D01*
X98417458Y-105321218D01*
X98359601Y-105457808D01*
X98303198Y-105589237D01*
X98250058Y-105711205D01*
X98201990Y-105819409D01*
X98160801Y-105909549D01*
X98128301Y-105977323D01*
X98106297Y-106018430D01*
X98097436Y-106029226D01*
X98070360Y-106020819D01*
X98019697Y-105998272D01*
X97954183Y-105965613D01*
X97918159Y-105946520D01*
X97765168Y-105863800D01*
X97582912Y-105987075D01*
X97489875Y-106050228D01*
X97388015Y-106119727D01*
X97292562Y-106185165D01*
X97244750Y-106218117D01*
X97177505Y-106263273D01*
X97120564Y-106299057D01*
X97081354Y-106320938D01*
X97068619Y-106325563D01*
X97050083Y-106313085D01*
X97009059Y-106278252D01*
X96949525Y-106224678D01*
X96875458Y-106155983D01*
X96790835Y-106075781D01*
X96737315Y-106024286D01*
X96643681Y-105932286D01*
X96562759Y-105849999D01*
X96497823Y-105780945D01*
X96452142Y-105728644D01*
X96428989Y-105696616D01*
X96426768Y-105690116D01*
X96437076Y-105665394D01*
X96465561Y-105615405D01*
X96509063Y-105545212D01*
X96564423Y-105459875D01*
X96628480Y-105364456D01*
X96646697Y-105337854D01*
X96713073Y-105241167D01*
X96772622Y-105154117D01*
X96822016Y-105081595D01*
X96857925Y-105028493D01*
X96877019Y-104999703D01*
X96878864Y-104996726D01*
X96876105Y-104973782D01*
X96861462Y-104923336D01*
X96837487Y-104852041D01*
X96806734Y-104766547D01*
X96771756Y-104673507D01*
X96735107Y-104579574D01*
X96699339Y-104491399D01*
X96667006Y-104415634D01*
X96640662Y-104358931D01*
X96622858Y-104327943D01*
X96621593Y-104326457D01*
X96610706Y-104317601D01*
X96592318Y-104308843D01*
X96562394Y-104299277D01*
X96516897Y-104287996D01*
X96451791Y-104274093D01*
X96363039Y-104256663D01*
X96246607Y-104234798D01*
X96098458Y-104207591D01*
X96066382Y-104201741D01*
X95971314Y-104183374D01*
X95888435Y-104165405D01*
X95825070Y-104149569D01*
X95788542Y-104137600D01*
X95783644Y-104134810D01*
X95775573Y-104110072D01*
X95769013Y-104054790D01*
X95763967Y-103975389D01*
X95760441Y-103878296D01*
X95758439Y-103769938D01*
X95757964Y-103656740D01*
X95759023Y-103545128D01*
X95761618Y-103441529D01*
X95765754Y-103352368D01*
X95771437Y-103284072D01*
X95778669Y-103243066D01*
X95783029Y-103234674D01*
X95807302Y-103226208D01*
X95862574Y-103212435D01*
X95943338Y-103194550D01*
X96044088Y-103173748D01*
X96159317Y-103151223D01*
X96222098Y-103139418D01*
X96341213Y-103117151D01*
X96447435Y-103096979D01*
X96535573Y-103079915D01*
X96600434Y-103066969D01*
X96636826Y-103059155D01*
X96642816Y-103057422D01*
X96652939Y-103037890D01*
X96674338Y-102990843D01*
X96704161Y-102923003D01*
X96739555Y-102841091D01*
X96777668Y-102751828D01*
X96815647Y-102661935D01*
X96850640Y-102578135D01*
X96879794Y-102507147D01*
X96900257Y-102455694D01*
X96909177Y-102430497D01*
X96909343Y-102429396D01*
X96899231Y-102409519D01*
X96870883Y-102363777D01*
X96827277Y-102296717D01*
X96771394Y-102212884D01*
X96706213Y-102116826D01*
X96668321Y-102061650D01*
X96599275Y-101960481D01*
X96537950Y-101868630D01*
X96487337Y-101790744D01*
X96450429Y-101731469D01*
X96430218Y-101695451D01*
X96427299Y-101687377D01*
X96439847Y-101668584D01*
X96474537Y-101628457D01*
X96526937Y-101571493D01*
X96592616Y-101502185D01*
X96667144Y-101425031D01*
X96746087Y-101344525D01*
X96825017Y-101265163D01*
X96899500Y-101191440D01*
X96965106Y-101127852D01*
X97017404Y-101078894D01*
X97051961Y-101049061D01*
X97063522Y-101041942D01*
X97082346Y-101051953D01*
X97127369Y-101080078D01*
X97194213Y-101123454D01*
X97278501Y-101179218D01*
X97375856Y-101244506D01*
X97449293Y-101294246D01*
X97820333Y-101546551D01*
X98438905Y-101291555D01*
X98522725Y-100846931D01*
X98606546Y-100402307D01*
X99531994Y-100402307D01*
X99615814Y-100846931D01*
G36*
X98781363Y-73734699D02*
X98803155Y-73741976D01*
X98821586Y-73758420D01*
X98836935Y-73787197D01*
X98849481Y-73831474D01*
X98859505Y-73894418D01*
X98867283Y-73979194D01*
X98873096Y-74088971D01*
X98877223Y-74226914D01*
X98879943Y-74396191D01*
X98881535Y-74599968D01*
X98882277Y-74841411D01*
X98882450Y-75123687D01*
X98882332Y-75449964D01*
X98882203Y-75823407D01*
X98882200Y-75882500D01*
X98882122Y-76257884D01*
X98881849Y-76585711D01*
X98881318Y-76869221D01*
X98880469Y-77111658D01*
X98879240Y-77316261D01*
X98877569Y-77486274D01*
X98875395Y-77624939D01*
X98872657Y-77735496D01*
X98869292Y-77821188D01*
X98865241Y-77885257D01*
X98860441Y-77930944D01*
X98854831Y-77961492D01*
X98848349Y-77980141D01*
X98842285Y-77988885D01*
X98831209Y-77995992D01*
X98811001Y-78002213D01*
X98778490Y-78007606D01*
X98730503Y-78012229D01*
X98663867Y-78016140D01*
X98575410Y-78019396D01*
X98461960Y-78022056D01*
X98320344Y-78024175D01*
X98147390Y-78025813D01*
X97939924Y-78027028D01*
X97694776Y-78027876D01*
X97408771Y-78028415D01*
X97078739Y-78028703D01*
X96701505Y-78028798D01*
X96646999Y-78028800D01*
X96263176Y-78028726D01*
X95926980Y-78028467D01*
X95635239Y-78027965D01*
X95384781Y-78027162D01*
X95172432Y-78026000D01*
X94995021Y-78024422D01*
X94849375Y-78022371D01*
X94732322Y-78019787D01*
X94640688Y-78016615D01*
X94571303Y-78012795D01*
X94520992Y-78008271D01*
X94486584Y-78002985D01*
X94464907Y-77996879D01*
X94452787Y-77989895D01*
X94451714Y-77988885D01*
X94444465Y-77977627D01*
X94438138Y-77957152D01*
X94432672Y-77924219D01*
X94428006Y-77875586D01*
X94424078Y-77808011D01*
X94420826Y-77718252D01*
X94418190Y-77603068D01*
X94416107Y-77459217D01*
X94414517Y-77283456D01*
X94413358Y-77072544D01*
X94412568Y-76823239D01*
X94412086Y-76532300D01*
X94411851Y-76196484D01*
X94411800Y-75882500D01*
X94411877Y-75507115D01*
X94412150Y-75179288D01*
X94412681Y-74895778D01*
X94413530Y-74653341D01*
X94414759Y-74448738D01*
X94415948Y-74327729D01*
X94691199Y-74327729D01*
X94701637Y-74352638D01*
X94727944Y-74406844D01*
X94741999Y-74434699D01*
X94752932Y-74457774D01*
X94762174Y-74483420D01*
X94769867Y-74515859D01*
X94776152Y-74559308D01*
X94781172Y-74617988D01*
X94785068Y-74696117D01*
X94787983Y-74797917D01*
X94790057Y-74927605D01*
X94791434Y-75089401D01*
X94792254Y-75287525D01*
X94792659Y-75526197D01*
X94792791Y-75809635D01*
X94792799Y-75946290D01*
X94792439Y-76209726D01*
X94791402Y-76458037D01*
X94789756Y-76686556D01*
X94787568Y-76890618D01*
X94784903Y-77065558D01*
X94781830Y-77206711D01*
X94778415Y-77309410D01*
X94774724Y-77368991D01*
X94772224Y-77382370D01*
X94747800Y-77422136D01*
X94721968Y-77476350D01*
X94692289Y-77546200D01*
X95218794Y-77545811D01*
X95373967Y-77544849D01*
X95508350Y-77542381D01*
X95614999Y-77538674D01*
X95686970Y-77533992D01*
X95717319Y-77528600D01*
X95717094Y-77526761D01*
X95687145Y-77492826D01*
X95651332Y-77434626D01*
X95647244Y-77426811D01*
X95632318Y-77389521D01*
X95621307Y-77339267D01*
X95613669Y-77268556D01*
X95608866Y-77169898D01*
X95606356Y-77035800D01*
X95605601Y-76858772D01*
X95605600Y-76848961D01*
X95606833Y-76671347D01*
X95610396Y-76528876D01*
X95616078Y-76425727D01*
X95623672Y-76366078D01*
X95630414Y-76352400D01*
X95659914Y-76371770D01*
X95697641Y-76418744D01*
X95699915Y-76422250D01*
X95740493Y-76479268D01*
X95774699Y-76517500D01*
X95805147Y-76554632D01*
X95845083Y-76616966D01*
X95858671Y-76640833D01*
X95900820Y-76707930D01*
X95963527Y-76796720D01*
X96034592Y-76890064D01*
X96048542Y-76907533D01*
X96156661Y-77050344D01*
X96247138Y-77186967D01*
X96315389Y-77309349D01*
X96356831Y-77409440D01*
X96367600Y-77467923D01*
X96367600Y-77546200D01*
X97494055Y-77546200D01*
X97481929Y-77532488D01*
X97637600Y-77532488D01*
X97661699Y-77536757D01*
X97728796Y-77540485D01*
X97831089Y-77543448D01*
X97960778Y-77545426D01*
X98110061Y-77546196D01*
X98120200Y-77546200D01*
X98296967Y-77545408D01*
X98428101Y-77542806D01*
X98518747Y-77538056D01*
X98574050Y-77530818D01*
X98599156Y-77520752D01*
X98601992Y-77514450D01*
X98587038Y-77470554D01*
X98563892Y-77433395D01*
X98554698Y-77414692D01*
X98547102Y-77382195D01*
X98540959Y-77331498D01*
X98536127Y-77258196D01*
X98532464Y-77157883D01*
X98529826Y-77026154D01*
X98528070Y-76858604D01*
X98527053Y-76650827D01*
X98526633Y-76398418D01*
X98526600Y-76284045D01*
X98526600Y-75184000D01*
X97661695Y-75184000D01*
X97700447Y-75258938D01*
X97710478Y-75284815D01*
X97718667Y-75323092D01*
X97725192Y-75378607D01*
X97730226Y-75456197D01*
X97733947Y-75560700D01*
X97736529Y-75696954D01*
X97738148Y-75869797D01*
X97738979Y-76084067D01*
X97739200Y-76326750D01*
X97739086Y-76578440D01*
X97738585Y-76784511D01*
X97737455Y-76950147D01*
X97735455Y-77080527D01*
X97732345Y-77180835D01*
X97727883Y-77256251D01*
X97721829Y-77311957D01*
X97713941Y-77353135D01*
X97703979Y-77384967D01*
X97691701Y-77412635D01*
X97688400Y-77419200D01*
X97657490Y-77482636D01*
X97639480Y-77525110D01*
X97637600Y-77532488D01*
X97481929Y-77532488D01*
X97432477Y-77476570D01*
X97388555Y-77427266D01*
X97360373Y-77396290D01*
X97358200Y-77394020D01*
X97300445Y-77330905D01*
X97228963Y-77246689D01*
X97153897Y-77154065D01*
X97085391Y-77065725D01*
X97033588Y-76994361D01*
X97013376Y-76962547D01*
X96973155Y-76898584D01*
X96909662Y-76807299D01*
X96831804Y-76700680D01*
X96748487Y-76590715D01*
X96668617Y-76489390D01*
X96606273Y-76414607D01*
X96545829Y-76337548D01*
X96489159Y-76253943D01*
X96484978Y-76247050D01*
X96357637Y-76048936D01*
X96261994Y-75918356D01*
X96192036Y-75827212D01*
X96273468Y-75739760D01*
X96343660Y-75660661D01*
X96433715Y-75553892D01*
X96533057Y-75432451D01*
X96631107Y-75309339D01*
X96717289Y-75197555D01*
X96746151Y-75158815D01*
X97050941Y-74778892D01*
X97290279Y-74521787D01*
X97489059Y-74320400D01*
X96943747Y-74320400D01*
X96758550Y-74320523D01*
X96617998Y-74321861D01*
X96515937Y-74325867D01*
X96446212Y-74333993D01*
X96402669Y-74347691D01*
X96379153Y-74368416D01*
X96369511Y-74397618D01*
X96367586Y-74436751D01*
X96367600Y-74456390D01*
X96352012Y-74509842D01*
X96312941Y-74577121D01*
X96295299Y-74600362D01*
X96236652Y-74677668D01*
X96173890Y-74768586D01*
X96151802Y-74803000D01*
X96108552Y-74869764D01*
X96074912Y-74916931D01*
X96063239Y-74930000D01*
X96033445Y-74959339D01*
X95984245Y-75015018D01*
X95924522Y-75086108D01*
X95863162Y-75161681D01*
X95809047Y-75230808D01*
X95771063Y-75282561D01*
X95758000Y-75305483D01*
X95741182Y-75334974D01*
X95699146Y-75382717D01*
X95681799Y-75399900D01*
X95605599Y-75472904D01*
X95605600Y-75053088D01*
X95607193Y-74870302D01*
X95612895Y-74727476D01*
X95624093Y-74613840D01*
X95642172Y-74518629D01*
X95668518Y-74431075D01*
X95694164Y-74364850D01*
X95697394Y-74349771D01*
X95688649Y-74338538D01*
X95661705Y-74330591D01*
X95610338Y-74325367D01*
X95528324Y-74322303D01*
X95409439Y-74320838D01*
X95247460Y-74320410D01*
X95201917Y-74320400D01*
X95047083Y-74320746D01*
X94911122Y-74321712D01*
X94801617Y-74323190D01*
X94726151Y-74325071D01*
X94692308Y-74327245D01*
X94691199Y-74327729D01*
X94415948Y-74327729D01*
X94416430Y-74278725D01*
X94418604Y-74140060D01*
X94421342Y-74029503D01*
X94424707Y-73943811D01*
X94428758Y-73879742D01*
X94433558Y-73834055D01*
X94439168Y-73803507D01*
X94445650Y-73784858D01*
X94451714Y-73776114D01*
X94464178Y-73767934D01*
X94486437Y-73760938D01*
X94522191Y-73755034D01*
X94575141Y-73750133D01*
X94648988Y-73746144D01*
X94747431Y-73742978D01*
X94874173Y-73740544D01*
X95032913Y-73738752D01*
X95227353Y-73737511D01*
X95461193Y-73736733D01*
X95738135Y-73736326D01*
X96061878Y-73736200D01*
X97688400Y-73736200D01*
X97688400Y-73832418D01*
X97708479Y-73948335D01*
X97761525Y-74067000D01*
X97836754Y-74167991D01*
X97889006Y-74212244D01*
X98002546Y-74259370D01*
X98133500Y-74269636D01*
X98267628Y-74245918D01*
X98390690Y-74191089D01*
X98488448Y-74108023D01*
X98503800Y-74088147D01*
X98550806Y-73987428D01*
X98572439Y-73871877D01*
X98583690Y-73736199D01*
X98693030Y-73736200D01*
X98726580Y-73734977D01*
X98755931Y-73733421D01*
X98781363Y-73734699D01*
X98781363Y-73734699D01*
G37*
X98781363Y-73734699D02*
X98803155Y-73741976D01*
X98821586Y-73758420D01*
X98836935Y-73787197D01*
X98849481Y-73831474D01*
X98859505Y-73894418D01*
X98867283Y-73979194D01*
X98873096Y-74088971D01*
X98877223Y-74226914D01*
X98879943Y-74396191D01*
X98881535Y-74599968D01*
X98882277Y-74841411D01*
X98882450Y-75123687D01*
X98882332Y-75449964D01*
X98882203Y-75823407D01*
X98882200Y-75882500D01*
X98882122Y-76257884D01*
X98881849Y-76585711D01*
X98881318Y-76869221D01*
X98880469Y-77111658D01*
X98879240Y-77316261D01*
X98877569Y-77486274D01*
X98875395Y-77624939D01*
X98872657Y-77735496D01*
X98869292Y-77821188D01*
X98865241Y-77885257D01*
X98860441Y-77930944D01*
X98854831Y-77961492D01*
X98848349Y-77980141D01*
X98842285Y-77988885D01*
X98831209Y-77995992D01*
X98811001Y-78002213D01*
X98778490Y-78007606D01*
X98730503Y-78012229D01*
X98663867Y-78016140D01*
X98575410Y-78019396D01*
X98461960Y-78022056D01*
X98320344Y-78024175D01*
X98147390Y-78025813D01*
X97939924Y-78027028D01*
X97694776Y-78027876D01*
X97408771Y-78028415D01*
X97078739Y-78028703D01*
X96701505Y-78028798D01*
X96646999Y-78028800D01*
X96263176Y-78028726D01*
X95926980Y-78028467D01*
X95635239Y-78027965D01*
X95384781Y-78027162D01*
X95172432Y-78026000D01*
X94995021Y-78024422D01*
X94849375Y-78022371D01*
X94732322Y-78019787D01*
X94640688Y-78016615D01*
X94571303Y-78012795D01*
X94520992Y-78008271D01*
X94486584Y-78002985D01*
X94464907Y-77996879D01*
X94452787Y-77989895D01*
X94451714Y-77988885D01*
X94444465Y-77977627D01*
X94438138Y-77957152D01*
X94432672Y-77924219D01*
X94428006Y-77875586D01*
X94424078Y-77808011D01*
X94420826Y-77718252D01*
X94418190Y-77603068D01*
X94416107Y-77459217D01*
X94414517Y-77283456D01*
X94413358Y-77072544D01*
X94412568Y-76823239D01*
X94412086Y-76532300D01*
X94411851Y-76196484D01*
X94411800Y-75882500D01*
X94411877Y-75507115D01*
X94412150Y-75179288D01*
X94412681Y-74895778D01*
X94413530Y-74653341D01*
X94414759Y-74448738D01*
X94415948Y-74327729D01*
X94691199Y-74327729D01*
X94701637Y-74352638D01*
X94727944Y-74406844D01*
X94741999Y-74434699D01*
X94752932Y-74457774D01*
X94762174Y-74483420D01*
X94769867Y-74515859D01*
X94776152Y-74559308D01*
X94781172Y-74617988D01*
X94785068Y-74696117D01*
X94787983Y-74797917D01*
X94790057Y-74927605D01*
X94791434Y-75089401D01*
X94792254Y-75287525D01*
X94792659Y-75526197D01*
X94792791Y-75809635D01*
X94792799Y-75946290D01*
X94792439Y-76209726D01*
X94791402Y-76458037D01*
X94789756Y-76686556D01*
X94787568Y-76890618D01*
X94784903Y-77065558D01*
X94781830Y-77206711D01*
X94778415Y-77309410D01*
X94774724Y-77368991D01*
X94772224Y-77382370D01*
X94747800Y-77422136D01*
X94721968Y-77476350D01*
X94692289Y-77546200D01*
X95218794Y-77545811D01*
X95373967Y-77544849D01*
X95508350Y-77542381D01*
X95614999Y-77538674D01*
X95686970Y-77533992D01*
X95717319Y-77528600D01*
X95717094Y-77526761D01*
X95687145Y-77492826D01*
X95651332Y-77434626D01*
X95647244Y-77426811D01*
X95632318Y-77389521D01*
X95621307Y-77339267D01*
X95613669Y-77268556D01*
X95608866Y-77169898D01*
X95606356Y-77035800D01*
X95605601Y-76858772D01*
X95605600Y-76848961D01*
X95606833Y-76671347D01*
X95610396Y-76528876D01*
X95616078Y-76425727D01*
X95623672Y-76366078D01*
X95630414Y-76352400D01*
X95659914Y-76371770D01*
X95697641Y-76418744D01*
X95699915Y-76422250D01*
X95740493Y-76479268D01*
X95774699Y-76517500D01*
X95805147Y-76554632D01*
X95845083Y-76616966D01*
X95858671Y-76640833D01*
X95900820Y-76707930D01*
X95963527Y-76796720D01*
X96034592Y-76890064D01*
X96048542Y-76907533D01*
X96156661Y-77050344D01*
X96247138Y-77186967D01*
X96315389Y-77309349D01*
X96356831Y-77409440D01*
X96367600Y-77467923D01*
X96367600Y-77546200D01*
X97494055Y-77546200D01*
X97481929Y-77532488D01*
X97637600Y-77532488D01*
X97661699Y-77536757D01*
X97728796Y-77540485D01*
X97831089Y-77543448D01*
X97960778Y-77545426D01*
X98110061Y-77546196D01*
X98120200Y-77546200D01*
X98296967Y-77545408D01*
X98428101Y-77542806D01*
X98518747Y-77538056D01*
X98574050Y-77530818D01*
X98599156Y-77520752D01*
X98601992Y-77514450D01*
X98587038Y-77470554D01*
X98563892Y-77433395D01*
X98554698Y-77414692D01*
X98547102Y-77382195D01*
X98540959Y-77331498D01*
X98536127Y-77258196D01*
X98532464Y-77157883D01*
X98529826Y-77026154D01*
X98528070Y-76858604D01*
X98527053Y-76650827D01*
X98526633Y-76398418D01*
X98526600Y-76284045D01*
X98526600Y-75184000D01*
X97661695Y-75184000D01*
X97700447Y-75258938D01*
X97710478Y-75284815D01*
X97718667Y-75323092D01*
X97725192Y-75378607D01*
X97730226Y-75456197D01*
X97733947Y-75560700D01*
X97736529Y-75696954D01*
X97738148Y-75869797D01*
X97738979Y-76084067D01*
X97739200Y-76326750D01*
X97739086Y-76578440D01*
X97738585Y-76784511D01*
X97737455Y-76950147D01*
X97735455Y-77080527D01*
X97732345Y-77180835D01*
X97727883Y-77256251D01*
X97721829Y-77311957D01*
X97713941Y-77353135D01*
X97703979Y-77384967D01*
X97691701Y-77412635D01*
X97688400Y-77419200D01*
X97657490Y-77482636D01*
X97639480Y-77525110D01*
X97637600Y-77532488D01*
X97481929Y-77532488D01*
X97432477Y-77476570D01*
X97388555Y-77427266D01*
X97360373Y-77396290D01*
X97358200Y-77394020D01*
X97300445Y-77330905D01*
X97228963Y-77246689D01*
X97153897Y-77154065D01*
X97085391Y-77065725D01*
X97033588Y-76994361D01*
X97013376Y-76962547D01*
X96973155Y-76898584D01*
X96909662Y-76807299D01*
X96831804Y-76700680D01*
X96748487Y-76590715D01*
X96668617Y-76489390D01*
X96606273Y-76414607D01*
X96545829Y-76337548D01*
X96489159Y-76253943D01*
X96484978Y-76247050D01*
X96357637Y-76048936D01*
X96261994Y-75918356D01*
X96192036Y-75827212D01*
X96273468Y-75739760D01*
X96343660Y-75660661D01*
X96433715Y-75553892D01*
X96533057Y-75432451D01*
X96631107Y-75309339D01*
X96717289Y-75197555D01*
X96746151Y-75158815D01*
X97050941Y-74778892D01*
X97290279Y-74521787D01*
X97489059Y-74320400D01*
X96943747Y-74320400D01*
X96758550Y-74320523D01*
X96617998Y-74321861D01*
X96515937Y-74325867D01*
X96446212Y-74333993D01*
X96402669Y-74347691D01*
X96379153Y-74368416D01*
X96369511Y-74397618D01*
X96367586Y-74436751D01*
X96367600Y-74456390D01*
X96352012Y-74509842D01*
X96312941Y-74577121D01*
X96295299Y-74600362D01*
X96236652Y-74677668D01*
X96173890Y-74768586D01*
X96151802Y-74803000D01*
X96108552Y-74869764D01*
X96074912Y-74916931D01*
X96063239Y-74930000D01*
X96033445Y-74959339D01*
X95984245Y-75015018D01*
X95924522Y-75086108D01*
X95863162Y-75161681D01*
X95809047Y-75230808D01*
X95771063Y-75282561D01*
X95758000Y-75305483D01*
X95741182Y-75334974D01*
X95699146Y-75382717D01*
X95681799Y-75399900D01*
X95605599Y-75472904D01*
X95605600Y-75053088D01*
X95607193Y-74870302D01*
X95612895Y-74727476D01*
X95624093Y-74613840D01*
X95642172Y-74518629D01*
X95668518Y-74431075D01*
X95694164Y-74364850D01*
X95697394Y-74349771D01*
X95688649Y-74338538D01*
X95661705Y-74330591D01*
X95610338Y-74325367D01*
X95528324Y-74322303D01*
X95409439Y-74320838D01*
X95247460Y-74320410D01*
X95201917Y-74320400D01*
X95047083Y-74320746D01*
X94911122Y-74321712D01*
X94801617Y-74323190D01*
X94726151Y-74325071D01*
X94692308Y-74327245D01*
X94691199Y-74327729D01*
X94415948Y-74327729D01*
X94416430Y-74278725D01*
X94418604Y-74140060D01*
X94421342Y-74029503D01*
X94424707Y-73943811D01*
X94428758Y-73879742D01*
X94433558Y-73834055D01*
X94439168Y-73803507D01*
X94445650Y-73784858D01*
X94451714Y-73776114D01*
X94464178Y-73767934D01*
X94486437Y-73760938D01*
X94522191Y-73755034D01*
X94575141Y-73750133D01*
X94648988Y-73746144D01*
X94747431Y-73742978D01*
X94874173Y-73740544D01*
X95032913Y-73738752D01*
X95227353Y-73737511D01*
X95461193Y-73736733D01*
X95738135Y-73736326D01*
X96061878Y-73736200D01*
X97688400Y-73736200D01*
X97688400Y-73832418D01*
X97708479Y-73948335D01*
X97761525Y-74067000D01*
X97836754Y-74167991D01*
X97889006Y-74212244D01*
X98002546Y-74259370D01*
X98133500Y-74269636D01*
X98267628Y-74245918D01*
X98390690Y-74191089D01*
X98488448Y-74108023D01*
X98503800Y-74088147D01*
X98550806Y-73987428D01*
X98572439Y-73871877D01*
X98583690Y-73736199D01*
X98693030Y-73736200D01*
X98726580Y-73734977D01*
X98755931Y-73733421D01*
X98781363Y-73734699D01*
G36*
X100874676Y-74298341D02*
X100915911Y-74308143D01*
X100986879Y-74330829D01*
X101082173Y-74366963D01*
X101189521Y-74411187D01*
X101296653Y-74458147D01*
X101391298Y-74502487D01*
X101461185Y-74538851D01*
X101492064Y-74559598D01*
X101482374Y-74582582D01*
X101450036Y-74637508D01*
X101401464Y-74714651D01*
X101343074Y-74804288D01*
X101281281Y-74896695D01*
X101222502Y-74982151D01*
X101173152Y-75050930D01*
X101140677Y-75092159D01*
X101112236Y-75089624D01*
X101060081Y-75059335D01*
X101016407Y-75025312D01*
X100871298Y-74933226D01*
X100706487Y-74887559D01*
X100548098Y-74886284D01*
X100377398Y-74926902D01*
X100233259Y-75010127D01*
X100116245Y-75134925D01*
X100026919Y-75300260D01*
X99965843Y-75505097D01*
X99933581Y-75748401D01*
X99930426Y-76022200D01*
X99951867Y-76269826D01*
X99996984Y-76475741D01*
X100067630Y-76644105D01*
X100165657Y-76779080D01*
X100292917Y-76884826D01*
X100322579Y-76903151D01*
X100399773Y-76943415D01*
X100471238Y-76964876D01*
X100559027Y-76972676D01*
X100622100Y-76973009D01*
X100781817Y-76957354D01*
X100920547Y-76909392D01*
X101054625Y-76822613D01*
X101104846Y-76780663D01*
X101159092Y-76736162D01*
X101195414Y-76712225D01*
X101203055Y-76710969D01*
X101225216Y-76744288D01*
X101264498Y-76808333D01*
X101315230Y-76893348D01*
X101371743Y-76989575D01*
X101428366Y-77087257D01*
X101479431Y-77176636D01*
X101519265Y-77247956D01*
X101542201Y-77291460D01*
X101545453Y-77300180D01*
X101520218Y-77313554D01*
X101462344Y-77344253D01*
X101384062Y-77385786D01*
X101379457Y-77388230D01*
X101217147Y-77468612D01*
X101074212Y-77523928D01*
X100932272Y-77558986D01*
X100772947Y-77578593D01*
X100622100Y-77586340D01*
X100429285Y-77587569D01*
X100277250Y-77578113D01*
X100186436Y-77562565D01*
X99954201Y-77477718D01*
X99741159Y-77348718D01*
X99551366Y-77179906D01*
X99388878Y-76975623D01*
X99257752Y-76740209D01*
X99162044Y-76478005D01*
X99157548Y-76461632D01*
X99121250Y-76275026D01*
X99102345Y-76060920D01*
X99100823Y-75837257D01*
X99116669Y-75621982D01*
X99149872Y-75433040D01*
X99158297Y-75401044D01*
X99260061Y-75127435D01*
X99402732Y-74881468D01*
X99583804Y-74666653D01*
X99800770Y-74486495D01*
X99822000Y-74472082D01*
X99999644Y-74379504D01*
X100207698Y-74313748D01*
X100432198Y-74276907D01*
X100659178Y-74271073D01*
X100874676Y-74298341D01*
X100874676Y-74298341D01*
G37*
X100874676Y-74298341D02*
X100915911Y-74308143D01*
X100986879Y-74330829D01*
X101082173Y-74366963D01*
X101189521Y-74411187D01*
X101296653Y-74458147D01*
X101391298Y-74502487D01*
X101461185Y-74538851D01*
X101492064Y-74559598D01*
X101482374Y-74582582D01*
X101450036Y-74637508D01*
X101401464Y-74714651D01*
X101343074Y-74804288D01*
X101281281Y-74896695D01*
X101222502Y-74982151D01*
X101173152Y-75050930D01*
X101140677Y-75092159D01*
X101112236Y-75089624D01*
X101060081Y-75059335D01*
X101016407Y-75025312D01*
X100871298Y-74933226D01*
X100706487Y-74887559D01*
X100548098Y-74886284D01*
X100377398Y-74926902D01*
X100233259Y-75010127D01*
X100116245Y-75134925D01*
X100026919Y-75300260D01*
X99965843Y-75505097D01*
X99933581Y-75748401D01*
X99930426Y-76022200D01*
X99951867Y-76269826D01*
X99996984Y-76475741D01*
X100067630Y-76644105D01*
X100165657Y-76779080D01*
X100292917Y-76884826D01*
X100322579Y-76903151D01*
X100399773Y-76943415D01*
X100471238Y-76964876D01*
X100559027Y-76972676D01*
X100622100Y-76973009D01*
X100781817Y-76957354D01*
X100920547Y-76909392D01*
X101054625Y-76822613D01*
X101104846Y-76780663D01*
X101159092Y-76736162D01*
X101195414Y-76712225D01*
X101203055Y-76710969D01*
X101225216Y-76744288D01*
X101264498Y-76808333D01*
X101315230Y-76893348D01*
X101371743Y-76989575D01*
X101428366Y-77087257D01*
X101479431Y-77176636D01*
X101519265Y-77247956D01*
X101542201Y-77291460D01*
X101545453Y-77300180D01*
X101520218Y-77313554D01*
X101462344Y-77344253D01*
X101384062Y-77385786D01*
X101379457Y-77388230D01*
X101217147Y-77468612D01*
X101074212Y-77523928D01*
X100932272Y-77558986D01*
X100772947Y-77578593D01*
X100622100Y-77586340D01*
X100429285Y-77587569D01*
X100277250Y-77578113D01*
X100186436Y-77562565D01*
X99954201Y-77477718D01*
X99741159Y-77348718D01*
X99551366Y-77179906D01*
X99388878Y-76975623D01*
X99257752Y-76740209D01*
X99162044Y-76478005D01*
X99157548Y-76461632D01*
X99121250Y-76275026D01*
X99102345Y-76060920D01*
X99100823Y-75837257D01*
X99116669Y-75621982D01*
X99149872Y-75433040D01*
X99158297Y-75401044D01*
X99260061Y-75127435D01*
X99402732Y-74881468D01*
X99583804Y-74666653D01*
X99800770Y-74486495D01*
X99822000Y-74472082D01*
X99999644Y-74379504D01*
X100207698Y-74313748D01*
X100432198Y-74276907D01*
X100659178Y-74271073D01*
X100874676Y-74298341D01*
G36*
X102957620Y-75144359D02*
X103133576Y-75184264D01*
X103252513Y-75228895D01*
X103345098Y-75284778D01*
X103427779Y-75358360D01*
X103480917Y-75413188D01*
X103524396Y-75464829D01*
X103559291Y-75518992D01*
X103586676Y-75581387D01*
X103607624Y-75657723D01*
X103623209Y-75753710D01*
X103634504Y-75875058D01*
X103642585Y-76027475D01*
X103648523Y-76216670D01*
X103653394Y-76448355D01*
X103655549Y-76569477D01*
X103659807Y-76801434D01*
X103663930Y-76988051D01*
X103668276Y-77134785D01*
X103673203Y-77247095D01*
X103679068Y-77330437D01*
X103686231Y-77390269D01*
X103695049Y-77432049D01*
X103705880Y-77461234D01*
X103715135Y-77477527D01*
X103760171Y-77546200D01*
X102949418Y-77546200D01*
X102933500Y-77392698D01*
X102834102Y-77460483D01*
X102677946Y-77539254D01*
X102497092Y-77585178D01*
X102307295Y-77596137D01*
X102124309Y-77570011D01*
X102090834Y-77560436D01*
X101904429Y-77478112D01*
X101753520Y-77360585D01*
X101640652Y-77211321D01*
X101568375Y-77033786D01*
X101539235Y-76831443D01*
X101538788Y-76809600D01*
X101539452Y-76780545D01*
X102267707Y-76780545D01*
X102271963Y-76869884D01*
X102282090Y-76900502D01*
X102344779Y-76981089D01*
X102439723Y-77035481D01*
X102553327Y-77059352D01*
X102671996Y-77048378D01*
X102709596Y-77036508D01*
X102796783Y-76994968D01*
X102852424Y-76942366D01*
X102882894Y-76867280D01*
X102894566Y-76758289D01*
X102895400Y-76703572D01*
X102895400Y-76504800D01*
X102729484Y-76504800D01*
X102565747Y-76519824D01*
X102427128Y-76562733D01*
X102331676Y-76623555D01*
X102289069Y-76690298D01*
X102267707Y-76780545D01*
X101539452Y-76780545D01*
X101541403Y-76695273D01*
X101555051Y-76607974D01*
X101584550Y-76524311D01*
X101607882Y-76474215D01*
X101712223Y-76317636D01*
X101856604Y-76191758D01*
X102040369Y-76096878D01*
X102262862Y-76033291D01*
X102523426Y-76001295D01*
X102663794Y-75997241D01*
X102902088Y-75996800D01*
X102888196Y-75893228D01*
X102852262Y-75779960D01*
X102780344Y-75701507D01*
X102673724Y-75658163D01*
X102533687Y-75650223D01*
X102361516Y-75677980D01*
X102184509Y-75732144D01*
X102100051Y-75759413D01*
X102035058Y-75774373D01*
X102003195Y-75773908D01*
X102002862Y-75773589D01*
X101985276Y-75741872D01*
X101955180Y-75675912D01*
X101917902Y-75588745D01*
X101878773Y-75493404D01*
X101843122Y-75402925D01*
X101816280Y-75330340D01*
X101803575Y-75288685D01*
X101803200Y-75285302D01*
X101824990Y-75266617D01*
X101868447Y-75260200D01*
X101920031Y-75254037D01*
X102006850Y-75237424D01*
X102115103Y-75213175D01*
X102192297Y-75194173D01*
X102458096Y-75143360D01*
X102716776Y-75126718D01*
X102957620Y-75144359D01*
X102957620Y-75144359D01*
G37*
X102957620Y-75144359D02*
X103133576Y-75184264D01*
X103252513Y-75228895D01*
X103345098Y-75284778D01*
X103427779Y-75358360D01*
X103480917Y-75413188D01*
X103524396Y-75464829D01*
X103559291Y-75518992D01*
X103586676Y-75581387D01*
X103607624Y-75657723D01*
X103623209Y-75753710D01*
X103634504Y-75875058D01*
X103642585Y-76027475D01*
X103648523Y-76216670D01*
X103653394Y-76448355D01*
X103655549Y-76569477D01*
X103659807Y-76801434D01*
X103663930Y-76988051D01*
X103668276Y-77134785D01*
X103673203Y-77247095D01*
X103679068Y-77330437D01*
X103686231Y-77390269D01*
X103695049Y-77432049D01*
X103705880Y-77461234D01*
X103715135Y-77477527D01*
X103760171Y-77546200D01*
X102949418Y-77546200D01*
X102933500Y-77392698D01*
X102834102Y-77460483D01*
X102677946Y-77539254D01*
X102497092Y-77585178D01*
X102307295Y-77596137D01*
X102124309Y-77570011D01*
X102090834Y-77560436D01*
X101904429Y-77478112D01*
X101753520Y-77360585D01*
X101640652Y-77211321D01*
X101568375Y-77033786D01*
X101539235Y-76831443D01*
X101538788Y-76809600D01*
X101539452Y-76780545D01*
X102267707Y-76780545D01*
X102271963Y-76869884D01*
X102282090Y-76900502D01*
X102344779Y-76981089D01*
X102439723Y-77035481D01*
X102553327Y-77059352D01*
X102671996Y-77048378D01*
X102709596Y-77036508D01*
X102796783Y-76994968D01*
X102852424Y-76942366D01*
X102882894Y-76867280D01*
X102894566Y-76758289D01*
X102895400Y-76703572D01*
X102895400Y-76504800D01*
X102729484Y-76504800D01*
X102565747Y-76519824D01*
X102427128Y-76562733D01*
X102331676Y-76623555D01*
X102289069Y-76690298D01*
X102267707Y-76780545D01*
X101539452Y-76780545D01*
X101541403Y-76695273D01*
X101555051Y-76607974D01*
X101584550Y-76524311D01*
X101607882Y-76474215D01*
X101712223Y-76317636D01*
X101856604Y-76191758D01*
X102040369Y-76096878D01*
X102262862Y-76033291D01*
X102523426Y-76001295D01*
X102663794Y-75997241D01*
X102902088Y-75996800D01*
X102888196Y-75893228D01*
X102852262Y-75779960D01*
X102780344Y-75701507D01*
X102673724Y-75658163D01*
X102533687Y-75650223D01*
X102361516Y-75677980D01*
X102184509Y-75732144D01*
X102100051Y-75759413D01*
X102035058Y-75774373D01*
X102003195Y-75773908D01*
X102002862Y-75773589D01*
X101985276Y-75741872D01*
X101955180Y-75675912D01*
X101917902Y-75588745D01*
X101878773Y-75493404D01*
X101843122Y-75402925D01*
X101816280Y-75330340D01*
X101803575Y-75288685D01*
X101803200Y-75285302D01*
X101824990Y-75266617D01*
X101868447Y-75260200D01*
X101920031Y-75254037D01*
X102006850Y-75237424D01*
X102115103Y-75213175D01*
X102192297Y-75194173D01*
X102458096Y-75143360D01*
X102716776Y-75126718D01*
X102957620Y-75144359D01*
G36*
X106177464Y-75749150D02*
X106179006Y-76079052D01*
X106180566Y-76361981D01*
X106182261Y-76601761D01*
X106184208Y-76802219D01*
X106186523Y-76967181D01*
X106189322Y-77100472D01*
X106192724Y-77205918D01*
X106196844Y-77287345D01*
X106201799Y-77348580D01*
X106207707Y-77393447D01*
X106214683Y-77425774D01*
X106222845Y-77449385D01*
X106229802Y-77463650D01*
X106274904Y-77546200D01*
X105460800Y-77546200D01*
X105460800Y-77470000D01*
X105457441Y-77416452D01*
X105449351Y-77393804D01*
X105449227Y-77393800D01*
X105423109Y-77406784D01*
X105370726Y-77439537D01*
X105343903Y-77457421D01*
X105211603Y-77524647D01*
X105051937Y-77571589D01*
X104883022Y-77595338D01*
X104722977Y-77592984D01*
X104622600Y-77573247D01*
X104438538Y-77491939D01*
X104273410Y-77370200D01*
X104138517Y-77217510D01*
X104077155Y-77115694D01*
X104009731Y-76958029D01*
X103965855Y-76791951D01*
X103942714Y-76603403D01*
X103937241Y-76416913D01*
X103938002Y-76403200D01*
X104738136Y-76403200D01*
X104742634Y-76578895D01*
X104756249Y-76712414D01*
X104781477Y-76811949D01*
X104820812Y-76885691D01*
X104876751Y-76941831D01*
X104909016Y-76964170D01*
X105015421Y-77002164D01*
X105141144Y-76999176D01*
X105276203Y-76955728D01*
X105300499Y-76943773D01*
X105397300Y-76893557D01*
X105404142Y-76344487D01*
X105410985Y-75795416D01*
X105343891Y-75751454D01*
X105280360Y-75724707D01*
X105190668Y-75704044D01*
X105132633Y-75697065D01*
X105044255Y-75693970D01*
X104985291Y-75704095D01*
X104934985Y-75732683D01*
X104908927Y-75753568D01*
X104841583Y-75827167D01*
X104792664Y-75922737D01*
X104760341Y-76047234D01*
X104742787Y-76207611D01*
X104738136Y-76403200D01*
X103938002Y-76403200D01*
X103953675Y-76120965D01*
X104001542Y-75861134D01*
X104080171Y-75638509D01*
X104188889Y-75454180D01*
X104327025Y-75309237D01*
X104493906Y-75204768D01*
X104688860Y-75141864D01*
X104728170Y-75134835D01*
X104843703Y-75126575D01*
X104971063Y-75133429D01*
X105097661Y-75152852D01*
X105210912Y-75182299D01*
X105298228Y-75219225D01*
X105346262Y-75259815D01*
X105367127Y-75284282D01*
X105383170Y-75279192D01*
X105394925Y-75240657D01*
X105402924Y-75164788D01*
X105407702Y-75047701D01*
X105409793Y-74885506D01*
X105410000Y-74795670D01*
X105409477Y-74621573D01*
X105407469Y-74490217D01*
X105403311Y-74393550D01*
X105396343Y-74323519D01*
X105385901Y-74272073D01*
X105371322Y-74231158D01*
X105361938Y-74211470D01*
X105313876Y-74117200D01*
X106170228Y-74117200D01*
X106177464Y-75749150D01*
X106177464Y-75749150D01*
G37*
X106177464Y-75749150D02*
X106179006Y-76079052D01*
X106180566Y-76361981D01*
X106182261Y-76601761D01*
X106184208Y-76802219D01*
X106186523Y-76967181D01*
X106189322Y-77100472D01*
X106192724Y-77205918D01*
X106196844Y-77287345D01*
X106201799Y-77348580D01*
X106207707Y-77393447D01*
X106214683Y-77425774D01*
X106222845Y-77449385D01*
X106229802Y-77463650D01*
X106274904Y-77546200D01*
X105460800Y-77546200D01*
X105460800Y-77470000D01*
X105457441Y-77416452D01*
X105449351Y-77393804D01*
X105449227Y-77393800D01*
X105423109Y-77406784D01*
X105370726Y-77439537D01*
X105343903Y-77457421D01*
X105211603Y-77524647D01*
X105051937Y-77571589D01*
X104883022Y-77595338D01*
X104722977Y-77592984D01*
X104622600Y-77573247D01*
X104438538Y-77491939D01*
X104273410Y-77370200D01*
X104138517Y-77217510D01*
X104077155Y-77115694D01*
X104009731Y-76958029D01*
X103965855Y-76791951D01*
X103942714Y-76603403D01*
X103937241Y-76416913D01*
X103938002Y-76403200D01*
X104738136Y-76403200D01*
X104742634Y-76578895D01*
X104756249Y-76712414D01*
X104781477Y-76811949D01*
X104820812Y-76885691D01*
X104876751Y-76941831D01*
X104909016Y-76964170D01*
X105015421Y-77002164D01*
X105141144Y-76999176D01*
X105276203Y-76955728D01*
X105300499Y-76943773D01*
X105397300Y-76893557D01*
X105404142Y-76344487D01*
X105410985Y-75795416D01*
X105343891Y-75751454D01*
X105280360Y-75724707D01*
X105190668Y-75704044D01*
X105132633Y-75697065D01*
X105044255Y-75693970D01*
X104985291Y-75704095D01*
X104934985Y-75732683D01*
X104908927Y-75753568D01*
X104841583Y-75827167D01*
X104792664Y-75922737D01*
X104760341Y-76047234D01*
X104742787Y-76207611D01*
X104738136Y-76403200D01*
X103938002Y-76403200D01*
X103953675Y-76120965D01*
X104001542Y-75861134D01*
X104080171Y-75638509D01*
X104188889Y-75454180D01*
X104327025Y-75309237D01*
X104493906Y-75204768D01*
X104688860Y-75141864D01*
X104728170Y-75134835D01*
X104843703Y-75126575D01*
X104971063Y-75133429D01*
X105097661Y-75152852D01*
X105210912Y-75182299D01*
X105298228Y-75219225D01*
X105346262Y-75259815D01*
X105367127Y-75284282D01*
X105383170Y-75279192D01*
X105394925Y-75240657D01*
X105402924Y-75164788D01*
X105407702Y-75047701D01*
X105409793Y-74885506D01*
X105410000Y-74795670D01*
X105409477Y-74621573D01*
X105407469Y-74490217D01*
X105403311Y-74393550D01*
X105396343Y-74323519D01*
X105385901Y-74272073D01*
X105371322Y-74231158D01*
X105361938Y-74211470D01*
X105313876Y-74117200D01*
X106170228Y-74117200D01*
X106177464Y-75749150D01*
D13*
X56430000Y-72290000D02*
X62950000Y-72290000D01*
X62950000Y-72290000D02*
X62950000Y-52170000D01*
X62950000Y-52170000D02*
X56430000Y-52170000D01*
X56430000Y-52170000D02*
X56430000Y-72290000D01*
X59690000Y-73550000D02*
X59690000Y-72290000D01*
X59690000Y-50910000D02*
X59690000Y-52170000D01*
X115612000Y-65940000D02*
X122132000Y-65940000D01*
X122132000Y-65940000D02*
X122132000Y-45820000D01*
X122132000Y-45820000D02*
X115612000Y-45820000D01*
X115612000Y-45820000D02*
X115612000Y-65940000D01*
X118872000Y-67200000D02*
X118872000Y-65940000D01*
X118872000Y-44560000D02*
X118872000Y-45820000D01*
X122010000Y-113890000D02*
X115490000Y-113890000D01*
X115490000Y-113890000D02*
X115490000Y-134010000D01*
X115490000Y-134010000D02*
X122010000Y-134010000D01*
X122010000Y-134010000D02*
X122010000Y-113890000D01*
X118750000Y-112630000D02*
X118750000Y-113890000D01*
X118750000Y-135270000D02*
X118750000Y-134010000D01*
X68876000Y-72290000D02*
X75396000Y-72290000D01*
X75396000Y-72290000D02*
X75396000Y-52170000D01*
X75396000Y-52170000D02*
X68876000Y-52170000D01*
X68876000Y-52170000D02*
X68876000Y-72290000D01*
X72136000Y-73550000D02*
X72136000Y-72290000D01*
X72136000Y-50910000D02*
X72136000Y-52170000D01*
X90260000Y-97060000D02*
X74140000Y-97060000D01*
X90260000Y-91940000D02*
X74140000Y-91940000D01*
X90260000Y-97060000D02*
X90260000Y-91940000D01*
X74140000Y-97060000D02*
X74140000Y-91940000D01*
X90310000Y-88560000D02*
X74190000Y-88560000D01*
X90310000Y-83440000D02*
X74190000Y-83440000D01*
X90310000Y-88560000D02*
X90310000Y-83440000D01*
X74190000Y-88560000D02*
X74190000Y-83440000D01*
D14*
X148500000Y-69449900D02*
X148299340Y-69449900D01*
X148500000Y-69449900D02*
X148700660Y-69449900D01*
X148599060Y-71050100D02*
X148700660Y-71050100D01*
X148700660Y-71050100D02*
X148299340Y-71050100D01*
X82250000Y-79199900D02*
X82049340Y-79199900D01*
X82250000Y-79199900D02*
X82450660Y-79199900D01*
X82349060Y-80800100D02*
X82450660Y-80800100D01*
X82450660Y-80800100D02*
X82049340Y-80800100D01*
X82000000Y-99949900D02*
X81799340Y-99949900D01*
X82000000Y-99949900D02*
X82200660Y-99949900D01*
X82099060Y-101550100D02*
X82200660Y-101550100D01*
X82200660Y-101550100D02*
X81799340Y-101550100D01*
X98250000Y-96449900D02*
X98049340Y-96449900D01*
X98250000Y-96449900D02*
X98450660Y-96449900D01*
X98349060Y-98050100D02*
X98450660Y-98050100D01*
X98450660Y-98050100D02*
X98049340Y-98050100D01*
X141750000Y-97800100D02*
X141950660Y-97800100D01*
X141750000Y-97800100D02*
X141549340Y-97800100D01*
X141650940Y-96199900D02*
X141549340Y-96199900D01*
X141549340Y-96199900D02*
X141950660Y-96199900D01*
X148500000Y-109699900D02*
X148299340Y-109699900D01*
X148500000Y-109699900D02*
X148700660Y-109699900D01*
X148599060Y-111300100D02*
X148700660Y-111300100D01*
X148700660Y-111300100D02*
X148299340Y-111300100D01*
X117966667Y-79272381D02*
X117633333Y-78796190D01*
X117395238Y-79272381D02*
X117395238Y-78272381D01*
X117776191Y-78272381D01*
X117871429Y-78320000D01*
X117919048Y-78367619D01*
X117966667Y-78462857D01*
X117966667Y-78605714D01*
X117919048Y-78700952D01*
X117871429Y-78748571D01*
X117776191Y-78796190D01*
X117395238Y-78796190D01*
X118395238Y-78748571D02*
X118728572Y-78748571D01*
X118871429Y-79272381D02*
X118395238Y-79272381D01*
X118395238Y-78272381D01*
X118871429Y-78272381D01*
X119633334Y-78748571D02*
X119300000Y-78748571D01*
X119300000Y-79272381D02*
X119300000Y-78272381D01*
X119776191Y-78272381D01*
X120300000Y-78272381D02*
X120300000Y-78510476D01*
X120061905Y-78415238D02*
X120300000Y-78510476D01*
X120538096Y-78415238D01*
X120157143Y-78700952D02*
X120300000Y-78510476D01*
X120442858Y-78700952D01*
X121061905Y-78272381D02*
X121061905Y-78510476D01*
X120823810Y-78415238D02*
X121061905Y-78510476D01*
X121300001Y-78415238D01*
X120919048Y-78700952D02*
X121061905Y-78510476D01*
X121204763Y-78700952D01*
X69770667Y-100163381D02*
X69770667Y-100877667D01*
X69723047Y-101020524D01*
X69627809Y-101115762D01*
X69484952Y-101163381D01*
X69389714Y-101163381D01*
X70770667Y-101163381D02*
X70199238Y-101163381D01*
X70484952Y-101163381D02*
X70484952Y-100163381D01*
X70389714Y-100306238D01*
X70294476Y-100401476D01*
X70199238Y-100449095D01*
X134904762Y-61297619D02*
X134809524Y-61250000D01*
X134714286Y-61154762D01*
X134571429Y-61011905D01*
X134476190Y-60964286D01*
X134380952Y-60964286D01*
X134428571Y-61202381D02*
X134333333Y-61154762D01*
X134238095Y-61059524D01*
X134190476Y-60869048D01*
X134190476Y-60535714D01*
X134238095Y-60345238D01*
X134333333Y-60250000D01*
X134428571Y-60202381D01*
X134619048Y-60202381D01*
X134714286Y-60250000D01*
X134809524Y-60345238D01*
X134857143Y-60535714D01*
X134857143Y-60869048D01*
X134809524Y-61059524D01*
X134714286Y-61154762D01*
X134619048Y-61202381D01*
X134428571Y-61202381D01*
X135809524Y-61202381D02*
X135238095Y-61202381D01*
X135523809Y-61202381D02*
X135523809Y-60202381D01*
X135428571Y-60345238D01*
X135333333Y-60440476D01*
X135238095Y-60488095D01*
X135154762Y-128547619D02*
X135059524Y-128500000D01*
X134964286Y-128404762D01*
X134821429Y-128261905D01*
X134726190Y-128214286D01*
X134630952Y-128214286D01*
X134678571Y-128452381D02*
X134583333Y-128404762D01*
X134488095Y-128309524D01*
X134440476Y-128119048D01*
X134440476Y-127785714D01*
X134488095Y-127595238D01*
X134583333Y-127500000D01*
X134678571Y-127452381D01*
X134869048Y-127452381D01*
X134964286Y-127500000D01*
X135059524Y-127595238D01*
X135107143Y-127785714D01*
X135107143Y-128119048D01*
X135059524Y-128309524D01*
X134964286Y-128404762D01*
X134869048Y-128452381D01*
X134678571Y-128452381D01*
X135488095Y-127547619D02*
X135535714Y-127500000D01*
X135630952Y-127452381D01*
X135869048Y-127452381D01*
X135964286Y-127500000D01*
X136011905Y-127547619D01*
X136059524Y-127642857D01*
X136059524Y-127738095D01*
X136011905Y-127880952D01*
X135440476Y-128452381D01*
X136059524Y-128452381D01*
X101988095Y-59702381D02*
X101988095Y-60511905D01*
X102035714Y-60607143D01*
X102083333Y-60654762D01*
X102178571Y-60702381D01*
X102369048Y-60702381D01*
X102464286Y-60654762D01*
X102511905Y-60607143D01*
X102559524Y-60511905D01*
X102559524Y-59702381D01*
X102988095Y-59797619D02*
X103035714Y-59750000D01*
X103130952Y-59702381D01*
X103369048Y-59702381D01*
X103464286Y-59750000D01*
X103511905Y-59797619D01*
X103559524Y-59892857D01*
X103559524Y-59988095D01*
X103511905Y-60130952D01*
X102940476Y-60702381D01*
X103559524Y-60702381D01*
X101238095Y-128452381D02*
X101238095Y-129261905D01*
X101285714Y-129357143D01*
X101333333Y-129404762D01*
X101428571Y-129452381D01*
X101619048Y-129452381D01*
X101714286Y-129404762D01*
X101761905Y-129357143D01*
X101809524Y-129261905D01*
X101809524Y-128452381D01*
X102190476Y-128452381D02*
X102809524Y-128452381D01*
X102476190Y-128833333D01*
X102619048Y-128833333D01*
X102714286Y-128880952D01*
X102761905Y-128928571D01*
X102809524Y-129023810D01*
X102809524Y-129261905D01*
X102761905Y-129357143D01*
X102714286Y-129404762D01*
X102619048Y-129452381D01*
X102333333Y-129452381D01*
X102238095Y-129404762D01*
X102190476Y-129357143D01*
X87638095Y-128652381D02*
X87638095Y-129461905D01*
X87685714Y-129557143D01*
X87733333Y-129604762D01*
X87828571Y-129652381D01*
X88019048Y-129652381D01*
X88114286Y-129604762D01*
X88161905Y-129557143D01*
X88209524Y-129461905D01*
X88209524Y-128652381D01*
X89114286Y-128985714D02*
X89114286Y-129652381D01*
X88876190Y-128604762D02*
X88638095Y-129319048D01*
X89257143Y-129319048D01*
X83738095Y-59452381D02*
X83738095Y-60261905D01*
X83785714Y-60357143D01*
X83833333Y-60404762D01*
X83928571Y-60452381D01*
X84119048Y-60452381D01*
X84214286Y-60404762D01*
X84261905Y-60357143D01*
X84309524Y-60261905D01*
X84309524Y-59452381D01*
X85261905Y-59452381D02*
X84785714Y-59452381D01*
X84738095Y-59928571D01*
X84785714Y-59880952D01*
X84880952Y-59833333D01*
X85119048Y-59833333D01*
X85214286Y-59880952D01*
X85261905Y-59928571D01*
X85309524Y-60023810D01*
X85309524Y-60261905D01*
X85261905Y-60357143D01*
X85214286Y-60404762D01*
X85119048Y-60452381D01*
X84880952Y-60452381D01*
X84785714Y-60404762D01*
X84738095Y-60357143D01*
X152916667Y-80202381D02*
X152916667Y-80916667D01*
X152869047Y-81059524D01*
X152773809Y-81154762D01*
X152630952Y-81202381D01*
X152535714Y-81202381D01*
X153345238Y-80297619D02*
X153392857Y-80250000D01*
X153488095Y-80202381D01*
X153726191Y-80202381D01*
X153821429Y-80250000D01*
X153869048Y-80297619D01*
X153916667Y-80392857D01*
X153916667Y-80488095D01*
X153869048Y-80630952D01*
X153297619Y-81202381D01*
X153916667Y-81202381D01*
X95633334Y-93257143D02*
X95585715Y-93304762D01*
X95442858Y-93352381D01*
X95347620Y-93352381D01*
X95204762Y-93304762D01*
X95109524Y-93209524D01*
X95061905Y-93114286D01*
X95014286Y-92923810D01*
X95014286Y-92780952D01*
X95061905Y-92590476D01*
X95109524Y-92495238D01*
X95204762Y-92400000D01*
X95347620Y-92352381D01*
X95442858Y-92352381D01*
X95585715Y-92400000D01*
X95633334Y-92447619D01*
X95966667Y-92352381D02*
X96585715Y-92352381D01*
X96252381Y-92733333D01*
X96395239Y-92733333D01*
X96490477Y-92780952D01*
X96538096Y-92828571D01*
X96585715Y-92923810D01*
X96585715Y-93161905D01*
X96538096Y-93257143D01*
X96490477Y-93304762D01*
X96395239Y-93352381D01*
X96109524Y-93352381D01*
X96014286Y-93304762D01*
X95966667Y-93257143D01*
X139033334Y-92857143D02*
X138985715Y-92904762D01*
X138842858Y-92952381D01*
X138747620Y-92952381D01*
X138604762Y-92904762D01*
X138509524Y-92809524D01*
X138461905Y-92714286D01*
X138414286Y-92523810D01*
X138414286Y-92380952D01*
X138461905Y-92190476D01*
X138509524Y-92095238D01*
X138604762Y-92000000D01*
X138747620Y-91952381D01*
X138842858Y-91952381D01*
X138985715Y-92000000D01*
X139033334Y-92047619D01*
X139890477Y-92285714D02*
X139890477Y-92952381D01*
X139652381Y-91904762D02*
X139414286Y-92619048D01*
X140033334Y-92619048D01*
X148333334Y-50047143D02*
X148285715Y-50094762D01*
X148142858Y-50142381D01*
X148047620Y-50142381D01*
X147904762Y-50094762D01*
X147809524Y-49999524D01*
X147761905Y-49904286D01*
X147714286Y-49713810D01*
X147714286Y-49570952D01*
X147761905Y-49380476D01*
X147809524Y-49285238D01*
X147904762Y-49190000D01*
X148047620Y-49142381D01*
X148142858Y-49142381D01*
X148285715Y-49190000D01*
X148333334Y-49237619D01*
X149238096Y-49142381D02*
X148761905Y-49142381D01*
X148714286Y-49618571D01*
X148761905Y-49570952D01*
X148857143Y-49523333D01*
X149095239Y-49523333D01*
X149190477Y-49570952D01*
X149238096Y-49618571D01*
X149285715Y-49713810D01*
X149285715Y-49951905D01*
X149238096Y-50047143D01*
X149190477Y-50094762D01*
X149095239Y-50142381D01*
X148857143Y-50142381D01*
X148761905Y-50094762D01*
X148714286Y-50047143D01*
X148333334Y-118297143D02*
X148285715Y-118344762D01*
X148142858Y-118392381D01*
X148047620Y-118392381D01*
X147904762Y-118344762D01*
X147809524Y-118249524D01*
X147761905Y-118154286D01*
X147714286Y-117963810D01*
X147714286Y-117820952D01*
X147761905Y-117630476D01*
X147809524Y-117535238D01*
X147904762Y-117440000D01*
X148047620Y-117392381D01*
X148142858Y-117392381D01*
X148285715Y-117440000D01*
X148333334Y-117487619D01*
X149190477Y-117392381D02*
X149000000Y-117392381D01*
X148904762Y-117440000D01*
X148857143Y-117487619D01*
X148761905Y-117630476D01*
X148714286Y-117820952D01*
X148714286Y-118201905D01*
X148761905Y-118297143D01*
X148809524Y-118344762D01*
X148904762Y-118392381D01*
X149095239Y-118392381D01*
X149190477Y-118344762D01*
X149238096Y-118297143D01*
X149285715Y-118201905D01*
X149285715Y-117963810D01*
X149238096Y-117868571D01*
X149190477Y-117820952D01*
X149095239Y-117773333D01*
X148904762Y-117773333D01*
X148809524Y-117820952D01*
X148761905Y-117868571D01*
X148714286Y-117963810D01*
X56035334Y-114051143D02*
X55987715Y-114098762D01*
X55844858Y-114146381D01*
X55749620Y-114146381D01*
X55606762Y-114098762D01*
X55511524Y-114003524D01*
X55463905Y-113908286D01*
X55416286Y-113717810D01*
X55416286Y-113574952D01*
X55463905Y-113384476D01*
X55511524Y-113289238D01*
X55606762Y-113194000D01*
X55749620Y-113146381D01*
X55844858Y-113146381D01*
X55987715Y-113194000D01*
X56035334Y-113241619D01*
X56368667Y-113146381D02*
X57035334Y-113146381D01*
X56606762Y-114146381D01*
X67265334Y-113797143D02*
X67217715Y-113844762D01*
X67074858Y-113892381D01*
X66979620Y-113892381D01*
X66836762Y-113844762D01*
X66741524Y-113749524D01*
X66693905Y-113654286D01*
X66646286Y-113463810D01*
X66646286Y-113320952D01*
X66693905Y-113130476D01*
X66741524Y-113035238D01*
X66836762Y-112940000D01*
X66979620Y-112892381D01*
X67074858Y-112892381D01*
X67217715Y-112940000D01*
X67265334Y-112987619D01*
X67836762Y-113320952D02*
X67741524Y-113273333D01*
X67693905Y-113225714D01*
X67646286Y-113130476D01*
X67646286Y-113082857D01*
X67693905Y-112987619D01*
X67741524Y-112940000D01*
X67836762Y-112892381D01*
X68027239Y-112892381D01*
X68122477Y-112940000D01*
X68170096Y-112987619D01*
X68217715Y-113082857D01*
X68217715Y-113130476D01*
X68170096Y-113225714D01*
X68122477Y-113273333D01*
X68027239Y-113320952D01*
X67836762Y-113320952D01*
X67741524Y-113368571D01*
X67693905Y-113416190D01*
X67646286Y-113511429D01*
X67646286Y-113701905D01*
X67693905Y-113797143D01*
X67741524Y-113844762D01*
X67836762Y-113892381D01*
X68027239Y-113892381D01*
X68122477Y-113844762D01*
X68170096Y-113797143D01*
X68217715Y-113701905D01*
X68217715Y-113511429D01*
X68170096Y-113416190D01*
X68122477Y-113368571D01*
X68027239Y-113320952D01*
X145690476Y-74202381D02*
X146023809Y-75202381D01*
X146357143Y-74202381D01*
X147261905Y-75202381D02*
X146928571Y-74726190D01*
X146690476Y-75202381D02*
X146690476Y-74202381D01*
X147071429Y-74202381D01*
X147166667Y-74250000D01*
X147214286Y-74297619D01*
X147261905Y-74392857D01*
X147261905Y-74535714D01*
X147214286Y-74630952D01*
X147166667Y-74678571D01*
X147071429Y-74726190D01*
X146690476Y-74726190D01*
X147595238Y-74202381D02*
X148214286Y-74202381D01*
X147880952Y-74583333D01*
X148023810Y-74583333D01*
X148119048Y-74630952D01*
X148166667Y-74678571D01*
X148214286Y-74773810D01*
X148214286Y-75011905D01*
X148166667Y-75107143D01*
X148119048Y-75154762D01*
X148023810Y-75202381D01*
X147738095Y-75202381D01*
X147642857Y-75154762D01*
X147595238Y-75107143D01*
X145190476Y-104202381D02*
X145523809Y-105202381D01*
X145857143Y-104202381D01*
X146761905Y-105202381D02*
X146428571Y-104726190D01*
X146190476Y-105202381D02*
X146190476Y-104202381D01*
X146571429Y-104202381D01*
X146666667Y-104250000D01*
X146714286Y-104297619D01*
X146761905Y-104392857D01*
X146761905Y-104535714D01*
X146714286Y-104630952D01*
X146666667Y-104678571D01*
X146571429Y-104726190D01*
X146190476Y-104726190D01*
X147619048Y-104535714D02*
X147619048Y-105202381D01*
X147380952Y-104154762D02*
X147142857Y-104869048D01*
X147761905Y-104869048D01*
X76757143Y-137914285D02*
X76804762Y-137961904D01*
X76852381Y-138104761D01*
X76852381Y-138199999D01*
X76804762Y-138342857D01*
X76709524Y-138438095D01*
X76614286Y-138485714D01*
X76423810Y-138533333D01*
X76280952Y-138533333D01*
X76090476Y-138485714D01*
X75995238Y-138438095D01*
X75900000Y-138342857D01*
X75852381Y-138199999D01*
X75852381Y-138104761D01*
X75900000Y-137961904D01*
X75947619Y-137914285D01*
X75852381Y-137295238D02*
X75852381Y-137104761D01*
X75900000Y-137009523D01*
X75995238Y-136914285D01*
X76185714Y-136866666D01*
X76519048Y-136866666D01*
X76709524Y-136914285D01*
X76804762Y-137009523D01*
X76852381Y-137104761D01*
X76852381Y-137295238D01*
X76804762Y-137390476D01*
X76709524Y-137485714D01*
X76519048Y-137533333D01*
X76185714Y-137533333D01*
X75995238Y-137485714D01*
X75900000Y-137390476D01*
X75852381Y-137295238D01*
X76852381Y-136438095D02*
X75852381Y-136438095D01*
X76852381Y-135866666D01*
X75852381Y-135866666D01*
X76852381Y-134866666D02*
X76852381Y-135438095D01*
X76852381Y-135152381D02*
X75852381Y-135152381D01*
X75995238Y-135247619D01*
X76090476Y-135342857D01*
X76138095Y-135438095D01*
X118538095Y-78272381D02*
X118538095Y-79081905D01*
X118585714Y-79177143D01*
X118633333Y-79224762D01*
X118728571Y-79272381D01*
X118919048Y-79272381D01*
X119014286Y-79224762D01*
X119061905Y-79177143D01*
X119109524Y-79081905D01*
X119109524Y-78272381D01*
X120109524Y-79272381D02*
X119538095Y-79272381D01*
X119823809Y-79272381D02*
X119823809Y-78272381D01*
X119728571Y-78415238D01*
X119633333Y-78510476D01*
X119538095Y-78558095D01*
X121138095Y-74752381D02*
X121709524Y-74752381D01*
X121423809Y-75752381D02*
X121423809Y-74752381D01*
X122042857Y-75752381D02*
X122042857Y-74752381D01*
X122423810Y-74752381D01*
X122519048Y-74800000D01*
X122566667Y-74847619D01*
X122614286Y-74942857D01*
X122614286Y-75085714D01*
X122566667Y-75180952D01*
X122519048Y-75228571D01*
X122423810Y-75276190D01*
X122042857Y-75276190D01*
X123566667Y-75752381D02*
X122995238Y-75752381D01*
X123280952Y-75752381D02*
X123280952Y-74752381D01*
X123185714Y-74895238D01*
X123090476Y-74990476D01*
X122995238Y-75038095D01*
X120638095Y-104052381D02*
X121209524Y-104052381D01*
X120923809Y-105052381D02*
X120923809Y-104052381D01*
X121542857Y-105052381D02*
X121542857Y-104052381D01*
X121923810Y-104052381D01*
X122019048Y-104100000D01*
X122066667Y-104147619D01*
X122114286Y-104242857D01*
X122114286Y-104385714D01*
X122066667Y-104480952D01*
X122019048Y-104528571D01*
X121923810Y-104576190D01*
X121542857Y-104576190D01*
X122495238Y-104147619D02*
X122542857Y-104100000D01*
X122638095Y-104052381D01*
X122876191Y-104052381D01*
X122971429Y-104100000D01*
X123019048Y-104147619D01*
X123066667Y-104242857D01*
X123066667Y-104338095D01*
X123019048Y-104480952D01*
X122447619Y-105052381D01*
X123066667Y-105052381D01*
X58190476Y-97452381D02*
X58523809Y-98452381D01*
X58857143Y-97452381D01*
X59761905Y-98452381D02*
X59428571Y-97976190D01*
X59190476Y-98452381D02*
X59190476Y-97452381D01*
X59571429Y-97452381D01*
X59666667Y-97500000D01*
X59714286Y-97547619D01*
X59761905Y-97642857D01*
X59761905Y-97785714D01*
X59714286Y-97880952D01*
X59666667Y-97928571D01*
X59571429Y-97976190D01*
X59190476Y-97976190D01*
X60714286Y-98452381D02*
X60142857Y-98452381D01*
X60428571Y-98452381D02*
X60428571Y-97452381D01*
X60333333Y-97595238D01*
X60238095Y-97690476D01*
X60142857Y-97738095D01*
X54488095Y-40252381D02*
X54488095Y-39252381D01*
X54488095Y-39728571D02*
X55059524Y-39728571D01*
X55059524Y-40252381D02*
X55059524Y-39252381D01*
X56059524Y-40252381D02*
X55488095Y-40252381D01*
X55773809Y-40252381D02*
X55773809Y-39252381D01*
X55678571Y-39395238D01*
X55583333Y-39490476D01*
X55488095Y-39538095D01*
X154738095Y-40452381D02*
X154738095Y-39452381D01*
X154738095Y-39928571D02*
X155309524Y-39928571D01*
X155309524Y-40452381D02*
X155309524Y-39452381D01*
X155738095Y-39547619D02*
X155785714Y-39500000D01*
X155880952Y-39452381D01*
X156119048Y-39452381D01*
X156214286Y-39500000D01*
X156261905Y-39547619D01*
X156309524Y-39642857D01*
X156309524Y-39738095D01*
X156261905Y-39880952D01*
X155690476Y-40452381D01*
X156309524Y-40452381D01*
X155138095Y-133552381D02*
X155138095Y-132552381D01*
X155138095Y-133028571D02*
X155709524Y-133028571D01*
X155709524Y-133552381D02*
X155709524Y-132552381D01*
X156090476Y-132552381D02*
X156709524Y-132552381D01*
X156376190Y-132933333D01*
X156519048Y-132933333D01*
X156614286Y-132980952D01*
X156661905Y-133028571D01*
X156709524Y-133123810D01*
X156709524Y-133361905D01*
X156661905Y-133457143D01*
X156614286Y-133504762D01*
X156519048Y-133552381D01*
X156233333Y-133552381D01*
X156138095Y-133504762D01*
X156090476Y-133457143D01*
X54038095Y-139652381D02*
X54038095Y-138652381D01*
X54038095Y-139128571D02*
X54609524Y-139128571D01*
X54609524Y-139652381D02*
X54609524Y-138652381D01*
X55514286Y-138985714D02*
X55514286Y-139652381D01*
X55276190Y-138604762D02*
X55038095Y-139319048D01*
X55657143Y-139319048D01*
X78952381Y-71338095D02*
X77952381Y-71338095D01*
X78428571Y-71338095D02*
X78428571Y-70766666D01*
X78952381Y-70766666D02*
X77952381Y-70766666D01*
X78904762Y-70338095D02*
X78952381Y-70195238D01*
X78952381Y-69957142D01*
X78904762Y-69861904D01*
X78857143Y-69814285D01*
X78761905Y-69766666D01*
X78666667Y-69766666D01*
X78571429Y-69814285D01*
X78523810Y-69861904D01*
X78476190Y-69957142D01*
X78428571Y-70147619D01*
X78380952Y-70242857D01*
X78333333Y-70290476D01*
X78238095Y-70338095D01*
X78142857Y-70338095D01*
X78047619Y-70290476D01*
X78000000Y-70242857D01*
X77952381Y-70147619D01*
X77952381Y-69909523D01*
X78000000Y-69766666D01*
X78952381Y-68814285D02*
X78952381Y-69385714D01*
X78952381Y-69100000D02*
X77952381Y-69100000D01*
X78095238Y-69195238D01*
X78190476Y-69290476D01*
X78238095Y-69385714D01*
X113452381Y-71638095D02*
X112452381Y-71638095D01*
X112928571Y-71638095D02*
X112928571Y-71066666D01*
X113452381Y-71066666D02*
X112452381Y-71066666D01*
X113404762Y-70638095D02*
X113452381Y-70495238D01*
X113452381Y-70257142D01*
X113404762Y-70161904D01*
X113357143Y-70114285D01*
X113261905Y-70066666D01*
X113166667Y-70066666D01*
X113071429Y-70114285D01*
X113023810Y-70161904D01*
X112976190Y-70257142D01*
X112928571Y-70447619D01*
X112880952Y-70542857D01*
X112833333Y-70590476D01*
X112738095Y-70638095D01*
X112642857Y-70638095D01*
X112547619Y-70590476D01*
X112500000Y-70542857D01*
X112452381Y-70447619D01*
X112452381Y-70209523D01*
X112500000Y-70066666D01*
X112547619Y-69685714D02*
X112500000Y-69638095D01*
X112452381Y-69542857D01*
X112452381Y-69304761D01*
X112500000Y-69209523D01*
X112547619Y-69161904D01*
X112642857Y-69114285D01*
X112738095Y-69114285D01*
X112880952Y-69161904D01*
X113452381Y-69733333D01*
X113452381Y-69114285D01*
X125452381Y-68138095D02*
X124452381Y-68138095D01*
X124928571Y-68138095D02*
X124928571Y-67566666D01*
X125452381Y-67566666D02*
X124452381Y-67566666D01*
X125404762Y-67138095D02*
X125452381Y-66995238D01*
X125452381Y-66757142D01*
X125404762Y-66661904D01*
X125357143Y-66614285D01*
X125261905Y-66566666D01*
X125166667Y-66566666D01*
X125071429Y-66614285D01*
X125023810Y-66661904D01*
X124976190Y-66757142D01*
X124928571Y-66947619D01*
X124880952Y-67042857D01*
X124833333Y-67090476D01*
X124738095Y-67138095D01*
X124642857Y-67138095D01*
X124547619Y-67090476D01*
X124500000Y-67042857D01*
X124452381Y-66947619D01*
X124452381Y-66709523D01*
X124500000Y-66566666D01*
X124452381Y-66233333D02*
X124452381Y-65614285D01*
X124833333Y-65947619D01*
X124833333Y-65804761D01*
X124880952Y-65709523D01*
X124928571Y-65661904D01*
X125023810Y-65614285D01*
X125261905Y-65614285D01*
X125357143Y-65661904D01*
X125404762Y-65709523D01*
X125452381Y-65804761D01*
X125452381Y-66090476D01*
X125404762Y-66185714D01*
X125357143Y-66233333D01*
X78652381Y-140638095D02*
X77652381Y-140638095D01*
X78128571Y-140638095D02*
X78128571Y-140066666D01*
X78652381Y-140066666D02*
X77652381Y-140066666D01*
X78604762Y-139638095D02*
X78652381Y-139495238D01*
X78652381Y-139257142D01*
X78604762Y-139161904D01*
X78557143Y-139114285D01*
X78461905Y-139066666D01*
X78366667Y-139066666D01*
X78271429Y-139114285D01*
X78223810Y-139161904D01*
X78176190Y-139257142D01*
X78128571Y-139447619D01*
X78080952Y-139542857D01*
X78033333Y-139590476D01*
X77938095Y-139638095D01*
X77842857Y-139638095D01*
X77747619Y-139590476D01*
X77700000Y-139542857D01*
X77652381Y-139447619D01*
X77652381Y-139209523D01*
X77700000Y-139066666D01*
X77985714Y-138209523D02*
X78652381Y-138209523D01*
X77604762Y-138447619D02*
X78319048Y-138685714D01*
X78319048Y-138066666D01*
X112852381Y-140138095D02*
X111852381Y-140138095D01*
X112328571Y-140138095D02*
X112328571Y-139566666D01*
X112852381Y-139566666D02*
X111852381Y-139566666D01*
X112804762Y-139138095D02*
X112852381Y-138995238D01*
X112852381Y-138757142D01*
X112804762Y-138661904D01*
X112757143Y-138614285D01*
X112661905Y-138566666D01*
X112566667Y-138566666D01*
X112471429Y-138614285D01*
X112423810Y-138661904D01*
X112376190Y-138757142D01*
X112328571Y-138947619D01*
X112280952Y-139042857D01*
X112233333Y-139090476D01*
X112138095Y-139138095D01*
X112042857Y-139138095D01*
X111947619Y-139090476D01*
X111900000Y-139042857D01*
X111852381Y-138947619D01*
X111852381Y-138709523D01*
X111900000Y-138566666D01*
X111852381Y-137661904D02*
X111852381Y-138138095D01*
X112328571Y-138185714D01*
X112280952Y-138138095D01*
X112233333Y-138042857D01*
X112233333Y-137804761D01*
X112280952Y-137709523D01*
X112328571Y-137661904D01*
X112423810Y-137614285D01*
X112661905Y-137614285D01*
X112757143Y-137661904D01*
X112804762Y-137709523D01*
X112852381Y-137804761D01*
X112852381Y-138042857D01*
X112804762Y-138138095D01*
X112757143Y-138185714D01*
X125252381Y-139738095D02*
X124252381Y-139738095D01*
X124728571Y-139738095D02*
X124728571Y-139166666D01*
X125252381Y-139166666D02*
X124252381Y-139166666D01*
X125204762Y-138738095D02*
X125252381Y-138595238D01*
X125252381Y-138357142D01*
X125204762Y-138261904D01*
X125157143Y-138214285D01*
X125061905Y-138166666D01*
X124966667Y-138166666D01*
X124871429Y-138214285D01*
X124823810Y-138261904D01*
X124776190Y-138357142D01*
X124728571Y-138547619D01*
X124680952Y-138642857D01*
X124633333Y-138690476D01*
X124538095Y-138738095D01*
X124442857Y-138738095D01*
X124347619Y-138690476D01*
X124300000Y-138642857D01*
X124252381Y-138547619D01*
X124252381Y-138309523D01*
X124300000Y-138166666D01*
X124252381Y-137309523D02*
X124252381Y-137500000D01*
X124300000Y-137595238D01*
X124347619Y-137642857D01*
X124490476Y-137738095D01*
X124680952Y-137785714D01*
X125061905Y-137785714D01*
X125157143Y-137738095D01*
X125204762Y-137690476D01*
X125252381Y-137595238D01*
X125252381Y-137404761D01*
X125204762Y-137309523D01*
X125157143Y-137261904D01*
X125061905Y-137214285D01*
X124823810Y-137214285D01*
X124728571Y-137261904D01*
X124680952Y-137309523D01*
X124633333Y-137404761D01*
X124633333Y-137595238D01*
X124680952Y-137690476D01*
X124728571Y-137738095D01*
X124823810Y-137785714D01*
X109566667Y-102252381D02*
X109233333Y-101776190D01*
X108995238Y-102252381D02*
X108995238Y-101252381D01*
X109376191Y-101252381D01*
X109471429Y-101300000D01*
X109519048Y-101347619D01*
X109566667Y-101442857D01*
X109566667Y-101585714D01*
X109519048Y-101680952D01*
X109471429Y-101728571D01*
X109376191Y-101776190D01*
X108995238Y-101776190D01*
X109995238Y-101728571D02*
X110328572Y-101728571D01*
X110471429Y-102252381D02*
X109995238Y-102252381D01*
X109995238Y-101252381D01*
X110471429Y-101252381D01*
X111233334Y-101728571D02*
X110900000Y-101728571D01*
X110900000Y-102252381D02*
X110900000Y-101252381D01*
X111376191Y-101252381D01*
X111900000Y-101252381D02*
X111900000Y-101490476D01*
X111661905Y-101395238D02*
X111900000Y-101490476D01*
X112138096Y-101395238D01*
X111757143Y-101680952D02*
X111900000Y-101490476D01*
X112042858Y-101680952D01*
X112661905Y-101252381D02*
X112661905Y-101490476D01*
X112423810Y-101395238D02*
X112661905Y-101490476D01*
X112900001Y-101395238D01*
X112519048Y-101680952D02*
X112661905Y-101490476D01*
X112804763Y-101680952D01*
X64257143Y-53352381D02*
X63923809Y-52876190D01*
X63685714Y-53352381D02*
X63685714Y-52352381D01*
X64066667Y-52352381D01*
X64161905Y-52400000D01*
X64209524Y-52447619D01*
X64257143Y-52542857D01*
X64257143Y-52685714D01*
X64209524Y-52780952D01*
X64161905Y-52828571D01*
X64066667Y-52876190D01*
X63685714Y-52876190D01*
X65209524Y-53352381D02*
X64638095Y-53352381D01*
X64923809Y-53352381D02*
X64923809Y-52352381D01*
X64828571Y-52495238D01*
X64733333Y-52590476D01*
X64638095Y-52638095D01*
X65828571Y-52352381D02*
X65923810Y-52352381D01*
X66019048Y-52400000D01*
X66066667Y-52447619D01*
X66114286Y-52542857D01*
X66161905Y-52733333D01*
X66161905Y-52971429D01*
X66114286Y-53161905D01*
X66066667Y-53257143D01*
X66019048Y-53304762D01*
X65923810Y-53352381D01*
X65828571Y-53352381D01*
X65733333Y-53304762D01*
X65685714Y-53257143D01*
X65638095Y-53161905D01*
X65590476Y-52971429D01*
X65590476Y-52733333D01*
X65638095Y-52542857D01*
X65685714Y-52447619D01*
X65733333Y-52400000D01*
X65828571Y-52352381D01*
X123233334Y-47052381D02*
X122900000Y-46576190D01*
X122661905Y-47052381D02*
X122661905Y-46052381D01*
X123042858Y-46052381D01*
X123138096Y-46100000D01*
X123185715Y-46147619D01*
X123233334Y-46242857D01*
X123233334Y-46385714D01*
X123185715Y-46480952D01*
X123138096Y-46528571D01*
X123042858Y-46576190D01*
X122661905Y-46576190D01*
X124138096Y-46052381D02*
X123661905Y-46052381D01*
X123614286Y-46528571D01*
X123661905Y-46480952D01*
X123757143Y-46433333D01*
X123995239Y-46433333D01*
X124090477Y-46480952D01*
X124138096Y-46528571D01*
X124185715Y-46623810D01*
X124185715Y-46861905D01*
X124138096Y-46957143D01*
X124090477Y-47004762D01*
X123995239Y-47052381D01*
X123757143Y-47052381D01*
X123661905Y-47004762D01*
X123614286Y-46957143D01*
X123233334Y-115152381D02*
X122900000Y-114676190D01*
X122661905Y-115152381D02*
X122661905Y-114152381D01*
X123042858Y-114152381D01*
X123138096Y-114200000D01*
X123185715Y-114247619D01*
X123233334Y-114342857D01*
X123233334Y-114485714D01*
X123185715Y-114580952D01*
X123138096Y-114628571D01*
X123042858Y-114676190D01*
X122661905Y-114676190D01*
X124090477Y-114152381D02*
X123900000Y-114152381D01*
X123804762Y-114200000D01*
X123757143Y-114247619D01*
X123661905Y-114390476D01*
X123614286Y-114580952D01*
X123614286Y-114961905D01*
X123661905Y-115057143D01*
X123709524Y-115104762D01*
X123804762Y-115152381D01*
X123995239Y-115152381D01*
X124090477Y-115104762D01*
X124138096Y-115057143D01*
X124185715Y-114961905D01*
X124185715Y-114723810D01*
X124138096Y-114628571D01*
X124090477Y-114580952D01*
X123995239Y-114533333D01*
X123804762Y-114533333D01*
X123709524Y-114580952D01*
X123661905Y-114628571D01*
X123614286Y-114723810D01*
X76433334Y-53552381D02*
X76100000Y-53076190D01*
X75861905Y-53552381D02*
X75861905Y-52552381D01*
X76242858Y-52552381D01*
X76338096Y-52600000D01*
X76385715Y-52647619D01*
X76433334Y-52742857D01*
X76433334Y-52885714D01*
X76385715Y-52980952D01*
X76338096Y-53028571D01*
X76242858Y-53076190D01*
X75861905Y-53076190D01*
X76909524Y-53552381D02*
X77100000Y-53552381D01*
X77195239Y-53504762D01*
X77242858Y-53457143D01*
X77338096Y-53314286D01*
X77385715Y-53123810D01*
X77385715Y-52742857D01*
X77338096Y-52647619D01*
X77290477Y-52600000D01*
X77195239Y-52552381D01*
X77004762Y-52552381D01*
X76909524Y-52600000D01*
X76861905Y-52647619D01*
X76814286Y-52742857D01*
X76814286Y-52980952D01*
X76861905Y-53076190D01*
X76909524Y-53123810D01*
X77004762Y-53171429D01*
X77195239Y-53171429D01*
X77290477Y-53123810D01*
X77338096Y-53076190D01*
X77385715Y-52980952D01*
X72433334Y-92857143D02*
X72385715Y-92904762D01*
X72242858Y-92952381D01*
X72147620Y-92952381D01*
X72004762Y-92904762D01*
X71909524Y-92809524D01*
X71861905Y-92714286D01*
X71814286Y-92523810D01*
X71814286Y-92380952D01*
X71861905Y-92190476D01*
X71909524Y-92095238D01*
X72004762Y-92000000D01*
X72147620Y-91952381D01*
X72242858Y-91952381D01*
X72385715Y-92000000D01*
X72433334Y-92047619D01*
X72814286Y-92047619D02*
X72861905Y-92000000D01*
X72957143Y-91952381D01*
X73195239Y-91952381D01*
X73290477Y-92000000D01*
X73338096Y-92047619D01*
X73385715Y-92142857D01*
X73385715Y-92238095D01*
X73338096Y-92380952D01*
X72766667Y-92952381D01*
X73385715Y-92952381D01*
X72533334Y-84357143D02*
X72485715Y-84404762D01*
X72342858Y-84452381D01*
X72247620Y-84452381D01*
X72104762Y-84404762D01*
X72009524Y-84309524D01*
X71961905Y-84214286D01*
X71914286Y-84023810D01*
X71914286Y-83880952D01*
X71961905Y-83690476D01*
X72009524Y-83595238D01*
X72104762Y-83500000D01*
X72247620Y-83452381D01*
X72342858Y-83452381D01*
X72485715Y-83500000D01*
X72533334Y-83547619D01*
X73485715Y-84452381D02*
X72914286Y-84452381D01*
X73200000Y-84452381D02*
X73200000Y-83452381D01*
X73104762Y-83595238D01*
X73009524Y-83690476D01*
X72914286Y-83738095D01*
X143733334Y-66052381D02*
X143400000Y-65576190D01*
X143161905Y-66052381D02*
X143161905Y-65052381D01*
X143542858Y-65052381D01*
X143638096Y-65100000D01*
X143685715Y-65147619D01*
X143733334Y-65242857D01*
X143733334Y-65385714D01*
X143685715Y-65480952D01*
X143638096Y-65528571D01*
X143542858Y-65576190D01*
X143161905Y-65576190D01*
X144066667Y-65052381D02*
X144733334Y-65052381D01*
X144304762Y-66052381D01*
X73933334Y-79552381D02*
X73600000Y-79076190D01*
X73361905Y-79552381D02*
X73361905Y-78552381D01*
X73742858Y-78552381D01*
X73838096Y-78600000D01*
X73885715Y-78647619D01*
X73933334Y-78742857D01*
X73933334Y-78885714D01*
X73885715Y-78980952D01*
X73838096Y-79028571D01*
X73742858Y-79076190D01*
X73361905Y-79076190D01*
X74885715Y-79552381D02*
X74314286Y-79552381D01*
X74600000Y-79552381D02*
X74600000Y-78552381D01*
X74504762Y-78695238D01*
X74409524Y-78790476D01*
X74314286Y-78838095D01*
X73833334Y-100552381D02*
X73500000Y-100076190D01*
X73261905Y-100552381D02*
X73261905Y-99552381D01*
X73642858Y-99552381D01*
X73738096Y-99600000D01*
X73785715Y-99647619D01*
X73833334Y-99742857D01*
X73833334Y-99885714D01*
X73785715Y-99980952D01*
X73738096Y-100028571D01*
X73642858Y-100076190D01*
X73261905Y-100076190D01*
X74214286Y-99647619D02*
X74261905Y-99600000D01*
X74357143Y-99552381D01*
X74595239Y-99552381D01*
X74690477Y-99600000D01*
X74738096Y-99647619D01*
X74785715Y-99742857D01*
X74785715Y-99838095D01*
X74738096Y-99980952D01*
X74166667Y-100552381D01*
X74785715Y-100552381D01*
X98133334Y-95252381D02*
X97800000Y-94776190D01*
X97561905Y-95252381D02*
X97561905Y-94252381D01*
X97942858Y-94252381D01*
X98038096Y-94300000D01*
X98085715Y-94347619D01*
X98133334Y-94442857D01*
X98133334Y-94585714D01*
X98085715Y-94680952D01*
X98038096Y-94728571D01*
X97942858Y-94776190D01*
X97561905Y-94776190D01*
X98466667Y-94252381D02*
X99085715Y-94252381D01*
X98752381Y-94633333D01*
X98895239Y-94633333D01*
X98990477Y-94680952D01*
X99038096Y-94728571D01*
X99085715Y-94823810D01*
X99085715Y-95061905D01*
X99038096Y-95157143D01*
X98990477Y-95204762D01*
X98895239Y-95252381D01*
X98609524Y-95252381D01*
X98514286Y-95204762D01*
X98466667Y-95157143D01*
X141433334Y-95252381D02*
X141100000Y-94776190D01*
X140861905Y-95252381D02*
X140861905Y-94252381D01*
X141242858Y-94252381D01*
X141338096Y-94300000D01*
X141385715Y-94347619D01*
X141433334Y-94442857D01*
X141433334Y-94585714D01*
X141385715Y-94680952D01*
X141338096Y-94728571D01*
X141242858Y-94776190D01*
X140861905Y-94776190D01*
X142290477Y-94585714D02*
X142290477Y-95252381D01*
X142052381Y-94204762D02*
X141814286Y-94919048D01*
X142433334Y-94919048D01*
X148433334Y-108652381D02*
X148100000Y-108176190D01*
X147861905Y-108652381D02*
X147861905Y-107652381D01*
X148242858Y-107652381D01*
X148338096Y-107700000D01*
X148385715Y-107747619D01*
X148433334Y-107842857D01*
X148433334Y-107985714D01*
X148385715Y-108080952D01*
X148338096Y-108128571D01*
X148242858Y-108176190D01*
X147861905Y-108176190D01*
X149004762Y-108080952D02*
X148909524Y-108033333D01*
X148861905Y-107985714D01*
X148814286Y-107890476D01*
X148814286Y-107842857D01*
X148861905Y-107747619D01*
X148909524Y-107700000D01*
X149004762Y-107652381D01*
X149195239Y-107652381D01*
X149290477Y-107700000D01*
X149338096Y-107747619D01*
X149385715Y-107842857D01*
X149385715Y-107890476D01*
X149338096Y-107985714D01*
X149290477Y-108033333D01*
X149195239Y-108080952D01*
X149004762Y-108080952D01*
X148909524Y-108128571D01*
X148861905Y-108176190D01*
X148814286Y-108271429D01*
X148814286Y-108461905D01*
X148861905Y-108557143D01*
X148909524Y-108604762D01*
X149004762Y-108652381D01*
X149195239Y-108652381D01*
X149290477Y-108604762D01*
X149338096Y-108557143D01*
X149385715Y-108461905D01*
X149385715Y-108271429D01*
X149338096Y-108176190D01*
X149290477Y-108128571D01*
X149195239Y-108080952D01*
M02*
