G04 #@! TF.FileFunction,Soldermask,Bot*
%FSLAX46Y46*%
G04 Gerber Fmt 4.6, Leading zero omitted, Abs format (unit mm)*
G04 Created by KiCad (PCBNEW 4.0.6) date 09/01/17 14:50:38*
%MOMM*%
%LPD*%
G01*
G04 APERTURE LIST*
%ADD10C,0.100000*%
%ADD11C,2.430000*%
%ADD12O,3.450000X2.430000*%
%ADD13C,4.900000*%
%ADD14O,1.910000X3.410000*%
%ADD15O,2.940000X2.432000*%
%ADD16O,3.410000X1.910000*%
%ADD17R,2.400000X2.400000*%
%ADD18C,2.400000*%
%ADD19C,1.924000*%
%ADD20R,3.900000X3.900000*%
%ADD21C,2.899360*%
%ADD22C,2.740000*%
%ADD23C,6.800000*%
%ADD24C,1.000000*%
%ADD25C,3.400000*%
%ADD26C,2.800000*%
%ADD27O,2.800000X2.800000*%
%ADD28R,2.398980X2.398980*%
G04 APERTURE END LIST*
D10*
D11*
X125804199Y-98180030D02*
X124979001Y-98779570D01*
X129232199Y-92863961D02*
X128917001Y-93834039D01*
X128866201Y-86564761D02*
X129181399Y-87534839D01*
X124852001Y-81619230D02*
X125677199Y-82218770D01*
D12*
X119295600Y-80014000D03*
D11*
X113713799Y-81644630D02*
X112888601Y-82244170D01*
X109724999Y-86564761D02*
X109409801Y-87534839D01*
X109333601Y-92711561D02*
X109648799Y-93681639D01*
X112787001Y-98180030D02*
X113612199Y-98779570D01*
D13*
X119300000Y-90250000D03*
D14*
X55118000Y-103124000D03*
X57658000Y-103124000D03*
X60198000Y-103124000D03*
X62738000Y-103124000D03*
X65278000Y-103124000D03*
X67818000Y-103124000D03*
D15*
X132000000Y-56000000D03*
X132000000Y-53460000D03*
X132000000Y-58540000D03*
X132000000Y-124000000D03*
X132000000Y-121460000D03*
X132000000Y-126540000D03*
X105750000Y-55750000D03*
X105750000Y-58290000D03*
X105750000Y-53210000D03*
X105000000Y-124500000D03*
X105000000Y-127040000D03*
X105000000Y-121960000D03*
X85500000Y-124540000D03*
X85500000Y-122000000D03*
X85500000Y-127080000D03*
X87250000Y-55500000D03*
X87250000Y-58040000D03*
X87250000Y-52960000D03*
D16*
X153500000Y-96000000D03*
X153500000Y-93460000D03*
X153500000Y-90920000D03*
X153500000Y-88380000D03*
X153500000Y-85840000D03*
X153500000Y-83300000D03*
D17*
X100750000Y-86750000D03*
D18*
X95750000Y-86750000D03*
D17*
X139250000Y-86500000D03*
D18*
X144250000Y-86500000D03*
D17*
X146000000Y-55750000D03*
D18*
X151000000Y-55750000D03*
D17*
X146000000Y-124000000D03*
D18*
X151000000Y-124000000D03*
D17*
X59250000Y-122250000D03*
D18*
X59250000Y-117250000D03*
D17*
X71750000Y-122250000D03*
D18*
X71750000Y-117250000D03*
D19*
X140290000Y-75460000D03*
X142830000Y-78000000D03*
X137750000Y-78000000D03*
X140290000Y-102210000D03*
X142830000Y-104750000D03*
X137750000Y-104750000D03*
D20*
X70750000Y-128500000D03*
X70750000Y-134500000D03*
X75450000Y-131500000D03*
D11*
X123162599Y-94700230D02*
X122337401Y-95299770D01*
X125057599Y-91584961D02*
X124742401Y-92555039D01*
X124742401Y-87934961D02*
X125057599Y-88905039D01*
X122337401Y-85190230D02*
X123162599Y-85789770D01*
D12*
X119300000Y-84350000D03*
D11*
X116252599Y-85190230D02*
X115427401Y-85789770D01*
X113847599Y-87934961D02*
X113532401Y-88905039D01*
X113532401Y-91544961D02*
X113847599Y-92515039D01*
X115427401Y-94700230D02*
X116252599Y-95299770D01*
D13*
X119300000Y-90250000D03*
D21*
X125300000Y-73900000D03*
X125500000Y-105400000D03*
D22*
X57230000Y-92964000D03*
X57230000Y-87964000D03*
X57230000Y-82964000D03*
X62230000Y-92964000D03*
X62230000Y-87964000D03*
X62230000Y-82964000D03*
D23*
X59000000Y-44000000D03*
D24*
X61400000Y-44000000D03*
X60697056Y-45697056D03*
X59000000Y-46400000D03*
X57302944Y-45697056D03*
X56600000Y-44000000D03*
X57302944Y-42302944D03*
X59000000Y-41600000D03*
X60697056Y-42302944D03*
D23*
X152000000Y-44000000D03*
D24*
X154400000Y-44000000D03*
X153697056Y-45697056D03*
X152000000Y-46400000D03*
X150302944Y-45697056D03*
X149600000Y-44000000D03*
X150302944Y-42302944D03*
X152000000Y-41600000D03*
X153697056Y-42302944D03*
D23*
X152000000Y-137000000D03*
D24*
X154400000Y-137000000D03*
X153697056Y-138697056D03*
X152000000Y-139400000D03*
X150302944Y-138697056D03*
X149600000Y-137000000D03*
X150302944Y-135302944D03*
X152000000Y-134600000D03*
X153697056Y-135302944D03*
D23*
X59000000Y-137000000D03*
D24*
X61400000Y-137000000D03*
X60697056Y-138697056D03*
X59000000Y-139400000D03*
X57302944Y-138697056D03*
X56600000Y-137000000D03*
X57302944Y-135302944D03*
X59000000Y-134600000D03*
X60697056Y-135302944D03*
D25*
X88392000Y-46716000D03*
X88392000Y-64516000D03*
X106934000Y-46970000D03*
X106934000Y-64770000D03*
X130810000Y-65024000D03*
X130810000Y-47224000D03*
X84250000Y-133500000D03*
X84250000Y-115700000D03*
X106172000Y-115550000D03*
X106172000Y-133350000D03*
X130810000Y-132842000D03*
X130810000Y-115042000D03*
D26*
X59690000Y-74930000D03*
D27*
X59690000Y-49530000D03*
D26*
X118872000Y-68580000D03*
D27*
X118872000Y-43180000D03*
D26*
X118750000Y-111250000D03*
D27*
X118750000Y-136650000D03*
D26*
X72136000Y-74930000D03*
D27*
X72136000Y-49530000D03*
D18*
X87200000Y-94500000D03*
X77200000Y-94500000D03*
X87250000Y-86000000D03*
X77250000Y-86000000D03*
D28*
X154001640Y-70250000D03*
X142998360Y-70250000D03*
X87751640Y-80000000D03*
X76748360Y-80000000D03*
X87501640Y-100750000D03*
X76498360Y-100750000D03*
X103751640Y-97250000D03*
X92748360Y-97250000D03*
X136248360Y-97000000D03*
X147251640Y-97000000D03*
X154001640Y-110500000D03*
X142998360Y-110500000D03*
M02*
