M48
;DRILL file {KiCad 4.0.6} date 09/01/17 14:50:50
;FORMAT={-:-/ absolute / metric / decimal}
FMAT,2
METRIC,TZ
T1C0.500
T2C0.813
T3C1.000
T4C1.001
T5C1.020
T6C1.143
T7C1.200
T8C1.300
T9C1.500
T10C3.100
T11C3.200
%
G90
G05
M71
T1
X56.6Y-44.
X56.6Y-137.
X57.303Y-42.303
X57.303Y-45.697
X57.303Y-135.303
X57.303Y-138.697
X59.Y-41.6
X59.Y-46.4
X59.Y-134.6
X59.Y-139.4
X60.697Y-42.303
X60.697Y-45.697
X60.697Y-135.303
X60.697Y-138.697
X61.4Y-44.
X61.4Y-137.
X149.6Y-44.
X149.6Y-137.
X150.303Y-42.303
X150.303Y-45.697
X150.303Y-135.303
X150.303Y-138.697
X152.Y-41.6
X152.Y-46.4
X152.Y-134.6
X152.Y-139.4
X153.697Y-42.303
X153.697Y-45.697
X153.697Y-135.303
X153.697Y-138.697
X154.4Y-44.
X154.4Y-137.
T2
X137.75Y-78.
X137.75Y-104.75
X140.29Y-75.46
X140.29Y-102.21
X142.83Y-78.
X142.83Y-104.75
T3
X55.118Y-103.124
X57.658Y-103.124
X59.25Y-117.25
X59.25Y-122.25
X60.198Y-103.124
X62.738Y-103.124
X65.278Y-103.124
X67.818Y-103.124
X71.75Y-117.25
X71.75Y-122.25
X77.2Y-94.5
X77.25Y-86.
X87.2Y-94.5
X87.25Y-86.
X95.75Y-86.75
X100.75Y-86.75
X139.25Y-86.5
X144.25Y-86.5
X146.Y-55.75
X146.Y-124.
X151.Y-55.75
X151.Y-124.
X153.5Y-83.3
X153.5Y-85.84
X153.5Y-88.38
X153.5Y-90.92
X153.5Y-93.46
X153.5Y-96.
T4
X76.999Y-100.75
X77.249Y-80.
X87.001Y-100.75
X87.251Y-80.
X93.249Y-97.25
X103.251Y-97.25
X125.3Y-73.9
X125.5Y-105.4
X136.749Y-97.
X143.499Y-70.25
X143.499Y-110.5
X146.751Y-97.
X153.501Y-70.25
X153.501Y-110.5
T6
X85.5Y-122.
X85.5Y-124.54
X85.5Y-127.08
X87.25Y-52.96
X87.25Y-55.5
X87.25Y-58.04
X105.Y-121.96
X105.Y-124.5
X105.Y-127.04
X105.75Y-53.21
X105.75Y-55.75
X105.75Y-58.29
X132.Y-53.46
X132.Y-56.
X132.Y-58.54
X132.Y-121.46
X132.Y-124.
X132.Y-126.54
T7
X59.69Y-49.53
X59.69Y-74.93
X72.136Y-49.53
X72.136Y-74.93
X118.75Y-111.25
X118.75Y-136.65
X118.872Y-43.18
X118.872Y-68.58
T8
X57.23Y-82.964
X57.23Y-87.964
X57.23Y-92.964
X62.23Y-82.964
X62.23Y-87.964
X62.23Y-92.964
T9
X84.25Y-115.7
X84.25Y-133.5
X88.392Y-46.716
X88.392Y-64.516
X106.172Y-115.55
X106.172Y-133.35
X106.934Y-46.97
X106.934Y-64.77
X130.81Y-47.224
X130.81Y-65.024
X130.81Y-115.042
X130.81Y-132.842
T10
X119.3Y-90.25
X119.3Y-90.25
T11
X59.Y-44.
X59.Y-137.
X152.Y-44.
X152.Y-137.
T3
X69.75Y-128.5G85X71.75Y-128.5
G05
X69.75Y-134.5G85X71.75Y-134.5
G05
X75.45Y-132.5G85X75.45Y-130.5
G05
T5
X109.335Y-92.716G85X109.647Y-93.677
G05
X109.723Y-86.57G85X109.411Y-87.53
G05
X112.791Y-98.183G85X113.608Y-98.777
G05
X113.71Y-81.648G85X112.893Y-82.241
G05
X113.846Y-87.94G85X113.534Y-88.9
G05
X113.534Y-91.55G85X113.846Y-92.51
G05
X116.249Y-85.193G85X115.431Y-85.787
G05
X115.431Y-94.703G85X116.249Y-95.297
G05
X118.791Y-80.014G85X119.801Y-80.014
G05
X118.795Y-84.35G85X119.805Y-84.35
G05
X122.341Y-85.193G85X123.159Y-85.787
G05
X123.159Y-94.703G85X122.341Y-95.297
G05
X124.744Y-87.94G85X125.056Y-88.9
G05
X125.056Y-91.59G85X124.744Y-92.55
G05
X124.856Y-81.622G85X125.673Y-82.216
G05
X125.8Y-98.183G85X124.983Y-98.777
G05
X128.868Y-86.57G85X129.18Y-87.53
G05
X129.231Y-92.869G85X128.919Y-93.829
G05
T0
M30
